<?xml version="1.0" standalone="no"?>
<!DOCTYPE svg PUBLIC "-//W3C//DTD SVG 1.1//EN" "http://www.w3.org/Graphics/SVG/1.1/DTD/svg11.dtd" >
<svg>
<metadata>
Created by FontForge 20090914 at Mon Sep  7 17:54:08 2020
 By www-data
SIL Open Font License
</metadata>
<defs>
<font id="Amsdam" horiz-adv-x="574" >
  <font-face 
    font-family="Amsdam"
    font-weight="400"
    font-stretch="normal"
    units-per-em="1024"
    panose-1="0 0 0 0 0 0 0 0 0 0"
    ascent="819"
    descent="-205"
    x-height="572.999"
    cap-height="1003"
    bbox="-2232 -521.998 1316 1580"
    underline-thickness="1"
    underline-position="-2"
    unicode-range="U+000D-U+E01EF"
  />
<missing-glyph horiz-adv-x="543" 
d="M51 102h307v902h-307v-151v-751zM0 1055h410v-1004h-410v503v501z" />
    <glyph glyph-name=".notdef" horiz-adv-x="543" 
d="M51 102h307v902h-307v-151v-751zM0 1055h410v-1004h-410v503v501z" />
    <glyph glyph-name=".null" horiz-adv-x="0" 
 />
    <glyph glyph-name="nonmarkingreturn" unicode="&#xd;" horiz-adv-x="0" 
 />
    <glyph glyph-name="space" unicode=" " horiz-adv-x="410" 
 />
    <glyph glyph-name="exclam" unicode="!" horiz-adv-x="319" 
d="M198 42c0 -15.333 -5.33301 -28.666 -16 -39.999c-11.333 -11.333 -25 -17 -41 -17s-30 5.66699 -42 17c-11.333 11.333 -17 24.666 -17 39.999c0 16.667 5.66699 30.334 17 41.001c12 11.333 26 17 42 17s29.667 -5.66699 41 -17c10.667 -10.667 16 -24.334 16 -41.001z
M184 977l-2.99902 0.000976562h-3v-166c-2.66699 -90.667 -7 -227 -13 -409c0 -4 -2 -8 -6 -12c-4 -3.33301 -8.33301 -5 -13 -5h-11c-5.33301 0 -9.66602 1.66699 -12.999 5c-4 4 -6 8 -6 12c-2.66699 90.667 -7.33398 226.667 -14.001 408v149v12v2v10v2v2
c0 1.33301 0.333008 2.33301 1 3c2 33.333 10 58 24 74c13.333 16 29 24.667 47 26h6c15.333 0 28 -4.33301 38 -13c12 -9.33301 18.333 -22.333 19 -39c0.666992 -2 1 -3.66699 1 -5c0 -13.333 -4.33301 -25.333 -13 -36c-8.66699 -12.667 -22.334 -19.334 -41.001 -20.001
z" />
    <glyph glyph-name="quotedbl" unicode="&#x22;" horiz-adv-x="481" 
d="M44 699c-2 2.66699 -3.00195 5.66699 -3.00195 9v3c1.33301 4 4.33301 7.66699 9 11c2.66699 2 9.66699 8 21 18c12 10 23.667 24.333 35 43c5.33301 10 10.333 21.333 15 34s7.66699 26.667 9 42c0.666992 10.667 0.333984 20.334 -0.999023 29.001
c-1.33301 9.33301 -3.33301 17.666 -6 24.999c-3.33301 -2 -7 -3.66699 -11 -5c-3.33301 -1.33301 -7.33301 -2 -12 -2c-18.667 0 -32.667 5.66699 -42 17c-10 12 -15 25.333 -15 40c0 17.333 5.66699 31 17 41c10.667 10 25 15 43 15c20.667 0 39.334 -10.667 56.001 -32
c16 -21.333 24 -55.666 24 -102.999c0 -36.667 -6.33301 -69 -19 -97c-13.333 -27.333 -27.666 -49.333 -42.999 -66c-8 -9.33301 -15.667 -17 -23 -23s-13.333 -10.333 -18 -13s-9.33398 -4.33398 -14.001 -5.00098h-1c-3.33301 0 -6.33301 1.66699 -9 5s-6.66699 8 -12 14
zM300.998 699c-2 2.66699 -3.00098 5.66699 -3.00098 9v3c0.666992 4 3.66699 7.66699 9 11c2 2 9 8 21 18s23.333 24.333 34 43c6 10 11.333 21.333 16 34s7.66699 26.667 9 42c0.666992 10.667 0.333984 20.334 -0.999023 29.001
c-1.33301 9.33301 -3.33301 17.666 -6 24.999c-3.33301 -2 -7 -3.66699 -11 -5s-8 -2 -12 -2c-18.667 0 -33 5.66699 -43 17c-9.33301 12 -14 25.333 -14 40c0 17.333 5.33301 31 16 41c11.333 10 26 15 44 15c20.667 0 39.334 -10.667 56.001 -32
c16 -21.333 24 -55.666 24 -102.999c0 -20 -2 -38.667 -6 -56c-4.66699 -17.333 -10 -33 -16 -47c-12.667 -26.667 -27 -48 -43 -64c-16.667 -16 -29.334 -26.667 -38.001 -32c-5.33301 -2.66699 -10 -4.33398 -14 -5.00098h-1c-4 0 -7.33301 1.66699 -10 5
c-2 3.33301 -5.66699 8 -11 14z" />
    <glyph glyph-name="numbersign" unicode="#" horiz-adv-x="735" 
d="M179 295l-120.999 0.00195312c-4.66699 0 -8.66699 2 -12 6s-5 8.33301 -5 13v7c0 5.33301 1.66699 9.66602 5 12.999c3.33301 4 7.33301 6 12 6h126l45 261h-129c-5.33301 0 -9.66602 1.66699 -12.999 5c-4 4 -6 8.66699 -6 14v8c0 5.33301 2 9.66602 6 12.999
c3.33301 4 7.66602 6 12.999 6h136l57 341c0.666992 6 3 10 7 12c4 2.66699 8 4 12 4h9c5.33301 0 9.33301 -2.33301 12 -7c2.66699 -4 3.66699 -9 3 -15l-56 -335h234l58 341c0.666992 6 2.66699 10 6 12c4 2.66699 8 4 12 4h10c6 0 10 -2.33301 12 -7
c2.66699 -4 3.66699 -9 3 -15l-56 -335h119c4.66699 0 8.66699 -2 12 -6c3.33301 -3.33301 5 -7.66602 5 -12.999v-8c0 -5.33301 -1.33301 -10 -4 -14c-2.66699 -3.33301 -6.66699 -5 -12 -5h-126l-45 -261h128c5.33301 0 9.66602 -2 12.999 -6
c4 -3.33301 6 -7.66602 6 -12.999v-7c0 -4.66699 -1.66699 -9 -5 -13s-7.33301 -6 -12 -6h-137l-47 -279c-0.666992 -4.66699 -3 -8.33398 -7 -11.001c-3.33301 -3.33301 -7.33301 -5 -12 -5h-8c-6.66699 0 -11.667 1.66699 -15 5s-4 9 -2 17l47 273h-235l-46 -279
c-0.666992 -4.66699 -3 -8.33398 -7 -11.001c-3.33301 -3.33301 -7.33301 -5 -12 -5h-8c-6.66699 0 -11.667 1.66699 -15 5s-4.33301 9 -3 17zM464.001 340.002l43 261h-232l-45 -261h234z" />
    <glyph glyph-name="dollar" unicode="$" horiz-adv-x="750" 
d="M709 240c0 -44.667 -12.9971 -85.3311 -38.9971 -121.998c-26.667 -37.333 -60.667 -67 -102 -89c-22.667 -12.667 -46.667 -22.667 -72 -30c-26 -7.33301 -52.667 -11.666 -80 -12.999v-155c0 -5.33301 -2 -9.66602 -6 -12.999c-4 -2.66699 -8.66699 -4 -14 -4
s-10.666 1.33301 -15.999 4c-4.66699 2.66699 -7 7 -7 13v155c-27.333 1.33301 -53.333 5.33301 -78 12c-24 6 -46 13 -66 21c-38 16 -69 32.667 -93 50c-23.333 18 -38 29.667 -44 35c-4 3.33301 -7.33301 7.33301 -10 12v4c0 3.33301 2 8 6 14
c3.33301 4.66699 8.66602 11.334 15.999 20.001c5.33301 7.33301 11 9.66602 17 6.99902s12 -6.33398 18 -11.001l18 -15c8 -6.66699 17.667 -13.667 29 -21c21.333 -14 47.666 -27.667 78.999 -41c32 -14 68 -22.333 108 -25v430c-30.667 10 -59.334 20.333 -86.001 31
s-51 22.667 -73 36c-40.667 23.333 -72.667 52.333 -96 87c-22.667 34.667 -34 79 -34 133c0 18 2.33301 36.667 7 56c5.33301 20 13.333 39.333 24 58c20 35.333 51 66.333 93 93s97 41.667 165 45v53c0 6.66699 2.33301 11.667 7 15c4 2.66699 8.33301 4 13 4h6
c5.33301 0 9.66602 -1.66699 12.999 -5c4 -3.33301 6 -8 6 -14v-54c56.667 -3.33301 104.667 -14.333 144 -33c40 -18 64.667 -30 74 -36c26.667 -15.333 44.334 -32.333 53.001 -51c8 -18 9.33301 -35 4 -51c-6 -16.667 -15.667 -28.667 -29 -36
c-13.333 -6.66699 -28 -7.33398 -44 -2.00098c-14 5.33301 -25 14.666 -33 27.999c-7.33301 12.667 -8 28 -2 46c1.33301 2.66699 2.66602 5 3.99902 7l4 6c-12 7.33301 -34 18.333 -66 33s-68.333 23.667 -109 27c0 -70 -0.333008 -140.333 -1 -211
c-0.666992 -70 -1 -140 -1 -210c90.667 -32 162 -69 214 -111c52.667 -42.667 79 -103.334 79 -182.001zM373.003 550.003v27v379c-53.333 -2.66699 -96 -14 -128 -34s-55.667 -43 -71 -69c-8.66699 -14 -15 -28.667 -19 -44c-3.33301 -14.667 -5 -29 -5 -43
c0 -58.667 20 -103.667 60 -135c40.667 -31.333 95 -58.333 163 -81v0zM639.003 239.003c0 56.667 -20 101.331 -60 133.998c-39.333 32.667 -93.666 61.334 -162.999 86.001v-46v-365c61.333 3.33301 113.666 23.333 156.999 60c44 36.667 66 80.334 66 131.001z" />
    <glyph glyph-name="percent" unicode="%" horiz-adv-x="845" 
d="M198 623c-54.667 0 -101.334 19.333 -140.001 58c-38.667 38 -58 84.667 -58 140s19.333 102 58 140c38.667 38.667 85.334 58 140.001 58s101.334 -19.333 140.001 -58c38.667 -38 58 -84.667 58 -140s-19.333 -102 -58 -140c-38.667 -38.667 -85.334 -58 -140.001 -58z
M198 676c39.333 0 73 14 101 42c28 28.667 42 63 42 103c0 39.333 -14 73 -42 101s-61.667 42 -101 42c-40 0 -74 -14 -102 -42s-42 -61.667 -42 -101c0 -40 14 -74.333 42 -103c28 -28 62 -42 102 -42zM845 183c0 -54.667 -19.334 -101.334 -58.001 -140.001
c-39.333 -38.667 -86 -58 -140 -58c-55.333 0 -102.333 19.333 -141 58c-38 38.667 -57 85.334 -57 140.001c0 55.333 19 102.333 57 141c38.667 38.667 85.667 58 141 58c54.667 0 101.334 -19.333 140.001 -58s58 -85.667 58 -141zM789.999 183c0 39.333 -14 73 -42 101
s-61.667 42 -101 42c-40 0 -74.333 -14 -103 -42c-28 -28 -42 -61.667 -42 -101c0 -40 14 -74 42 -102c28.667 -28 63 -42 103 -42c39.333 0 73 14 101 42s42 62 42 102zM690.999 939l-525.001 -928.002c-1.33301 -3.33301 -3.66602 -6 -6.99902 -8
c-4 -1.33301 -7.33301 -2 -10 -2h-26c-6 0 -10 2.66699 -12 8c-0.666992 1.33301 -1 3 -1 5c0 3.33301 1 7 3 11l545 972v0v0c-4 0 -8 0.666992 -12 2c-4 0.666992 -7.66699 2.33398 -11 5.00098c-15.333 10.667 -23.666 23.334 -24.999 38.001
c-2 15.333 1.33301 29.333 10 42c10 14 22.333 22 37 24h8c12 0 24 -4 36 -12c17.333 -12 26.666 -31.333 27.999 -58v-4c0.666992 -26 -12 -57.667 -38 -95v0v0z" />
    <glyph glyph-name="ampersand" unicode="&#x26;" horiz-adv-x="877" 
d="M840 18c-5.33301 -4.66699 -13.0039 -12 -23.0039 -22c-6 -5.33301 -11.333 -7 -16 -5c-5.33301 2 -9.66602 4.66699 -12.999 8l-143 145c-41.333 -48 -90 -86.333 -146 -115c-55.333 -28.667 -117.333 -43 -186 -43c-86 0 -152.667 26.333 -200 79
c-48 52 -72 113.333 -72 184c0 26 3 50.333 9 73c6.66699 22.667 15.334 43.334 26.001 62.001c20.667 36 47 66.333 79 91c32.667 25.333 65.334 47 98.001 65c-4.66699 4.66699 -11.667 12.334 -21 23.001c-31.333 33.333 -60 68.666 -86 105.999
c-26.667 37.333 -39.334 79.666 -38.001 126.999c0 32.667 8.33301 66 25 100c16 33.333 41.333 61.333 76 84c18.667 12 40 21.333 64 28c24 7.33301 51 11 81 11c76.667 0 134.334 -22.333 173.001 -67c39.333 -44 59 -94 59 -150c0 -20.667 -3.66699 -40.667 -11 -60
c-6.66699 -19.333 -16.334 -37.666 -29.001 -54.999c-22.667 -32.667 -52 -62.334 -88 -89.001c-35.333 -26.667 -71.666 -49.334 -108.999 -68.001l293 -290c27.333 44 48.333 91 63 141c15.333 50.667 23 101.334 23 152.001c0 2.66699 -0.333008 6.33398 -1 11.001v13
c-3.33301 -1.33301 -6.66602 -2.33301 -9.99902 -3c-3.33301 -1.33301 -7 -1.66602 -11 -0.999023c-18.667 0.666992 -32.667 7 -42 19s-13.333 25.667 -12 41c0.666992 17.333 6.66699 30.666 18 39.999c12 9.33301 27 13.666 45 12.999c20 -1.33301 37.333 -12.333 52 -33
c15.333 -21.333 22.333 -54.333 21 -99v-1v0c0 -56.667 -9 -114.334 -27 -173.001c-18.667 -58 -44 -112 -76 -162l149 -147c6 -5.33301 9.66699 -11 11 -17c0.666992 -1.33301 1 -2.66602 1 -3.99902c0 -4.66699 -2 -8.66699 -6 -12zM265.996 613l21 -19.998l21 -22
c34 17.333 67.333 37 100 59c32.667 21.333 59 45.666 79 72.999c11.333 14.667 20 30 26 46c6.66699 16.667 10 34 10 52c0 40 -14.333 77 -43 111c-29.333 34 -73 51 -131 51c-61.333 0 -106.666 -18 -135.999 -54s-44 -74 -44 -114v-3
c-0.666992 -32.667 8.66602 -63.667 27.999 -93c20 -30.667 43 -59.334 69 -86.001zM604.996 185.002l-312 316c-46.667 -25.333 -89.667 -58 -129 -98c-40 -40.667 -60 -92 -60 -154c0 -57.333 19.667 -106 59 -146c39.333 -39.333 90 -59 152 -59
c59.333 0 113.333 12.667 162 38c49.333 26 92 60.333 128 103z" />
    <glyph glyph-name="quotesingle" unicode="'" horiz-adv-x="224" 
d="M44 698c-2 2.66699 -3.00195 5.33203 -3.00195 7.99902v3c1.33301 4 4.33301 8 9 12c2.66699 1.33301 9.66699 7 21 17c12 10 23.667 24.333 35 43c5.33301 10 10.333 21.333 15 34s7.66699 26.667 9 42c0.666992 10.667 0.333984 20.667 -0.999023 30
s-3.33301 17.333 -6 24c-3.33301 -2 -7 -3.66699 -11 -5c-3.33301 -1.33301 -7.33301 -2 -12 -2c-18.667 0 -32.667 6 -42 18c-10 11.333 -15 24.666 -15 39.999c0 16.667 5.66699 30 17 40c10.667 10 25 15 43 15c20.667 0 39.334 -10.333 56.001 -31
c16 -21.333 24 -55.666 24 -102.999c0 -37.333 -6.33301 -69.666 -19 -96.999c-13.333 -27.333 -27.666 -49.666 -42.999 -66.999c-8 -9.33301 -15.667 -17 -23 -23s-13.333 -10.333 -18 -13s-9.33398 -4.33398 -14.001 -5.00098h-1c-3.33301 0 -6.33301 1.66699 -9 5z" />
    <glyph glyph-name="parenleft" unicode="(" horiz-adv-x="568" 
d="M533 902c-14 -6 -28.3311 -6.66699 -42.998 -2c-14.667 5.33301 -25.334 16.666 -32.001 33.999c-1.33301 4 -2.33301 7.66699 -3 11c0 4 0.333008 8.33301 1 13c-0.666992 0 -1 -0.333008 -1 -1h-2c-73.333 -20 -132.666 -69.667 -177.999 -149
c-46 -80 -69 -198.667 -69 -356c0 -171.333 27 -296.666 81 -375.999c53.333 -80 122 -125.667 206 -137c4 0 7 -1.66699 9 -5c2.66699 -3.33301 3.66699 -7.33301 3 -12c-0.666992 -5.33301 -1.33398 -12.666 -2.00098 -21.999c0 -4 -1.66699 -7 -5 -9
c-2 -2 -4.66699 -3 -8 -3c-1.33301 0 -2.66602 0.333008 -3.99902 1c-53.333 2 -106 19.667 -158 53c-52 32.667 -94.333 88 -127 166c-18 42 -32 91.667 -42 149c-10.667 56.667 -16 121.667 -16 195c0 62.667 3.66699 119 11 169s17.666 94.667 30.999 134
c24.667 73.333 57 129.666 97 168.999c40 38.667 82.333 65.334 127 80.001c30 11.333 56 17 78 17c9.33301 0 17.666 -1 24.999 -3c25.333 -7.33301 42 -20.333 50 -39c4 -10 6 -19 6 -27c0 -6.66699 -1.33301 -13.334 -4 -20.001c-4.66699 -14 -15 -24 -31 -30z" />
    <glyph glyph-name="parenright" unicode=")" horiz-adv-x="591" 
d="M155 -106c-27.333 -8.66699 -50.999 -12.9961 -70.999 -12.9961c-12 0 -23 2 -33 6c-24.667 8.66699 -40.334 22.667 -47.001 42c-2.66699 8.66699 -4 16.667 -4 24c0 8 1.66699 15.667 5 23c6 13.333 17.333 22.666 34 27.999c14 4.66699 28 4.33398 42 -0.999023
c14 -6 24 -18 30 -36c1.33301 -4 2 -8 2 -12s-0.666992 -8 -2 -12h8c3.33301 0.666992 6.33301 1 9 1c76 18 137.667 67 185 147c47.333 79.333 71 199.666 71 360.999c0 171.333 -26.667 296.666 -80 375.999c-53.333 80 -121.666 125.667 -204.999 137
c-4.66699 0 -8.33398 1.66699 -11.001 5c-2 3.33301 -2.66699 7.33301 -2 12c0 5.33301 0.333008 12.666 1 21.999c0.666992 4 2.66699 7.33301 6 10c2.66699 2 7 3 13 3c53.333 -2.66699 106 -20.667 158 -54c51.333 -33.333 93.333 -89 126 -167
c18 -42 32 -91.667 42 -149c10 -56.667 15 -121.667 15 -195c0 -123.333 -13.667 -223.333 -41 -300c-26.667 -77.333 -60.667 -136.333 -102 -177c-22.667 -22.667 -46.667 -40.334 -72 -53.001s-51 -22 -77 -28z" />
    <glyph glyph-name="asterisk" unicode="*" horiz-adv-x="430" 
d="M180 608c0.666992 32.667 1.33203 81.6699 1.99902 147.003l-127 -79c-4 -2.66699 -8.33301 -3.33398 -13 -2.00098s-8.33398 4 -11.001 8c-1.33301 2.66699 -3.66602 6.66699 -6.99902 12c-2.66699 4 -3.33398 8.33301 -2.00098 13c1.33301 5.33301 4 9 8 11l130 79
l-132 79c-3.33301 2 -5.66602 5.33301 -6.99902 10c-0.666992 2 -1 3.66699 -1 5c0 3.33301 0.666992 6.33301 2 9c2 3.33301 5 8 9 14c2 4 5 6.33301 9 7c4.66699 0.666992 9.33398 -0.666016 14.001 -3.99902l128 -79c-0.666992 33.333 -1.33398 82.666 -2.00098 147.999
c0 5.33301 2 9.66602 6 12.999c3.33301 4 7.66602 6 12.999 6h11c5.33301 0 9.66602 -2 12.999 -6c4 -3.33301 6 -7.66602 6 -12.999c0 -32.667 -0.333008 -82 -1 -148l126 81c4.66699 2.66699 9.33398 3.33398 14.001 2.00098c4 -2 7.33301 -4.66699 10 -8
c2 -2.66699 4.33301 -6.33398 7 -11.001s3.33398 -9.33398 2.00098 -14.001c-0.666992 -4.66699 -3 -8.33398 -7 -11.001l-132 -80l133 -80c3.33301 -2.66699 5.66602 -6.33398 6.99902 -11.001c0.666992 -2 1 -3.66699 1 -5c0 -2.66699 -0.666992 -5 -2 -7
c-2 -3.33301 -4.33301 -7.66602 -7 -12.999c-3.33301 -4.66699 -7.33301 -7.66699 -12 -9c-5.33301 -0.666992 -10 0.333008 -14 3l-126 80c0 -32.667 0.333008 -81.667 1 -147c0 -5.33301 -2 -10 -6 -14c-3.33301 -3.33301 -7.66602 -5 -12.999 -5h-11
c-5.33301 0 -9.66602 1.66699 -12.999 5c-4 4 -6 8.66699 -6 14z" />
    <glyph glyph-name="plus" unicode="+" horiz-adv-x="631" 
d="M286 468h-247c-4.66699 0 -9 2 -13 6s-6 8.33301 -6 13v22c0 4.66699 2 9 6 13c4 3.33301 8.33301 5 13 5h247v248c0 5.33301 1.66699 9.66602 5 12.999c4 3.33301 8.33301 5 13 5h23c5.33301 0 9.66602 -1.66699 12.999 -5c4 -3.33301 6 -7.66602 6 -12.999v-248h245
c5.33301 0 9.66602 -1.66699 12.999 -5c4 -4 6 -8.33301 6 -13v-22c0 -4.66699 -2 -9 -6 -13c-3.33301 -4 -7.66602 -6 -12.999 -6h-245v-245c0 -4.66699 -2 -9 -6 -13c-3.33301 -3.33301 -7.66602 -5 -12.999 -5h-23c-4.66699 0 -9 1.66699 -13 5
c-3.33301 4 -5 8.33301 -5 13v245z" />
    <glyph glyph-name="comma" unicode="," horiz-adv-x="307" 
d="M144 101c20.667 0 39.332 -10.6709 55.999 -32.0039c16 -21.333 24 -55.666 24 -102.999c0 -37.333 -6.33301 -69.666 -19 -96.999c-13.333 -27.333 -27.666 -49.666 -42.999 -66.999c-8 -8.66699 -15.667 -16 -23 -22s-13.333 -10.667 -18 -14
c-4.66699 -2.66699 -9.33398 -4 -14.001 -4h-1c-3.33301 0 -6.33301 1.33301 -9 4l-12 15c-2 2.66699 -3 5.33398 -3 8.00098v3c0.666992 4 3.66699 8 9 12c2.66699 2 9.66699 7.66699 21 17c12 10 23.667 24.333 35 43c5.33301 10 10.333 21.333 15 34s7.66699 26.667 9 42
c0.666992 10.667 0.333984 20.667 -0.999023 30s-3.33301 17.333 -6 24c-3.33301 -2 -7 -3.66699 -11 -5c-3.33301 -1.33301 -7.33301 -2 -12 -2c-18.667 0 -32.667 6 -42 18c-10 11.333 -15 24.666 -15 39.999c0 16.667 5.66699 30.334 17 41.001c10.667 10 25 15 43 15z
" />
    <glyph glyph-name="hyphen" unicode="-" horiz-adv-x="442" 
d="M41 351v16c0 5.33301 1.66699 9.66602 5 12.999s7.33301 5 12 5h324c5.33301 0 9.66602 -1.66699 12.999 -5c4 -3.33301 6 -7.66602 6 -12.999v-16c0 -5.33301 -2 -9.66602 -6 -12.999c-3.33301 -4 -7.66602 -6 -12.999 -6h-324c-4.66699 0 -8.66699 2 -12 6
c-3.33301 3.33301 -5 7.66602 -5 12.999z" />
    <glyph glyph-name="period" unicode="." horiz-adv-x="280" 
d="M141 101c16 0 29.667 -5.66699 41 -17c10.667 -10.667 16 -24.334 16 -41.001c0 -15.333 -5.33301 -28.666 -16 -39.999c-11.333 -11.333 -25 -17 -41 -17s-30 5.66699 -42 17c-11.333 11.333 -17 24.666 -17 39.999c0 16.667 5.66699 30.334 17 41.001
c12 11.333 26 17 42 17z" />
    <glyph glyph-name="slash" unicode="/" horiz-adv-x="375" 
d="M318 993c1.33301 4 3.66699 7.00098 7 9.00098s7.33301 3 12 3h20c6 0 11 -2 15 -6c2 -2.66699 3 -5.33398 3 -8.00098c0 -2 -0.333008 -4 -1 -6l-317 -971c-1.33301 -4.66699 -4 -8 -8 -10c-3.33301 -2 -7 -3 -11 -3h-21c-6 0 -10.667 1.66699 -14 5
c-2 2 -3 4.66699 -3 8c-0 2 0.333008 4.33301 1 7z" />
    <glyph glyph-name="zero" unicode="0" horiz-adv-x="785" 
d="M41 488c0 156.667 30.667 279.667 92 369s147.666 134 258.999 134c112 0 198.667 -44.667 260 -134s92 -212.333 92 -369c0 -157.333 -30.667 -280.666 -92 -369.999s-148 -134 -260 -134c-111.333 0 -197.666 44.667 -258.999 134s-92 212.666 -92 369.999zM679 488
c0 139.333 -24.667 248 -74 326c-50 78 -121 117 -213 117s-163 -39 -213 -117s-75 -186.667 -75 -326c0 -141.333 25 -251 75 -329c50 -77.333 121 -116 213 -116s163 38.667 213 116c49.333 78 74 187.667 74 329z" />
    <glyph glyph-name="one" unicode="1" horiz-adv-x="454" 
d="M331 960l0.000976562 -614v-327c0 -5.33301 -2 -9.66602 -6 -12.999c-3.33301 -4 -7.66602 -6 -12.999 -6h-29c-4.66699 0 -9 2 -13 6c-3.33301 3.33301 -5 7.66602 -5 12.999v862l-134 -110c-0.666992 -1.33301 -1.33398 -2.33301 -2.00098 -3l-2 -2
c4 -1.33301 7.66699 -3.33301 11 -6c3.33301 -2 6.33301 -4.66699 9 -8c10.667 -15.333 14 -30.333 10 -45s-12 -26.334 -24 -35.001c-14 -10 -28.333 -13.333 -43 -10s-27.334 12.333 -38.001 27c-6.66699 10 -10 21.667 -10 35c0 8.66699 1.33301 17.667 4 27
c7.33301 25.333 29.333 51.333 66 78l176 148h21c6 0 11 -1.33301 15 -4c4.66699 -3.33301 7 -7.66602 7 -12.999z" />
    <glyph glyph-name="two" unicode="2" horiz-adv-x="689" 
d="M641 40l-0.00292969 -21.0049c0 -5.33301 -2 -9.66602 -6 -12.999c-3.33301 -4 -7.66602 -6 -12.999 -6h-562c-6 0 -10.667 1.66699 -14 5c-3.33301 4 -5 8 -5 12v26l380 382c50 50 89 98 117 144c28 46.667 42 93.334 42 140.001c0 35.333 -8 69.666 -24 102.999
c-16.667 33.333 -42 60.333 -76 81c-18 11.333 -38.667 20.333 -62 27s-49.666 10 -78.999 10c-52 0 -94.333 -11.667 -127 -35c-33.333 -23.333 -57.666 -44 -72.999 -62c2.66699 -1.33301 5.66699 -2.66602 9 -3.99902c2.66699 -2 5 -4.33301 7 -7
c12 -14.667 16.667 -29.334 14 -44.001c-3.33301 -15.333 -10.666 -27.666 -21.999 -36.999c-13.333 -10.667 -27.333 -15 -42 -13c-15.333 2.66699 -28.666 10.667 -39.999 24c-10.667 14 -15 31.333 -13 52c2.66699 20.667 15.334 43.334 38.001 68.001
c5.33301 7.33301 12.666 15.333 21.999 24c8.66699 8.66699 19 18 31 28c22 16.667 49.333 32 82 46s70.667 21 114 21c35.333 0 67.666 -3.66699 96.999 -11c30 -8 56.667 -18.667 80 -32c43.333 -25.333 76 -59.333 98 -102c22.667 -42 34 -87.333 34 -136
c0 -63.333 -17.333 -120.333 -52 -171c-34 -51.333 -77 -102.666 -129 -153.999l-327 -326h482c5.33301 0 9.66602 -2 12.999 -6c4 -3.33301 6 -7.66602 6 -12.999z" />
    <glyph glyph-name="three" unicode="3" horiz-adv-x="709" 
d="M667 262l-0.00585938 -7.00098c0 -75.333 -27.667 -138.666 -83 -189.999c-57.333 -53.333 -135.666 -80 -234.999 -80c-31.333 0 -59.666 2.66699 -84.999 8s-48 12 -68 20c-38 14.667 -68.333 32 -91 52c-22 20 -38.333 36 -49 48c-3.33301 4 -5 8.33301 -5 13
s1.66699 8.33398 5 11.001c4.66699 4.66699 12 11 22 19c5.33301 4 10 5.33301 14 4s8 -4 12 -8l43 -41c18 -17.333 42.333 -32.333 73 -45c16.667 -6.66699 35.667 -12.334 57 -17.001c22 -4 46.333 -6 73 -6c74 0 134.667 19.333 182 58
c46.667 39.333 69.334 91.666 68.001 156.999c-0.666992 24 -5 46 -13 66c-8 20.667 -18.667 39 -32 55c-24.667 29.333 -57 51.333 -97 66c-39.333 14.667 -79.333 22 -120 22h-134c-7.33301 0 -12.333 1.33301 -15 4s-4 7.66699 -4 15v26
c-0.666992 5.33301 0.666016 9.66602 3.99902 12.999c3.33301 2.66699 8.33301 4 15 4h132c18.667 0 37.667 1.66699 57 5c18.667 3.33301 37 9 55 17c32.667 13.333 60.667 34.666 84 63.999c22.667 28.667 33.667 66.334 33 113.001
c-1.33301 60.667 -23.333 109.667 -66 147c-43.333 37.333 -95.333 56 -156 56s-108.667 -12.667 -144 -38s-59.333 -45.333 -72 -60c3.33301 -1.33301 6.33301 -3 9 -5c2.66699 -1.33301 5.33398 -3.66602 8.00098 -6.99902c12 -14 16.667 -28.667 14 -44
c-2 -14.667 -9 -26.667 -21 -36c-12.667 -11.333 -26.667 -15.666 -42 -12.999c-14.667 2 -27.667 10 -39 24c-9.33301 11.333 -14 25 -14 41c0 6.66699 0.666992 13.667 2 21c5.33301 26 25.333 53.667 60 83c20.667 18.667 51 39 91 61c40.667 22 89.334 33 146.001 33
c82.667 0 151.667 -23.667 207 -71c54.667 -46.667 82.667 -108 84 -184c1.33301 -56 -14.667 -105 -48 -147c-33.333 -41.333 -69.666 -69.333 -108.999 -84v-2v-1c46.667 -14.667 90 -44 130 -88c40.667 -44 61.334 -94.667 62.001 -152z" />
    <glyph glyph-name="four" unicode="4" horiz-adv-x="870" 
d="M744 226l-3.00098 -0.00195312h-2h-5c-5.33301 -0.666992 -10.666 -1 -15.999 -1h-19v0v1h-69v-207c0 -5.33301 -2 -9.66602 -6 -12.999c-3.33301 -4 -7.66602 -6 -12.999 -6c-8.66699 0 -18.334 0.333008 -29.001 1c-11.333 0.666992 -17 6.66699 -17 18v205h-541
c-6.66699 0 -12.334 1.66699 -17.001 5s-7 9 -7 17v24l587 723h26c4.66699 0 8.33398 -1 11.001 -3s4 -6.33301 4 -13c0 -116 0.333008 -232 1 -348c0.666992 -116.667 1 -233 1 -349h84c2.66699 0.666992 5.66699 1.33398 9 2.00098l8 2c-2 4 -3.33301 7.66699 -4 11
c-1.33301 4 -2 8 -2 12c1.33301 18.667 8 32.667 20 42s25.667 13.333 41 12c17.333 -0.666992 30.666 -6.66699 39.999 -18c8.66699 -10.667 13 -24 13 -40c0 -1.33301 -0.333008 -3 -1 -5c-0.666992 -16.667 -8.66699 -32 -24 -46
c-15.333 -13.333 -38.666 -22 -69.999 -26zM567.999 877.998l-488 -596h488v596z" />
    <glyph glyph-name="five" unicode="5" horiz-adv-x="707" 
d="M666 314c0 -31.333 -4.33105 -61.668 -12.998 -91.001c-8 -29.333 -19.667 -56.666 -35 -81.999c-28.667 -46.667 -68 -84.334 -118 -113.001c-50.667 -29.333 -107.667 -44 -171 -44c-28 0 -53.667 2.33301 -77 7s-44.666 10.334 -63.999 17.001
c-35.333 13.333 -64.333 29.333 -87 48c-22 18.667 -39 35 -51 49c-5.33301 7.33301 -8.33301 13 -9 17v1c0 3.33301 2.66699 8 8 14c3.33301 2.66699 6.66602 5.66699 9.99902 9s6.66602 6.33301 9.99902 9c4 4 8.33301 5.66699 13 5c4 0 7.66699 -2.66699 11 -8
c4.66699 -5.33301 10.667 -11.666 18 -18.999c7.33301 -8 16 -16.333 26 -25c20 -15.333 45.667 -30 77 -44c32 -14 70.667 -21 116 -21c52 0 98 12.333 138 37s71.333 56.334 94 95.001c12 20.667 21.333 43 28 67c6.66699 23.333 10 47.333 10 72
c0 72 -22.667 129.667 -68 173c-44.667 44 -112 66 -202 66h-238c-8.66699 0 -15.334 3 -20.001 9c-4.66699 6.66699 -7 13.667 -7 21v374c0 5.33301 1.66699 9.66602 5 12.999c3.33301 4 7.66602 6 12.999 6h341h16c38.667 0 67.667 -6.66699 87 -20
c22 -15.333 33.667 -33.666 35 -54.999c0.666992 -17.333 -4 -32 -14 -44c-9.33301 -11.333 -22.666 -17.333 -39.999 -18c-14.667 -0.666992 -28 3.66602 -40 12.999s-18.667 23.333 -20 42c0 4 0.666992 7.66699 2 11c0.666992 3.33301 2 7 4 11h-329v-303h205
c110 0 193.333 -26 250 -78c57.333 -52.667 86 -126.334 86 -221.001z" />
    <glyph glyph-name="six" unicode="6" horiz-adv-x="738" 
d="M697 315c0 -59.333 -14.335 -113.671 -43.002 -163.004c-28 -49.333 -64.667 -88.666 -110 -117.999c-24.667 -15.333 -51 -27.333 -79 -36c-28.667 -8.66699 -58 -13 -88 -13c-39.333 0 -75.333 5.33301 -108 16c-32 10.667 -60.667 25.334 -86 44.001
c-47.333 36 -83 84.667 -107 146c-23.333 60.667 -35 128.334 -35 203.001c0 110.667 23.667 205 71 283c46.667 78 100 142 160 192c32 26.667 64 49.667 96 69s61 35 87 47c35.333 21.333 65.666 32 90.999 32h9c26.667 -3.33301 45.334 -13.666 56.001 -30.999
c9.33301 -15.333 12.333 -30.333 9 -45c-2.66699 -14.667 -11.334 -26.667 -26.001 -36c-12.667 -7.33301 -26.667 -10 -42 -8c-14.667 2.66699 -27 12 -37 28c-1.33301 2.66699 -2.66602 5.66699 -3.99902 9c-0.666992 3.33301 -1 6.66602 -1 9.99902
c-32 -12.667 -76 -36.667 -132 -72c-56 -34.667 -107.667 -80.334 -155 -137.001c-25.333 -30.667 -47.333 -64.667 -66 -102c-19.333 -36.667 -32.666 -76.667 -39.999 -120c4 5.33301 10.333 12 19 20s19.334 16.667 32.001 26c23.333 16.667 53.666 32.334 90.999 47.001
c36.667 15.333 78.667 23 126 23c53.333 0 103.333 -12.333 150 -37s84.334 -59.334 113.001 -104.001c15.333 -23.333 27.333 -49.666 36 -78.999s13 -60.666 13 -93.999zM632.998 311.995c0 49.333 -11.0029 92.999 -33.0029 130.999c-22.667 38.667 -52 69 -88 91
c-19.333 11.333 -40.333 20.333 -63 27c-22.667 6 -45.667 9 -69 9c-30.667 0 -58.667 -3.66699 -84 -11s-48.333 -16.666 -69 -27.999c-38 -20.667 -67.333 -42.667 -88 -66c-20.667 -24 -31.667 -36.667 -33 -38c-1.33301 -7.33301 -2 -14.333 -2 -21
c-0.666992 -7.33301 -1 -15 -1 -23c0 -56.667 9.33301 -110.667 28 -162c19.333 -51.333 48.333 -93 87 -125c20.667 -16.667 44.334 -30 71.001 -40c26.667 -9.33301 56 -14 88 -14c24.667 0 48.334 3.66699 71.001 11s43.667 17.333 63 30
c36.667 24 66.334 56.333 89.001 97c22 40 33 84 33 132z" />
    <glyph glyph-name="seven" unicode="7" horiz-adv-x="664" 
d="M633 960l0.000976562 -7.00391l-422 -930c-4.66699 -9.33301 -8.33398 -15.666 -11.001 -18.999c-3.33301 -2.66699 -8.66602 -4 -15.999 -4h-35c-7.33301 0 -11.333 2.66699 -12 8s0 10.333 2 15l202 440c-10.667 11.333 -25.667 23 -45 35
c-20 12.667 -44.333 20.667 -73 24c-11.333 0.666992 -21.333 0.333984 -30 -0.999023c-9.33301 -1.33301 -17.666 -3.66602 -24.999 -6.99902c2 -3.33301 3.66699 -7 5 -11c1.33301 -3.33301 2 -7.33301 2 -12c0 -18 -5.66699 -32 -17 -42c-12 -10 -25.333 -15 -40 -15
c-17.333 0 -31 5.66699 -41 17c-10 10.667 -15 25 -15 43c0 21.333 10.667 40 32 56c21.333 16.667 55.666 25 102.999 25c38 0 70.667 -7 98 -21c28 -13.333 50.333 -27.666 67 -42.999l186 406h-529c-8 0 -13.333 2 -16 6c-2 3.33301 -3 8 -3 14v21
c0 6.66699 2 11.667 6 15c3.33301 2.66699 7.66602 4 12.999 4h594c6 0 10.667 -1.66699 14 -5c4 -4 6 -8 6 -12z" />
    <glyph glyph-name="eight" unicode="8" horiz-adv-x="725" 
d="M256 498v2.00098v1c-50 14.667 -94 41.667 -132 81c-38 40 -57 88.667 -57 146c0 70.667 25 131.667 75 183c49.333 50.667 121.666 76 216.999 76c96.667 0 170.667 -25.333 222 -76c51.333 -51.333 77 -112.333 77 -183c0 -57.333 -19 -106 -57 -146
c-38 -39.333 -82 -66.333 -132 -81v-1v-2c56.667 -13.333 106.667 -41 150 -83c43.333 -41.333 65 -94.333 65 -159c0 -85.333 -30 -152 -90 -200c-60 -47.333 -138.333 -71 -235 -71c-93.333 0 -169.666 23.667 -228.999 71c-59.333 48 -89 114.667 -89 200
c0 62 21.667 114.333 65 157c43.333 43.333 93.333 71.666 150 84.999zM359 39.001c72.667 0 133.999 17.666 183.999 52.999c50 34.667 75 87.334 75 158.001c0 54 -23 101.333 -69 142c-45.333 40.667 -107.666 64 -186.999 70c-79.333 -6 -141.666 -29 -186.999 -69
c-45.333 -39.333 -68 -87 -68 -143c0 -69.333 24.667 -122 74 -158c49.333 -35.333 108.666 -53 177.999 -53zM592.999 726c0 55.333 -19.998 103.666 -59.998 144.999c-40.667 41.333 -99 62 -175 62c-74 0 -130.333 -20.667 -169 -62s-58 -89.666 -58 -144.999
s20.667 -100 62 -134c41.333 -34.667 97.666 -54.334 168.999 -59.001c71.333 4.66699 127.666 24.334 168.999 59.001c41.333 34 62 78.667 62 134z" />
    <glyph glyph-name="nine" unicode="9" horiz-adv-x="738" 
d="M247 -18c-27.333 -12.667 -51.3311 -18.998 -71.998 -18.998c-6 0 -12 0.333008 -18 1c-23.333 5.33301 -39.333 16.333 -48 33c-8.66699 16 -11.334 31.333 -8.00098 46s12.666 26 27.999 34c13.333 7.33301 27.333 9.33301 42 6c15.333 -3.33301 27.333 -13 36 -29
c2 -3.33301 3.33301 -7 4 -11c0.666992 -3.33301 0.666992 -7 0 -11h1v0c17.333 6 42 17.333 74 34c32.667 16.667 67 38.334 103 65.001c20 14.667 39.667 31 59 49c19.333 17.333 38 36.333 56 57c27.333 31.333 51.333 66.666 72 105.999c20.667 38.667 35 81 43 127
c-4 -5.33301 -10.333 -12 -19 -20c-8 -8.66699 -18.333 -17.334 -31 -26.001c-23.333 -16.667 -53.333 -32.667 -90 -48c-36.667 -14.667 -79 -22 -127 -22c-52.667 0 -102.667 12 -150 36c-46.667 24.667 -84 59.334 -112 104.001c-15.333 24 -27.333 50.667 -36 80
c-8.66699 28.667 -13 60 -13 94c0 32 4.33301 62.667 13 92s20.667 56.666 36 81.999c28.667 46.667 66.667 84.334 114 113.001c48 28.667 100.333 43 157 43c72 0 132.667 -17.667 182 -53c49.333 -34.667 86.666 -81.334 111.999 -140.001
c14 -30.667 24.333 -64.334 31 -101.001c7.33301 -36.667 11 -75 11 -115c0 -64.667 -8.66699 -123.667 -26 -177s-39.666 -101.333 -66.999 -144c-18 -28 -37.667 -53.667 -59 -77c-21.333 -24 -43 -45.667 -65 -65c-42 -36.667 -83.667 -66.667 -125 -90
c-42 -23.333 -78 -41.333 -108 -54zM631.002 556.002l2.00098 21.001v22c0 56.667 -9.33301 110.667 -28 162c-18.667 52 -47.334 93.667 -86.001 125c-20.667 17.333 -44 30.666 -70 39.999c-26.667 9.33301 -56 14 -88 14c-46 0 -88.333 -11.667 -127 -35
c-38.667 -24 -69 -55 -91 -93c-12.667 -20.667 -22.334 -43 -29.001 -67s-10 -48.667 -10 -74c0 -26.667 3.33301 -52 10 -76c6.66699 -23.333 16.334 -45 29.001 -65c22 -36 52 -64.667 90 -86s79.333 -32 124 -32c30 0 58 4 84 12c25.333 7.33301 48.333 16.333 69 27
c38 20.667 67.333 43 88 67c20.667 23.333 31.667 36 33 38z" />
    <glyph glyph-name="colon" unicode=":" horiz-adv-x="361" 
d="M123 530c0 16.667 5.66699 30.667 17 42c12 11.333 26 17 42 17s29.667 -5.66699 41 -17c10.667 -11.333 16 -25.333 16 -42c0 -15.333 -5.33301 -28.666 -16 -39.999c-11.333 -12 -25 -18 -41 -18s-30 6 -42 18c-11.333 11.333 -17 24.666 -17 39.999zM182 101
c16 0 29.667 -5.33301 41 -16c10.667 -11.333 16 -25 16 -41s-5.33301 -29.667 -16 -41c-11.333 -11.333 -25 -17 -41 -17s-30 5.66699 -42 17c-11.333 11.333 -17 25 -17 41s5.66699 29.667 17 41c12 10.667 26 16 42 16z" />
    <glyph glyph-name="semicolon" unicode=";" horiz-adv-x="388" 
d="M185 100c20.667 0 39.334 -10.667 56.001 -32c16 -20.667 24 -54.667 24 -102c0 -20.667 -2 -39.667 -6 -57s-9.33301 -33 -16 -47c-12.667 -26.667 -27 -48 -43 -64c-16.667 -16 -29.334 -26.667 -38.001 -32c-4.66699 -2.66699 -9.33398 -4.33398 -14.001 -5.00098h-1
c-3.33301 0 -6.33301 1.66699 -9 5l-12 15c-2 2.66699 -3 5.33398 -3 8.00098v3c0.666992 4 3.66699 7.66699 9 11c1.33301 1.33301 4 3.66602 8 6.99902c4.66699 3.33301 10 8 16 14c10.667 10.667 22 25.334 34 44.001c12 19.333 19.333 43.333 22 72
c0.666992 10.667 0.333984 20.667 -0.999023 30c-1.33301 8.66699 -3.33301 16.667 -6 24c-3.33301 -2 -7 -3.66699 -11 -5c-3.33301 -1.33301 -7.33301 -2 -12 -2c-18.667 0 -33 5.66699 -43 17c-9.33301 12 -14 25.333 -14 40c0 17.333 5.33301 31 16 41
c11.333 10 26 15 44 15zM125 531c0 16 5.66699 29.667 17 41s24.666 17 39.999 17c16.667 0 30.334 -5.66699 41.001 -17c11.333 -11.333 17 -25 17 -41c0 -15.333 -5.66699 -28.666 -17 -39.999c-10.667 -12 -24.334 -18 -41.001 -18c-15.333 0 -28.666 6 -39.999 18
c-11.333 11.333 -17 24.666 -17 39.999z" />
    <glyph glyph-name="less" unicode="&#x3c;" horiz-adv-x="602" 
d="M20 337v1.00391c0 4 1 7.66699 3 11c2 2.66699 6 6 12 10l506 321c3.33301 2 6 3 8 3s4 -0.666992 6 -2c4 -2.66699 6 -7.66699 6 -15v-33c0 -3.33301 -0.666992 -7 -2 -11c-1.33301 -4.66699 -4.33301 -8.33398 -9 -11.001l-436 -274l436 -265
c4.66699 -3.33301 7.66699 -7 9 -11c1.33301 -4.66699 2 -8.33398 2 -11.001v-33c0 -8 -2 -13.333 -6 -16c-2 -0.666992 -4 -1 -6 -1s-4.66699 1 -8 3l-506 311c-6 3.33301 -10 6.66602 -12 9.99902s-3 7.66602 -3 12.999z" />
    <glyph glyph-name="equal" unicode="=" horiz-adv-x="550" 
d="M20 544v25c0 4.66699 1.33301 9 4 13c2 3.33301 7 5 15 5h452c4.66699 0 9 -1.66699 13 -5c3.33301 -4 5 -8.33301 5 -13v-25c0 -4.66699 -1.66699 -9 -5 -13c-4 -3.33301 -8.33301 -5 -13 -5h-452c-8 0 -13 1.66699 -15 5c-2.66699 4 -4 8.33301 -4 13zM20 246v25
c0 4.66699 1.33301 9 4 13c2 3.33301 7 5 15 5h452c4.66699 0 9 -1.66699 13 -5c3.33301 -4 5 -8.33301 5 -13v-25c0 -4.66699 -1.66699 -9 -5 -13c-4 -3.33301 -8.33301 -5 -13 -5h-452c-8 0 -13 1.66699 -15 5c-2.66699 4 -4 8.33301 -4 13z" />
    <glyph glyph-name="greater" unicode="&#x3e;" horiz-adv-x="602" 
d="M41 50c0 3.33301 0.666992 6.99707 2 10.9971c1.33301 4.66699 4.33301 8.33398 9 11.001l437 265l-437 274c-4.66699 3.33301 -7.66699 7 -9 11c-1.33301 4.66699 -2 8.33398 -2 11.001v33c0 8 2 13.333 6 16c2 0.666992 4 1 6 1c2.66699 0 5.33398 -1 8.00098 -3
l506 -321c6 -4 10 -7.33301 12 -10c2 -3.33301 3 -6.66602 3 -9.99902v-2c0 -4.66699 -1 -8.66699 -3 -12s-6 -7 -12 -11l-506 -311c-2.66699 -2 -5.33398 -3 -8.00098 -3c-2 0 -4 0.666992 -6 2c-4 2.66699 -6 7.66699 -6 15v33z" />
    <glyph glyph-name="question" unicode="?" horiz-adv-x="609" 
d="M353 44c0 -15.333 -5.66699 -28.666 -17 -39.999s-25 -17 -41 -17s-29.667 5.66699 -41 17s-17 24.666 -17 39.999c0 16.667 5.66699 30.334 17 41.001c11.333 11.333 25 17 41 17s29.667 -5.66699 41 -17c11.333 -10.667 17 -24.334 17 -41.001zM569 817
c0 -21.333 -2.99609 -40.6709 -8.99609 -58.0039c-6 -18 -13.667 -34.333 -23 -49c-18 -27.333 -40.333 -50.666 -67 -69.999l-74 -54c-19.333 -14 -35.666 -28.333 -48.999 -43c-12.667 -14 -19 -30 -19 -48v-82c0 -6.66699 -1.66699 -11.667 -5 -15
c-2.66699 -3.33301 -7.33398 -5 -14.001 -5h-27c-6.66699 0 -11.334 2 -14.001 6c-2 4 -3 8.66699 -3 14v83c0 24.667 6.33301 46 19 64c12.667 18.667 28.667 36.334 48 53.001l39 30l41 30c24.667 18.667 46 39 64 61c18.667 22 28 48.333 28 79
c0 37.333 -15.333 71.666 -46 102.999c-30 30.667 -73.333 46 -130 46c-22.667 0 -43 -2 -61 -6c-18 -4.66699 -34.333 -10.334 -49 -17.001c-27.333 -12.667 -48.666 -26.667 -63.999 -42c-14.667 -16 -25 -27 -31 -33l-2 -4c-0.666992 -0.666992 -1 -1.66699 -1 -3
c4 -1.33301 7.66699 -2.66602 11 -3.99902c3.33301 -2 6.66602 -4.33301 9.99902 -7c13.333 -13.333 19.666 -27.333 18.999 -42c-1.33301 -15.333 -7.33301 -28.333 -18 -39c-12 -12.667 -25.333 -18.667 -40 -18c-15.333 0.666992 -29.333 7.33398 -42 20.001
c-12.667 12 -19 28.333 -19 49c0 2.66699 0.333008 5.33398 1 8.00098c1.33301 24 15.666 51.667 42.999 83l17 19c7.33301 8 16.666 16.333 27.999 25c20.667 16.667 47.667 32.334 81 47.001s73.666 22 120.999 22c72.667 0 130.334 -19 173.001 -57s64 -86.667 64 -146z
" />
    <glyph glyph-name="at" unicode="@" horiz-adv-x="1367" 
d="M1316 416c0 -33.333 -1.99512 -67.3281 -5.99512 -101.995c-4.66699 -35.333 -12 -69.666 -22 -102.999c-18 -61.333 -48 -114 -90 -158s-100.667 -66 -176 -66c-47.333 0 -84 11 -110 33s-43 48.667 -51 80c-12 -19.333 -35 -43 -69 -71s-79.333 -42 -136 -42
c-77.333 0 -140.666 28.333 -189.999 85c-50 57.333 -75 130.333 -75 219c0 58.667 12.333 110 37 154c24.667 44.667 57 79 97 103c21.333 13.333 44.333 23.666 69 30.999c25.333 6.66699 51.333 10 78 10c20.667 0 39.334 -1.66699 56.001 -5
c17.333 -3.33301 32.333 -7.33301 45 -12c25.333 -10 44.333 -20 57 -30l19 -16c0.666992 7.33301 2 18 4 32c0.666992 5.33301 2.33398 9.66602 5.00098 12.999c2.66699 2.66699 7.66699 4 15 4h14c5.33301 0 9.66602 -2 12.999 -6c4 -3.33301 6 -7.66602 6 -12.999v-360
c0 -54 10.333 -93.667 31 -119c20.667 -24.667 50 -37 88 -37c28 0 53.333 5 76 15c22.667 10.667 43 25 61 43c32.667 34 57 79 73 135c16 56.667 24 117.667 24 183c0 54.667 -6 107 -18 157c-12 49.333 -29.333 95 -52 137c-42.667 78.667 -104.334 141 -185.001 187
s-179 69 -295 69c-64 0 -124 -7.33301 -180 -22c-55.333 -15.333 -106 -37.333 -152 -66c-84.667 -53.333 -150.667 -128 -198 -224c-46.667 -95.333 -70 -205.666 -70 -330.999c0 -142.667 37.333 -264.334 112 -365.001s170.667 -176 288 -226
c0 -0.666992 0.333008 -1 1 -1s1 -0.333008 1 -1h1v0c0 4.66699 0.333008 8.66699 1 12c0.666992 4 2 8 4 12c8.66699 16 20.667 25.667 36 29c14.667 2.66699 28.667 0.666992 42 -6c15.333 -8.66699 24.666 -20.334 27.999 -35.001c3.33301 -14 0.666016 -29 -8.00098 -45
s-23.667 -26.667 -45 -32c-6.66699 -2 -13.334 -3 -20.001 -3c-18 0 -39 5 -63 15v0v0c-82.667 35.333 -156.334 82.666 -221.001 141.999s-115.667 129 -153 209c-20 43.333 -35.333 89.666 -46 138.999s-16 101.333 -16 156c0 71.333 7.66699 138.666 23 201.999
s37.666 121.666 66.999 174.999c54 98.667 129.667 176.667 227 234s211.666 86 342.999 86c66.667 0 128.667 -7.66699 186 -23c56.667 -15.333 108 -37 154 -65c85.333 -52 151 -123 197 -213c45.333 -90 68 -191 68 -303zM846.005 179.005v270.999
c-0.666992 1.33301 -3 4.33301 -7 9c-3.33301 4.66699 -8.66602 10.334 -15.999 17.001c-12.667 12 -31.334 24.333 -56.001 37s-55.334 19 -92.001 19c-60.667 0 -113 -22 -157 -66c-43.333 -43.333 -65 -101.666 -65 -174.999s19.667 -132.333 59 -177
c38.667 -44.667 88.334 -67 149.001 -67c22 0 41.667 3 59 9c18 5.33301 33.667 12.666 47 21.999c25.333 16 44 34.667 56 56c12 20.667 19.667 35.667 23 45v0z" />
    <glyph glyph-name="A" unicode="A" horiz-adv-x="954" 
d="M919 -1h-38.002c-4.66699 0 -8.66699 1.33301 -12 4c-4 2.66699 -6.66699 5.33398 -8 8.00098l-116 264h-390c-2 0 -3.66699 -0.333008 -5 -1c-2 -0.666992 -3.66699 -1 -5 -1c2 -4 3.33301 -8 4 -12c1.33301 -3.33301 2 -7.33301 2 -12
c-1.33301 -18.667 -8 -32.334 -20 -41.001c-12 -9.33301 -25.667 -13.666 -41 -12.999c-16.667 0.666992 -30 7 -40 19c-9.33301 11.333 -13.333 26 -12 44c0.666992 20.667 11.667 38.334 33 53.001c22 15.333 56 22 102 20h348l-246 579h-3l-390 -899
c-1.33301 -2.66699 -3.66602 -5.33398 -6.99902 -8.00098s-7.66602 -4 -12.999 -4h-40c-5.33301 0 -8.66602 1.33301 -9.99902 4c-1.33301 1.33301 -2 3 -2 5s0.666992 4.66699 2 8l442 998c1.33301 3.33301 3.66602 5.66602 6.99902 6.99902c3.33301 2 6.66602 3 9.99902 3
h4c4 0 7.66699 -0.333008 11 -1c3.33301 -1.33301 6 -4.33301 8 -9l438 -998c0.666992 -2.66699 1 -5 1 -7s-0.333008 -3.66699 -1 -5c-1.33301 -3.33301 -5.66602 -5 -12.999 -5z" />
    <glyph glyph-name="B" unicode="B" horiz-adv-x="776" 
d="M735 271c0 -80 -29.3311 -145.333 -87.998 -196s-134.667 -76 -228 -76h-92v0c-46 -1.33301 -79.667 5.66699 -101 21c-21.333 16 -32.333 34 -33 54c-0.666992 18 4 32.667 14 44c9.33301 12 22.666 18.333 39.999 19c14.667 0 28 -4.66699 40 -14
s18.333 -23.333 19 -42c0 -4 -0.333008 -8 -1 -12c-1.33301 -3.33301 -3 -6.66602 -5 -9.99902h125c69.333 0 126 20 170 60c44.667 40 67 91.333 67 154c0 63.333 -24 113 -72 149s-106 54 -174 54h-268v-459c0 -5.33301 -2 -9.66602 -6 -12.999
c-4.66699 -3.33301 -9.33398 -5 -14.001 -5h-27c-5.33301 0 -9.66602 1.66699 -12.999 5c-4 4 -6 8.33301 -6 13v363v604c0 5.33301 1.66699 9.66602 5 12.999c4 4 8.66699 6 14 6h305c88.667 0 160.334 -23.667 215.001 -71s82 -110.333 82 -189
c0 -56.667 -15 -105 -45 -145c-30.667 -40 -68.334 -69 -113.001 -87c51.333 -14 95.666 -40.333 132.999 -79c38 -38.667 57 -92.334 57 -161.001zM416.002 538c67.333 0 120.001 19 158.001 57c37.333 38 56 86.333 56 145c0 62.667 -20 111.667 -60 147
c-40.667 35.333 -95.334 53 -164.001 53h-257v-402h267z" />
    <glyph glyph-name="C" unicode="C" horiz-adv-x="985" 
d="M917 790c-8 -16.667 -18.999 -27.6689 -32.999 -33.002s-28.667 -4.33301 -44 3c-13.333 6.66699 -23 17 -29 31s-5 29.333 3 46c1.33301 2.66699 3 5.33398 5 8.00098l6 6c-39.333 32 -83 57 -131 75c-48 18.667 -99.333 28 -154 28
c-81.333 0 -155.666 -20 -222.999 -60c-66.667 -39.333 -119.667 -91.333 -159 -156c-20.667 -34.667 -36.667 -72 -48 -112c-12 -40 -18 -82 -18 -126c0 -42.667 6 -84 18 -124c11.333 -40 27.333 -77.333 48 -112c39.333 -64 92.333 -115.667 159 -155s141 -59 223 -59
c61.333 0 116.333 11 165 33c48.667 22.667 94.667 51.667 138 87c4 4 8 6 12 6c4 0.666992 7.66699 -0.333008 11 -3l24 -24c3.33301 -2.66699 5 -6.66699 5 -12c0 -4.66699 -1.66699 -8.66699 -5 -12c-48.667 -47.333 -103.334 -82.666 -164.001 -105.999
c-60 -22.667 -122 -34 -186 -34c-93.333 0 -179 22.333 -257 67c-77.333 44 -139 102.333 -185 175c-24.667 39.333 -43.667 82.333 -57 129c-14 46 -21 94 -21 144c0 50.667 7 99 21 145c13.333 46 32.333 89 57 129c46 73.333 108 132.333 186 177
c77.333 44.667 162.666 67 255.999 67c73.333 0 138 -11.667 194 -35c56.667 -23.333 108 -56 154 -98l2 -2c0.666992 -0.666992 1 -1.33398 1 -2.00098c16.667 -16 27 -32 31 -48c0.666992 -5.33301 1 -10.666 1 -15.999c0 -10 -2 -19 -6 -27z" />
    <glyph glyph-name="D" unicode="D" horiz-adv-x="950" 
d="M908 502c0 -48.667 -6.66602 -95.667 -19.999 -141c-13.333 -44.667 -32 -86.334 -56 -125.001c-44.667 -71.333 -104.667 -128.666 -180 -171.999s-158.333 -65 -249 -65h-75v0c-45.333 -0.666992 -78.333 6.66602 -99 21.999s-31.334 33 -32.001 53
c-0.666992 18 3.66602 33 12.999 45c10 11.333 23.667 17.333 41 18c14.667 0 28 -4.66699 40 -14s18.333 -23.333 19 -42c0 -4 -0.333008 -7.66699 -1 -11l-4 -10h87c44 0 86 5.66699 126 17c39.333 11.333 76.333 27.333 111 48c62.667 38 113 90 151 156
s57 139.667 57 221c0 80.667 -19 153.667 -57 219s-88.333 117.333 -151 156c-34 20 -71 35.667 -111 47s-82 17 -126 17h-243v-924c0 -5.33301 -2 -9.66602 -6 -12.999c-4.66699 -3.33301 -9.33398 -5 -14.001 -5h-28c-5.33301 0 -9.66602 1.66699 -12.999 5
c-4 4 -6 8.33301 -6 13v363v604c0 5.33301 1.66699 9.66602 5 12.999c4 4 8 6 12 6h304c48.667 0 95.667 -6.66699 141 -20c44.667 -13.333 86.334 -31.666 125.001 -54.999c72 -44.667 129.667 -104.334 173 -179.001c44 -75.333 66 -157.666 66 -246.999z" />
    <glyph glyph-name="E" unicode="E" horiz-adv-x="735" 
d="M151 943l0.00195312 -395.998h455c4.66699 0 9 -2 13 -6c3.33301 -4 5 -8.33301 5 -13v-24c0 -5.33301 -1.66699 -10 -5 -14c-4 -3.33301 -8.33301 -5 -13 -5h-455v-425h436c-2 3.33301 -3.33301 7 -4 11c-1.33301 3.33301 -2 7 -2 11c1.33301 18.667 8 32.667 20 42
s25.667 13.666 41 12.999c17.333 -1.33301 30.666 -7.66602 39.999 -18.999c8.66699 -10.667 13 -24 13 -40c0 -1.33301 -0.333008 -3 -1 -5c-0.666992 -18.667 -10.334 -35.334 -29.001 -50.001c-18 -14 -46.667 -21.667 -86 -23v0h-478c-5.33301 0 -10 2 -14 6
c-3.33301 3.33301 -5 7.66602 -5 12.999v362v605c0 4.66699 1.66699 9 5 13c4 3.33301 8.66699 5 14 5h575c4.66699 0 9 -1.66699 13 -5c4 -4 6 -8.33301 6 -13v-25c0 -4.66699 -2 -9 -6 -13c-4 -3.33301 -8.33301 -5 -13 -5h-525z" />
    <glyph glyph-name="F" unicode="F" horiz-adv-x="735" 
d="M694 929c0.666992 -1.33301 1.00098 -2.66699 1.00098 -4c0 -16 -4.66699 -29.333 -14 -40c-9.33301 -12 -22.666 -18.333 -39.999 -19c-14.667 -0.666992 -28 3.66602 -40 12.999s-18.667 23.333 -20 42c0 4 0.666992 7.66699 2 11
c0.666992 3.33301 1.66699 6.66602 3 9.99902h-435v-436h455c4.66699 0 9 -2 13 -6c3.33301 -3.33301 5 -7.66602 5 -12.999c0 -8 -0.333008 -17 -1 -27s-6.33398 -15 -17.001 -15h-455c-0.666992 -94.667 -1.33398 -237 -2.00098 -427c0 -5.33301 -2 -9.66602 -6 -12.999
c-4 -4 -9.66699 -6 -17 -6h-25c-5.33301 0 -10 2 -14 6c-3.33301 3.33301 -5 7.66602 -5 12.999v363v604c0 4.66699 1.66699 9 5 13c4 4 8.66699 6 14 6h467v-1c43.333 0.666992 75 -6.66602 95 -21.999c20 -14.667 30.333 -32 31 -52z" />
    <glyph glyph-name="G" unicode="G" horiz-adv-x="1008" 
d="M829 845c-39.333 34 -83.667 61.0029 -133 81.0029c-49.333 19.333 -102 29 -158 29c-43.333 0 -85 -6 -125 -18s-77 -28.667 -111 -50c-63.333 -40 -114 -94 -152 -162c-38.667 -67.333 -58 -141.333 -58 -222c0 -43.333 6 -85 18 -125
c11.333 -40.667 27.333 -78 48 -112c39.333 -64.667 92.333 -116.667 159 -156s140.334 -59 221.001 -59c57.333 0 107 5.66699 149 17c42.667 11.333 76.334 23 101.001 35c14 6 25 11.667 33 17c8 4.66699 13.333 8 16 10v270h-246c-7.33301 0 -12.333 1.33301 -15 4
c-2 3.33301 -3 8 -3 14v29c0 6 1 10.333 3 13c2.66699 2.66699 7.66699 4 15 4h295c4.66699 0 9 -1.66699 13 -5c3.33301 -3.33301 5 -7.33301 5 -12v-333c0 -10.667 -2 -18.334 -6 -23.001c-3.33301 -5.33301 -8 -10 -14 -14c-4.66699 -3.33301 -12.334 -8 -23.001 -14
s-24 -12.667 -40 -20c-30.667 -13.333 -70 -26.333 -118 -39s-102.333 -19 -163 -19c-50.667 0 -99 6.66699 -145 20c-46.667 13.333 -89.667 32 -129 56c-74 45.333 -133.333 106.333 -178 183c-45.333 77.333 -68 162.666 -68 255.999c0 50.667 7 99 21 145
c13.333 46 32.333 88.667 57 128c46 74 107.667 133.333 185 178s163 67 257 67c65.333 0 124 -9.66699 176 -29c52.667 -19.333 100.667 -46.333 144 -81c34 -24.667 54.333 -48.667 61 -72c2.66699 -9.33301 4 -18 4 -26c0.666992 -12.667 -2.33301 -24 -9 -34
c-10 -14.667 -22 -24 -36 -28c-14.667 -4 -29.334 -1.33301 -44.001 8c-12.667 8 -21 19.333 -25 34c-4.66699 14.667 -2 29.667 8 45c1.33301 2 3 4 5 6c1.33301 1.33301 3 2.66602 5 3.99902z" />
    <glyph glyph-name="H" unicode="H" horiz-adv-x="943" 
d="M149 17c0 -4.66699 -1.66699 -9 -5 -13c-3.33301 -3.33301 -7.66602 -5 -12.999 -5h-30c-5.33301 0 -10 1.66699 -14 5c-3.33301 4 -5 8.33301 -5 13v363v604c0 5.33301 1.66699 9.66602 5 12.999c4 4 8.66699 6 14 6h30c5.33301 0 9.66602 -2 12.999 -6
c3.33301 -3.33301 5 -7.66602 5 -12.999v-967zM861 984l0.000976562 -967.001c0 -4.66699 -1.66699 -9 -5 -13c-3.33301 -3.33301 -8 -5 -14 -5h-30c-4.66699 0 -9 1.66699 -13 5c-3.33301 4 -5 8.33301 -5 13v466h-486c2 -3.33301 3.33301 -6.66602 4 -9.99902
c1.33301 -3.33301 1.66602 -7 0.999023 -11c-0.666992 -18.667 -7.33398 -32.667 -20.001 -42c-12 -8.66699 -25.333 -12.667 -40 -12c-17.333 0.666992 -30.666 7 -39.999 19c-8.66699 10.667 -13 23.667 -13 39v5c1.33301 20.667 13 38.667 35 54
c21.333 14.667 55.333 21 102 19h457v440c0 5.33301 1.66699 9.66602 5 12.999c4 4 8.33301 6 13 6h30c6 0 10.667 -2 14 -6c3.33301 -3.33301 5 -7.66602 5 -12.999z" />
    <glyph glyph-name="I" unicode="I" horiz-adv-x="233" 
d="M82 984c0 5.33301 1.66895 9.66504 5.00195 12.998c4 4 8.66699 6 14 6h31c5.33301 0 9.66602 -2 12.999 -6c4 -3.33301 6 -7.66602 6 -12.999v-967c0 -5.33301 -2 -9.66602 -6 -12.999c-4.66699 -3.33301 -9.33398 -5 -14.001 -5h-30c-5.33301 0 -10 1.66699 -14 5
c-3.33301 4 -5 8.33301 -5 13v363v604z" />
    <glyph glyph-name="J" unicode="J" 
d="M532 986l0.00195312 -683.001c0 -100 -25 -177.667 -75 -233c-50 -56 -117.667 -84 -203 -84c-56 0 -101.333 11.667 -136 35c-34 23.333 -58.667 44 -74 62c-26 27.333 -40.333 52.333 -43 75c-0.666992 4.66699 -1 9 -1 13c0 16.667 5 30.667 15 42
c12 14 25.333 21.667 40 23c14.667 2 28.667 -2.66699 42 -14c11.333 -10 18 -22.667 20 -38c2 -14.667 -3 -29 -15 -43c-2.66699 -2.66699 -5.33398 -5 -8.00098 -7s-5.66699 -3.33301 -9 -4c16 -16.667 37.333 -34.667 64 -54s62 -29 106 -29
c61.333 0 111.666 21 150.999 63c39.333 42.667 59 106.667 59 192v684c0 6 2 10.667 6 14c3.33301 3.33301 8 5 14 5h29c4.66699 0 9 -2 13 -6c3.33301 -3.33301 5 -7.66602 5 -12.999z" />
    <glyph glyph-name="K" unicode="K" 
d="M637 -1l-46.001 0.000976562c-6.66699 0 -12 0.666992 -16 2c-4.66699 2 -9.66699 6 -15 12l-491 476v-472c0 -7.33301 -2.33301 -12.333 -7 -15c-4 -2 -9 -3 -15 -3h-28c-6 0 -10.667 1.66699 -14 5s-5 7.66602 -5 12.999v362v602c0 6.66699 2 12 6 16s9.33301 6 16 6
h25c6.66699 0 12 -2 16 -6s6 -9.33301 6 -16v-443l395 368c-2.66699 1.33301 -5 3 -7 5c-2.66699 2 -5 4.33301 -7 7c-10.667 14.667 -14 29.667 -10 45c3.33301 14.667 11.333 26.334 24 35.001c10.667 7.33301 21.334 11 32.001 11c3.33301 0 7 -0.333008 11 -1
c14.667 -3.33301 27 -12.333 37 -27c12 -16 14.333 -36.667 7 -62c-6.66699 -24.667 -28 -50.334 -64 -77.001l-352 -327l515 -492c2.66699 -2.66699 4 -6 4 -10v-5c-2 -6 -7.66699 -9 -17 -9z" />
    <glyph glyph-name="L" unicode="L" horiz-adv-x="646" 
d="M626 72c-1.33301 -20.667 -12.6689 -38.333 -34.002 -53c-21.333 -15.333 -54.666 -22 -99.999 -20h-1h-390c-5.33301 0 -10 1.66699 -14 5c-3.33301 4 -5 8.33301 -5 13v363v604c0 5.33301 1.66699 9.66602 5 12.999c4 4 8.66699 6 14 6h31c4.66699 0 8.66699 -2 12 -6
c3.33301 -3.33301 5 -7.66602 5 -12.999v-925h369c-2 3.33301 -3.33301 6.66602 -4 9.99902c-1.33301 4 -1.66602 8 -0.999023 12c0.666992 18.667 7 32.334 19 41.001c12.667 9.33301 26.334 13.666 41.001 12.999c17.333 -1.33301 30.666 -7.66602 39.999 -18.999
c8.66699 -10.667 13 -24 13 -40v-4z" />
    <glyph glyph-name="M" unicode="M" horiz-adv-x="1094" 
d="M1032 6c-16.667 -7.33301 -32.0049 -8.33203 -46.0049 -2.99902s-24.333 15.666 -31 30.999c-5.33301 14 -5.66602 28.333 -0.999023 43s15.334 25.334 32.001 32.001c3.33301 1.33301 6.33301 2.33301 9 3h9l-144 744h-2h-1l-290 -859
c-1.33301 -4.66699 -3.66602 -7.66699 -6.99902 -9c-4 -2 -8.33301 -3 -13 -3h-5c-4 0 -7.66699 0.666992 -11 2c-4 1.33301 -6.66699 4.66602 -8 9.99902l-290 859h-1h-2l-162 -841c-0.666992 -4 -2.66699 -7.66699 -6 -11s-7 -5 -11 -5h-34
c-6.66699 0 -11.334 1.33301 -14.001 4c-2 2 -3 5 -3 9c0 2 0.333008 4 1 6l203 990c1.33301 2.66699 3 5 5 7c2.66699 2 5.33398 3 8.00098 3h16c4 0 7 -0.666992 9 -2c2 -2 3.66699 -4.66699 5 -8l296 -881h1h2l297 881c1.33301 3.33301 3 6 5 8
c2.66699 1.33301 5.66699 2 9 2h16c2.66699 0 5.33398 -1 8.00098 -3s4.33398 -4.33301 5.00098 -7l183 -892c0.666992 0 1 -0.333008 1 -1v-2c0 -0.666992 0.333008 -1.66699 1 -3v0c2 -11.333 3 -21.666 3 -30.999c0 -14.667 -2.33301 -27.334 -7 -38.001
c-8 -17.333 -19.667 -29 -35 -35z" />
    <glyph glyph-name="N" unicode="N" horiz-adv-x="966" 
d="M884 889l0.00390625 -887.001c0 -6 -2.33301 -10.667 -7 -14c-4.66699 -2.66699 -10 -4 -16 -4h-19l-5 5c-2.66699 2.66699 -11.334 13.334 -26.001 32.001c-6 8 -13.667 17.667 -23 29l-33 42l-65 84l-92 120l-187 245l-263 348h-2v-872
c0 -5.33301 -1.66699 -9.66602 -5 -12.999c-4 -4 -8.33301 -6 -13 -6h-27c-5.33301 0 -10 2 -14 6c-3.33301 3.33301 -5 7.66602 -5 12.999v368v613c0 6 2 10.667 6 14c4.66699 3.33301 9.66699 5 15 5h25l688 -897h2v0v772c-2.66699 -0.666992 -5.33398 -1 -8.00098 -1
c-2.66699 -0.666992 -5.33398 -0.666992 -8.00098 0c-18.667 2 -32.334 9.33301 -41.001 22c-8 12.667 -11 26.667 -9 42c2 16.667 9 29.334 21 38.001c12.667 8.66699 27.667 12 45 10c18.667 -2 34.334 -12.333 47.001 -31c13.333 -18.667 19.666 -46.334 18.999 -83.001
v0z" />
    <glyph glyph-name="O" unicode="O" horiz-adv-x="1117" 
d="M557 1018c50.667 0 99 -6.66699 145 -20c46.667 -13.333 89.667 -32.333 129 -57c74 -45.333 133 -106.666 177 -183.999c44.667 -78 67 -163.667 67 -257s-22 -178.333 -66 -255c-44.667 -77.333 -104 -138.333 -178 -183c-39.333 -24.667 -82 -43.667 -128 -57
c-46.667 -13.333 -95.334 -20 -146.001 -20c-92.667 0 -177.667 22.333 -255 67c-77.333 44 -138.666 102.333 -183.999 175c-24.667 40 -43.667 83 -57 129s-20 94 -20 144c0 93.333 22.333 178.666 67 255.999c44.667 78 103.667 139.667 177 185
c39.333 24.667 82 43.667 128 57s94 20 144 20zM557 49c44 0 86.3311 5.66602 126.998 16.999c40.667 12 78.334 28.667 113.001 50c64.667 39.333 116.667 93 156 161c39.333 67.333 59 141.666 59 222.999c0 44 -6 86.333 -18 127s-28.667 78.334 -50 113.001
c-40 64.667 -94 116.667 -162 156s-143 59 -225 59c-43.333 0 -85.333 -6 -126 -18c-40 -11.333 -77.667 -28 -113 -50c-64 -40 -115.667 -94 -155 -162s-59 -143 -59 -225c0 -81.333 19.667 -155.666 59 -222.999s91 -121 155 -161c34.667 -21.333 72.334 -38 113.001 -50
c40 -11.333 82 -17 126 -17z" />
    <glyph glyph-name="P" unicode="P" horiz-adv-x="754" 
d="M733 682c0 -31.333 -4.00293 -61.3311 -12.0029 -89.998c-8.66699 -29.333 -21 -56.333 -37 -81c-28 -46 -66.333 -83.333 -115 -112c-48 -28.667 -101 -43 -159 -43h-104c0.666992 -2 1.33398 -4.33301 2.00098 -7v-9
c-0.666992 -18.667 -7.33398 -32.334 -20.001 -41.001c-12 -9.33301 -25.333 -13.666 -40 -12.999c-17.333 1.33301 -30.666 7.66602 -39.999 18.999c-9.33301 12 -13.666 27 -12.999 45c1.33301 18.667 11 35 29 49c18.667 14.667 47 22.334 85 23.001v0h2
c2 0.666992 4 1 6 1s4 -0.333008 6 -1h83c46 0 88.333 11.333 127 34s69.667 52.667 93 90c12.667 19.333 22.334 40.666 29.001 63.999c7.33301 23.333 11 48 11 74c0 24.667 -3.66699 48 -11 70c-6.66699 22.667 -16.334 43.667 -29.001 63c-23.333 36 -54.333 65 -93 87
c-39.333 21.333 -82 32 -128 32h-256v-918c0 -5.33301 -2 -9.66602 -6 -12.999c-4 -4 -9.66699 -6 -17 -6h-25c-5.33301 0 -10 2 -14 6c-3.33301 3.33301 -5 7.66602 -5 12.999v363v604c0 4.66699 1.66699 9 5 13c4 4 8.66699 6 14 6h308c58 0 111 -14 159 -42
c48.667 -28 87.334 -65 116.001 -111c16 -24.667 28 -51.334 36 -80.001c8.66699 -28 13 -57.667 13 -89z" />
    <glyph glyph-name="Q" unicode="Q" horiz-adv-x="1117" 
d="M753 22l170 -278.002c2.66699 -3.33301 3 -7.66602 1 -12.999c-1.33301 -5.33301 -5 -8 -11 -8h-47c-2 0 -4.66699 0.666992 -8 2c-3.33301 2 -7 6 -11 12l-159 264c-20 -5.33301 -41.333 -9.33301 -64 -12s-45 -4 -67 -4c-92.667 0 -177.667 22 -255 66
c-77.333 44.667 -138.666 103.334 -183.999 176.001c-24.667 39.333 -43.667 82 -57 128c-13.333 46.667 -20 95 -20 145c0 93.333 22.333 178.666 67 255.999s103.667 139 177 185c39.333 24.667 82 43.667 128 57s94 20 144 20c94 0 179.667 -22.333 257 -67
s138.666 -104 183.999 -178c24.667 -39.333 43.667 -82 57 -128c13.333 -46.667 20 -95 20 -145c0 -109.333 -29.667 -206.666 -89 -291.999c-60 -86 -137.667 -148 -233 -186zM1012 499.998c0 82 -19.668 157 -59.001 225s-91.333 122 -156 162
c-34.667 21.333 -72.334 38 -113.001 50s-83 18 -127 18c-43.333 0 -85.333 -6 -126 -18c-40 -12 -77.667 -28.667 -113 -50c-64 -40 -115.667 -94 -155 -162s-59 -143 -59 -225c0 -81.333 19.667 -155.666 59 -222.999c39.333 -68 91 -121.667 155 -161
c34.667 -21.333 72.334 -38 113.001 -50c40 -12 82 -18 126 -18c17.333 0 34.333 1 51 3s33 4.66699 49 8l-25 42v1v0c-17.333 29.333 -25 54.666 -23 75.999c2.66699 20.667 10.667 36.667 24 48c14.667 10.667 29.334 15.667 44.001 15
c14.667 -1.33301 27.334 -8.66602 38.001 -21.999c9.33301 -12 13.666 -25.333 12.999 -40c0 -15.333 -7.33301 -29 -22 -41c-2.66699 -2 -5.66699 -3.66699 -9 -5c-2.66699 -0.666992 -5.66699 -1.33398 -9 -2.00098l32 -53c85.333 32 155.333 86.333 210 163
c54.667 76 82 162.333 82 259z" />
    <glyph glyph-name="R" unicode="R" horiz-adv-x="818" 
d="M749 25c3.33301 -6 4.33203 -11.667 2.99902 -17c-1.33301 -6 -5.66602 -9 -12.999 -9h-44c-5.33301 0 -9.66602 1 -12.999 3c-2.66699 2.66699 -5.33398 6 -8.00098 10l-208 376c-9.33301 -0.666992 -18 -1 -26 -1h-27h-110c2 -4 3.33301 -7.66699 4 -11
c1.33301 -3.33301 1.66602 -7 0.999023 -11c-0.666992 -18.667 -7 -32.667 -19 -42c-12.667 -9.33301 -26.334 -13.333 -41.001 -12c-17.333 0.666992 -30.666 6.66699 -39.999 18c-9.33301 12 -13.666 27 -12.999 45c1.33301 18.667 11 35.334 29 50.001
c18.667 14 47.334 21.667 86.001 23v0h6h1h1h135c24.667 0 48 3 70 9c22.667 6.66699 43.667 15.667 63 27c36 21.333 65.333 50.666 88 87.999c22 37.333 33 79 33 125c0 44.667 -11 85 -33 121c-22.667 36 -52 64.333 -88 85c-19.333 11.333 -40.333 20 -63 26
c-22.667 6.66699 -46.334 10 -71.001 10h-301c-0.666992 -204.667 -1.33398 -511.334 -2.00098 -920.001c0 -5.33301 -2 -9.66602 -6 -12.999c-4 -4 -9.66699 -6 -17 -6h-25c-5.33301 0 -10 2 -14 6c-3.33301 3.33301 -5 7.66602 -5 12.999v363v604
c0 4.66699 1.66699 9 5 13s8 6 14 6h355c30.667 0 60.334 -4 89.001 -12s55 -19 79 -33c46 -26.667 82.667 -63 110 -109c28 -45.333 42 -96.666 42 -153.999c0 -72 -22.333 -135 -67 -189s-101 -90.667 -169 -110z" />
    <glyph glyph-name="S" unicode="S" horiz-adv-x="750" 
d="M709 241c0 -46.667 -13.9941 -89.0029 -41.9941 -127.003c-28.667 -38 -65 -68.333 -109 -91c-24 -12 -49.667 -21.333 -77 -28s-55.666 -10 -84.999 -10c-55.333 0 -104.333 8.66699 -147 26s-77.334 34.333 -104.001 51c-14 9.33301 -25.333 17.666 -34 24.999l-19 16
c-4 3.33301 -7.33301 7.33301 -10 12v4c0 4 2 8.66699 6 14c2.66699 4 7 9.66699 13 17c4.66699 6 9.66699 9.66699 15 11c5.33301 2 10.666 0.333008 15.999 -5c2.66699 -2 8 -6.33301 16 -13c8 -7.33301 18.333 -15.333 31 -24c23.333 -16 54 -32.333 92 -49
c37.333 -16 79.666 -24 126.999 -24c42.667 0 82 8.33301 118 25s64.667 38.667 86 66c12 15.333 21 31.333 27 48c6.66699 17.333 10 35 10 53c0 64 -24.667 113.333 -74 148s-117.666 66.667 -204.999 96c-54 18.667 -101.333 39 -142 61
c-41.333 21.333 -73.333 49 -96 83c-12.667 18 -22.334 38.333 -29.001 61c-6 22.667 -9 48.334 -9 77.001c0 19.333 2.66699 39.333 8 60c5.33301 20 13.666 40 24.999 60c22 36 55.333 67.333 100 94s103.334 40 176.001 40c50 0 94.333 -6.66699 133 -20
c38.667 -14 68 -26.333 88 -37c4.66699 -2 9 -4.33301 13 -7l12 -8h1v-1c0.666992 0 1 -0.333008 1 -1c0.666992 0 1.33398 -0.333008 2.00098 -1c16 -12.667 26.667 -26 32 -40s6 -27.667 2 -41c-5.33301 -17.333 -14.333 -29.666 -27 -36.999
c-12.667 -8 -27.334 -9.66699 -44.001 -5c-14.667 4.66699 -26 13.334 -34 26.001c-8.66699 12.667 -10.334 28 -5.00098 46c1.33301 2.66699 2.66602 5 3.99902 7c1.33301 2.66699 2.66602 5 3.99902 7c-18.667 10 -44.334 21 -77.001 33s-68 18 -106 18
c-30.667 0 -58.334 -3.33301 -83.001 -10c-24 -6 -45.333 -14.333 -64 -25c-33.333 -18.667 -57.666 -42.667 -72.999 -72c-14.667 -29.333 -22 -57.333 -22 -84c0 -61.333 21.333 -107.666 64 -138.999c43.333 -32 101.333 -60 174 -84c98 -33.333 176 -71.333 234 -114
c58 -42 87 -104.667 87 -188z" />
    <glyph glyph-name="T" unicode="T" horiz-adv-x="747" 
d="M726 928l-0.000976562 -2.99805c0 -16.667 -4.33301 -30.334 -13 -41.001c-10 -11.333 -23.333 -17.333 -40 -18c-15.333 -0.666992 -29 3.33301 -41 12c-12 9.33301 -18.333 23.333 -19 42c0 4 0.333008 7.66699 1 11s2 6.66602 4 9.99902h-237v-924
c0 -4.66699 -2.33301 -9 -7 -13c-4 -3.33301 -9.33301 -5 -16 -5h-26c-5.33301 0 -9.66602 1.66699 -12.999 5c-4 4 -6 8.33301 -6 13v924h-274c-7.33301 0 -12.333 2 -15 6s-4 9.33301 -4 16v21c0 6 2 10.667 6 14s8.33301 5 13 5h555v0
c45.333 0.666992 78.333 -6.66602 99 -21.999c20.667 -14.667 31.667 -32.334 33 -53.001z" />
    <glyph glyph-name="U" unicode="U" horiz-adv-x="835" 
d="M834 866l0.000976562 -501c0 -38.667 -4.66699 -75.334 -14 -110.001c-8.66699 -34 -21.334 -65.667 -38.001 -95c-31.333 -54 -75 -96.667 -131 -128c-55.333 -31.333 -120.333 -47 -195 -47c-73.333 0 -137.666 15.667 -192.999 47c-56 32 -99.333 74.667 -130 128
c-16.667 29.333 -29.334 61.333 -38.001 96c-8.66699 34 -13 70.333 -13 109v233v387c0 4.66699 1.66699 9 5 13c4 3.33301 8.66699 5 14 5h30c4.66699 0 9 -1.66699 13 -5c3.33301 -4 5 -8.33301 5 -13v-613c0 -92.667 27.333 -169.334 82 -230.001s129.667 -91 225 -91
c96.667 0 172.334 30 227.001 90c55.333 60.667 83 137 83 229v522c-2 -0.666992 -4 -1 -6 -1c-2 -0.666992 -4.33301 -0.666992 -7 0c-18.667 2 -32 9.33301 -40 22c-8.66699 12.667 -12 26.667 -10 42c2 16.667 9.33301 29.334 22 38.001
c9.33301 7.33301 20.666 11 33.999 11c3.33301 0 7 -0.333008 11 -1c20 -2.66699 36.667 -15 50 -37c10 -16.667 15 -39.667 15 -69c0 -9.33301 -0.333008 -19.666 -1 -30.999z" />
    <glyph glyph-name="V" unicode="V" horiz-adv-x="925" 
d="M888 876c-0.666992 -2 -1.33203 -3.66699 -1.99902 -5c-0.666992 -2 -1.33398 -3.66699 -2.00098 -5l-388 -867c-1.33301 -4 -3.33301 -7 -6 -9c-2.66699 -2.66699 -6.33398 -4 -11.001 -4h-7c-4 0 -7.66699 1.66699 -11 5
c-2.66699 2.66699 -4.33398 5.33398 -5.00098 8.00098l-433 987c-2 3.33301 -3 6.33301 -3 9c0 1.33301 0.666992 2.66602 2 3.99902c2 3.33301 6 5 12 5h39c4.66699 0 8.33398 -1 11.001 -3s4.33398 -4.33301 5.00098 -7l387 -891h1h2l353 803
c-3.33301 0 -6.33301 0.333008 -9 1s-5.66699 2 -9 4c-16.667 8.66699 -26.334 20.334 -29.001 35.001c-3.33301 15.333 -1.66602 29.333 5.00098 42c8.66699 15.333 20 25 34 29c4.66699 0.666992 9.33398 1 14.001 1c10 0 20.667 -3 32 -9c16 -8.66699 27 -23.667 33 -45
c1.33301 -6.66699 2 -13.334 2 -20.001c0 -18.667 -5 -40 -15 -64v-1c-0.666992 -0.666992 -1.33398 -1.66699 -2.00098 -3z" />
    <glyph glyph-name="W" unicode="W" horiz-adv-x="1199" 
d="M1164 879l-252.995 -883.998c-0.666992 -2.66699 -2.33398 -5 -5.00098 -7s-5.33398 -3 -8.00098 -3h-16c-3.33301 0 -6.33301 1 -9 3c-2 1.33301 -3.66699 3.66602 -5 6.99902l-259 874h-2l-259 -874c-1.33301 -3.33301 -3 -5.66602 -5 -6.99902
c-2.66699 -2 -5.66699 -3 -9 -3h-16c-2.66699 0 -5.33398 1 -8.00098 3s-4.33398 4.33301 -5.00098 7l-284 990c-0.666992 2.66699 -1 5 -1 7c0 3.33301 1 6 3 8c2.66699 2.66699 7.33398 4 14.001 4h34c4.66699 0 8.66699 -1.66699 12 -5
c3.33301 -2.66699 5.33301 -6.33398 6 -11.001l241 -840h2h1l252 857c1.33301 4.66699 4.33301 8 9 10c4 2 8.33301 3 13 3h2c4.66699 0 9 -1 13 -3c4.66699 -2 7.66699 -5.33301 9 -10l254 -857h1h2l216 758c-2.66699 0 -5.33398 0.333008 -8.00098 1
s-5.33398 1.66699 -8.00098 3c-16.667 9.33301 -26.667 21.333 -30 36c-2.66699 14.667 -0.666992 28.667 6 42c8 15.333 19.333 24.666 34 27.999c14.667 4 30 1.66699 46 -7s27 -24 33 -46c1.33301 -6 2 -12.667 2 -20c0 -18 -5 -39.333 -15 -64z" />
    <glyph glyph-name="X" unicode="X" horiz-adv-x="801" 
d="M744 0l-44.999 -0.000976562c-4 0 -7.66699 0.666992 -11 2s-6 3.66602 -8 6.99902l-281 443h-2l-277 -443c-2 -3.33301 -4.66699 -5.66602 -8 -6.99902s-6.66602 -2 -9.99902 -2h-46c-7.33301 0 -12 2 -14 6c-0.666992 2 -1 4 -1 6c0 2.66699 1 6 3 10l312 492l-294 469
c-4 5.33301 -5 10.333 -3 15c2 4 6.66699 6 14 6h46c3.33301 0 6.66602 -0.666992 9.99902 -2s6.33301 -3.33301 9 -6l259 -422h2l208 334c-2 0.666992 -3.66699 1.33398 -5 2.00098c-1.33301 1.33301 -2.66602 2.33301 -3.99902 3c-14.667 12 -22.334 25.667 -23.001 41
c-0.666992 14.667 3.66602 28 12.999 40c10.667 13.333 23.667 20.666 39 21.999h4c13.333 0 26.333 -5.33301 39 -16c16 -12 24 -31 24 -57c0.666992 -25.333 -12.333 -55.666 -39 -90.999l-213 -338l314 -492c2 -4 3 -7.33301 3 -10c0 -2 -0.333008 -4 -1 -6
c-2 -4 -6.66699 -6 -14 -6z" />
    <glyph glyph-name="Y" unicode="Y" horiz-adv-x="841" 
d="M768 873v-1.00098l-290 -382v-471c0 -5.33301 -1.66699 -9.66602 -5 -12.999c-4 -4 -8.33301 -6 -13 -6c-9.33301 -0 -20 0.333008 -32 1c-11.333 0.666992 -17 6.66699 -17 18v469l-366 495c-2.66699 4 -4 7.33301 -4 10c0 2 0.333008 3.66699 1 5
c2.66699 4.66699 7.33398 7 14.001 7h44c3.33301 0 6.66602 -1 9.99902 -3c3.33301 -1.33301 6 -3.33301 8 -6l327 -446l271 363c-2.66699 0.666992 -5 1.66699 -7 3c-2.66699 1.33301 -5 3 -7 5c-14 12.667 -21 26.667 -21 42c0.666992 15.333 6 28.333 16 39
c12 12.667 25.333 19.334 40 20.001c15.333 0 29.333 -6 42 -18c14 -12.667 21 -30.334 21 -53.001s-10.667 -48.667 -32 -78z" />
    <glyph glyph-name="Z" unicode="Z" horiz-adv-x="758" 
d="M130 65l0.000976562 -1.99902h535c6 0 10.667 -1.66699 14 -5c3.33301 -4 5 -8.66699 5 -14v-25c0 -5.33301 -1.66699 -9.66602 -5 -12.999c-3.33301 -4 -8 -6 -14 -6h-604c-6 0 -10.667 1.66699 -14 5c-4 3.33301 -6 7.33301 -6 12v26l582 895v3h-519
c-4.66699 0 -9 2 -13 6s-6 9.33301 -6 16v23c0 4.66699 2 9 6 13c4 3.33301 8.33301 5 13 5h591c6 0 10.667 -1.66699 14 -5c3.33301 -4 5 -8.33301 5 -13v-23l-275 -422c10.667 -11.333 25.667 -23 45 -35s43.333 -19.333 72 -22
c10.667 -0.666992 20.667 -0.333984 30 0.999023s17.333 3.33301 24 6c-2 4 -3.66699 7.66699 -5 11c-1.33301 4 -2 8 -2 12c0 18.667 5.66699 33 17 43c12 9.33301 25.333 14 40 14c17.333 0 31 -5.33301 41 -16c10 -11.333 15 -26 15 -44
c0 -20.667 -10.667 -39.334 -32 -56.001c-20.667 -16 -54.667 -24 -102 -24c-40 0 -74 7.33301 -102 22c-28.667 14.667 -51.334 29.667 -68.001 45z" />
    <glyph glyph-name="bracketleft" unicode="[" 
d="M298 -374c5.33301 0 9.66602 -2.00098 12.999 -6.00098c4 -3.33301 6 -7.66602 6 -12.999v-21c0 -5.33301 -2 -9.66602 -6 -12.999c-3.33301 -4 -7.66602 -6 -12.999 -6h-279c-5.33301 0 -9.66602 2 -12.999 6c-4 3.33301 -6 7.66602 -6 12.999v525v873
c0 5.33301 2 9.66602 6 12.999c3.33301 4 7.66602 6 12.999 6h279c5.33301 0 9.66602 -2 12.999 -6c4 -3.33301 6 -7.66602 6 -12.999v-22c0 -4.66699 -2 -9 -6 -13c-3.33301 -3.33301 -7.66602 -5 -12.999 -5h-236v-1318h236v0z" />
    <glyph glyph-name="backslash" unicode="\" horiz-adv-x="375" 
d="M1 984c-0.666992 2 -1.00098 4 -1.00098 6c0 3.33301 1 6.33301 3 9c3.33301 3.33301 8 5 14 5h21c4 0 7.66699 -1 11 -3c4 -2.66699 6.66699 -6 8 -10l317 -971c0.666992 -2 1 -4 1 -6c0 -3.33301 -1 -6 -3 -8c-4 -4 -9 -6 -15 -6h-20c-4.66699 0 -8.66699 1 -12 3
s-5.66602 4.66699 -6.99902 8z" />
    <glyph glyph-name="bracketright" unicode="]" 
d="M253 -372v1318h-235c-5.33301 0 -9.66602 1.66699 -12.999 5c-4 4 -6 8.33301 -6 13v22c0 4.66699 2 9 6 13c3.33301 3.33301 7.66602 5 12.999 5h278c5.33301 0 9.66602 -1.66699 12.999 -5c4 -4 6 -8.33301 6 -13v-914v-484c0 -5.33301 -2 -10 -6 -14
c-3.33301 -3.33301 -7.66602 -5 -12.999 -5h-278c-5.33301 0 -9.66602 2 -12.999 6c-4 3.33301 -6 7.66602 -6 12.999v21c0 5.33301 2 9.66602 6 12.999c3.33301 4 7.66602 6 12.999 6h235z" />
    <glyph glyph-name="asciicircum" unicode="^" horiz-adv-x="732" 
d="M46 597l303 417c2 3.33301 4 5.66602 6 6.99902c2.66699 2 5.66699 3 9 3h5c3.33301 0 6.33301 -1 9 -3c2 -1.33301 4 -3.66602 6 -6.99902l302 -417c3.33301 -4.66699 5 -9 5 -13c-0.666992 -0.666992 -1 -1.66699 -1 -3c-1.33301 -4.66699 -5.66602 -7 -12.999 -7h-33
c-4.66699 0 -9.33398 1 -14.001 3c-4 2.66699 -7 5.33398 -9 8.00098l-255 355l-256 -355c-2 -2.66699 -5 -5.33398 -9 -8.00098c-4 -2 -8.66699 -3 -14 -3h-33c-6.66699 0 -11 2.33301 -13 7v3c0 4 1.66699 8.33301 5 13z" />
    <glyph glyph-name="underscore" unicode="_" horiz-adv-x="571" 
d="M60 -17h180h272c4.66699 0 9 -1.66699 13 -5c3.33301 -4 5 -8.33301 5 -13v-15c0 -4.66699 -1.66699 -8.66699 -5 -12c-4 -3.33301 -8.33301 -5 -13 -5h-452c-6 0 -10.667 1.66699 -14 5s-5 7.33301 -5 12v15c0 4.66699 1.66699 9 5 13c3.33301 3.33301 8 5 14 5z" />
    <glyph glyph-name="grave" unicode="`" horiz-adv-x="624" 
d="M452 810c-0.666992 -4.66699 -2.66797 -8.33301 -6.00098 -11c-3.33301 -2 -8 -3.33301 -14 -4c-3.33301 -0.666992 -7.33301 -1 -12 -1c-9.33301 0 -21.666 1 -36.999 3c-22.667 2.66699 -47 10.667 -73 24c-14 7.33301 -28 16.666 -42 27.999c-14 10.667 -27 24 -39 40
c-29.333 37.333 -44 69.666 -44 96.999c0 26.667 8.33301 46.334 25 59.001c12.667 10 25.667 15 39 15h4c15.333 -1.33301 28 -8.66602 38 -21.999c9.33301 -12 13.666 -25.667 12.999 -41s-8.33398 -28.666 -23.001 -39.999c-3.33301 -2.66699 -7 -4.66699 -11 -6
c-3.33301 -1.33301 -7 -2 -11 -2c2 -7.33301 5.33301 -15.333 10 -24c4.66699 -8 10.334 -16 17.001 -24c10.667 -10.667 21.667 -19.667 33 -27s22.333 -13.333 33 -18c20 -7.33301 38 -11.333 54 -12c15.333 -0.666992 24.333 -1 27 -1
c6.66699 0 11.334 -1.33301 14.001 -4c3.33301 -2.66699 5 -6.33398 5 -11.001v-18z" />
    <glyph glyph-name="a" unicode="a" horiz-adv-x="548" 
d="M487 338l0.00195312 -319.002c0 -4.66699 -2 -9 -6 -13c-3.33301 -3.33301 -7.66602 -5 -12.999 -5h-17c-4.66699 0 -8.33398 1.33301 -11.001 4s-4.66699 6.33398 -6 11.001l-6 52c-18.667 -17.333 -45 -35.333 -79 -54s-74 -28 -120 -28c-53.333 0 -98 17 -134 51
c-36 34.667 -54 81.334 -54 140.001c0 55.333 21.333 101.333 64 138s101.667 55 177 55c32.667 0 63 -3.33301 91 -10c28 -7.33301 46 -12.333 54 -15c0 62.667 -7 110 -21 142c-14 31.333 -49 47 -105 47c-27.333 0 -52 -2.33301 -74 -7s-40.333 -9.66699 -55 -15
c-4 -1.33301 -7.33301 -3 -10 -5c-3.33301 -1.33301 -6.33301 -3 -9 -5c2.66699 -3.33301 5.33398 -6.33301 8.00098 -9c2 -3.33301 3.33301 -7.33301 4 -12c4.66699 -18 2.66699 -33 -6 -45c-8.66699 -12.667 -20.334 -20.667 -35.001 -24c-16.667 -4 -31.334 -2 -44.001 6
c-12.667 8.66699 -21 21.667 -25 39c-4 16 -1 33 9 51c10 17.333 29.667 32.333 59 45c13.333 6 35.666 13.333 66.999 22s69.666 13 114.999 13c56.667 0 97.667 -10 123 -30c24.667 -20.667 41 -49 49 -85c4.66699 -18.667 7.33398 -39.667 8.00098 -63
c1.33301 -22.667 2 -46.667 2 -72zM427.002 130.998v12v146c-9.33301 4 -27.333 10 -54 18s-57 12 -91 12c-54.667 0 -98.667 -13 -132 -39c-33.333 -25.333 -50 -59.333 -50 -102c0 -41.333 12.667 -74.333 38 -99c26 -24.667 58.667 -37 98 -37c44 0 83.333 10.333 118 31
s59 40 73 58v0z" />
    <glyph glyph-name="b" unicode="b" horiz-adv-x="643" 
d="M602 288c0 -54.667 -10.9961 -104.329 -32.9961 -148.996c-22.667 -45.333 -53 -81.333 -91 -108c-20 -14.667 -41.667 -25.667 -65 -33c-24 -8 -48.667 -12 -74 -12c-55.333 0 -100.333 11.667 -135 35c-34.667 22.667 -56.334 39 -65.001 49
c-0.666992 -11.333 -2 -28.333 -4 -51c-0.666992 -6.66699 -2.66699 -11.334 -6 -14.001c-3.33301 -3.33301 -8 -5 -14 -5h-14c-5.33301 0 -10 2 -14 6c-3.33301 3.33301 -5 7.66602 -5 12.999v363v603v1v0v24v1v1c0.666992 33.333 7.33398 58.666 20.001 75.999
c13.333 16.667 28.666 26 45.999 28c3.33301 0.666992 6.66602 1 9.99902 1c13.333 0 25 -3.66699 35 -11c12 -8.66699 19 -21.334 21 -38.001c2 -15.333 -1 -29.333 -9 -42c-8.66699 -12.667 -22.334 -20 -41.001 -22c-3.33301 -0.666992 -6.66602 -0.666992 -9.99902 0
c-2.66699 0.666992 -5.66699 1.66699 -9 3v-475c5.33301 4 23.666 14.333 54.999 31c30.667 16.667 71 25 121 25c53.333 0 100.666 -12.667 141.999 -38c42 -25.333 75 -59.333 99 -102c12.667 -23.333 22.667 -48.333 30 -75c6.66699 -26.667 10 -55 10 -85z
M541.004 287.005c0 68 -21.334 124.998 -64.001 170.998c-42.667 45.333 -97 68 -163 68c-18 0 -34.667 -1.33301 -50 -4c-16 -3.33301 -30.333 -7.66602 -43 -12.999c-24 -8.66699 -42.667 -18 -56 -28l-20 -15v-321c0.666992 -1.33301 3 -4.66602 7 -9.99902
c4 -6 10 -13 18 -21c14.667 -15.333 35.334 -31 62.001 -47c27.333 -16 61 -24 101 -24c60 0 109.667 24 149 72s59 105.333 59 172z" />
    <glyph glyph-name="c" unicode="c" horiz-adv-x="625" 
d="M570 378c-11.333 -14 -24.333 -22.333 -39 -25c-14.667 -2 -28.667 2.33301 -42 13c-12 9.33301 -19.333 21.666 -22 36.999c-2.66699 14.667 1.66602 29.334 12.999 44.001c2.66699 2.66699 5.33398 5 8.00098 7c3.33301 2 6.66602 3.66699 9.99902 5
c0 0.666992 -0.333008 1 -1 1v0c-7.33301 8 -25.333 21 -54 39s-65.667 27 -111 27c-65.333 0 -121 -22.667 -167 -68c-46.667 -44.667 -70 -101.334 -70 -170.001c0 -69.333 23.333 -127 70 -173s101.667 -69 165 -69c35.333 0 65 5.66699 89 17
c24.667 11.333 44.334 23.333 59.001 36c8 6.66699 14.667 12.667 20 18c5.33301 6 9.33301 10.667 12 14c4.66699 5.33301 9.33398 8.33301 14.001 9c4 0 8.33301 -2.33301 13 -7c3.33301 -2.66699 8.66602 -7.33398 15.999 -14.001
c3.33301 -3.33301 5.66602 -7 6.99902 -11c0.666992 -3.33301 -0.333008 -7.33301 -3 -12c-4 -6 -9.66699 -13 -17 -21s-16.666 -16.333 -27.999 -25c-20 -16 -45.333 -30.667 -76 -44s-65.334 -20 -104.001 -20c-28.667 0 -56 3.66699 -82 11
c-26.667 7.33301 -51.667 18 -75 32c-42.667 26 -77.334 61.333 -104.001 106s-40 95.334 -40 152.001c0 30 4 58.667 12 86c8 26.667 19.333 51.667 34 75c26.667 42.667 62.667 76.667 108 102s94.333 38 147 38c50.667 0 93.334 -9.33301 128.001 -28
c34.667 -18 59.667 -35.333 75 -52c27.333 -26.667 43 -51.334 47 -74.001c0.666992 -5.33301 1 -10.666 1 -15.999c0.666992 -15.333 -3.66602 -28.666 -12.999 -39.999z" />
    <glyph glyph-name="d" unicode="d" horiz-adv-x="623" 
d="M551 1012v-993.003c0 -5.33301 -1.66699 -9.66602 -5 -12.999c-4 -4 -8.33301 -6 -13 -6h-15c-5.33301 0 -10 1.66699 -14 5c-3.33301 2.66699 -5.33301 7.33398 -6 14.001c-0.666992 11.333 -2 28 -4 50c-8.66699 -9.33301 -30 -25.333 -64 -48
c-34 -23.333 -78.667 -35 -134 -35c-48.667 0 -92.667 13 -132 39s-70.666 60.333 -93.999 103c-12.667 22.667 -22.334 47.667 -29.001 75c-6.66699 26.667 -10 54.667 -10 84c0 55.333 11.667 105.333 35 150c23.333 45.333 55 81 95 107c21.333 14 45 25 71 33
c25.333 7.33301 52.333 11 81 11c50 0 90.667 -8.33301 122 -25c30.667 -16.667 48.334 -27 53.001 -31v475c-2.66699 -1.33301 -5.66699 -2.33301 -9 -3h-10c-18.667 2.66699 -32 10.334 -40 23.001c-8.66699 12.667 -12 26.334 -10 41.001c2 17.333 9 30.333 21 39
c10 6.66699 21.667 10 35 10c3.33301 0 6.66602 -0.333008 9.99902 -1c17.333 -2 32.666 -11.333 45.999 -28c12.667 -16.667 19.334 -41.334 20.001 -74.001v-1v-1zM490 465.997l-5.99805 5c-4 3.33301 -9.66699 7.33301 -17 12c-14.667 9.33301 -34.334 19 -59.001 29
c-25.333 10 -55 15 -89 15c-66 0 -120 -23 -162 -69s-63 -103 -63 -171c0 -66.667 19.333 -124 58 -172s88 -72 148 -72c22 0 42 2.66699 60 8s34 12 48 20c26.667 14 46.667 29.333 60 46s20.666 26 21.999 28v321z" />
    <glyph glyph-name="e" unicode="e" horiz-adv-x="624" 
d="M583 325c0 -11.333 -1.00098 -23.335 -3.00098 -36.002c-1.33301 -13.333 -7.33301 -20 -18 -20h-458c2.66699 -61.333 24.667 -114.333 66 -159c40.667 -44.667 93.334 -67 158.001 -67c15.333 0 30.333 1 45 3c14 2.66699 27.333 5.66699 40 9v1h-1c2 0.666992 4 1 6 1
l6 2l10 4l10 4l10 5c3.33301 2 6.33301 4 9 6c-3.33301 2.66699 -6 5.66699 -8 9c-2.66699 3.33301 -4.66699 7 -6 11c-5.33301 18 -3.66602 33.333 5.00098 46c8 12.667 19.333 21 34 25c16.667 5.33301 31.334 4 44.001 -4s21.667 -20.667 27 -38
c3.33301 -12.667 2.66602 -26 -2.00098 -40s-15 -27 -31 -39c-16.667 -14 -44 -28 -82 -42s-78.333 -21 -121 -21c-87.333 0 -156 29.667 -206 89c-50.667 58.667 -76 130 -76 214c0 28.667 3.33301 56.334 10 83.001c6 26.667 15.333 51.334 28 74.001
c22.667 42.667 55 77 97 103c41.333 26 90.333 39 147 39c75.333 0 137.666 -24.667 186.999 -74c48.667 -49.333 73 -112 73 -188zM519.999 320.998c0 56 -16.667 104.668 -50 146.001c-33.333 42 -82.333 63 -147 63c-62.667 0 -113.667 -20 -153 -60
c-39.333 -40.667 -61 -90.334 -65 -149.001h415z" />
    <glyph glyph-name="f" unicode="f" horiz-adv-x="405" 
d="M539 850c-8.66699 -15.333 -20.3291 -25.333 -34.9961 -30c-14 -4.66699 -28.333 -2.66699 -43 6c-13.333 8 -22.666 19 -27.999 33c-4.66699 14.667 -2.33398 30 6.99902 46c2 3.33301 4.33301 6.33301 7 9c3.33301 2.66699 6.66602 5 9.99902 7
c-12.667 9.33301 -29.334 18.333 -50.001 27s-42.334 13 -65.001 13c-45.333 0 -82.333 -15.333 -111 -46c-28.667 -30 -43 -78 -43 -144v-197h213c5.33301 0 9.66602 -1.66699 12.999 -5s5 -7.33301 5 -12v-22c0 -4.66699 -1.33301 -8.66699 -4 -12
c-3.33301 -3.33301 -8 -5 -14 -5h-213v-499c0 -4.66699 -1.66699 -9 -5 -13c-4 -4 -8.33301 -6 -13 -6h-26c-5.33301 0 -9.66602 2 -12.999 6c-4 4 -6 8.33301 -6 13v499h-86c-6.66699 0 -11.334 2 -14.001 6c-3.33301 4 -5 8.33301 -5 13v18c0 5.33301 2 10 6 14
c4 3.33301 8.33301 5 13 5h86v197c0 84 20.667 146.333 62 187c40.667 40.667 92.334 61 155.001 61c30 0 58 -5 84 -15c25.333 -9.33301 45.666 -20 60.999 -32c30 -22 48.667 -43.667 56 -65c2.66699 -9.33301 4 -18.333 4 -27c0 -10.667 -2.66699 -20.667 -8 -30z" />
    <glyph glyph-name="g" unicode="g" horiz-adv-x="635" 
d="M624 -211c0 -21.333 -3.33691 -42.3369 -10.0039 -63.0039c-7.33301 -20 -17.333 -39 -30 -57c-24.667 -33.333 -58.667 -60.666 -102 -81.999s-93.333 -32 -150 -32c-80.667 0 -143 16.667 -187 50s-72.333 70.333 -85 111v0v0c-16 44.667 -20 80 -12 106
c8 25.333 22 41.666 42 48.999c16.667 6 32 6 46 0c14 -5.33301 23.667 -16.333 29 -33c5.33301 -14 5.33301 -28 0 -42c-5.33301 -14.667 -16.666 -25 -33.999 -31l-8 -2h-7c4 -37.333 24 -71.666 60 -102.999c36.667 -30.667 88 -46 154 -46c64.667 0 119 16.667 163 50
c43.333 33.333 65 74.666 65 123.999c0 32.667 -11 61.667 -33 87c-22 26 -59.667 39 -113 39h-181h-40c-21.333 0 -37.333 1.33301 -48 4c-9.33301 2 -23 7.66699 -41 17c-18 8.66699 -33.667 22 -47 40c-7.33301 10 -13 21 -17 33c-4.66699 12 -7 25.667 -7 41
c0 16.667 2 32 6 46c4.66699 14 10.334 26.333 17.001 37c12 21.333 25.667 37.666 41 48.999s25.333 18.333 30 21c-7.33301 10 -16.666 27.667 -27.999 53c-10.667 26 -16 56 -16 90c0 69.333 22.333 127 67 173c45.333 46.667 106.666 70 183.999 70h34h69h55h77
c6 0 10.667 -2 14 -6c3.33301 -3.33301 5 -7.66602 5 -12.999v-16c0 -3.33301 -1.33301 -6.66602 -4 -9.99902c-2 -4 -5 -6.33301 -9 -7c-23.333 -1.33301 -57.666 -3.66602 -102.999 -6.99902c13.333 -7.33301 31.333 -25 54 -53c22.667 -27.333 34 -71 34 -131
c0 -63.333 -21.333 -118.666 -64 -165.999c-42.667 -48 -100.667 -72 -174 -72c-42.667 0 -77 6.33301 -103 19c-26 12 -43.667 23 -53 33c-3.33301 -1.33301 -11 -5.66602 -23 -12.999s-22.667 -18 -32 -32c-5.33301 -8 -9.66602 -16.667 -12.999 -26
c-3.33301 -10 -5 -20.667 -5 -32c0 -34 12 -56.333 36 -67c23.333 -10.667 49 -16 77 -16h208c62 0 113 -14.667 153 -44c39.333 -29.333 59 -76 59 -140zM139.996 346.996c0 -50 15.3311 -93.334 45.998 -130.001c30.667 -36 76 -54 136 -54c53.333 0 96 18 128 54
s48 79.333 48 130c0 60 -17.333 105.667 -52 137c-35.333 30.667 -76.666 46 -123.999 46c-55.333 0 -99.666 -17.667 -132.999 -53c-32.667 -35.333 -49 -78.666 -49 -129.999z" />
    <glyph glyph-name="h" unicode="h" horiz-adv-x="623" 
d="M582 325l-0.00292969 -332v-2v-3c-1.33301 -33.333 -8.66602 -58.333 -21.999 -75s-28.666 -26 -45.999 -28h-8c-14.667 0 -27 3.66699 -37 11c-12 9.33301 -19 22.666 -21 39.999c-1.33301 14.667 2.33398 28.334 11.001 41.001c8.66699 12 22.334 19 41.001 21h10
c3.33301 -0.666992 6.33301 -1.66699 9 -3v330c0 66 -14.667 116 -44 150c-30 34 -72 51 -126 51c-21.333 0 -41 -2.66699 -59 -8c-18.667 -5.33301 -35.667 -11.666 -51 -18.999c-28 -14 -50.333 -29.333 -67 -46c-17.333 -16 -26.666 -25.333 -27.999 -28v-407
c0 -6 -1.66699 -10.667 -5 -14c-2.66699 -3.33301 -7.33398 -5 -14.001 -5h-27c-5.33301 0 -9.33301 2 -12 6c-2.66699 3.33301 -4 7.66602 -4 12.999v363v603c0 5.33301 2 9.66602 6 12.999c3.33301 4 8 6 14 6h23c4.66699 0 9 -2 13 -6c4 -3.33301 6 -7.66602 6 -12.999
v-489c6 6 17.667 16.667 35 32c18 14.667 40.667 27.667 68 39c15.333 6 31.666 11 48.999 15s36 6 56 6c74 0 131 -22.333 171 -67c39.333 -44.667 59 -109.667 59 -195z" />
    <glyph glyph-name="i" unicode="i" horiz-adv-x="262" 
d="M82 902c0 14 4.66699 26 14 36c9.33301 9.33301 21 14 35 14c13.333 0 24.666 -4.66699 33.999 -14c9.33301 -10 14 -22 14 -36c0 -12.667 -4.66699 -23.667 -14 -33s-20.666 -14 -33.999 -14c-14 0 -25.667 4.66699 -35 14s-14 20.333 -14 33zM99 555
c0 5.33301 2.00098 9.66699 6.00098 13c3.33301 4 7.66602 6 12.999 6h26c4.66699 0 9 -2 13 -6c3.33301 -3.33301 5 -7.66602 5 -12.999v-536c0 -6 -1.33301 -10.667 -4 -14c-3.33301 -3.33301 -8 -5 -14 -5h-29c-5.33301 0 -9.33301 2 -12 6
c-2.66699 3.33301 -4 7.66602 -4 12.999v201v335z" />
    <glyph glyph-name="j" unicode="j" horiz-adv-x="346" 
d="M247 554l0.00292969 -416.001v-335c0 -84.667 -19.333 -147.334 -58 -188.001c-38 -40 -88.667 -60 -152 -60c-20 0 -39 2.33301 -57 7c-18.667 4.66699 -35 10.667 -49 18h-1v0c-0.666992 0.666992 -1.33398 1 -2.00098 1c-0.666992 0.666992 -1.33398 1 -2.00098 1
c-35.333 17.333 -58.666 36.666 -69.999 57.999c-6 12.667 -9 24.667 -9 36c0 7.33301 1.33301 14.666 4 21.999c6.66699 16.667 16.667 28.334 30 35.001s28 6.66699 44 0c14 -5.33301 24.667 -14.666 32 -27.999c6.66699 -13.333 6.66699 -28.666 0 -45.999
c-1.33301 -4 -3.33301 -7.66699 -6 -11c-2.66699 -2.66699 -5.66699 -5.33398 -9 -8.00098v0v0c12.667 -7.33301 27 -13.666 43 -18.999c16.667 -6 34 -9 52 -9c45.333 0 81.333 15 108 45c26.667 30.667 40 79.334 40 146.001v751c0 5.33301 2 9.66602 6 12.999
c3.33301 4 7.66602 6 12.999 6h24c5.33301 0 9.66602 -2 12.999 -6c4 -3.33301 6 -7.66602 6 -12.999zM264.003 900.999c0 -12.667 -4.66699 -23.667 -14 -33s-21 -14 -35 -14c-13.333 0 -24.666 4.66699 -33.999 14s-14 20.333 -14 33c0 14 4.66699 26 14 36
c9.33301 9.33301 20.666 14 33.999 14c14 0 25.667 -4.66699 35 -14c9.33301 -10 14 -22 14 -36z" />
    <glyph glyph-name="k" unicode="k" horiz-adv-x="581" 
d="M548 0l-43.998 -0.000976562c-4.66699 0 -9 0.666992 -13 2s-9.33301 4.33301 -16 9l-331 286v-278c0 -6 -1.66699 -10.667 -5 -14c-2.66699 -3.33301 -7.33398 -5 -14.001 -5h-27c-5.33301 0 -9.33301 1.66699 -12 5c-2.66699 4 -4 8.66699 -4 14v362v604
c0 5.33301 1.66699 9.66602 5 12.999c4 4 8.66699 6 14 6h24c4.66699 0 9 -2 13 -6c4 -3.33301 6 -7.66602 6 -12.999v-642l277 201c2 2 3.66699 4 5 6c2 2 3.66699 4 5 6c-4 2 -7.33301 4 -10 6c-3.33301 2.66699 -6 6 -8 10c-10 15.333 -12.667 30.333 -8 45
s13.334 26 26.001 34c14.667 8.66699 29 11 43 7c14.667 -4 26.667 -13.667 36 -29c9.33301 -14 11.666 -31.333 6.99902 -52c-4.66699 -20 -19 -40.333 -43 -61v-1c-0.666992 0 -1.33398 -0.333008 -2.00098 -1c-4.66699 -4 -9.66699 -8 -15 -12s-11 -7.66699 -17 -11
l-230 -170l345 -297c4 -3.33301 6 -6.66602 6 -9.99902c0 -2 -0.333008 -4 -1 -6c-2 -5.33301 -6 -8 -12 -8z" />
    <glyph glyph-name="l" unicode="l" horiz-adv-x="315" 
d="M213 985l0.000976562 -534.998v-431c0 -6 -1.66699 -10.667 -5 -14c-2.66699 -3.33301 -7.33398 -5 -14.001 -5h-29c-4.66699 0 -8.33398 2 -11.001 6c-2.66699 3.33301 -4 7.66602 -4 12.999v991c-3.33301 -2 -6.66602 -3.33301 -9.99902 -4
c-3.33301 -1.33301 -7 -2 -11 -2c-18.667 0 -33 5.66699 -43 17c-9.33301 12 -14 25.333 -14 40c0 17.333 5.33301 31 16 41c11.333 10 26 15 44 15c20 0 38.333 -10 55 -30c16 -20 24.333 -52.667 25 -98c0 -0.666992 0.333008 -1.33398 1 -2.00098v-2z" />
    <glyph glyph-name="m" unicode="m" horiz-adv-x="1025" 
d="M973 326l-0.00195312 -306.999c0 -4.66699 -1.66699 -9 -5 -13c-4 -3.33301 -8.33301 -5 -13 -5h-29c-4 0 -7.66699 1.66699 -11 5s-5 7.66602 -5 12.999v307c0 66 -14 116 -42 150s-69 51 -123 51c-34.667 0 -65 -6.33301 -91 -19c-25.333 -13.333 -46 -27 -62 -41
c-8.66699 -8 -16 -15.333 -22 -22l-14 -16c4.66699 -14.667 8 -30.667 10 -48s3 -35.666 3 -54.999v-307c0 -4.66699 -1.66699 -9 -5 -13c-4 -3.33301 -8.66699 -5 -14 -5h-27c-4.66699 0 -8.66699 1.66699 -12 5s-5 7.66602 -5 12.999v307c0 66 -14.333 116 -43 150
s-69.667 51 -123 51c-38 0 -70.333 -7.33301 -97 -22c-26 -14.667 -46.667 -29.334 -62 -44.001c-8 -8 -14.333 -15 -19 -21s-7.66699 -10 -9 -12v-409c0 -5.33301 -1.33301 -9.66602 -4 -12.999c-3.33301 -3.33301 -8 -5 -14 -5h-29c-5.33301 0 -9.33301 1.66699 -12 5
c-2.66699 4 -4 8.33301 -4 13v537v0v1v20c-2.66699 -0.666992 -5.66699 -1.33398 -9 -2.00098s-6.66602 -0.666992 -9.99902 0c-18.667 2 -32 9.33301 -40 22c-6.66699 10 -10.334 21 -11.001 33c0 2.66699 0.333008 5.33398 1 8.00098c2 17.333 9 30.333 21 39
c10 6.66699 21.667 10 35 10h10c17.333 -2 32.666 -11.333 45.999 -28c12.667 -16.667 19.334 -41.667 20.001 -75v-1v-1v-78c10.667 12.667 32.334 30 65.001 52c32 22 75 33 129 33c43.333 0 81 -9 113 -27c32 -18.667 57 -44.667 75 -78
c2.66699 4 7.33398 9.66699 14.001 17l26 23c18.667 15.333 43 30 73 44s64 21 102 21c78 0 134.667 -23.667 170 -71s53 -111.333 53 -192z" />
    <glyph glyph-name="n" unicode="n" horiz-adv-x="642" 
d="M591 325v-307.001c0 -4.66699 -2 -9 -6 -13c-3.33301 -3.33301 -7.66602 -5 -12.999 -5h-26c-4.66699 0 -9 1.66699 -13 5c-3.33301 4 -5 8.33301 -5 13v307c0 66 -15 116 -45 150c-29.333 34 -71.333 51 -126 51c-38 0 -72 -7.66699 -102 -23
c-29.333 -15.333 -53 -30.333 -71 -45c-9.33301 -7.33301 -16.666 -14 -21.999 -20c-6 -6 -9.33301 -9.66699 -10 -11v-409c0 -5.33301 -1.66699 -9.66602 -5 -12.999c-2.66699 -3.33301 -7.33398 -5 -14.001 -5h-27c-5.33301 0 -9.33301 1.66699 -12 5
c-2.66699 4 -4 8.33301 -4 13v435v0v1v122c-2.66699 -0.666992 -5.66699 -1.33398 -9 -2.00098s-6.66602 -0.666992 -9.99902 0c-18.667 2 -32 9.33301 -40 22c-6.66699 10.667 -10.334 21.667 -11.001 33c0 2.66699 0.333008 5.66699 1 9c2 16.667 9 29.334 21 38.001
c10 7.33301 21.667 11 35 11c3.33301 0 6.66602 -0.333008 9.99902 -1c17.333 -2 32.666 -11.333 45.999 -28c12.667 -16.667 19.334 -41.667 20.001 -75v-1v-1v-78c13.333 12.667 38 30 74 52s80.333 33 133 33c80 0 138.667 -23.667 176 -71
c36.667 -47.333 55 -111.333 55 -192z" />
    <glyph glyph-name="o" unicode="o" horiz-adv-x="638" 
d="M319 588c52 0 99.667 -13 143 -39c43.333 -26.667 77.333 -61.334 102 -104.001c14 -22.667 24.667 -47.334 32 -74.001s11 -54.334 11 -83.001c0 -54 -12.333 -103.667 -37 -149s-57.667 -81.333 -99 -108c-22 -14.667 -45.667 -25.667 -71 -33c-26 -8 -53 -12 -81 -12
c-52.667 0 -100.334 13 -143.001 39c-43.333 26 -77.666 60.667 -102.999 104c-13.333 22.667 -23.666 47.667 -30.999 75c-7.33301 26.667 -11 54.667 -11 84c0 28.667 3.66699 56.334 11 83.001s17.666 51.334 30.999 74.001c25.333 42.667 59.333 77.334 102 104.001
c43.333 26 91.333 39 144 39zM319 45c63.333 0 116.666 23.333 159.999 70c43.333 47.333 65 105 65 173c0 66 -21.667 122.667 -65 170c-43.333 46.667 -96.666 70 -159.999 70c-64 0 -117.667 -23.333 -161 -70c-44 -47.333 -66 -104 -66 -170c0 -68 22 -125.667 66 -173
c43.333 -46.667 97 -70 161 -70z" />
    <glyph glyph-name="p" unicode="p" horiz-adv-x="634" 
d="M582 288c0 -55.333 -11.6641 -105.33 -34.9971 -149.997c-24 -44.667 -56.333 -80.334 -97 -107.001c-22 -14 -46.333 -25 -73 -33c-26.667 -7.33301 -55 -11 -85 -11c-47.333 0 -85.333 8 -114 24c-28.667 16.667 -47 28.667 -55 36v-455
c3.33301 1.33301 6.66602 2.33301 9.99902 3s7 0.666992 11 0c18 -2 31.333 -9.33301 40 -22c8 -12.667 11.333 -26.667 10 -42c-2 -16.667 -9.33301 -29.334 -22 -38.001c-9.33301 -7.33301 -21 -11 -35 -11c-2.66699 0 -6 0.333008 -10 1c-17.333 2 -32.333 11.667 -45 29
c-13.333 16.667 -20 42 -20 76l-1 1v0v363v604c0 4.66699 2 9 6 13c3.33301 4 7.33301 6 12 6h15c5.33301 0 9.66602 -1.33301 12.999 -4s5.33301 -6.66699 6 -12l6 -39c8.66699 7.33301 29 20.666 61 39.999s74.333 29 127 29c51.333 0 97.666 -13 138.999 -39
c40.667 -26 72.667 -60.333 96 -103c12.667 -23.333 22.667 -48.333 30 -75c6.66699 -26.667 10 -54.667 10 -84zM519.003 289.003c0 66.667 -20 123.668 -60 171.001c-39.333 46.667 -92 70 -158 70c-36.667 0 -67.667 -6.33301 -93 -19c-26 -12 -46 -24 -60 -36
c-7.33301 -6.66699 -13 -12.334 -17 -17.001l-8 -8v-337l8 -8c4 -4 9.66699 -8.66699 17 -14c14 -9.33301 32.667 -19 56 -29s51 -15 83 -15c69.333 0 125.333 23.333 168 70s64 104 64 172z" />
    <glyph glyph-name="q" unicode="q" horiz-adv-x="633" 
d="M612 -469c-2.66699 -17.333 -10.002 -30.3379 -22.002 -39.0049c-10 -7.33301 -21.667 -10.666 -35 -9.99902h-10c-18 2 -33.667 12.333 -47 31s-19.666 46.334 -18.999 83.001v450c-7.33301 -7.33301 -25.666 -19.333 -54.999 -36c-28.667 -16 -66.667 -24 -114 -24
c-30 0 -58 3.66699 -84 11c-26.667 8 -51 19 -73 33c-41.333 26.667 -73.666 62.334 -96.999 107.001c-24 44.667 -36 94.667 -36 150c0 29.333 3.66699 57.333 11 84c6.66699 26.667 16.334 51.667 29.001 75c23.333 42.667 55.666 77 96.999 103c40.667 26 87 39 139 39
s94.333 -9.66699 127 -29c32 -19.333 52.333 -32.666 61 -39.999c1.33301 8.66699 3 21.667 5 39c0.666992 6 3 10 7 12c3.33301 2.66699 7.33301 4 12 4h16c4 0 8 -2 12 -6c3.33301 -3.33301 5 -7.66602 5 -12.999v-964c3.33301 1.33301 6.66602 2.33301 9.99902 3
s6.66602 0.666992 9.99902 0c18.667 -2 32.334 -9.33301 41.001 -22c6.66699 -10.667 10 -21.667 10 -33v-8zM478.998 111.995l-0.00195312 336.996c-0.666992 0.666992 -3 3.33398 -7 8.00098s-10 10.334 -18 17.001c-14 12 -33.667 24 -59 36c-26 12.667 -57 19 -93 19
c-66 0 -119 -23.333 -159 -70c-39.333 -47.333 -59 -104.333 -59 -171c0 -68 21.333 -125.333 64 -172s98.667 -70 168 -70c16.667 0 32.334 1.66699 47.001 5s28.334 7.33301 41.001 12c22.667 8.66699 40.334 18.334 53.001 29.001
c13.333 10.667 20.666 17.334 21.999 20.001z" />
    <glyph glyph-name="r" unicode="r" horiz-adv-x="455" 
d="M455 486c-2.66699 -18 -10.0039 -31.667 -22.0039 -41c-11.333 -9.33301 -25.666 -12.666 -42.999 -9.99902c-14.667 2 -27 8.66699 -37 20s-13.667 26.333 -11 45c0.666992 3.33301 1.66699 6.33301 3 9l4 8c-6.66699 2 -14.334 4 -23.001 6
c-9.33301 2 -19.666 3 -30.999 3c-19.333 0 -37 -2.33301 -53 -7s-30.333 -11 -43 -19c-24 -13.333 -42 -28 -54 -44s-18.667 -25.667 -20 -29v-408c0 -6 -1.66699 -10.667 -5 -14c-2.66699 -3.33301 -7.33398 -5 -14.001 -5h-29c-4.66699 0 -8.33398 2 -11.001 6
c-3.33301 3.33301 -5 7.66602 -5 12.999v201v335c0 5.33301 2 9.66602 6 12.999c4 4 8.33301 6 13 6h17c4.66699 0 8.66699 -1.33301 12 -4c2.66699 -3.33301 4.66699 -7.33301 6 -12c0.666992 -13.333 2.33398 -33 5.00098 -59c2.66699 3.33301 6.66699 8 12 14
c4.66699 6 11 12.667 19 20c14.667 12.667 34.334 25 59.001 37s54.334 18 89.001 18c10 0 19 -0.666992 27 -2c8.66699 -0.666992 16.334 -1.66699 23.001 -3c0.666992 -0.666992 1.66699 -1 3 -1h2c0.666992 -0.666992 1.33398 -1 2.00098 -1h2
c37.333 -8.66699 63.333 -22 78 -40c12.667 -15.333 19 -30.666 19 -45.999v-9z" />
    <glyph glyph-name="s" unicode="s" horiz-adv-x="485" 
d="M444 145c0 -43.333 -19.667 -80.668 -59 -112.001s-87.666 -47 -144.999 -47c-48.667 0 -88 7.66699 -118 23c-30.667 15.333 -54 29 -70 41c-2.66699 2.66699 -4.66699 5.66699 -6 9c-2 4 -1.66699 7.66699 1 11c2.66699 5.33301 7.33398 13 14.001 23
c2 4 5.66699 6.33301 11 7c4.66699 0.666992 9.66699 -1 15 -5c7.33301 -6 24.666 -17 51.999 -33c27.333 -15.333 61 -23 101 -23c41.333 0 74.666 10 99.999 30s38 44 38 72c0 32.667 -14.667 57.667 -44 75c-30 18 -69 36 -117 54c-50.667 18 -92.667 39.333 -126 64
c-33.333 25.333 -50 60.333 -50 105c0 31.333 14.667 64 44 98c30 34 78 51 144 51c30 0 57 -3.66699 81 -11c24 -6.66699 43.667 -14 59 -22c32.667 -16 54.334 -34 65.001 -54c10.667 -19.333 12.667 -37.666 6 -54.999c-6 -17.333 -15.667 -29.333 -29 -36
c-12.667 -7.33301 -27.334 -8 -44.001 -2c-14 4.66699 -24.667 13.667 -32 27c-8 13.333 -8.66699 28.666 -2 45.999c1.33301 4 3 7.66699 5 11c2.66699 2.66699 5.66699 5.33398 9 8.00098c-12 6 -28.667 13 -50 21c-21.333 7.33301 -44 11 -68 11
c-45.333 0 -77.333 -10.333 -96 -31c-18.667 -21.333 -28 -41.666 -28 -60.999c0 -28.667 12.333 -51 37 -67c24 -16.667 57.333 -32.334 100 -47.001c53.333 -20.667 100.333 -43 141 -67s61 -62 61 -114z" />
    <glyph glyph-name="t" unicode="t" horiz-adv-x="466" 
d="M351 5c-14.667 -5.33301 -31.002 -10.0059 -49.002 -14.0059s-37.333 -6 -58 -6c-59.333 0 -95.666 15.667 -108.999 47c-13.333 30.667 -20 69 -20 115v370h-67c-7.33301 0 -12 1.66699 -14 5s-3 8 -3 14v23c0 4.66699 1.66699 8.33398 5 11.001
c2.66699 2 6.66699 3 12 3h67v156c0 6 2 10.667 6 14c3.33301 3.33301 7.66602 5 12.999 5c5.33301 0.666992 13.333 1.33398 24 2.00098c5.33301 0 9.66602 -2 12.999 -6c4 -4 6 -8.33301 6 -13v-158h199c6 0 10.667 -1.66699 14 -5c3.33301 -4 5 -8.33301 5 -13v-19
c0 -6 -1.66699 -10.667 -5 -14s-8 -5 -14 -5h-199v-365c0 -34 4 -60 12 -78s29 -27 63 -27c15.333 0 31.333 2 48 6c16.667 4.66699 31.667 9.66699 45 15c-2.66699 2.66699 -5 5.33398 -7 8.00098c-2 3.33301 -3.66699 7 -5 11c-5.33301 17.333 -3.66602 32.333 5.00098 45
c8 12.667 19.333 21.334 34 26.001c16.667 4.66699 31.334 3 44.001 -5c12.667 -7.33301 21.667 -19.666 27 -36.999c1.33301 -5.33301 2 -10.666 2 -15.999c0 -14 -5 -28.333 -15 -43c-13.333 -20.667 -39.666 -38 -78.999 -52z" />
    <glyph glyph-name="u" unicode="u" horiz-adv-x="588" 
d="M527 554l0.00195312 -536.003c0 -4.66699 -1.66699 -9 -5 -13c-4 -4 -8.66699 -6 -14 -6h-17c-5.33301 0 -9.33301 2 -12 6c-2.66699 3.33301 -4.33398 7.33301 -5.00098 12l-6 56c-4.66699 -6.66699 -15.334 -17 -32.001 -31c-16 -14 -37 -26.333 -63 -37
c-14.667 -6 -30.334 -10.667 -47.001 -14c-17.333 -4 -36 -6 -56 -6c-80 0 -138.333 23.333 -175 70c-36 46.667 -54 110.334 -54 191.001v222v1v1c0.666992 33.333 7.66699 58.333 21 75c12.667 16.667 27.667 26 45 28h10c13.333 0.666992 25 -2.66602 35 -9.99902
c12 -8.66699 19 -21.667 21 -39c2 -14.667 -1.33301 -28.334 -10 -41.001c-8 -12.667 -21.333 -20 -40 -22c-3.33301 -0.666992 -6.66602 -0.666992 -9.99902 0c-2.66699 0.666992 -5.66699 1.33398 -9 2.00098v-217c0 -66.667 15 -116.667 45 -150
c29.333 -34 71.333 -51 126 -51c20.667 0 39.667 2.66699 57 8c17.333 4.66699 33.333 11 48 19c26 14 46.333 29.333 61 46c14 16 21.667 25.333 23 28v408c0 6 1.66699 10.667 5 14s8 5 14 5h25c5.33301 0 10 -2 14 -6c3.33301 -3.33301 5 -7.66602 5 -12.999z" />
    <glyph glyph-name="v" unicode="v" horiz-adv-x="594" 
d="M548 527l-237.999 -528c-2 -4.66699 -4.33301 -8 -7 -10s-6 -3 -10 -3h-5c-4.66699 0 -8.33398 1 -11.001 3c-2 1.33301 -4.33301 4.66602 -7 9.99902l-246 553c-2 4.66699 -3 8.66699 -3 12v3c1.33301 4.66699 5 7 11 7h32c3.33301 0 6.66602 -1 9.99902 -3
c3.33301 -1.33301 6 -4.66602 8 -9.99902l208 -473h2l209 473c0.666992 0.666992 1 1.33398 1 2.00098s0.333008 1 1 1c0.666992 1.33301 1.33398 3.33301 2.00098 6c0.666992 0.666992 1 1.33398 1 2.00098v3c-4 -0.666992 -8 -0.666992 -12 0s-7.66699 2 -11 4
c-16.667 9.33301 -26.334 21.333 -29.001 36c-3.33301 15.333 -1.33301 29.333 6 42c8.66699 15.333 20.334 24.666 35.001 27.999l12 2c10.667 0 21.667 -3.33301 33 -10c18 -9.33301 29 -27 33 -53c0.666992 -4 1 -8.66699 1 -14c0 -22.667 -8.66699 -50.334 -26 -83.001z
" />
    <glyph glyph-name="w" unicode="w" horiz-adv-x="825" 
d="M790 536l-168.001 -537.999c-1.33301 -4.66699 -3.33301 -8 -6 -10s-6.33398 -3 -11.001 -3h-5c-4 0 -7.66699 1 -11 3c-3.33301 2.66699 -5.66602 6 -6.99902 10l-173 483h-2l-172 -483c-1.33301 -4 -3.66602 -7.33301 -6.99902 -10
c-3.33301 -2 -6.66602 -3 -9.99902 -3h-6c-4 0 -7.33301 1 -10 3c-3.33301 2 -5.66602 5.33301 -6.99902 10l-172 552c-1.33301 5.33301 -2 9.66602 -2 12.999v4c0.666992 4 4.33398 6 11.001 6h31c4 0 7.66699 -0.666992 11 -2c4 -2 6.66699 -5.66699 8 -11l135 -451h1
l171 466c1.33301 4.66699 3.33301 8 6 10s6.33398 3 11.001 3h6c3.33301 0 6.66602 -1.33301 9.99902 -4c3.33301 -2 5.66602 -5 6.99902 -9l171 -466h1l114 381l24 85c-4 -0.666992 -7.66699 -0.666992 -11 0c-3.33301 0 -7 0.666992 -11 2
c-16.667 7.33301 -27.334 18.333 -32.001 33c-4.66699 14 -4.33398 28 0.999023 42c6.66699 16 17 26.667 31 32c6 2 12.333 3 19 3c8.66699 0 17.667 -2 27 -6c18.667 -8 31.667 -24 39 -48c2 -7.33301 3 -16 3 -26c0.666992 -20 -4.33301 -43.667 -15 -71z" />
    <glyph glyph-name="x" unicode="x" horiz-adv-x="588" 
d="M530 21c4 -5.33301 5.00098 -9.99902 3.00098 -13.999c-2 -4.66699 -6 -7 -12 -7h-37c-4 0 -8 1.33301 -12 4c-3.33301 2 -6.66602 5 -9.99902 9l-179 240h-1l-180 -240c-2.66699 -4 -6 -7 -10 -9c-4 -2.66699 -7.66699 -4 -11 -4h-38c-5.33301 0 -9 2.33301 -11 7
c-0.666992 1.33301 -1 2.66602 -1 3.99902c-0.666992 2.66699 0.666016 6 3.99902 10l211 273l-200 260c-4 5.33301 -5 10 -3 14s6 6 12 6h37c4 0 8 -1 12 -3c3.33301 -2 6.66602 -5.33301 9.99902 -10l168 -222h1l129 170v0c10.667 13.333 26.334 34 47.001 62l1 1
c0 0.666992 0.333008 1.33398 1 2.00098c-4.66699 0.666992 -8.66699 1.66699 -12 3c-4 1.33301 -7.33301 3.33301 -10 6c-14 12.667 -21 26.667 -21 42c0.666992 14.667 6 27.667 16 39c11.333 13.333 24.333 20 39 20h1c14.667 0 28.667 -6 42 -18c14 -12 21 -30 21 -54
c0 -23.333 -11.667 -50.333 -35 -81v0c-0.666992 -0.666992 -1 -1.33398 -1 -2.00098l-2 -2c-0.666992 -0.666992 -1.33398 -1.66699 -2.00098 -3l-175 -228z" />
    <glyph glyph-name="y" unicode="y" horiz-adv-x="647" 
d="M624 551l-441.996 -951.999c-17.333 -41.333 -37 -68.333 -59 -81c-14.667 -8.66699 -28.334 -13 -41.001 -13c-7.33301 0 -14.333 1.33301 -21 4c-16.667 6.66699 -28.334 16.667 -35.001 30c-4 6.66699 -6 14 -6 22c0 6.66699 1.66699 14 5 22
c5.33301 14 14.666 24.667 27.999 32s28.666 7.66602 45.999 0.999023c4 -2 7.33301 -4 10 -6l8 -8l188 404l-271 545c-2.66699 6 -3.33398 11.333 -2.00098 16c0.666992 4.66699 4.33398 7 11.001 7h31c4 0 7.66699 -1 11 -3s6 -5.33301 8 -10l245 -485h3l224 485
c2 4.66699 4.66699 8 8 10s7 3 11 3h31c6.66699 0 10.667 -2.33301 12 -7v-4c0 -3.33301 -1 -7.33301 -3 -12z" />
    <glyph glyph-name="z" unicode="z" horiz-adv-x="527" 
d="M483 546l-195.002 -281.997c4 -1.33301 8.33301 -2.33301 13 -3s9.66699 -1.33398 15 -2.00098c10.667 -0.666992 20.667 -0.333984 30 0.999023s17.666 3.33301 24.999 6c-2.66699 3.33301 -4.66699 7 -6 11s-2 8 -2 12c0 18.667 6 33 18 43
c11.333 9.33301 24.666 14 39.999 14c17.333 0 31 -5.33301 41 -16c10 -11.333 15 -26 15 -44c0 -20.667 -10.667 -39.334 -32 -56.001c-21.333 -16 -55.666 -24 -102.999 -24c-16 0 -31 1.33301 -45 4s-27 6.33398 -39 11.001l-114 -164h300c6 0 10.667 -1.66699 14 -5
s5 -7.66602 5 -12.999v-21c0 -4.66699 -1.66699 -9 -5 -13c-3.33301 -3.33301 -8 -5 -14 -5h-375c-5.33301 0 -9.66602 1.33301 -12.999 4c-3.33301 3.33301 -5 7.33301 -5 12l1 8c0 4.66699 2.33301 10.667 7 18c0.666992 0.666992 7.33398 10 20.001 28l42 61l56 80l27 37
c-16.667 11.333 -30 22.666 -40 33.999c-10.667 11.333 -17.667 20.333 -21 27c-3.33301 5.33301 -5 10 -5 14c-0.666992 4 1 7.33301 5 10c2.66699 2.66699 7.33398 6.66699 14.001 12c3.33301 2.66699 7 3.66699 11 3s8 -3.66699 12 -9
c1.33301 -2 6.33301 -8.33301 15 -19c8.66699 -10 21 -20.333 37 -31l156 223v4h-292c-5.33301 0 -9.66602 2 -12.999 6c-2.66699 3.33301 -4 7.66602 -4 12.999v20c0 5.33301 1.33301 9.66602 4 12.999c3.33301 3.33301 7.66602 5 12.999 5h371
c7.33301 0 13 -2.66699 17 -8c1.33301 -3.33301 2 -6.33301 2 -9c0 -3.33301 -1 -6.66602 -3 -9.99902z" />
    <glyph glyph-name="braceleft" unicode="{" horiz-adv-x="522" 
d="M524 900c-14 -4.66699 -28 -4.00195 -42 1.99805c-14 5.33301 -24 17 -30 35c-1.33301 4 -2 8 -2 12s0.666992 8 2 12h-1h-1c-64 -12.667 -114.667 -42.334 -152 -89.001c-38 -46.667 -57 -114 -57 -202v-228c0 -32.667 -7.33301 -59.667 -22 -81
s-29 -37.666 -43 -48.999c-8 -6.66699 -15 -11.667 -21 -15s-10 -5.66602 -12 -6.99902v-1c2.66699 -1.33301 12 -7 28 -17s30.667 -25.333 44 -46c7.33301 -11.333 13.333 -24.333 18 -39c5.33301 -14.667 8 -31 8 -49v-234c0 -98 23.333 -170.333 70 -217
c46.667 -47.333 108.334 -73.666 185.001 -78.999c4 -1.33301 7.33301 -3.33301 10 -6s4 -6.66699 4 -12v-17c0 -4.66699 -2 -8.66699 -6 -12s-8.66699 -5 -14 -5c-48.667 0 -96.334 10 -143.001 30c-47.333 19.333 -86 53.333 -116 102c-16 26 -28.667 57 -38 93
c-9.33301 35.333 -14 76 -14 122v235c0 30 -6.66699 53.667 -20 71c-12.667 16.667 -26.667 29.334 -42 38.001c-8 4.66699 -16 8.66699 -24 12l-19 7c-4 1.33301 -7 2.66602 -9 3.99902c-2.66699 1.33301 -4 4.33301 -4 9v23c0 4 1.33301 6.66699 4 8
c2 1.33301 5 2.66602 9 3.99902l19 7c8 3.33301 16 7.33301 24 12c15.333 8.66699 29.333 21.667 42 39c13.333 16.667 20 40 20 70v230c0 106.667 22.667 186 68 238c46 52 99 85 159 99v0v0c28 9.33301 52 14 72 14c12.667 0 23.667 -1.66699 33 -5
c25.333 -9.33301 41.333 -23.666 48 -42.999c2.66699 -8.66699 4 -16.667 4 -24c0 -8 -1.66699 -15.333 -5 -22c-6 -14 -17.333 -23.667 -34 -29z" />
    <glyph glyph-name="bar" unicode="|" horiz-adv-x="454" 
d="M205 1090c0 6 1.66699 10.667 5 14c4 3.33301 8.33301 5 13 5h9c5.33301 0 9.33301 -1.66699 12 -5c3.33301 -3.33301 5 -8 5 -14v-904v-579c0 -5.33301 -1.66699 -9.66602 -5 -12.999c-4 -3.33301 -8.33301 -5 -13 -5h-8c-4.66699 0 -9 1.66699 -13 5
c-3.33301 3.33301 -5 7.66602 -5 12.999v734v749z" />
    <glyph glyph-name="braceright" unicode="}" horiz-adv-x="516" 
d="M454 302l-0.000976562 -23.002c0 -4.66699 -1 -7.66699 -3 -9s-5.33301 -2.66602 -10 -3.99902l-19 -7c-7.33301 -3.33301 -15.333 -7.33301 -24 -12c-14.667 -8.66699 -28.667 -21.334 -42 -38.001c-12.667 -17.333 -19 -41 -19 -71v-235
c0 -106.667 -22.667 -185.667 -68 -237c-45.333 -52 -97.666 -85.333 -156.999 -100c-26 -8 -48.667 -12 -68 -12c-13.333 0 -24.666 1.66699 -33.999 5c-24.667 8.66699 -40.334 23 -47.001 43c-2.66699 8 -4 15.667 -4 23c0 8 1.66699 15.667 5 23
c6 13.333 17 22.666 33 27.999c14.667 4.66699 29 4.33398 43 -0.999023c14 -6 24 -17.667 30 -35c1.33301 -4.66699 2 -8.66699 2 -12l-2 -12c0.666992 -0.666992 1.33398 -0.666992 2.00098 0h3c60.667 13.333 109.334 43.333 146.001 90c36 46 54 112 54 198v234
c0 17.333 2.33301 33.333 7 48c4.66699 14 10.667 26.667 18 38c12.667 20.667 27 36 43 46c16 10.667 25.667 17 29 19v1c-2.66699 1.33301 -11.667 7.33301 -27 18c-16 10 -31 25.667 -45 47c-6.66699 10.667 -12.667 23.334 -18 38.001c-4.66699 14.667 -7 31 -7 49v228
c0 98.667 -23.333 171.334 -70 218.001s-108.334 73 -185.001 79c-4.66699 0.666992 -8.33398 2.33398 -11.001 5.00098c-2.66699 3.33301 -4 7.33301 -4 12v17c0 5.33301 2.33301 9.66602 7 12.999c4 3.33301 8.33301 5 13 5c48.667 0 96.667 -10 144 -30
s86 -54.333 116 -103c16 -26 28.667 -56.667 38 -92s14 -76 14 -122v-230c0 -16 2 -30 6 -42s9.33301 -22.667 16 -32c12 -16.667 26.333 -29 43 -37s29.667 -13.333 39 -16c4.66699 -2 8 -3.66699 10 -5s3 -4 3 -8z" />
    <glyph glyph-name="asciitilde" unicode="~" horiz-adv-x="706" 
d="M654 426c-13.333 -19.333 -35.002 -42.3301 -65.002 -68.9971s-66.667 -40 -110 -40c-34 0 -62.667 8.66699 -86 26c-23.333 16.667 -43.666 33.334 -60.999 50.001c-13.333 14 -29.666 28.333 -48.999 43s-42 22 -68 22c-15.333 0 -29.666 -2.66699 -42.999 -8
c-12.667 -5.33301 -24 -12 -34 -20c-20 -14.667 -35.333 -31 -46 -49s-17.667 -29.333 -21 -34s-7 -7.33398 -11 -8.00098c-4.66699 -0.666992 -9.33398 0.666016 -14.001 3.99902l-19 14c-3.33301 3.33301 -5.33301 7 -6 11c-0.666992 0.666992 -1 1.33398 -1 2.00098
c0 3.33301 1.33301 6.66602 4 9.99902l22 34c14 22.667 34.667 44 62 64c14 10.667 30 19.667 48 27c18 8 37.667 12 59 12c33.333 0 62.666 -8.66699 87.999 -26c24.667 -16.667 45.334 -34 62.001 -52c12.667 -12.667 29 -26.667 49 -42c19.333 -14.667 41 -22 65 -22
c28 0 51.667 7.33301 71 22c20 15.333 36 31 48 47c2 2.66699 3.66699 5.66699 5 9l4 8c-4 0.666992 -7.66699 2 -11 4c-4 1.33301 -7.33301 3.66602 -10 6.99902c-14 12.667 -20.333 26.667 -19 42s7 28.333 17 39c12 11.333 25 17.333 39 18h2
c14.667 -0.666992 28.667 -7.33398 42 -20.001c12 -12 18 -28.667 18 -50v-1c0 -21.333 -10.333 -46 -31 -74z" />
    <glyph glyph-name="exclamdown" unicode="&#xa1;" horiz-adv-x="319" 
d="M121 525c0 16 5.66699 29.667 17 41c10.667 11.333 24.334 17 41.001 17c15.333 0 29 -5.66699 41 -17s18 -25 18 -41s-6 -29.667 -18 -41c-12 -10.667 -25.667 -16 -41 -16c-16.667 0 -30.334 5.33301 -41.001 16c-11.333 11.333 -17 25 -17 41zM136 -409
l2.99902 0.00195312h3v166l12 408c0 4.66699 2.33301 8.66699 7 12c4 4 8 6 12 6h12c4.66699 0 9 -2 13 -6c3.33301 -3.33301 5 -7.33301 5 -12l15 -407v-149v-13v-1v-11v-1c0 -0.666992 -0.333008 -1.66699 -1 -3v-2c-2.66699 -33.333 -10.667 -58 -24 -74
c-14 -16 -29.667 -24.667 -47 -26h-6c-15.333 0 -28.333 4 -39 12c-11.333 9.33301 -17.666 22.666 -18.999 39.999v4c0 13.333 4 25.666 12 36.999c9.33301 12 23.333 18.667 42 20z" />
    <glyph glyph-name="cent" unicode="&#xa2;" horiz-adv-x="601" 
d="M31 286c0 56 13.3291 106.337 39.9961 151.004s61.334 80 104.001 106c23.333 14 48 25 74 33c26.667 7.33301 54.334 11 83.001 11c8 0 15.667 -0.333008 23 -1s14.333 -1.66699 21 -3l15 57c1.33301 5.33301 4.33301 8.66602 9 9.99902c2.66699 1.33301 6 2 10 2h4
c1.33301 -0.666992 3.66602 -1.33398 6.99902 -2.00098c4.66699 -0.666992 8.33398 -3.33398 11.001 -8.00098c2.66699 -4 3.33398 -9 2.00098 -15c-3.33301 -12 -8 -30 -14 -54c32.667 -9.33301 59.667 -22 81 -38c22 -16 36.333 -28.667 43 -38
c4 -4.66699 5.66699 -9.33398 5 -14.001s-3.33398 -8.66699 -8.00098 -12l-15 -15c-7.33301 -5.33301 -13 -7 -17 -5s-8 5.33301 -12 10c-3.33301 3.33301 -13.333 11 -30 23s-37.667 21.333 -63 28l-125 -463c8.66699 -1.33301 17.334 -2.33301 26.001 -3
s17.334 -1 26.001 -1c18.667 0 35.667 1.66699 51 5c16 4 30.667 8.66699 44 14c23.333 10 42.333 21.667 57 35c14 13.333 24 22.333 30 27c4.66699 6 9.33398 9 14.001 9c4.66699 0.666992 9 -1.33301 13 -6c2.66699 -2 6.66699 -5.33301 12 -10
c3.33301 -3.33301 5.66602 -7 6.99902 -11c0.666992 -2 1 -3.66699 1 -5c0 -2.66699 -1 -5.33398 -3 -8.00098c-6.66699 -11.333 -20 -25.666 -40 -42.999c-19.333 -17.333 -44 -32.333 -74 -45c-16 -6.66699 -33.333 -12 -52 -16c-18.667 -4.66699 -38.334 -7 -59.001 -7
c-12 0 -24 0.666992 -36 2c-12 0.666992 -23.333 2.66699 -34 6l-33 -129c-1.33301 -5.33301 -4.33301 -9 -9 -11c-3.33301 -0.666992 -6.66602 -1 -9.99902 -1h-4c-2 0.666992 -4.33301 1 -7 1c-5.33301 1.33301 -9.33301 4 -12 8c-2 4 -2.33301 8.66699 -1 14l33 131
c-54.667 21.333 -99.667 57 -135 107s-53 108 -53 174zM358.996 522.004c-4 1.33301 -8.33398 1.99902 -13.001 1.99902c-4 0.666992 -8.66699 1 -14 1c-65.333 0 -121 -22.667 -167 -68c-46.667 -45.333 -70 -102 -70 -170c0 -51.333 13.333 -96.666 40 -135.999
s60.334 -68 101.001 -86z" />
    <glyph glyph-name="sterling" unicode="&#xa3;" horiz-adv-x="751" 
d="M661 833c-8.66699 -15.333 -20.001 -25.667 -34.001 -31c-14.667 -4.66699 -29.334 -2.66699 -44.001 6c-13.333 7.33301 -22.666 18 -27.999 32s-3.33301 29.333 6 46c1.33301 2.66699 3 5 5 7c2 2.66699 4.33301 4.66699 7 6c-17.333 13.333 -41 26.666 -71 39.999
c-30.667 14 -66.334 21 -107.001 21c-61.333 0 -114.333 -21 -159 -63s-67 -98 -67 -168c0 -50 6.33301 -96.667 19 -140c12 -43.333 21 -79.666 27 -108.999h290c6.66699 0 11.334 -2.33301 14.001 -7c3.33301 -4 5 -8.66699 5 -14v-5
c0 -5.33301 -1.66699 -9.66602 -5 -12.999c-3.33301 -4 -8 -6 -14 -6h-278c2.66699 -17.333 4.66699 -36 6 -56c1.33301 -20.667 2 -40.667 2 -60c-0.666992 -42.667 -4.66699 -85 -12 -127c-8 -42.667 -21.667 -86.334 -41 -131.001h431c7.33301 0 12 -2.33301 14 -7
c2 -4 3 -8.33301 3 -13v-22c0 -4 -1.66699 -8 -5 -12c-3.33301 -3.33301 -7.33301 -5 -12 -5h-491c-4.66699 0 -9 2 -13 6c-3.33301 4 -4.66602 8.66699 -3.99902 14v13c22.667 51.333 40.334 103.333 53.001 156c12 52.667 17.333 95.334 16 128.001
c0 24 -1.33301 45.333 -4 64c-2 18 -4.66699 35.333 -8 52h-61c-6 0 -10.667 2.33301 -14 7c-3.33301 4 -5 9 -5 15v5c0 4.66699 1.66699 8.66699 5 12c4 4 8.66699 6 14 6h51c-7.33301 30.667 -16.666 67 -27.999 109c-12 42.667 -18 90 -18 142c0 30 4 58.667 12 86
c8 26.667 19 51 33 73c26 40.667 60.667 72.667 104 96c44 22.667 91.667 34 143 34c45.333 0 86.333 -7.33301 123 -22c36 -14 65.333 -29.333 88 -46c0.666992 -0.666992 1.66699 -1.33398 3 -2.00098l2 -2c0.666992 0 1.33398 -0.333008 2.00098 -1l2 -2
c1.33301 -1.33301 2.66602 -2.33301 3.99902 -3c1.33301 -1.33301 2.66602 -2.33301 3.99902 -3l2 -2l1 -1l2 -2c1.33301 -0.666992 2.33301 -1.33398 3 -2.00098c3.33301 -3.33301 6 -6.33301 8 -9l7 -7v-1v0c11.333 -15.333 17.666 -30 18.999 -44
c0.666992 -2.66699 1 -5 1 -7c0 -11.333 -2.66699 -21.666 -8 -30.999z" />
    <glyph glyph-name="currency" unicode="&#xa4;" 
d="M49 127c-5.33301 4 -7.66406 8.33496 -6.99707 13.002s2 8 4 10l76 76c-25.333 33.333 -37.666 71 -36.999 113c0.666992 42.667 13 80.334 37 113.001l-76 74c-2 2.66699 -3.33301 6.66699 -4 12v1c0 4.66699 2.33301 9 7 13c3.33301 3.33301 8 8.66602 14 15.999
c4.66699 4 9.33398 6 14.001 6l1 -1c4.66699 0 9 -0.666992 13 -2l73 -76c34 25.333 71.667 37.666 113 36.999s78.666 -13.667 111.999 -39l76 76c2 2 5.66699 3.33301 11 4c5.33301 0 10.333 -2.66699 15 -8l16 -13c3.33301 -5.33301 5 -10 5 -14v-1
c-0.666992 -4.66699 -2.33398 -8.66699 -5.00098 -12l-74 -74c24.667 -32.667 37 -70 37 -112s-12.333 -79 -37 -111l74 -73c2.66699 -4.66699 3.66699 -9.33398 3 -14.001c0 -4.66699 -2.66699 -9.33398 -8 -14.001c-2.66699 -3.33301 -7.33398 -8.66602 -14.001 -15.999
c-5.33301 -4 -10.333 -5.66699 -15 -5s-8.33398 2 -11.001 4l-73 73c-33.333 -24 -71 -36.333 -113 -37c-42 0 -79.333 12.333 -112 37l-73 -76c-3.33301 -2 -7.33301 -3 -12 -3h-1c-4.66699 0.666992 -9.66699 2.66699 -15 6c-2.66699 4 -7.33398 9.66699 -14.001 17z
M376.002 241.002c26.667 26 40 58.333 40 97s-13.333 71.334 -40 98.001c-26 26.667 -58 40 -96 40h-2c-38 0 -70.333 -13.333 -97 -40s-40 -59.334 -40 -98.001s13.333 -71 40 -97s59 -39.333 97 -40h2c38 0 70 13.333 96 40z" />
    <glyph glyph-name="yen" unicode="&#xa5;" horiz-adv-x="896" 
d="M178 217l-0.00390625 8c0 5.33301 1.66699 9.66602 5 12.999c2.66699 4 7 6 13 6h215v126h-215c-5.33301 0 -9.66602 1.66699 -12.999 5s-5 7.33301 -5 12v9c0 4.66699 1.66699 9 5 13c2.66699 4 7 6 13 6h215v73l-366 495c-2.66699 3.33301 -4 6.66602 -4 9.99902
c0 2 0.333008 3.66699 1 5c2.66699 4 7.33398 6 14.001 6h44c3.33301 0 6.66602 -0.666992 9.99902 -2s6 -3.33301 8 -6l327 -448l333 448c2 2.66699 4.66699 4.66699 8 6s7 2 11 2h43c7.33301 0 12 -2 14 -6c0.666992 -1.33301 1 -3 1 -5
c0 -3.33301 -1.33301 -6.66602 -4 -9.99902l-373 -494v-74h215c6 0 10.333 -2 13 -6c3.33301 -4 5 -8.33301 5 -13v-9c0 -4.66699 -1.66699 -8.66699 -5 -12s-7.66602 -5 -12.999 -5h-215v-126h215c6 0 10.333 -2 13 -6c3.33301 -3.33301 5 -7.66602 5 -12.999v-8
c0 -5.33301 -1.66699 -9.66602 -5 -12.999s-7.66602 -5 -12.999 -5h-215v-180c0 -5.33301 -1.66699 -9.66602 -5 -12.999c-4 -4 -8.33301 -6 -13 -6h-32c-4.66699 0 -8.66699 2 -12 6c-3.33301 3.33301 -5 7.66602 -5 12.999v180h-215
c-5.33301 0 -9.66602 1.66699 -12.999 5s-5 7.66602 -5 12.999z" />
    <glyph glyph-name="brokenbar" unicode="&#xa6;" 
d="M255 747l0.000976562 241v254c0 5.33301 2 9.66602 6 12.999c3.33301 3.33301 7.66602 5 12.999 5h8c5.33301 0 9.66602 -1.66699 12.999 -5s5 -7.66602 5 -12.999v-331v-164c0 -5.33301 -2 -9.66602 -6 -12.999c-4 -4 -8.33301 -6 -13 -6h-7
c-5.33301 0 -9.66602 2 -12.999 6c-4 3.33301 -6 7.66602 -6 12.999zM274.001 273h8.00098c5.33301 0 9.66602 -1.66699 12.999 -5c3.33301 -4 5 -8.33301 5 -13v-331v-166c0 -4.66699 -2 -8.66699 -6 -12s-8.33301 -5 -13 -5h-7c-5.33301 0 -9.66602 1.66699 -12.999 5
c-4 3.33301 -6 7.33301 -6 12v242v255c0 4.66699 2 9 6 13c3.33301 3.33301 7.66602 5 12.999 5z" />
    <glyph glyph-name="section" unicode="&#xa7;" horiz-adv-x="784" 
d="M598 102c8 -6 20 -17.3301 36 -33.9971c16 -16 30 -36.667 42 -62c6.66699 -14 12 -29 16 -45c4.66699 -16.667 7 -34.667 7 -54c0 -24 -4.33301 -46.667 -13 -68c-8.66699 -22 -20.334 -41.667 -35.001 -59c-27.333 -34 -64 -60.667 -110 -80
c-45.333 -19.333 -94 -29 -146 -29c-53.333 0 -100.666 8 -141.999 24c-42 16 -75.667 32.333 -101 49c-14 9.33301 -25.667 17.666 -35 24.999c-8.66699 6.66699 -14.667 11.667 -18 15s-6.33301 7.33301 -9 12s-1 10.667 5 18l18 23c4 4 8.33301 6.66699 13 8
c4.66699 0.666992 9.66699 -1.66602 15 -6.99902c4 -4 17 -14.667 39 -32s50.333 -33.333 85 -48c18.667 -8 39 -14.333 61 -19c22 -5.33301 45.333 -8 70 -8c20 0 40 2 60 6s39 10 57 18c32.667 14 60 34 82 60s33 56.333 33 91c0 58.667 -24 105.667 -72 141
c-47.333 34.667 -113 66 -197 94c-80.667 26.667 -147 60.667 -199 102s-78 98.666 -78 171.999c0 44.667 12.333 81.667 37 111s43.334 49.666 56.001 60.999l-32 33c-14.667 15.333 -27.667 35.333 -39 60c-6 12.667 -11 27 -15 43c-4 15.333 -6 32 -6 50
c0 34.667 9.66699 71 29 109c19.333 37.333 50.666 68.333 93.999 93c23.333 13.333 50.333 24 81 32c31.333 8 66.333 12 105 12c51.333 0 96.666 -7.33301 135.999 -22s68.333 -27.334 87 -38.001v0v0c2 -1.33301 3.66699 -2.33301 5 -3s2.33301 -1.33398 3 -2.00098
c38 -22 62 -44.667 72 -68c4.66699 -12 7 -23 7 -33c0 -10.667 -2.33301 -20.334 -7 -29.001c-8.66699 -16 -20 -26.333 -34 -31s-28.667 -3 -44 5c-13.333 7.33301 -22.666 18 -27.999 32s-3.66602 29.333 5.00098 46c1.33301 2 3 4 5 6c1.33301 2 3 3.66699 5 5
c-0.666992 0.666992 -1.33398 1 -2.00098 1l-2 2c-1.33301 0.666992 -5.33301 3 -12 7c-6 4 -14 8.66699 -24 14c-19.333 10 -44.333 20.333 -75 31c-30 10.667 -62.333 16 -97 16c-31.333 0 -59.333 -2.66699 -84 -8c-24 -6 -45 -14 -63 -24
c-34 -18 -58.667 -41.333 -74 -70c-14.667 -28 -22 -55.667 -22 -83c0 -54.667 21.667 -99 65 -133c42.667 -33.333 99.667 -61 171 -83c94 -31.333 170 -66.666 228 -105.999s87 -96.666 87 -171.999c0 -15.333 -2.33301 -30 -7 -44c-4 -14 -9.66699 -27.333 -17 -40
c-12.667 -22.667 -27 -42 -43 -58zM628 274.003c0 57.333 -24.001 102 -72.001 134c-47.333 31.333 -113 61 -197 89c-26 6.66699 -50.667 15 -74 25c-23.333 9.33301 -43.666 20.333 -60.999 33c-11.333 -10.667 -26.666 -27 -45.999 -49s-29 -51.333 -29 -88
c0 -57.333 21 -101.333 63 -132c42.667 -30 98.334 -56.667 167.001 -80c30 -9.33301 59 -20 87 -32c27.333 -11.333 53.666 -24.333 78.999 -39c9.33301 8.66699 25.666 25 48.999 49c22.667 24 34 54 34 90z" />
    <glyph glyph-name="dieresis" unicode="&#xa8;" 
d="M108 1191c0 14 4.66699 26 14 36c9.33301 9.33301 20.666 14 33.999 14c14.667 0 26.667 -4.66699 36 -14c8.66699 -10 13 -22 13 -36c0 -13.333 -4.33301 -24.666 -13 -33.999c-9.33301 -9.33301 -21.333 -14 -36 -14c-13.333 0 -24.666 4.66699 -33.999 14
s-14 20.666 -14 33.999zM383 1191c0 14 4.66699 26 14 36c8.66699 9.33301 19.667 14 33 14c14.667 0 26.667 -4.66699 36 -14c10 -10 15 -22 15 -36c0 -13.333 -5 -24.666 -15 -33.999c-9.33301 -9.33301 -21.333 -14 -36 -14c-13.333 0 -24.333 4.66699 -33 14
c-9.33301 9.33301 -14 20.666 -14 33.999z" />
    <glyph glyph-name="copyright" unicode="&#xa9;" horiz-adv-x="1116" 
d="M1075 487c0 -50 -6.66699 -97.999 -20 -143.999c-14 -46 -33.333 -88.667 -58 -128c-46 -73.333 -107.667 -132.333 -185 -177s-162.333 -67 -255 -67c-50 0 -98 6.66699 -144 20s-88.667 32.333 -128 57c-73.333 45.333 -132.333 106.666 -177 183.999
s-67 162.333 -67 255c0 92 22.333 176.667 67 254s103.667 139 177 185c39.333 24.667 82 43.667 128 57c46 14 94 21 144 21s98 -7 144 -21c46 -13.333 88.667 -32.333 128 -57c74 -46 133.667 -107.667 179 -185c44.667 -77.333 67 -162 67 -254zM1018 487.001
c0 82.667 -19.999 158.333 -59.999 227s-92.667 123 -158 163c-35.333 22 -73.666 39 -114.999 51c-40.667 12 -83.334 18 -128.001 18c-82 0 -157.667 -20 -227 -60c-68.667 -39.333 -123.334 -91.666 -164.001 -156.999c-22 -35.333 -39 -73.333 -51 -114
s-18 -83.334 -18 -128.001c0 -82.667 20 -158.334 60 -227.001s92.667 -123.334 158 -164.001c35.333 -22 73.333 -39 114 -51c41.333 -12.667 84 -19 128 -19c44.667 0 87.667 6.33301 129 19c40.667 12 78.667 29 114 51c65.333 40.667 118 95.334 158 164.001
s60 144.334 60 227.001zM775.001 612c-6 -16.667 -15.668 -28.3291 -29.001 -34.9961s-28 -7 -44 -1c-14.667 5.33301 -25.667 14.666 -33 27.999s-7.66602 28.666 -0.999023 45.999c1.33301 4 3.33301 7.33301 6 10c2.66699 3.33301 5.66699 6.33301 9 9
c-1.33301 0.666992 -2.66602 1.66699 -3.99902 3c-2 1.33301 -3.66699 2.66602 -5 3.99902c-16 8 -32.667 14 -50 18c-18 3.33301 -35.333 5 -52 5c-60 0 -110 -20.667 -150 -62c-40.667 -42 -61 -92.333 -61 -151c0 -59.333 20.333 -109.666 61 -150.999
c40 -41.333 90 -62 150 -62c22.667 0 45 3.66699 67 11c21.333 7.33301 42 18.666 62 33.999c4.66699 3.33301 9.33398 5 14.001 5s9 -2.66699 13 -8c2.66699 -4 7 -9.66699 13 -17c2.66699 -4.66699 4 -9 4 -13s-1.66699 -8 -5 -12
c-24.667 -22 -51.334 -37.667 -80.001 -47c-28 -9.33301 -58 -14 -90 -14c-48.667 0 -93.334 11.667 -134.001 35s-73 54.666 -97 93.999c-13.333 20.667 -23.333 43 -30 67c-7.33301 24.667 -11 50 -11 76c0 26.667 3.66699 52.334 11 77.001
c6.66699 24 16.667 46.333 30 67c24 39.333 56.333 70.666 97 93.999s85.334 35 134.001 35c24 0 48.333 -3 73 -9s48 -15.667 70 -29c29.333 -16 48.666 -33.667 57.999 -53c5.33301 -11.333 8 -22.333 8 -33c0 -6.66699 -1.33301 -13.667 -4 -21zM1075 487.005
c0 -50 -6.66699 -97.999 -20 -143.999c-14 -46 -33.333 -88.667 -58 -128c-46 -73.333 -107.667 -132.333 -185 -177s-162.333 -67 -255 -67c-50 0 -98 6.66699 -144 20s-88.667 32.333 -128 57c-73.333 45.333 -132.333 106.666 -177 183.999s-67 162.333 -67 255
c0 92 22.333 176.667 67 254s103.667 139 177 185c39.333 24.667 82 43.667 128 57c46 14 94 21 144 21s98 -7 144 -21c46 -13.333 88.667 -32.333 128 -57c74 -46 133.667 -107.667 179 -185c44.667 -77.333 67 -162 67 -254zM1018 487.006
c0 82.667 -19.999 158.333 -59.999 227s-92.667 123 -158 163c-35.333 22 -73.666 39 -114.999 51c-40.667 12 -83.334 18 -128.001 18c-82 0 -157.667 -20 -227 -60c-68.667 -39.333 -123.334 -91.666 -164.001 -156.999c-22 -35.333 -39 -73.333 -51 -114
s-18 -83.334 -18 -128.001c0 -82.667 20 -158.334 60 -227.001s92.667 -123.334 158 -164.001c35.333 -22 73.333 -39 114 -51c41.333 -12.667 84 -19 128 -19c44.667 0 87.667 6.33301 129 19c40.667 12 78.667 29 114 51c65.333 40.667 118 95.334 158 164.001
s60 144.334 60 227.001zM775.001 612.005c-6 -16.667 -15.668 -28.3291 -29.001 -34.9961s-28 -7 -44 -1c-14.667 5.33301 -25.667 14.666 -33 27.999s-7.66602 28.666 -0.999023 45.999c1.33301 4 3.33301 7.33301 6 10c2.66699 3.33301 5.66699 6.33301 9 9
c-1.33301 0.666992 -2.66602 1.66699 -3.99902 3c-2 1.33301 -3.66699 2.66602 -5 3.99902c-16 8 -32.667 14 -50 18c-18 3.33301 -35.333 5 -52 5c-60 0 -110 -20.667 -150 -62c-40.667 -42 -61 -92.333 -61 -151c0 -59.333 20.333 -109.666 61 -150.999
c40 -41.333 90 -62 150 -62c22.667 0 45 3.66699 67 11c21.333 7.33301 42 18.666 62 33.999c4.66699 3.33301 9.33398 5 14.001 5s9 -2.66699 13 -8c2.66699 -4 7 -9.66699 13 -17c2.66699 -4.66699 4 -9 4 -13s-1.66699 -8 -5 -12
c-24.667 -22 -51.334 -37.667 -80.001 -47c-28 -9.33301 -58 -14 -90 -14c-48.667 0 -93.334 11.667 -134.001 35s-73 54.666 -97 93.999c-13.333 20.667 -23.333 43 -30 67c-7.33301 24.667 -11 50 -11 76c0 26.667 3.66699 52.334 11 77.001
c6.66699 24 16.667 46.333 30 67c24 39.333 56.333 70.666 97 93.999s85.334 35 134.001 35c24 0 48.333 -3 73 -9s48 -15.667 70 -29c29.333 -16 48.666 -33.667 57.999 -53c5.33301 -11.333 8 -22.333 8 -33c0 -6.66699 -1.33301 -13.667 -4 -21z" />
    <glyph glyph-name="ordfeminine" unicode="&#xaa;" horiz-adv-x="396" 
d="M31 718c0 40 15.335 73.335 46.002 100.002c31.333 26 74.333 39 129 39c22 0 42.667 -2 62 -6c20 -4 32.667 -7.33301 38 -10c0 46 -4.66699 79.333 -14 100s-33.333 31 -72 31c-34.667 0 -62.667 -4.33301 -84 -13l-39 -16c-4.66699 -1.33301 -8.33398 -1 -11.001 1
c-2.66699 1.33301 -4.33398 3.33301 -5.00098 6c-1.33301 4.66699 -3.33301 11 -6 19c-1.33301 4 -1 7.66699 1 11c1.33301 2.66699 3.33301 4.66699 6 6c2 0.666992 15 6.33398 39 17.001c24.667 10 58.667 15 102 15c22.667 0 42 -2.66699 58 -8
c15.333 -4.66699 27.666 -11.334 36.999 -20.001c18 -17.333 28.667 -40.333 32 -69c3.33301 -29.333 5 -62 5 -98v-221c0 -4.66699 -1.66699 -8.33398 -5 -11.001c-2.66699 -2.66699 -5.66699 -4 -9 -4h-16c-4.66699 0 -8 1 -10 3s-3.66699 5 -5 9
c-0.666992 7.33301 -2 18.333 -4 33c-13.333 -11.333 -31.666 -23.333 -54.999 -36c-24 -12.667 -52 -19 -84 -19c-38.667 0 -71 12.667 -97 38s-39 59.666 -39 102.999zM305.002 683.002v114.999c-8 3.33301 -21 7.33301 -39 12c-18.667 5.33301 -39.667 8 -63 8
c-37.333 0 -68 -9.33301 -92 -28c-24 -19.333 -36 -43 -36 -71c0 -29.333 9.33301 -52.666 28 -69.999c18 -18 40.667 -27 68 -27c30.667 0 58 7 82 21c24.667 14 42 27.333 52 40z" />
    <glyph glyph-name="guillemotleft" unicode="&#xab;" horiz-adv-x="528" 
d="M45 458c-2.66699 2.66699 -4.00098 6.33301 -4.00098 11v1c0.666992 4.66699 2 8.66699 4 12l155 221c4.66699 7.33301 9 11.333 13 12c3.33301 0.666992 6.66602 1 9.99902 1h23c5.33301 0 9 -2.66699 11 -8v-4c0.666992 -4 -0.666016 -8.66699 -3.99902 -14l-135 -220
l135 -225c4 -7.33301 5.33301 -13.333 4 -18c-2 -5.33301 -5.66699 -8 -11 -8h-23c-3.33301 0 -6.66602 0.333008 -9.99902 1c-4 1.33301 -8.33301 5.33301 -13 12zM273.999 481.999l155 220.998c5.33301 7.33301 9.66602 11.333 12.999 12c4 0.666992 7.33301 1 10 1h23
c6 0 9.66699 -2.66699 11 -8c0.666992 -1.33301 1 -2.66602 1 -3.99902c0 -4 -1.66699 -8.66699 -5 -14l-135 -220l135 -225c4.66699 -7.33301 6 -13.333 4 -18c-1.33301 -5.33301 -5 -8 -11 -8h-23c-2.66699 0 -6 0.333008 -10 1
c-3.33301 1.33301 -7.66602 5.33301 -12.999 12l-155 226c-2.66699 2.66699 -4 6.33398 -4 11.001l1 1c0 4.66699 1 8.66699 3 12z" />
    <glyph glyph-name="logicalnot" unicode="&#xac;" horiz-adv-x="670" 
d="M41 488l-0.000976562 22c0 4.66699 1.66699 9 5 13c4 3.33301 8.33301 5 13 5h552c5.33301 0 9.66602 -1.66699 12.999 -5c3.33301 -4 5 -8.33301 5 -13v-287c0 -5.33301 -2 -9.33301 -6 -12c-3.33301 -3.33301 -7.66602 -5 -12.999 -5h-22
c-5.33301 0 -9.66602 1.66699 -12.999 5c-4 2.66699 -6 6.66699 -6 12v247h-510c-4.66699 0 -9 1.66699 -13 5c-3.33301 4 -5 8.33301 -5 13z" />
    <glyph glyph-name="" unicode="&#xad;" 
d="M104 351v16c0 5.33301 1.66699 9.66602 5 12.999s7.33301 5 12 5h324c5.33301 0 9.66602 -1.66699 12.999 -5c4 -3.33301 6 -7.66602 6 -12.999v-16c0 -5.33301 -2 -9.66602 -6 -12.999c-3.33301 -4 -7.66602 -6 -12.999 -6h-324c-4.66699 0 -8.66699 2 -12 6
c-3.33301 3.33301 -5 7.66602 -5 12.999z" />
    <glyph glyph-name="registered" unicode="&#xae;" horiz-adv-x="1106" 
d="M557 1001c50 0 98.001 -7.00098 144.001 -21.001c46 -13.333 88.667 -32.333 128 -57c74 -45.333 133.667 -106.666 179 -183.999c44.667 -77.333 67 -162.333 67 -255c0 -50 -6.66699 -98 -20 -144c-14 -46 -33.333 -88.667 -58 -128
c-46 -73.333 -107.667 -132.333 -185 -177s-162.333 -67 -255 -67s-177.334 22.333 -254.001 67c-77.333 44.667 -139 103.667 -185 177c-24 39.333 -43 82 -57 128c-13.333 46 -20 94 -20 144c0 92.667 22.333 177.667 67 255c44.667 76.667 103.667 138 177 184
c39.333 24.667 82 43.667 128 57c46 14 94 21 144 21zM557.001 23.999c82.667 0 158.332 20 226.999 60c69.333 40 124.333 92.667 165 158c22 35.333 39 73.333 51 114c12 41.333 18 84 18 128c0 82.667 -20 158.334 -60 227.001s-92.667 123.334 -158 164.001
c-35.333 21.333 -73.666 38 -114.999 50c-40.667 12 -83.334 18 -128.001 18c-44 0 -86.667 -6 -128 -18c-40.667 -12 -78.667 -28.667 -114 -50c-65.333 -40.667 -118 -95.334 -158 -164.001s-60 -144.334 -60 -227.001c0 -44 6 -86.667 18 -128
c12 -40.667 29 -78.667 51 -114c40.667 -65.333 95.334 -118 164.001 -158c69.333 -40 145 -60 227 -60zM373.999 732.999c0 4.66699 1.66699 8.99707 5 12.9971c2.66699 3.33301 6.66699 5 12 5h209c46 0 88 -13 126 -39s57 -67 57 -123
c0 -51.333 -15.333 -89.666 -46 -114.999c-30.667 -24.667 -61 -40 -91 -46l101 -183c2.66699 -5.33301 3 -10.333 1 -15s-6.33301 -7 -13 -7h-33c-3.33301 0 -7 1.33301 -11 4s-7 6.33398 -9 11.001l-96 186h-10h-10h-135v-184c0 -5.33301 -1.33301 -9.66602 -4 -12.999
c-2 -3.33301 -6.33301 -5 -13 -5h-23c-5.33301 0 -9.33301 1.66699 -12 5c-3.33301 4 -5 8.33301 -5 13v493v0zM599.999 476.996c32.667 0 61.333 10.001 86 30.001c25.333 19.333 38 46.666 38 81.999c0 42 -14 71 -42 87s-61 24 -99 24h-152v-223h169z" />
    <glyph glyph-name="macron" unicode="&#xaf;" 
d="M102 858v16c0 5.33301 1.66699 9.66602 5 12.999s7.66602 5 12.999 5h324c4.66699 0 9 -1.66699 13 -5c3.33301 -3.33301 5 -7.66602 5 -12.999v-16c0 -5.33301 -1.66699 -9.66602 -5 -12.999c-4 -4 -8.33301 -6 -13 -6h-324c-5.33301 0 -9.66602 2 -12.999 6
c-3.33301 3.33301 -5 7.66602 -5 12.999z" />
    <glyph glyph-name="degree" unicode="&#xb0;" 
d="M101 788c0 71.333 15.333 127.333 46 168s73.667 61 129 61c56 0 99.333 -20.333 130 -61s46 -96.667 46 -168c0 -69.333 -15.333 -124 -46 -164c-30.667 -40.667 -74 -61 -130 -61c-55.333 0 -98.333 20.333 -129 61c-30.667 40 -46 94.667 -46 164zM401 788
c0 57.333 -11 102 -33 134c-22 32.667 -52.667 49 -92 49c-38.667 0 -68.667 -16.333 -90 -49c-22 -32 -33 -76.667 -33 -134c0 -55.333 11 -98.666 33 -129.999c22 -32 52 -48 90 -48c39.333 0 70 16 92 48c22 31.333 33 74.666 33 129.999z" />
    <glyph glyph-name="plusminus" unicode="&#xb1;" horiz-adv-x="752" 
d="M346 548h-245c-5.33301 0 -10 2 -14 6c-3.33301 3.33301 -5 7.66602 -5 12.999v22c0 4.66699 1.66699 9 5 13c4 3.33301 8.66699 5 14 5h245v241c0 5.33301 1.66699 9.33301 5 12c4 3.33301 8.33301 5 13 5h23c5.33301 0 9.66602 -1.66699 12.999 -5
c4 -2.66699 6 -6.66699 6 -12v-241h247c4.66699 0 8.66699 -1.66699 12 -5c3.33301 -4 5 -8.33301 5 -13v-22c0 -5.33301 -1.66699 -9.66602 -5 -12.999c-3.33301 -4 -7.33301 -6 -12 -6h-247v-180c0 -5.33301 -2 -9.66602 -6 -12.999c-3.33301 -4 -7.66602 -6 -12.999 -6
h-23c-4.66699 0 -9 2 -13 6c-3.33301 3.33301 -5 7.66602 -5 12.999v180zM82 147c0 4.66699 1.66699 9 5 13c4 3.33301 8.66699 5 14 5h552c4.66699 0 8.66699 -1.66699 12 -5c3.33301 -4 5 -8.33301 5 -13v-22c0 -4.66699 -1.66699 -9 -5 -13
c-3.33301 -3.33301 -7.33301 -5 -12 -5h-552c-5.33301 0 -10 1.66699 -14 5c-3.33301 4 -5 8.33301 -5 13v22z" />
    <glyph glyph-name="twosuperior" unicode="&#xb2;" 
d="M127 732l-0.000976562 14.001l200 186c16 14.667 28.333 29.667 37 45c8.66699 16 13.334 32.333 14.001 49c0 21.333 -8.66699 41 -26 59s-43 27 -77 27c-26.667 0 -48.334 -6.33301 -65.001 -19l-33 -28c-2 -3.33301 -4.33301 -4.66602 -7 -3.99902
c-3.33301 0.666992 -5.66602 1.66699 -6.99902 3c-4 4 -10.333 9.66699 -19 17c-1.33301 2 -2.33301 4 -3 6c-0.666992 2.66699 0 5.66699 2 9l5 5c2.66699 3.33301 6.66699 7.66602 12 12.999c10.667 9.33301 26 19.333 46 30s44.333 16 73 16c49.333 0 87 -13 113 -39
c26 -25.333 39 -55.333 39 -90c0 -22.667 -6 -44.667 -18 -66c-11.333 -21.333 -27 -41.333 -47 -60l-154 -139h205c2.66699 0 5 -1 7 -3c2 -1.33301 3 -4 3 -8v-22c0 -2.66699 -0.666992 -5.33398 -2 -8.00098c-2 -2 -4.66699 -3 -8 -3h-277h-2c-3.33301 0 -6 1 -8 3
s-3 4.33301 -3 7z" />
    <glyph glyph-name="threesuperior" unicode="&#xb3;" 
d="M131 766c-2 2 -3.33398 4.33398 -4.00098 7.00098v1c0 2.66699 1.33301 5 4 7c3.33301 3.33301 8.66602 8.33301 15.999 15c2.66699 3.33301 5.66699 5 9 5s6.33301 -1.66699 9 -5c5.33301 -4.66699 16.666 -13.667 33.999 -27c17.333 -12.667 44.333 -19 81 -19
c32 0 58.333 8 79 24c20.667 15.333 31 34.666 31 57.999c0 21.333 -9.33301 40.333 -28 57s-47.667 25 -87 25h-65c-4 0 -7 1.66699 -9 5c-1.33301 2.66699 -2 5.66699 -2 9v18c0 3.33301 1 6 3 8s4.66699 3 8 3h65c28.667 0 53.334 6.66699 74.001 20
c20 12.667 30 32.334 30 59.001c0 23.333 -9.33301 42.333 -28 57c-18.667 14 -41.667 21 -69 21c-32 0 -56 -6.33301 -72 -19l-30 -24c-2 -2 -4.33301 -3.33301 -7 -4s-5 0.333008 -7 3l-18 15c-3.33301 3.33301 -5 6.33301 -5 9c0 2 1.33301 4 4 6l4 5
c3.33301 3.33301 8 7.33301 14 12c10.667 8.66699 26.334 17.667 47.001 27c20.667 10 45.334 15 74.001 15c42.667 0 77.667 -10.333 105 -31c28 -21.333 42 -50.333 42 -87c0 -23.333 -8 -44.333 -24 -63s-33 -32 -51 -40l22 -10
c14.667 -6.66699 28.334 -17.334 41.001 -32.001c6.66699 -8.66699 12.667 -18.334 18 -29.001c4.66699 -11.333 7 -24 7 -38c0 -35.333 -15.333 -64.666 -46 -87.999c-30 -23.333 -69.333 -35 -118 -35c-44 0 -78.667 8 -104 24c-24.667 15.333 -40.334 27.333 -47.001 36z
" />
    <glyph glyph-name="acute" unicode="&#xb4;" horiz-adv-x="624" 
d="M180 826c0 4.66699 1.66699 8.33301 5 11s8 4 14 4c2.66699 0 11.667 0.333008 27 1c16 0 34 4 54 12c10.667 4.66699 21.667 10.667 33 18c11.333 6.66699 22.333 15.667 33 27c6.66699 8 12.334 16 17.001 24s8 16 10 24c-4 0 -7.66699 0.666992 -11 2
c-4 1.33301 -7.66699 3.33301 -11 6c-14.667 11.333 -22.334 24.666 -23.001 39.999s3.66602 28.666 12.999 39.999c10.667 14 23.334 21.667 38.001 23h4c13.333 0 26.666 -5 39.999 -15c16 -12.667 24 -32.667 24 -60c0 -26.667 -14.667 -58.667 -44 -96
c-12 -16 -25 -29.333 -39 -40c-14 -11.333 -28 -20.666 -42 -27.999c-26 -13.333 -50.333 -21.333 -73 -24c-15.333 -2 -27.666 -3 -36.999 -3c-4.66699 0 -8.66699 0.333008 -12 1c-6 0.666992 -10.667 2 -14 4c-3.33301 2.66699 -5.33301 6.33398 -6 11.001v18z" />
    <glyph glyph-name="mu" unicode="&#xb5;" 
d="M119 -413c0 -5.33301 -2.33105 -9.66699 -6.99805 -13c-4 -3.33301 -8.66699 -5 -14 -5h-24c-5.33301 0 -9.66602 1.66699 -12.999 5c-4 4 -6 8.33301 -6 13v364v604c0 5.33301 2 9.66602 6 12.999c3.33301 3.33301 7.66602 5 12.999 5h25
c5.33301 0 9.66602 -1.66699 12.999 -5c4 -3.33301 6 -7.66602 6 -12.999v-308c0 -66.667 14.667 -117 44 -151c29.333 -33.333 71.666 -50 126.999 -50c20.667 0 39.667 2.66699 57 8c17.333 4.66699 33.333 11 48 19c26 14 46.333 29 61 45c14 16.667 21.667 26 23 28v409
c0 5.33301 1.66699 9.66602 5 12.999s8 5 14 5h26c5.33301 0 9.66602 -1.66699 12.999 -5c4 -3.33301 6 -7.66602 6 -12.999v-537c0 -4.66699 -2 -9 -6 -13c-3.33301 -3.33301 -7.66602 -5 -12.999 -5h-17c-6 0 -10 1.66699 -12 5c-2.66699 3.33301 -4.66699 7.33301 -6 12
l-6 57c-2.66699 -4 -7 -9 -13 -15s-13.333 -12.333 -22 -19c-16.667 -12.667 -38.667 -24.667 -66 -36s-59.333 -17 -96 -17c-38 0 -72 7.33301 -102 22s-51.667 32 -65 52v-474h1z" />
    <glyph glyph-name="paragraph" unicode="&#xb6;" horiz-adv-x="1058" 
d="M1018 932l0.00292969 -5.00098c0 -15.333 -4.33301 -28.333 -13 -39c-9.33301 -12 -22.333 -18.333 -39 -19c-15.333 -1.33301 -29 2.66699 -41 12c-12 8.66699 -18.667 22.334 -20 41.001c-0.666992 4.66699 -0.333984 8.66699 0.999023 12c0.666992 4 2 7.66699 4 11
c-3.33301 1.33301 -7 2.33301 -11 3l-12 2v0h-1h-21h-5c-1.33301 -0.666992 -3 -1 -5 -1h1v1h-51v-1362c0 -4.66699 -2 -9 -6 -13c-4 -3.33301 -8.33301 -5 -13 -5h-16c-4 0 -8 1.33301 -12 4c-4 3.33301 -6 8 -6 14v1362h-252v-1362c0 -4.66699 -1.66699 -9 -5 -13
c-4 -3.33301 -8.33301 -5 -13 -5h-16c-4 0 -8.33301 1.33301 -13 4c-4 3.33301 -6 8 -6 14v818h-103c-55.333 0 -104 13.667 -146 41s-74.667 62 -98 104c-12.667 23.333 -22.334 47.666 -29.001 72.999c-6.66699 26 -10 52.333 -10 79c0 28.667 3.66699 56.667 11 84
c7.33301 26.667 17.666 51.334 30.999 74.001c24.667 42.667 58 77.334 100 104.001c42 26 89 39 141 39h542h2h1c43.333 1.33301 75.333 -5.33398 96 -20.001s31.667 -32 33 -52z" />
    <glyph glyph-name="periodcentered" unicode="&#xb7;" horiz-adv-x="629" 
d="M255 577c0 16 5.66699 29.667 17 41c12 11.333 26 17 42 17s29.667 -5.66699 41 -17c10.667 -11.333 16 -25 16 -41c0 -15.333 -5.33301 -29 -16 -41c-11.333 -11.333 -25 -17 -41 -17s-30 5.66699 -42 17c-11.333 12 -17 25.667 -17 41z" />
    <glyph glyph-name="cedilla" unicode="&#xb8;" 
d="M277 0l0.00195312 -77c42.667 -5.33301 79 -19.333 109 -42c29.333 -22.667 44 -55.334 44 -98.001c0 -38 -13.333 -70.667 -40 -98s-60.334 -41 -101.001 -41c-27.333 0 -51.333 5.66699 -72 17c-20 10.667 -33 21.334 -39 32.001c-3.33301 4.66699 -5 9 -5 13v2
c0.666992 4 2.66699 7.66699 6 11l14 11c3.33301 2.66699 7 3.66699 11 3s8 -3 12 -7c4.66699 -5.33301 13 -11.666 25 -18.999c11.333 -7.33301 27.333 -11 48 -11c26 0 46.667 8.33301 62 25s23 37 23 61c0 34.667 -14.333 58.667 -43 72s-58.334 21.666 -89.001 24.999
c-6.66699 2 -11 4.66699 -13 8c-2.66699 3.33301 -4 7 -4 11v102h34h18z" />
    <glyph glyph-name="onesuperior" unicode="&#xb9;" 
d="M272 733l0.000976562 345.999l-68 -40c-2.66699 -1.33301 -5 -1.66602 -7 -0.999023c-2.66699 0.666992 -4.66699 2 -6 4c-2 3.33301 -4.66699 8.33301 -8 15c-1.33301 2.66699 -2 5 -2 7v1c0.666992 2 2.66699 4.33301 6 7l106 75h17c3.33301 0 6.66602 -1 9.99902 -3
c2.66699 -1.33301 4 -4 4 -8v-188v-214c0 -3.33301 -1 -6 -3 -8c-2.66699 -2 -5.33398 -3 -8.00098 -3h-29h-2c-3.33301 0 -5.66602 0.666992 -6.99902 2c-2 2 -3 4.66699 -3 8z" />
    <glyph glyph-name="ordmasculine" unicode="&#xba;" horiz-adv-x="423" 
d="M31 788c0 71.333 15.333 127.333 46 168s73.667 61 129 61c56 0 99.333 -20.333 130 -61s46 -96.667 46 -168c0 -69.333 -15.333 -124 -46 -164c-30.667 -40.667 -74 -61 -130 -61c-55.333 0 -98.333 20.333 -129 61c-30.667 40 -46 94.667 -46 164zM331 788
c0 56.667 -11 101.334 -33 134.001s-52.667 49 -92 49c-38.667 0 -69 -16.333 -91 -49s-33 -77.334 -33 -134.001c0 -55.333 11 -98.666 33 -129.999s52.333 -47 91 -47c39.333 0 70 15.667 92 47s33 74.666 33 129.999z" />
    <glyph glyph-name="guillemotright" unicode="&#xbb;" horiz-adv-x="528" 
d="M46 246l134 225.002l-134 220c-3.33301 5.33301 -5 10 -5 14c0 1.33301 0.333008 2.66602 1 3.99902c1.33301 5.33301 5 8 11 8h23c2.66699 0 5.66699 -0.333008 9 -1c4 -0.666992 8.66699 -4.66699 14 -12l155 -221c2 -3.33301 3 -7.33301 3 -12v-1
c0 -4.66699 -1 -8.33398 -3 -11.001l-155 -226c-5.33301 -6.66699 -10 -10.667 -14 -12c-3.33301 -0.666992 -6.33301 -1 -9 -1h-23c-6 0 -9.66699 2.66699 -11 8c-2 4.66699 -0.666992 10.667 4 18zM410 471.002l-135 220.002c-3.33301 5.33301 -5 10 -5 14
c0 1.33301 0.333008 2.66602 1 3.99902c2 5.33301 5.66699 8 11 8h23c2.66699 0 6 -0.333008 10 -1s8.33301 -4.66699 13 -12l155 -221c2 -3.33301 3.33301 -7.33301 4 -12v-1c0 -4.66699 -1.33301 -8.33398 -4 -11.001l-155 -226c-4.66699 -6.66699 -9 -10.667 -13 -12
c-4 -0.666992 -7.33301 -1 -10 -1h-23c-5.33301 0 -9 2.66699 -11 8c-1.33301 4.66699 0 10.667 4 18z" />
    <glyph glyph-name="onequarter" unicode="&#xbc;" 
d="M28 589l0.000976562 345.999l-68 -40c-2.66699 -1.33301 -5.33398 -1.66602 -8.00098 -0.999023c-2 0.666992 -3.66699 2 -5 4c-2 3.33301 -4.66699 8.33301 -8 15c-1.33301 2.66699 -2 5 -2 7v1c0 2 2 4.33301 6 7l104 75h18c3.33301 0 6.33301 -1 9 -3
c3.33301 -1.33301 5 -4.33301 5 -9v-401c0 -3.33301 -1.33301 -6 -4 -8c-2 -2 -4.33301 -3 -7 -3h-29h-3c-2 0 -3.66699 0.666992 -5 2c-2 2 -3 4.66699 -3 8zM530.001 995.999c2 3.33301 4.66699 5.33301 8 6c4 0.666992 7.33301 1 10 1h21c6 0 10.333 -2 13 -6
c0.666992 -1.33301 1 -3.33301 1 -6s-0.666992 -5.66699 -2 -9l-551 -977c-2 -3.33301 -5 -5.33301 -9 -6s-7.33301 -1 -10 -1h-21c-6 0 -10 2 -12 6c-1.33301 1.33301 -2 3 -2 5c0 2.66699 1 6 3 10zM323.001 122.999l270.999 300.001h20c4 0 7.33301 -1.33301 10 -4
c3.33301 -2.66699 5 -5.66699 5 -9v-265h55c4 0 7 -1.33301 9 -4c2.66699 -2.66699 4 -5.33398 4 -8.00098v-22c0 -3.33301 -1.33301 -6 -4 -8c-2 -2 -5 -3 -9 -3h-56v-88c0 -3.33301 -1.66699 -6.33301 -5 -9c-2.66699 -2.66699 -6 -4 -10 -4h-24
c-3.33301 0 -6.66602 1.33301 -9.99902 4c-2.66699 2.66699 -4 5.66699 -4 9v86h-239c-3.33301 0 -6.33301 1.33301 -9 4s-4 6 -4 10v11zM576 147v186l-171 -186h171z" />
    <glyph glyph-name="onehalf" unicode="&#xbd;" 
d="M34 591l0.00292969 345.997l-68 -40c-2.66699 -1.33301 -5 -1.66602 -7 -0.999023c-2.66699 0.666992 -4.66699 2 -6 4l-8 14c-1.33301 2.66699 -2 5.33398 -2 8.00098v0c0.666992 2.66699 2.66699 5.33398 6 8.00098l104 75h18c3.33301 0 6.66602 -1 9.99902 -3
c2.66699 -2 4 -5 4 -9v-401c0 -4 -1 -6.66699 -3 -8c-2.66699 -2 -5.33398 -3 -8.00098 -3h-29c-0.666992 -0.666992 -1.33398 -1 -2.00098 -1c-2.66699 0.666992 -4.66699 1.66699 -6 3c-2 1.33301 -3 4 -3 8zM536.003 996.997c2 4 5 6.33301 9 7
c3.33301 0.666992 6.33301 1 9 1h22c5.33301 0 9.33301 -2 12 -6c1.33301 -2 2 -4 2 -6c0 -2.66699 -1 -5.66699 -3 -9l-551 -977c-2 -3.33301 -5 -5.33301 -9 -6s-7 -1 -9 -1h-22c-5.33301 0 -9.33301 2 -12 6c-1.33301 1.33301 -2 3 -2 5c0 2.66699 1 5.66699 3 9z
M432.003 24.9971l200.001 186.001c16 14.667 28.333 30 37 46c8.66699 15.333 13.334 31.333 14.001 48c0 21.333 -8.66699 41 -26 59s-43 27 -77 27c-26.667 0 -48.334 -6.33301 -65.001 -19c-16 -12.667 -26.667 -22 -32 -28
c-2.66699 -3.33301 -5.33398 -4.66602 -8.00098 -3.99902s-5 1.66699 -7 3c-4 4 -10 9.66699 -18 17c-2 2 -3.33301 4 -4 6c-0.666992 2.66699 0.333008 5.66699 3 9l4 5c2.66699 3.33301 7 7.66602 13 12.999c10 9.33301 25 19.333 45 30s44.333 16 73 16
c49.333 0 87 -12.667 113 -38c26 -26 39 -56.333 39 -91c0 -22.667 -5.66699 -44.667 -17 -66c-12 -21.333 -28 -41.333 -48 -60l-154 -139h205c3.33301 0 6 -1 8 -3c1.33301 -1.33301 2 -4 2 -8v-23c0 -2.66699 -0.666992 -5.33398 -2 -8.00098c-1.33301 -2 -4 -3 -8 -3
h-276c-4 0 -7.33301 1.33301 -10 4c-2.66699 2 -4 4.33301 -4 7v14z" />
    <glyph glyph-name="threequarters" unicode="&#xbe;" 
d="M-155 623c-2 2.66699 -3.00098 5.33398 -3.00098 8.00098c-0.666992 0 -1 0.333008 -1 1c0 2 1.33301 4.33301 4 7c4 3.33301 9.33301 8.33301 16 15c2.66699 3.33301 5.66699 5 9 5s6.33301 -1.66699 9 -5l34 -27c17.333 -12.667 44.333 -19 81 -19
c32 0 58.333 7.66699 79 23c20.667 16 31 35.667 31 59c0 21.333 -9.33301 40.333 -28 57s-47.667 25 -87 25h-65c-4.66699 0 -7.66699 1.33301 -9 4c-1.33301 3.33301 -2 6.66602 -2 9.99902v18c0 3.33301 1 6 3 8s4.66699 3 8 3h65c29.333 0 54 6.33301 74 19
c20 13.333 30 33.333 30 60c0 23.333 -9.33301 42 -28 56c-18.667 14.667 -41.667 22 -69 22c-32 0 -56 -6.33301 -72 -19c-16.667 -12.667 -26.667 -20.667 -30 -24c-2.66699 -2 -5.33398 -3.33301 -8.00098 -4s-5 0.333008 -7 3l-18 15c-2.66699 3.33301 -4 6.33301 -4 9
c0 2 1 4.33301 3 7l4 5c3.33301 3.33301 8 7.33301 14 12c10.667 8.66699 26.334 17.667 47.001 27c20.667 10 45.334 15 74.001 15c42.667 0 78 -10.667 106 -32c27.333 -20.667 41 -49.334 41 -86.001c0 -23.333 -7.66699 -44.333 -23 -63c-16 -18.667 -33 -32 -51 -40
l21 -10c14.667 -6.66699 28.334 -17.667 41.001 -33c7.33301 -8 13.333 -17.333 18 -28c4.66699 -11.333 7 -24 7 -38c0 -35.333 -15 -64.666 -45 -87.999s-69.667 -35 -119 -35h-4c-42 0 -75 7.66699 -99 23c-24.667 15.333 -40.334 27 -47.001 35zM533.999 996
c2 4 4.66699 6 8 6c4 0.666992 7.33301 1 10 1h21c6 0 10.333 -1.66699 13 -5c0.666992 -2 1 -4 1 -6c0 -2.66699 -0.666992 -5.66699 -2 -9l-550 -977c-2 -3.33301 -5 -5.33301 -9 -6s-7.33301 -1 -10 -1h-21c-6 0 -10 1.66699 -12 5c-1.33301 2 -2 4 -2 6
c0 2.66699 1 5.66699 3 9zM326.999 124l270.999 300.001h21c3.33301 0 6.33301 -1.33301 9 -4c3.33301 -2.66699 5 -6 5 -10v-265h56c4 0 7.33301 -1 10 -3c2 -2.66699 3 -5.33398 3 -8.00098v-23c0 -2.66699 -1 -5 -3 -7c-2.66699 -2.66699 -6 -4 -10 -4h-56v-87
c0 -3.33301 -1.66699 -6.33301 -5 -9c-2.66699 -2.66699 -5.66699 -4 -9 -4h-25c-3.33301 -0 -6.66602 1.33301 -9.99902 4c-2.66699 2.66699 -4 5.66699 -4 9v86h-240c-3.33301 0 -6.33301 1.33301 -9 4s-4 5.66699 -4 9v12zM579.998 147.001v187l-171 -187h171z" />
    <glyph glyph-name="questiondown" unicode="&#xbf;" 
d="M277 525c0 16 5.66699 29.667 17 41c11.333 10.667 25 16 41 16s29.667 -5.33301 41 -16c11.333 -11.333 17 -25 17 -41c0 -16.667 -5.66699 -30.334 -17 -41.001s-25 -16 -41 -16s-29.667 5.33301 -41 16s-17 24.334 -17 41.001zM61 -248
c0 21.333 2.99512 41.0039 8.99512 59.0039s13.667 34 23 48c18 27.333 40.333 50.666 67 69.999l74 55c19.333 14 35.666 28 48.999 42c12.667 14.667 19 31 19 49v82c0 6 1.66699 10.667 5 14c2.66699 4 7.33398 6 14.001 6h27c6.66699 0 11.334 -2.33301 14.001 -7
c2 -4 3 -8.33301 3 -13v-84c0 -24 -6.33301 -45.333 -19 -64s-28.667 -36 -48 -52c-12.667 -10.667 -25.667 -20.667 -39 -30l-41 -30c-24.667 -19.333 -46 -40 -64 -62c-18.667 -22 -28 -48.333 -28 -79c0 -36.667 15.333 -70.667 46 -102c30 -31.333 73.333 -47 130 -47
c41.333 0 76 7 104 21c28 13.333 50 27 66 41c8.66699 8 16 15.333 22 22c5.33301 6.66699 9.66602 11.667 12.999 15c0.666992 0.666992 1.33398 1.66699 2.00098 3s1 2.66602 1 3.99902c-4 0.666992 -7.66699 2 -11 4c-3.33301 1.33301 -6.66602 3.66602 -9.99902 6.99902
c-13.333 12.667 -19.666 26.667 -18.999 42c1.33301 15.333 7.33301 28.333 18 39c12 12 25.333 17.667 40 17c15.333 0 29.333 -6.33301 42 -19c12.667 -12 19 -28.667 19 -50c0 -2 -0.333008 -4.33301 -1 -7c-1.33301 -24.667 -15.666 -52.334 -42.999 -83.001
c-7.33301 -9.33301 -20.666 -23 -39.999 -41s-45.333 -33.667 -78 -47c-17.333 -7.33301 -37 -13.333 -59 -18c-21.333 -4.66699 -44.666 -7 -69.999 -7c-72.667 0 -130.334 19 -173.001 57s-64 86.333 -64 145z" />
    <glyph glyph-name="Agrave" unicode="&#xc0;" 
d="M330 1099c-0.666992 -4.66699 -2.66504 -8.00293 -5.99805 -10.0029c-3.33301 -2.66699 -8 -4.33398 -14 -5.00098c-4 -0.666992 -9.33301 -1 -16 -1c-2 0 -4 0.333008 -6 1c-9.33301 0 -20 1 -32 3c-22.667 4.66699 -47.334 13.667 -74.001 27
c-27.333 13.333 -52.333 35 -75 65c-29.333 37.333 -44 69.333 -44 96s8 46.334 24 59.001c13.333 10 26.666 15 39.999 15h4c15.333 -1.33301 28 -8.66602 38 -21.999c9.33301 -12 13.666 -25.667 12.999 -41c-0.666992 -14.667 -8.33398 -27.667 -23.001 -39
c-3.33301 -2.66699 -7 -4.66699 -11 -6c-3.33301 -1.33301 -7 -2.33301 -11 -3c2 -7.33301 5.33301 -15 10 -23s10.334 -16 17.001 -24c20 -21.333 40.667 -35.666 62 -42.999c21.333 -8 39.333 -13 54 -15c8.66699 -0.666992 15.667 -1 21 -1h10
c6.66699 0.666992 11.334 -0.666016 14.001 -3.99902c3.33301 -2.66699 5 -6 5 -10v-19zM653.002 -2.00293l-37.002 -0.000976562c-5.33301 0 -9.66602 1.66699 -12.999 5c-3.33301 2.66699 -6 5.33398 -8 8.00098l-116 264h-390c-1.33301 0 -3 -0.333008 -5 -1
s-3.66699 -1.33398 -5 -2.00098c2 -3.33301 3.33301 -7 4 -11c1.33301 -4 2 -8 2 -12c-1.33301 -18.667 -8 -32.667 -20 -42s-25.333 -13.333 -40 -12c-17.333 0.666992 -30.666 6.66699 -39.999 18c-9.33301 12 -13.666 26.667 -12.999 44c0.666992 20.667 12 38.667 34 54
c21.333 15.333 55 22 101 20h348l-245 578h-3l-391 -898c-1.33301 -2.66699 -3.66602 -5.33398 -6.99902 -8.00098c-3.33301 -3.33301 -7.66602 -5 -12.999 -5h-40c-4.66699 0 -8 1.33301 -10 4c-1.33301 1.33301 -2 3 -2 5c0 2.66699 0.666992 5.33398 2 8.00098l442 999
c1.33301 2.66699 3.66602 5 6.99902 7s6.66602 3 9.99902 3h5c3.33301 0 6.66602 -0.666992 9.99902 -2s6 -4 8 -8l438 -999c0.666992 -2 1 -4.33301 1 -7c0 -1.33301 -0.333008 -2.66602 -1 -3.99902c-0.666992 -4 -5 -6 -13 -6z" />
    <glyph glyph-name="Aacute" unicode="&#xc1;" 
d="M99 1122c0 4.66699 1.33203 8.33496 3.99902 11.002c3.33301 2.66699 8 3.66699 14 3c3.33301 0 12.666 0.333008 27.999 1s33 5 53 13c11.333 4.66699 22.666 10.334 33.999 17.001c11.333 7.33301 22 16.666 32 27.999c7.33301 8 13.333 16 18 24s8 15.667 10 23
c-4 0.666992 -8 1.66699 -12 3c-3.33301 1.33301 -6.66602 3.33301 -9.99902 6c-15.333 11.333 -23 24.666 -23 39.999c-0.666992 14.667 3.33301 28 12 40c10.667 14 23.667 21.333 39 22h3c14 0 27.333 -5 40 -15c16.667 -12.667 25 -32.334 25 -59.001
s-14.667 -58.667 -44 -96c-12 -16 -25 -29.667 -39 -41c-14 -10.667 -28 -19.667 -42 -27c-26 -13.333 -50.333 -21.333 -73 -24c-15.333 -2 -27.666 -3 -36.999 -3h-13c-5.33301 1.33301 -9.66602 3 -12.999 5c-4 2 -6 5.33301 -6 10v19zM678.999 0.000976562h-37.001
c-5.33301 0 -9.66602 1.33301 -12.999 4c-3.33301 3.33301 -5.66602 6.33301 -6.99902 9l-116 264h-390c-2 -0.666992 -4 -1 -6 -1c-1.33301 -0.666992 -3 -1.33398 -5 -2.00098c2 -3.33301 3.66699 -7 5 -11s1.66602 -8 0.999023 -12c-0.666992 -18.667 -7 -32.667 -19 -42
s-25.667 -13.666 -41 -12.999c-17.333 1.33301 -30.666 7.66602 -39.999 18.999s-13.666 26 -12.999 44c1.33301 20.667 12.666 38.667 33.999 54s55 22 101 20h348l-245 578h-3l-390 -898c-1.33301 -2.66699 -4 -5.66699 -8 -9c-3.33301 -2.66699 -7.33301 -4 -12 -4h-40
c-5.33301 -0 -9 1.33301 -11 4c-0.666992 1.33301 -1 3 -1 5c0 2.66699 0.666992 5.33398 2 8.00098l441 999c2 2.66699 4.33301 5 7 7c3.33301 2 7 3 11 3h4c3.33301 0 6.66602 -0.666992 9.99902 -2s6.33301 -4 9 -8l437 -999c0.666992 -2.66699 1 -5 1 -7v-5
c-1.33301 -3.33301 -6 -5 -14 -5z" />
    <glyph glyph-name="Acircumflex" unicode="&#xc2;" 
d="M49 1104c-2.66699 3.33301 -6.66504 8.66699 -11.998 16c-2 2 -3 4.33301 -3 7c0 0.666992 0.333008 1.66699 1 3c1.33301 3.33301 3.66602 6.66602 6.99902 9.99902l174 140c2 2 4.33301 3.66699 7 5s5 2 7 2h5c2 0 4.33301 -0.666992 7 -2s5 -3 7 -5l174 -140
c3.33301 -3.33301 5.66602 -6.66602 6.99902 -9.99902c0.666992 -1.33301 1 -2.33301 1 -3c0 -2.66699 -1 -5 -3 -7c-2.66699 -4 -7 -9.33301 -13 -16c-2 -3.33301 -4.66699 -5.66602 -8 -6.99902c-3.33301 -2 -7.66602 -0.666992 -12.999 4l-162 120l-161 -120
c-4 -3.33301 -7.66699 -5 -11 -5c-0.666992 0 -1.33398 0.333008 -2.00098 1c-3.33301 1.33301 -6.33301 3.66602 -9 6.99902zM679.002 0.000976562h-37.001c-5.33301 0 -9.66602 1.33301 -12.999 4c-3.33301 3.33301 -5.66602 6.33301 -6.99902 9l-116 264h-390
c-2 -0.666992 -4 -1 -6 -1c-1.33301 -0.666992 -3 -1.33398 -5 -2.00098c2 -3.33301 3.66699 -7 5 -11s1.66602 -8 0.999023 -12c-0.666992 -18.667 -7 -32.667 -19 -42s-25.667 -13.666 -41 -12.999c-17.333 1.33301 -30.666 7.66602 -39.999 18.999s-13.666 26 -12.999 44
c1.33301 20.667 12.666 38.667 33.999 54s55 22 101 20h348l-245 578h-3l-390 -898c-1.33301 -2.66699 -4 -5.66699 -8 -9c-3.33301 -2.66699 -7.33301 -4 -12 -4h-40c-5.33301 -0 -9 1.33301 -11 4c-0.666992 1.33301 -1 3 -1 5c0 2.66699 0.666992 5.33398 2 8.00098
l441 999c2 2.66699 4.33301 5 7 7c3.33301 2 7 3 11 3h4c3.33301 0 6.66602 -0.666992 9.99902 -2s6.33301 -4 9 -8l437 -999c0.666992 -2.66699 1 -5 1 -7v-5c-1.33301 -3.33301 -6 -5 -14 -5z" />
    <glyph glyph-name="Atilde" unicode="&#xc3;" 
d="M90 1154c-4.66699 1.33301 -7.66895 4.00195 -9.00195 8.00195c-0.666992 2 -1 4 -1 6s0.333008 4 1 6l8 19c3.33301 8.66699 7.33301 17.667 12 27c10 18 24 35.333 42 52s42 25 72 25c33.333 0 57 -10.667 71 -32l39 -61c6.66699 -10.667 14 -19.667 22 -27
c8 -6.66699 18 -10 30 -10c26.667 0 45.667 10.667 57 32c12 22 20.333 39.333 25 52c1.33301 5.33301 4 9 8 11c4.66699 2 9 1.66699 13 -1c3.33301 -0.666992 8.66602 -2.33398 15.999 -5.00098c2.66699 -1.33301 5 -3.33301 7 -6c1.33301 -2 2 -4.33301 2 -7v-6
c-1.33301 -4 -5.66602 -16 -12.999 -36c-8 -20 -21 -38.333 -39 -55c-9.33301 -9.33301 -20.666 -17 -33.999 -23s-28.666 -9 -45.999 -9c-18 0 -32.667 3.33301 -44 10c-12 7.33301 -22.333 16.333 -31 27c-15.333 19.333 -28.333 40 -39 62s-27 33 -49 33
c-26.667 0 -46 -11.667 -58 -35c-11.333 -22.667 -19 -40.667 -23 -54c-2 -5.33301 -4.66699 -9 -8 -11c-4 -2 -8.66699 -1.66699 -14 1c-4 1.33301 -9.66699 3.66602 -17 6.99902zM735.998 0.00195312h-38.001c-4.66699 0 -8.66699 1.33301 -12 4
c-4 3.33301 -6.66699 6.33301 -8 9l-116 264h-390c-1.33301 -0.666992 -3 -1 -5 -1c-2 -0.666992 -3.66699 -1.33398 -5 -2.00098c2 -3.33301 3.33301 -7 4 -11c1.33301 -4 2 -8 2 -12c-1.33301 -18.667 -8 -32.667 -20 -42s-25.333 -13.666 -40 -12.999
c-17.333 1.33301 -30.666 7.66602 -39.999 18.999c-10 11.333 -14.333 26 -13 44c0.666992 20.667 12 38.667 34 54c21.333 15.333 55 22 101 20h348l-246 578h-2l-391 -898c-1.33301 -2.66699 -3.66602 -5.66699 -6.99902 -9c-3.33301 -2.66699 -7.66602 -4 -12.999 -4h-40
c-4.66699 0 -8 1.33301 -10 4c-1.33301 1.33301 -2 3 -2 5c0 2.66699 0.666992 5.33398 2 8.00098l442 999c1.33301 2.66699 3.66602 5 6.99902 7s6.66602 3 9.99902 3h4c4 0 7.66699 -0.666992 11 -2s6 -4 8 -8l438 -999c0.666992 -2.66699 1 -5 1 -7
c0 -1.33301 -0.333008 -3 -1 -5c-0.666992 -3.33301 -5 -5 -13 -5z" />
    <glyph glyph-name="Adieresis" unicode="&#xc4;" 
d="M108 1191c0 14 4.66699 26 14 36c9.33301 9.33301 20.666 14 33.999 14c14.667 0 26.667 -4.66699 36 -14c8.66699 -10 13 -22 13 -36c0 -13.333 -4.33301 -24.666 -13 -33.999c-9.33301 -9.33301 -21.333 -14 -36 -14c-13.333 0 -24.666 4.66699 -33.999 14
s-14 20.666 -14 33.999zM383 1191c0 14 4.66699 26 14 36c8.66699 9.33301 19.667 14 33 14c14.667 0 26.667 -4.66699 36 -14c10 -10 15 -22 15 -36c0 -13.333 -5 -24.666 -15 -33.999c-9.33301 -9.33301 -21.333 -14 -36 -14c-13.333 0 -24.333 4.66699 -33 14
c-9.33301 9.33301 -14 20.666 -14 33.999zM746 -1h-37.002c-5.33301 0 -9.66602 1.33301 -12.999 4s-5.66602 5.33398 -6.99902 8.00098l-117 264h-390c-1.33301 0 -3 -0.333008 -5 -1s-3.66699 -1 -5 -1c2 -4 3.66699 -8 5 -12c0.666992 -3.33301 1 -7.33301 1 -12
c-0.666992 -18.667 -7.33398 -32.334 -20.001 -41.001c-12 -9.33301 -25.333 -13.666 -40 -12.999c-17.333 0.666992 -30.666 7 -39.999 19c-9.33301 11.333 -13.666 26 -12.999 44c0.666992 20.667 12 38.334 34 53.001c21.333 15.333 55 22 101 20h348l-245 579h-3
l-391 -899c-1.33301 -2.66699 -3.66602 -5.33398 -6.99902 -8.00098s-7.66602 -4 -12.999 -4h-40c-4.66699 0 -8 1.33301 -10 4c-1.33301 1.33301 -2 3 -2 5s0.666992 4.66699 2 8l442 998c1.33301 3.33301 3.66602 5.66602 6.99902 6.99902c3.33301 2 6.66602 3 9.99902 3
h5c3.33301 0 6.66602 -0.333008 9.99902 -1c3.33301 -1.33301 6 -4.33301 8 -9l438 -998c0.666992 -2.66699 1 -5 1 -7s-0.333008 -3.66699 -1 -5c-0.666992 -3.33301 -5 -5 -13 -5z" />
    <glyph glyph-name="Aring" unicode="&#xc5;" 
d="M439 1234c0 -42.667 -15 -78.667 -45 -108s-66 -44 -108 -44c-43.333 0 -79.333 14.667 -108 44c-29.333 29.333 -44 65.333 -44 108c0 43.333 14.667 79.666 44 108.999c28.667 30 64.667 45 108 45c42 0 78 -15 108 -45c30 -29.333 45 -65.666 45 -108.999zM392 1234
c0 28.667 -10.667 53.667 -32 75c-20.667 20.667 -45.334 31 -74.001 31s-53.667 -10.333 -75 -31c-20.667 -21.333 -31 -46.333 -31 -75s10.333 -53.334 31 -74.001c21.333 -21.333 46.333 -32 75 -32s53.334 10.667 74.001 32c21.333 20.667 32 45.334 32 74.001zM734 -1
h-38.0029c-4.66699 0 -8.66699 1.33301 -12 4c-4 2.66699 -6.66699 5.33398 -8 8.00098l-116 264h-390c-2 0 -3.66699 -0.333008 -5 -1c-2 -0.666992 -3.66699 -1 -5 -1c2 -4 3.33301 -8 4 -12c1.33301 -3.33301 2 -7.33301 2 -12c-1.33301 -18.667 -8 -32.334 -20 -41.001
c-12 -9.33301 -25.333 -13.666 -40 -12.999c-17.333 0.666992 -30.666 7 -39.999 19c-10 11.333 -14.333 26 -13 44c0.666992 20.667 11.667 38.334 33 53.001c22 15.333 56 22 102 20h348l-246 579h-3l-390 -899c-1.33301 -2.66699 -3.66602 -5.33398 -6.99902 -8.00098
s-7.66602 -4 -12.999 -4h-40c-5.33301 0 -8.66602 1.33301 -9.99902 4c-1.33301 1.33301 -2 3 -2 5s0.666992 4.66699 2 8l442 998c1.33301 3.33301 3.66602 5.66602 6.99902 6.99902c3.33301 2 6.66602 3 9.99902 3h4c4 0 7.66699 -0.333008 11 -1
c3.33301 -1.33301 6 -4.33301 8 -9l438 -998c0.666992 -2.66699 1 -5 1 -7s-0.333008 -3.66699 -1 -5c-1.33301 -3.33301 -5.66602 -5 -12.999 -5z" />
    <glyph glyph-name="AE" unicode="&#xc6;" horiz-adv-x="1274" 
d="M5 23l610 955c4.66699 7.33301 9.33398 13.333 14.001 18s12 7 22 7h564c5.33301 0 9.66602 -2 12.999 -6c4 -3.33301 6 -7.66602 6 -12.999v-23c0 -4.66699 -2 -9 -6 -13c-3.33301 -3.33301 -7.66602 -5 -12.999 -5h-530v-398h461c5.33301 0 9.66602 -1.66699 12.999 -5
c4 -4 6 -8.33301 6 -13v-25c0 -4.66699 -1.66699 -9 -5 -13c-2.66699 -3.33301 -7.33398 -5 -14.001 -5h-461v-425h530c8.66699 0 14 -2 16 -6c2 -4.66699 3 -9.33398 3 -14.001v-22c0 -4.66699 -2 -9 -6 -13c-3.33301 -3.33301 -7.66602 -5 -12.999 -5h-574
c-5.33301 0 -9.66602 1.66699 -12.999 5c-4 4 -6 8.33301 -6 13v259h-381l-167 -264c-3.33301 -5.33301 -7 -9 -11 -11c-4 -1.33301 -8 -2 -12 -2h-40c-6.66699 0 -10.334 2.33301 -11.001 7v2c0 4.66699 1.66699 9.66699 5 15zM622 331v549l-348 -549h348z" />
    <glyph glyph-name="Ccedilla" unicode="&#xc7;" horiz-adv-x="985" 
d="M571 0l0.00292969 -77c43.333 -5.33301 79.666 -19.333 108.999 -42c30 -22.667 45 -55.334 45 -98.001c0 -38 -13.333 -70.667 -40 -98s-60.334 -41 -101.001 -41c-28 0 -52 5.66699 -72 17c-20 10.667 -33.333 21.334 -40 32.001c-2.66699 4.66699 -4 9 -4 13v2
c0 4 2 7.66699 6 11l14 11c2.66699 2.66699 6.33398 3.66699 11.001 3c4 -0.666992 8 -3 12 -7c4.66699 -5.33301 12.667 -11.666 24 -18.999c12 -7.33301 28.333 -11 49 -11c26 0 46.667 8.33301 62 25s23 37 23 61c0 34.667 -14.333 58.667 -43 72
s-58.334 21.666 -89.001 24.999c-6.66699 2 -11.334 4.66699 -14.001 8c-2 3.33301 -3 7 -3 11v102h34h17zM917.003 790c-8 -16.667 -18.999 -27.6689 -32.999 -33.002s-28.667 -4.33301 -44 3c-13.333 6.66699 -23 17 -29 31s-5 29.333 3 46
c1.33301 2.66699 3 5.33398 5 8.00098l6 6c-39.333 32 -83 57 -131 75c-48 18.667 -99.333 28 -154 28c-81.333 0 -155.666 -20 -222.999 -60c-66.667 -39.333 -119.667 -91.333 -159 -156c-20.667 -34.667 -36.667 -72 -48 -112c-12 -40 -18 -82 -18 -126
c0 -42.667 6 -84 18 -124c11.333 -40 27.333 -77.333 48 -112c39.333 -64 92.333 -115.667 159 -155s141 -59 223 -59c61.333 0 116.333 11 165 33c48.667 22.667 94.667 51.667 138 87c4 4 8 6 12 6c4 0.666992 7.66699 -0.333008 11 -3l24 -24
c3.33301 -2.66699 5 -6.66699 5 -12c0 -4.66699 -1.66699 -8.66699 -5 -12c-48.667 -47.333 -103.334 -82.666 -164.001 -105.999c-60 -22.667 -122 -34 -186 -34c-93.333 0 -179 22.333 -257 67c-77.333 44 -139 102.333 -185 175c-24.667 39.333 -43.667 82.333 -57 129
c-14 46 -21 94 -21 144c0 50.667 7 99 21 145c13.333 46 32.333 89 57 129c46 73.333 108 132.333 186 177c77.333 44.667 162.666 67 255.999 67c73.333 0 138 -11.667 194 -35c56.667 -23.333 108 -56 154 -98l2 -2c0.666992 -0.666992 1 -1.33398 1 -2.00098
c16.667 -16 27 -32 31 -48c0.666992 -5.33301 1 -10.666 1 -15.999c0 -10 -2 -19 -6 -27z" />
    <glyph glyph-name="Egrave" unicode="&#xc8;" 
d="M330 1099c-0.666992 -4.66699 -2.66504 -8.00293 -5.99805 -10.0029c-3.33301 -2.66699 -8 -4.33398 -14 -5.00098c-4 -0.666992 -9.33301 -1 -16 -1c-2 0 -4 0.333008 -6 1c-9.33301 0 -20 1 -32 3c-22.667 4.66699 -47.334 13.667 -74.001 27
c-27.333 13.333 -52.333 35 -75 65c-29.333 37.333 -44 69.333 -44 96s8 46.334 24 59.001c13.333 10 26.666 15 39.999 15h4c15.333 -1.33301 28 -8.66602 38 -21.999c9.33301 -12 13.666 -25.667 12.999 -41c-0.666992 -14.667 -8.33398 -27.667 -23.001 -39
c-3.33301 -2.66699 -7 -4.66699 -11 -6c-3.33301 -1.33301 -7 -2.33301 -11 -3c2 -7.33301 5.33301 -15 10 -23s10.334 -16 17.001 -24c20 -21.333 40.667 -35.666 62 -42.999c21.333 -8 39.333 -13 54 -15c8.66699 -0.666992 15.667 -1 21 -1h10
c6.66699 0.666992 11.334 -0.666016 14.001 -3.99902c3.33301 -2.66699 5 -6 5 -10v-19zM-13.998 942.997v-395.998h455c4.66699 0 9 -2 13 -6s6 -8.33301 6 -13v-24c0 -5.33301 -2 -10 -6 -14c-4 -3.33301 -8.33301 -5 -13 -5h-455v-425h436c-2 3.33301 -3.33301 7 -4 11
c-1.33301 3.33301 -1.66602 7 -0.999023 11c0.666992 18.667 7 32.667 19 42c12.667 9.33301 26.334 13.666 41.001 12.999c17.333 -1.33301 30.666 -7.66602 39.999 -18.999c8.66699 -10.667 13 -24 13 -40v-5c-1.33301 -18.667 -11 -35.334 -29 -50.001
c-18.667 -14 -47.334 -21.667 -86.001 -23v0h-479c-5.33301 0 -9.66602 2 -12.999 6c-4 3.33301 -6 7.66602 -6 12.999v362v605c0 4.66699 2 9 6 13c3.33301 3.33301 7.66602 5 12.999 5h575c5.33301 0 9.66602 -1.66699 12.999 -5c4 -4 6 -8.33301 6 -13v-25
c0 -4.66699 -2 -9 -6 -13c-3.33301 -3.33301 -7.66602 -5 -12.999 -5h-525z" />
    <glyph glyph-name="Eacute" unicode="&#xc9;" 
d="M99 1122c0 4.66699 1.33203 8.33496 3.99902 11.002c3.33301 2.66699 8 3.66699 14 3c3.33301 0 12.666 0.333008 27.999 1s33 5 53 13c11.333 4.66699 22.666 10.334 33.999 17.001c11.333 7.33301 22 16.666 32 27.999c7.33301 8 13.333 16 18 24s8 15.667 10 23
c-4 0.666992 -8 1.66699 -12 3c-3.33301 1.33301 -6.66602 3.33301 -9.99902 6c-15.333 11.333 -23 24.666 -23 39.999c-0.666992 14.667 3.33301 28 12 40c10.667 14 23.667 21.333 39 22h3c14 0 27.333 -5 40 -15c16.667 -12.667 25 -32.334 25 -59.001
s-14.667 -58.667 -44 -96c-12 -16 -25 -29.667 -39 -41c-14 -10.667 -28 -19.667 -42 -27c-26 -13.333 -50.333 -21.333 -73 -24c-15.333 -2 -27.666 -3 -36.999 -3h-13c-5.33301 1.33301 -9.66602 3 -12.999 5c-4 2 -6 5.33301 -6 10v19zM-32.001 943.001
l0.00195312 -395.998h455c5.33301 0 9.66602 -2 12.999 -6c4 -4 6 -8.33301 6 -13v-24c0 -5.33301 -2 -10 -6 -14c-3.33301 -3.33301 -7.66602 -5 -12.999 -5h-455v-425h436c-1.33301 3.33301 -2.66602 7 -3.99902 11c-0.666992 3.33301 -1 7 -1 11
c1.33301 18.667 8 32.667 20 42s25.333 13.666 40 12.999c17.333 -1.33301 30.666 -7.66602 39.999 -18.999c8.66699 -10.667 13 -24 13 -40v-5c-0.666992 -18.667 -10.334 -35.334 -29.001 -50.001c-18.667 -14 -47.334 -21.667 -86.001 -23v0h-479c-4.66699 0 -9 2 -13 6
c-3.33301 3.33301 -5 7.66602 -5 12.999v362v605c0 4.66699 1.66699 9 5 13c4 3.33301 8.33301 5 13 5h576c4.66699 0 9 -1.66699 13 -5c3.33301 -4 5 -8.33301 5 -13v-25c0 -4.66699 -1.66699 -9 -5 -13c-4 -3.33301 -8.33301 -5 -13 -5h-526z" />
    <glyph glyph-name="Ecircumflex" unicode="&#xca;" 
d="M114 1104l-13.001 16c-1.33301 2 -2 4.33301 -2 7v3c2 3.33301 4.66699 6.66602 8 9.99902l174 140c2 2 4.33301 3.66699 7 5s5 2 7 2h4c2.66699 0 5.33398 -0.666992 8.00098 -2s5 -3 7 -5l173 -140c4 -3.33301 6.66699 -6.66602 8 -9.99902
c0.666992 -1.33301 1 -2.33301 1 -3c0 -2.66699 -1 -5 -3 -7c-2.66699 -4 -7 -9.33301 -13 -16c-2 -3.33301 -4.66699 -5.66602 -8 -6.99902c-3.33301 -2 -7.66602 -0.666992 -12.999 4l-162 120l-161 -120c-4 -3.33301 -7.66699 -5 -11 -5
c-0.666992 0 -1.66699 0.333008 -3 1c-2.66699 1.33301 -5.33398 3.66602 -8.00098 6.99902zM59.999 943l0.000976562 -395.998h455c4.66699 0 9 -2 13 -6c3.33301 -4 5 -8.33301 5 -13v-24c0 -5.33301 -1.66699 -10 -5 -14c-4 -3.33301 -8.33301 -5 -13 -5h-455v-425h436
c-2 3.33301 -3.33301 7 -4 11c-1.33301 3.33301 -1.66602 7 -0.999023 11c0.666992 18.667 7 32.667 19 42s25.667 13.666 41 12.999c17.333 -1.33301 30.666 -7.66602 39.999 -18.999c8.66699 -10.667 13 -24 13 -40c0 -1.33301 -0.333008 -3 -1 -5
c-0.666992 -18.667 -10.334 -35.334 -29.001 -50.001c-18 -14 -46.333 -21.667 -85 -23v0h-479c-5.33301 0 -9.66602 2 -12.999 6c-4 3.33301 -6 7.66602 -6 12.999v362v605c0 4.66699 2 9 6 13c3.33301 3.33301 7.66602 5 12.999 5h575c4.66699 0 9 -1.66699 13 -5
c4 -4 6 -8.33301 6 -13v-25c0 -4.66699 -2 -9 -6 -13c-4 -3.33301 -8.33301 -5 -13 -5h-525z" />
    <glyph glyph-name="Edieresis" unicode="&#xcb;" 
d="M108 1191c0 14 4.66699 26 14 36c9.33301 9.33301 20.666 14 33.999 14c14.667 0 26.667 -4.66699 36 -14c8.66699 -10 13 -22 13 -36c0 -13.333 -4.33301 -24.666 -13 -33.999c-9.33301 -9.33301 -21.333 -14 -36 -14c-13.333 0 -24.666 4.66699 -33.999 14
s-14 20.666 -14 33.999zM383 1191c0 14 4.66699 26 14 36c8.66699 9.33301 19.667 14 33 14c14.667 0 26.667 -4.66699 36 -14c10 -10 15 -22 15 -36c0 -13.333 -5 -24.666 -15 -33.999c-9.33301 -9.33301 -21.333 -14 -36 -14c-13.333 0 -24.333 4.66699 -33 14
c-9.33301 9.33301 -14 20.666 -14 33.999zM49 943v-395.998h455c5.33301 0 9.66602 -2 12.999 -6c4 -4 6 -8.33301 6 -13v-24c0 -5.33301 -2 -10 -6 -14c-3.33301 -3.33301 -7.66602 -5 -12.999 -5h-455v-425h436c-1.33301 3.33301 -2.66602 7 -3.99902 11
c-0.666992 3.33301 -1 7 -1 11c0.666992 18.667 7.33398 32.667 20.001 42c12 9.33301 25.333 13.666 40 12.999c17.333 -1.33301 30.666 -7.66602 39.999 -18.999c8.66699 -10.667 13 -24 13 -40v-5c-1.33301 -18.667 -11 -35.334 -29 -50.001
c-18.667 -14 -47.334 -21.667 -86.001 -23v0h-479c-5.33301 0 -9.66602 2 -12.999 6c-4 3.33301 -6 7.66602 -6 12.999v362v605c0 4.66699 2 9 6 13c3.33301 3.33301 7.66602 5 12.999 5h575c5.33301 0 9.66602 -1.66699 12.999 -5c4 -4 6 -8.33301 6 -13v-25
c0 -4.66699 -2 -9 -6 -13c-3.33301 -3.33301 -7.66602 -5 -12.999 -5h-525z" />
    <glyph glyph-name="Igrave" unicode="&#xcc;" 
d="M258 984c0 5.33301 2 9.66504 6 12.998c3.33301 4 7.66602 6 12.999 6h31c5.33301 0 10 -2 14 -6c3.33301 -3.33301 5 -7.66602 5 -12.999v-644v-323c0 -5.33301 -2 -9.66602 -6 -12.999s-8.66699 -5 -14 -5h-30c-5.33301 0 -9.66602 1.66699 -12.999 5
c-4 4 -6 8.33301 -6 13v457v510zM330 1099c-0.666992 -4.66699 -2.66504 -8.00293 -5.99805 -10.0029c-3.33301 -2.66699 -8 -4.33398 -14 -5.00098c-4 -0.666992 -9.33301 -1 -16 -1c-2 0 -4 0.333008 -6 1c-9.33301 0 -20 1 -32 3
c-22.667 4.66699 -47.334 13.667 -74.001 27c-27.333 13.333 -52.333 35 -75 65c-29.333 37.333 -44 69.333 -44 96s8 46.334 24 59.001c13.333 10 26.666 15 39.999 15h4c15.333 -1.33301 28 -8.66602 38 -21.999c9.33301 -12 13.666 -25.667 12.999 -41
c-0.666992 -14.667 -8.33398 -27.667 -23.001 -39c-3.33301 -2.66699 -7 -4.66699 -11 -6c-3.33301 -1.33301 -7 -2.33301 -11 -3c2 -7.33301 5.33301 -15 10 -23s10.334 -16 17.001 -24c20 -21.333 40.667 -35.666 62 -42.999c21.333 -8 39.333 -13 54 -15
c8.66699 -0.666992 15.667 -1 21 -1h10c6.66699 0.666992 11.334 -0.666016 14.001 -3.99902c3.33301 -2.66699 5 -6 5 -10v-19z" />
    <glyph glyph-name="Iacute" unicode="&#xcd;" 
d="M99 1122c0 4.66699 1.33203 8.33496 3.99902 11.002c3.33301 2.66699 8 3.66699 14 3c3.33301 0 12.666 0.333008 27.999 1s33 5 53 13c11.333 4.66699 22.666 10.334 33.999 17.001c11.333 7.33301 22 16.666 32 27.999c7.33301 8 13.333 16 18 24s8 15.667 10 23
c-4 0.666992 -8 1.66699 -12 3c-3.33301 1.33301 -6.66602 3.33301 -9.99902 6c-15.333 11.333 -23 24.666 -23 39.999c-0.666992 14.667 3.33301 28 12 40c10.667 14 23.667 21.333 39 22h3c14 0 27.333 -5 40 -15c16.667 -12.667 25 -32.334 25 -59.001
s-14.667 -58.667 -44 -96c-12 -16 -25 -29.667 -39 -41c-14 -10.667 -28 -19.667 -42 -27c-26 -13.333 -50.333 -21.333 -73 -24c-15.333 -2 -27.666 -3 -36.999 -3h-13c-5.33301 1.33301 -9.66602 3 -12.999 5c-4 2 -6 5.33301 -6 10v19zM104.999 986.001
c0 4.66699 1.66699 9.00098 5 13.001c4 3.33301 8.33301 5 13 5h32c4.66699 0 9 -1.66699 13 -5c3.33301 -4 5 -8.33301 5 -13v-535v-432c0 -6 -2 -10.667 -6 -14s-8.66699 -5 -14 -5h-30c-4.66699 0 -9 2 -13 6c-3.33301 3.33301 -5 7.66602 -5 12.999v362v605z" />
    <glyph glyph-name="Icircumflex" unicode="&#xce;" 
d="M96 1104l-13 16c-2 2 -3 4.33301 -3 7c0 0.666992 0.333008 1.66699 1 3c1.33301 3.33301 4 6.66602 8 9.99902l173 140c2.66699 2 5.33398 3.66699 8.00098 5s5 2 7 2h4c2 0 4.33301 -0.666992 7 -2s5 -3 7 -5l174 -140c3.33301 -3.33301 6 -6.66602 8 -9.99902
c0.666992 -1.33301 1 -2.33301 1 -3c0 -2.66699 -1 -5 -3 -7c-2.66699 -4 -7 -9.33301 -13 -16c-2 -3.33301 -4.66699 -5.66602 -8 -6.99902c-3.33301 -2 -8 -0.666992 -14 4l-162 120l-160 -120c-4.66699 -3.33301 -8.33398 -5 -11.001 -5
c-1.33301 0 -2.33301 0.333008 -3 1c-3.33301 1.33301 -6 3.66602 -8 6.99902zM249 984c0 5.33301 2 9.66504 6 12.998c3.33301 4 7.66602 6 12.999 6h32c4.66699 0 9 -2 13 -6c3.33301 -3.33301 5 -7.66602 5 -12.999v-644v-323c0 -5.33301 -2 -9.66602 -6 -12.999
s-8.66699 -5 -14 -5h-30c-5.33301 0 -9.66602 1.66699 -12.999 5c-4 4 -6 8.33301 -6 13v457v510z" />
    <glyph glyph-name="Idieresis" unicode="&#xcf;" 
d="M108 1191c0 14 4.66699 26 14 36c9.33301 9.33301 20.666 14 33.999 14c14.667 0 26.667 -4.66699 36 -14c8.66699 -10 13 -22 13 -36c0 -13.333 -4.33301 -24.666 -13 -33.999c-9.33301 -9.33301 -21.333 -14 -36 -14c-13.333 0 -24.666 4.66699 -33.999 14
s-14 20.666 -14 33.999zM383 1191c0 14 4.66699 26 14 36c8.66699 9.33301 19.667 14 33 14c14.667 0 26.667 -4.66699 36 -14c10 -10 15 -22 15 -36c0 -13.333 -5 -24.666 -15 -33.999c-9.33301 -9.33301 -21.333 -14 -36 -14c-13.333 0 -24.333 4.66699 -33 14
c-9.33301 9.33301 -14 20.666 -14 33.999zM265 984c0 5.33301 1.66699 9.66504 5 12.998c4 4 8.33301 6 13 6h32c4.66699 0 9 -2 13 -6c3.33301 -3.33301 5 -7.66602 5 -12.999v-589v-378c0 -5.33301 -2 -9.66602 -6 -12.999s-8.66699 -5 -14 -5h-30
c-4.66699 0 -9 1.66699 -13 5c-3.33301 4 -5 8.33301 -5 13v457v510z" />
    <glyph glyph-name="Eth" unicode="&#xd0;" 
d="M-69 477l-51 0.000976562c-4.66699 0 -8.66699 2 -12 6s-5 8.33301 -5 13v7c0 5.33301 1.66699 9.66602 5 12.999c3.33301 4 7.33301 6 12 6h51v465c0 4.66699 1.33301 9 4 13c3.33301 3.33301 7.66602 5 12.999 5h304c48.667 0 95.334 -6.33301 140.001 -19
c45.333 -13.333 87.333 -32 126 -56c71.333 -44 129 -103.667 173 -179c44 -74.667 66 -156.667 66 -246c0 -91.333 -22 -174.333 -66 -249c-44 -75.333 -101.667 -135.333 -173 -180c-38.667 -23.333 -80.667 -41.666 -126 -54.999
c-44.667 -13.333 -91.334 -20 -140.001 -20h-304c-5.33301 0 -9.66602 2 -12.999 6c-2.66699 3.33301 -4 7.66602 -4 12.999v457zM240 63.001c81.333 0 155 18.666 221 55.999c66.667 37.333 119 87.333 157 150c21.333 33.333 37.666 70 48.999 110s17 82 17 126
c0 43.333 -5.66699 84.666 -17 123.999s-27.666 76 -48.999 110c-38 62 -90.333 111.667 -157 149c-66 37.333 -139.667 56 -221 56h-242v-422h359c4.66699 0 9 -2 13 -6c3.33301 -3.33301 5 -7.66602 5 -12.999v-8c0 -5.33301 -1.66699 -9.66602 -5 -12.999
c-4 -3.33301 -8.33301 -5 -13 -5h-359v-414h242z" />
    <glyph glyph-name="Ntilde" unicode="&#xd1;" 
d="M90 1154c-4.66699 1.33301 -7.66895 4.00195 -9.00195 8.00195c-0.666992 2 -1 4 -1 6s0.333008 4 1 6l8 19c3.33301 8.66699 7.33301 17.667 12 27c10 18 24 35.333 42 52s42 25 72 25c33.333 0 57 -10.667 71 -32l39 -61c6.66699 -10.667 14 -19.667 22 -27
c8 -6.66699 18 -10 30 -10c26.667 0 45.667 10.667 57 32c12 22 20.333 39.333 25 52c1.33301 5.33301 4 9 8 11c4.66699 2 9 1.66699 13 -1c3.33301 -0.666992 8.66602 -2.33398 15.999 -5.00098c2.66699 -1.33301 5 -3.33301 7 -6c1.33301 -2 2 -4.33301 2 -7v-6
c-1.33301 -4 -5.66602 -16 -12.999 -36c-8 -20 -21 -38.333 -39 -55c-9.33301 -9.33301 -20.666 -17 -33.999 -23s-28.666 -9 -45.999 -9c-18 0 -32.667 3.33301 -44 10c-12 7.33301 -22.333 16.333 -31 27c-15.333 19.333 -28.333 40 -39 62s-27 33 -49 33
c-26.667 0 -46 -11.667 -58 -35c-11.333 -22.667 -19 -40.667 -23 -54c-2 -5.33301 -4.66699 -9 -8 -11c-4 -2 -8.66699 -1.66699 -14 1c-4 1.33301 -9.66699 3.66602 -17 6.99902zM685.998 889.002l0.00390625 -887.001c0 -6 -2.33301 -10.667 -7 -14
c-4.66699 -2.66699 -10 -4 -16 -4h-19l-5 5c-2.66699 2.66699 -11.334 13.334 -26.001 32.001l-23 29l-33 42l-65 84l-92 120l-187 245l-263 348h-2v-872c0 -5.33301 -1.66699 -9.66602 -5 -12.999c-4 -4 -8.33301 -6 -13 -6h-27c-5.33301 0 -10 2 -14 6
c-3.33301 3.33301 -5 7.66602 -5 12.999v368v613c0 6 2 10.667 6 14c4.66699 3.33301 9.66699 5 15 5h25l688 -897h2v0v772c-2.66699 -0.666992 -5.33398 -1 -8.00098 -1c-2.66699 -0.666992 -5.33398 -0.666992 -8.00098 0c-18.667 2 -32.334 9.33301 -41.001 22
c-8 12.667 -11 26.667 -9 42c2 16.667 9 29.334 21 38.001s27 12 45 10c18.667 -2 34.334 -12.333 47.001 -31c13.333 -18.667 19.666 -46.334 18.999 -83.001v0z" />
    <glyph glyph-name="Ograve" unicode="&#xd2;" 
d="M330 1099c-0.666992 -4.66699 -2.66504 -8.00293 -5.99805 -10.0029c-3.33301 -2.66699 -8 -4.33398 -14 -5.00098c-4 -0.666992 -9.33301 -1 -16 -1c-2 0 -4 0.333008 -6 1c-9.33301 0 -20 1 -32 3c-22.667 4.66699 -47.334 13.667 -74.001 27
c-27.333 13.333 -52.333 35 -75 65c-29.333 37.333 -44 69.333 -44 96s8 46.334 24 59.001c13.333 10 26.666 15 39.999 15h4c15.333 -1.33301 28 -8.66602 38 -21.999c9.33301 -12 13.666 -25.667 12.999 -41c-0.666992 -14.667 -8.33398 -27.667 -23.001 -39
c-3.33301 -2.66699 -7 -4.66699 -11 -6c-3.33301 -1.33301 -7 -2.33301 -11 -3c2 -7.33301 5.33301 -15 10 -23s10.334 -16 17.001 -24c20 -21.333 40.667 -35.666 62 -42.999c21.333 -8 39.333 -13 54 -15c8.66699 -0.666992 15.667 -1 21 -1h10
c6.66699 0.666992 11.334 -0.666016 14.001 -3.99902c3.33301 -2.66699 5 -6 5 -10v-19zM182.002 1018c94 0 179.67 -22.333 257.003 -67s138.666 -103.667 183.999 -177c24 -40 43 -83 57 -129c13.333 -46 20 -94.333 20 -145c0 -93.333 -22.333 -178.333 -67 -255
c-44.667 -77.333 -103.667 -138.333 -177 -183c-39.333 -24.667 -82.333 -43.667 -129 -57c-46 -13.333 -94.333 -20 -145 -20c-50 0 -98 6.66699 -144 20c-46.667 13.333 -89.667 32.333 -129 57c-73.333 44.667 -132.333 105.334 -177 182.001
c-44.667 77.333 -67 162.666 -67 255.999c0 50.667 7 99 21 145c13.333 46 32 89 56 129c45.333 73.333 106.666 132.333 183.999 177s162.666 67 255.999 67zM182.005 48.9971c44 0 86 5.66602 126 16.999c40.667 12 78.334 28.667 113.001 50
c64.667 39.333 116.667 93 156 161c40 67.333 60 141.666 60 222.999c0 44 -6 86.333 -18 127s-28.667 78.334 -50 113.001c-40.667 64.667 -95 116.667 -163 156s-142.667 59 -224 59c-44 0 -86 -6 -126 -18c-40.667 -11.333 -78.334 -28 -113.001 -50
c-64.667 -40 -116.667 -94 -156 -162c-38.667 -68 -58 -143 -58 -225c0 -81.333 19.333 -155.666 58 -222.999c39.333 -67.333 91.333 -121 156 -161c34.667 -21.333 72 -38 112 -50c40.667 -11.333 83 -17 127 -17z" />
    <glyph glyph-name="Oacute" unicode="&#xd3;" 
d="M99 1122c0 4.66699 1.33203 8.33496 3.99902 11.002c3.33301 2.66699 8 3.66699 14 3c3.33301 0 12.666 0.333008 27.999 1s33 5 53 13c11.333 4.66699 22.666 10.334 33.999 17.001c11.333 7.33301 22 16.666 32 27.999c7.33301 8 13.333 16 18 24s8 15.667 10 23
c-4 0.666992 -8 1.66699 -12 3c-3.33301 1.33301 -6.66602 3.33301 -9.99902 6c-15.333 11.333 -23 24.666 -23 39.999c-0.666992 14.667 3.33301 28 12 40c10.667 14 23.667 21.333 39 22h3c14 0 27.333 -5 40 -15c16.667 -12.667 25 -32.334 25 -59.001
s-14.667 -58.667 -44 -96c-12 -16 -25 -29.667 -39 -41c-14 -10.667 -28 -19.667 -42 -27c-26 -13.333 -50.333 -21.333 -73 -24c-15.333 -2 -27.666 -3 -36.999 -3h-13c-5.33301 1.33301 -9.66602 3 -12.999 5c-4 2 -6 5.33301 -6 10v19zM235.999 1018
c50.667 0 99.001 -6.66797 145.001 -20.001c46.667 -13.333 89.667 -32.333 129 -57c73.333 -45.333 132.333 -106.666 177 -183.999c44.667 -78 67 -163.667 67 -257s-22.333 -178.333 -67 -255c-44 -77.333 -103 -138.333 -177 -183c-39.333 -24.667 -82 -43.667 -128 -57
c-46.667 -13.333 -95.334 -20 -146.001 -20c-93.333 0 -178.333 22.333 -255 67c-77.333 44 -138.666 102.333 -183.999 175c-24.667 40 -43.667 83 -57 129s-20 94 -20 144c0 50.667 6.66699 99 20 145s32.333 89 57 129c45.333 73.333 106.666 132.333 183.999 177
c76.667 44.667 161.667 67 255 67zM236 49c44 0 86.332 5.66602 126.999 16.999c40.667 12 78.334 28.667 113.001 50c64.667 39.333 116.667 93 156 161c39.333 67.333 59 141.666 59 222.999c0 44 -6 86.333 -18 127s-28.667 78.334 -50 113.001
c-40 64.667 -94 116.667 -162 156s-143 59 -225 59c-43.333 0 -85.333 -6 -126 -18c-40.667 -11.333 -78.334 -28 -113.001 -50c-64 -40 -115.667 -94 -155 -162s-59 -143 -59 -225c0 -81.333 19.667 -155.666 59 -222.999s91 -121 155 -161
c34.667 -21.333 72.334 -38 113.001 -50c40 -11.333 82 -17 126 -17z" />
    <glyph glyph-name="Ocircumflex" unicode="&#xd4;" 
d="M105 1104l-13 16c-2 2 -3 4.33301 -3 7c0 0.666992 0.333008 1.66699 1 3c1.33301 3.33301 4 6.66602 8 9.99902l173 140c2.66699 2 5.33398 3.66699 8.00098 5s5 2 7 2h4c2 0 4.33301 -0.666992 7 -2s5 -3 7 -5l174 -140c3.33301 -3.33301 6 -6.66602 8 -9.99902
c0.666992 -1.33301 1 -2.33301 1 -3c0 -2.66699 -1 -5 -3 -7l-13 -16c-2 -3.33301 -4.66699 -5.66602 -8 -6.99902c-3.33301 -2 -8 -0.666992 -14 4l-162 120l-160 -120c-4.66699 -3.33301 -8.33398 -5 -11.001 -5c-1.33301 0 -2.33301 0.333008 -3 1
c-3.33301 1.33301 -6 3.66602 -8 6.99902zM297 1018c50.667 0 99 -6.66699 145 -20c46.667 -13.333 89.667 -32.333 129 -57c74 -45.333 133 -106.666 177 -183.999c44.667 -78 67 -163.667 67 -257s-22 -178.333 -66 -255c-44.667 -77.333 -104 -138.333 -178 -183
c-39.333 -24.667 -82 -43.667 -128 -57c-46.667 -13.333 -95.334 -20 -146.001 -20c-92.667 0 -177.667 22.333 -255 67c-77.333 44 -138.666 102.333 -183.999 175c-24.667 40 -43.667 83 -57 129s-20 94 -20 144c0 93.333 22.333 178.666 67 255.999
c44.667 78 103.667 139.667 177 185c39.333 24.667 82 43.667 128 57s94 20 144 20zM297 49c44 0 86.3311 5.66602 126.998 16.999c40.667 12 78.334 28.667 113.001 50c64.667 39.333 116.667 93 156 161c39.333 67.333 59 141.666 59 222.999c0 44 -6 86.333 -18 127
s-28.667 78.334 -50 113.001c-40 64.667 -94 116.667 -162 156s-143 59 -225 59c-43.333 0 -85.333 -6 -126 -18c-40 -11.333 -77.667 -28 -113 -50c-64 -40 -115.667 -94 -155 -162s-59 -143 -59 -225c0 -81.333 19.667 -155.666 59 -222.999s91 -121 155 -161
c34.667 -21.333 72.334 -38 113.001 -50c40 -11.333 82 -17 126 -17z" />
    <glyph glyph-name="Otilde" unicode="&#xd5;" 
d="M90 1154c-4.66699 1.33301 -7.66895 4.00195 -9.00195 8.00195c-0.666992 2 -1 4 -1 6s0.333008 4 1 6l8 19c3.33301 8.66699 7.33301 17.667 12 27c10 18 24 35.333 42 52s42 25 72 25c33.333 0 57 -10.667 71 -32l39 -61c6.66699 -10.667 14 -19.667 22 -27
c8 -6.66699 18 -10 30 -10c26.667 0 45.667 10.667 57 32c12 22 20.333 39.333 25 52c1.33301 5.33301 4 9 8 11c4.66699 2 9 1.66699 13 -1c3.33301 -0.666992 8.66602 -2.33398 15.999 -5.00098c2.66699 -1.33301 5 -3.33301 7 -6c1.33301 -2 2 -4.33301 2 -7v-6
c-1.33301 -4 -5.66602 -16 -12.999 -36c-8 -20 -21 -38.333 -39 -55c-9.33301 -9.33301 -20.666 -17 -33.999 -23s-28.666 -9 -45.999 -9c-18 0 -32.667 3.33301 -44 10c-12 7.33301 -22.333 16.333 -31 27c-15.333 19.333 -28.333 40 -39 62s-27 33 -49 33
c-26.667 0 -46 -11.667 -58 -35c-11.333 -22.667 -19 -40.667 -23 -54c-2 -5.33301 -4.66699 -9 -8 -11c-4 -2 -8.66699 -1.66699 -14 1c-4 1.33301 -9.66699 3.66602 -17 6.99902zM274.998 1018c50.667 0 99 -6.66797 145 -20.001s89 -32.333 129 -57
c73.333 -45.333 132.333 -106.666 177 -183.999c44.667 -78 67 -163.667 67 -257s-22.333 -178.333 -67 -255c-44.667 -77.333 -103.667 -138.333 -177 -183c-39.333 -24.667 -82.333 -43.667 -129 -57c-46 -13.333 -94.333 -20 -145 -20
c-93.333 0 -178.666 22.333 -255.999 67c-76.667 44 -137.667 102.333 -183 175c-24.667 40 -43.667 83 -57 129s-20 94 -20 144c0 50.667 6.66699 99 20 145s32.333 89 57 129c45.333 73.333 106.333 132.333 183 177c77.333 44.667 162.666 67 255.999 67zM274.998 49.001
c44 0 86.333 5.66602 127 16.999c40 12 77.667 28.667 113 50c64.667 39.333 116.667 93 156 161c39.333 67.333 59 141.666 59 222.999c0 44 -6 86.333 -18 127s-28.667 78.334 -50 113.001c-40.667 64.667 -95 116.667 -163 156s-142.667 59 -224 59
c-44 0 -86 -6 -126 -18c-40.667 -11.333 -78.334 -28 -113.001 -50c-64 -40 -115.667 -94 -155 -162s-59 -143 -59 -225c0 -81.333 19.667 -155.666 59 -222.999c38.667 -67.333 90.334 -121 155.001 -161c34.667 -21.333 72 -38 112 -50c40.667 -11.333 83 -17 127 -17z
" />
    <glyph glyph-name="Odieresis" unicode="&#xd6;" 
d="M108 1191c0 14 4.66699 26 14 36c9.33301 9.33301 20.666 14 33.999 14c14.667 0 26.667 -4.66699 36 -14c8.66699 -10 13 -22 13 -36c0 -13.333 -4.33301 -24.666 -13 -33.999c-9.33301 -9.33301 -21.333 -14 -36 -14c-13.333 0 -24.666 4.66699 -33.999 14
s-14 20.666 -14 33.999zM383 1191c0 14 4.66699 26 14 36c8.66699 9.33301 19.667 14 33 14c14.667 0 26.667 -4.66699 36 -14c10 -10 15 -22 15 -36c0 -13.333 -5 -24.666 -15 -33.999c-9.33301 -9.33301 -21.333 -14 -36 -14c-13.333 0 -24.333 4.66699 -33 14
c-9.33301 9.33301 -14 20.666 -14 33.999zM303 1018c50 0 98.333 -6.66797 145 -20.001c46 -13.333 89 -32.333 129 -57c73.333 -45.333 132.333 -106.666 177 -183.999c44.667 -78 67 -163.667 67 -257s-22.333 -178.333 -67 -255
c-44.667 -77.333 -103.667 -138.333 -177 -183c-39.333 -24.667 -82.333 -43.667 -129 -57c-46 -13.333 -94.333 -20 -145 -20c-93.333 0 -178.666 22.333 -255.999 67c-77.333 44 -138.666 102.333 -183.999 175c-24 40 -42.667 83 -56 129c-14 46 -21 94 -21 144
c0 50.667 7 99 21 145c13.333 46 32 89 56 129c45.333 73.333 106.666 132.333 183.999 177s162.666 67 255.999 67zM303 48.999c44 0 86 5.66602 126 16.999c40.667 12 78.334 28.667 113.001 50c64.667 39.333 116.667 93 156 161c40 67.333 60 141.666 60 222.999
c0 44 -6 86.333 -18 127s-28.667 78.334 -50 113.001c-40.667 64.667 -95 116.667 -163 156s-142.667 59 -224 59c-44 0 -86 -6 -126 -18c-40.667 -11.333 -78.334 -28 -113.001 -50c-64.667 -40 -116.667 -94 -156 -162c-38.667 -68 -58 -143 -58 -225
c0 -81.333 19.333 -155.666 58 -222.999c39.333 -67.333 91.333 -121 156 -161c34.667 -21.333 72 -38 112 -50c40.667 -11.333 83 -17 127 -17z" />
    <glyph glyph-name="multiply" unicode="&#xd7;" 
d="M256 294l-199.001 258.998c-4.66699 4.66699 -5.66699 9.33398 -3 14.001c2 4 6 6 12 6h37c3.33301 0 7 -1 11 -3s7.33301 -5.33301 10 -10l168 -222h1l170 222c2.66699 4.66699 6 8 10 10s8 3 12 3h37c5.33301 0 9 -2 11 -6
c2.66699 -4.66699 1.66699 -9.33398 -3 -14.001l-198 -258l208 -276c2.66699 -3.33301 4 -6.66602 4 -9.99902c0 -1.33301 -0.333008 -2.66602 -1 -3.99902c-2 -4 -5.66699 -6 -11 -6h-37c-3.33301 0 -7 1 -11 3s-7.66699 5.33301 -11 10l-180 240h-1l-179 -240
c-3.33301 -4 -6.66602 -7 -9.99902 -9c-4 -2 -8 -3 -12 -3h-37c-6 0 -10 2 -12 6c-0.666992 1.33301 -1 3 -1 5c0 2.66699 1.33301 5.66699 4 9z" />
    <glyph glyph-name="Oslash" unicode="&#xd8;" 
d="M-215 65l89.999 89c-40 46 -71.667 98.333 -95 157c-22.667 58.667 -34 121.667 -34 189c0 50 6.66699 98 20 144s32.333 89 57 129c45.333 73.333 106.333 132.333 183 177c77.333 44.667 163 67 257 67c68.667 0 133.334 -12.333 194.001 -37s114 -59 160 -103l95 92
c2.66699 3.33301 6.33398 5 11.001 5c5.33301 0 9.66602 -1.66699 12.999 -5l6 -6c3.33301 -3.33301 5 -7.66602 5 -12.999c0 -4.66699 -1.66699 -9 -5 -13l-94 -92c40.667 -46 73 -98.333 97 -157c23.333 -59.333 35 -122 35 -188c0 -94 -22.333 -179.333 -67 -256
c-44.667 -77.333 -103.667 -138.333 -177 -183c-39.333 -24.667 -82.333 -43.667 -129 -57c-46 -12.667 -94 -19 -144 -19c-70 0 -135.333 12 -196 36s-114 57.667 -160 101l-92 -89c-2.66699 -3.33301 -6.66699 -5 -12 -5c-4.66699 0 -8.66699 1.66699 -12 5l-6 6
c-4 3.33301 -6 7.66602 -6 12.999c0 4.66699 2 9 6 13zM571.999 832c-40.667 38 -87.666 68.001 -140.999 90.001c-52.667 21.333 -108.667 32 -168 32c-82 0 -157 -19.667 -225 -59c-67.333 -39.333 -121 -91.333 -161 -156c-21.333 -34.667 -38 -72.334 -50 -113.001
s-18 -82.667 -18 -126c0 -58.667 10 -113.334 30 -164.001c19.333 -51.333 46.666 -96.666 81.999 -135.999zM263 48.001c81.333 0 155.999 19.334 223.999 58.001c68 39.333 122 91 162 155c22 34.667 38.667 72 50 112c12 40.667 18 83 18 127
c0 57.333 -10 111.666 -30 162.999c-20.667 52 -48.667 98 -84 138l-650 -633c40 -38 86.667 -67.667 140 -89c52.667 -20.667 109.334 -31 170.001 -31z" />
    <glyph glyph-name="Ugrave" unicode="&#xd9;" 
d="M330 1099c-0.666992 -4.66699 -2.66504 -8.00293 -5.99805 -10.0029c-3.33301 -2.66699 -8 -4.33398 -14 -5.00098c-4 -0.666992 -9.33301 -1 -16 -1c-2 0 -4 0.333008 -6 1c-9.33301 0 -20 1 -32 3c-22.667 4.66699 -47.334 13.667 -74.001 27
c-27.333 13.333 -52.333 35 -75 65c-29.333 37.333 -44 69.333 -44 96s8 46.334 24 59.001c13.333 10 26.666 15 39.999 15h4c15.333 -1.33301 28 -8.66602 38 -21.999c9.33301 -12 13.666 -25.667 12.999 -41c-0.666992 -14.667 -8.33398 -27.667 -23.001 -39
c-3.33301 -2.66699 -7 -4.66699 -11 -6c-3.33301 -1.33301 -7 -2.33301 -11 -3c2 -7.33301 5.33301 -15 10 -23s10.334 -16 17.001 -24c20 -21.333 40.667 -35.666 62 -42.999c21.333 -8 39.333 -13 54 -15c8.66699 -0.666992 15.667 -1 21 -1h10
c6.66699 0.666992 11.334 -0.666016 14.001 -3.99902c3.33301 -2.66699 5 -6 5 -10v-19zM583.002 865.997l0.00292969 -501c0 -38.667 -4.66699 -75.334 -14 -110.001c-8.66699 -34 -21.334 -65.667 -38.001 -95c-31.333 -54 -75 -96.667 -131 -128
c-55.333 -31.333 -120.333 -47 -195 -47c-39.333 0 -76.333 4.66699 -111 14s-66.334 22.666 -95.001 39.999c-52.667 32.667 -94 77.334 -124 134.001c-29.333 56.667 -44 120.667 -44 192v620c0 4.66699 2 9 6 13c3.33301 3.33301 7.66602 5 12.999 5h30
c4.66699 0 9 -1.66699 13 -5c3.33301 -4 5 -8.33301 5 -13v-613c0 -92.667 27.333 -169.334 82 -230.001s129.667 -91 225 -91c96.667 0 172.334 30 227.001 90c55.333 60.667 83 137 83 229v522c-2 -0.666992 -4 -1 -6 -1c-2 -0.666992 -4.33301 -0.666992 -7 0
c-18.667 2 -32 9.33301 -40 22c-8.66699 12.667 -12 26.667 -10 42c2 16.667 9.33301 29.334 22 38.001c9.33301 7.33301 20.666 11 33.999 11c3.33301 0 7 -0.333008 11 -1c20 -2.66699 36.667 -15 50 -37c10 -16.667 15 -39.667 15 -69
c0 -9.33301 -0.333008 -19.666 -1 -30.999z" />
    <glyph glyph-name="Uacute" unicode="&#xda;" horiz-adv-x="835" 
d="M339 1122c0 4.66699 1.66406 8.33496 4.99707 11.002c2.66699 2.66699 7.33398 3.66699 14.001 3c2.66699 0 11.667 0.333008 27 1c16 0.666992 34 5 54 13c10.667 4.66699 21.667 10.334 33 17.001c11.333 7.33301 22.333 16.666 33 27.999
c6.66699 8 12.334 16 17.001 24s8 15.667 10 23c-4 0.666992 -8 1.66699 -12 3c-3.33301 1.33301 -6.66602 3.33301 -9.99902 6c-14.667 11.333 -22.334 24.666 -23.001 39.999c-0.666992 14.667 3.33301 28 12 40c10.667 14 23.667 21.333 39 22h4
c13.333 0 26.333 -5 39 -15c16.667 -12.667 25 -32.334 25 -59.001s-14.667 -58.667 -44 -96c-12 -16 -25 -29.667 -39 -41c-14 -10.667 -28 -19.667 -42 -27c-26 -13.333 -50.333 -21.333 -73 -24c-15.333 -2 -27.666 -3 -36.999 -3h-12c-6 1.33301 -10.667 3 -14 5
c-4 2 -6 5.33301 -6 10v19zM833.997 866.001l0.000976562 -501c0 -38.667 -4.66699 -75.334 -14 -110.001c-8.66699 -34 -21.334 -65.667 -38.001 -95c-31.333 -54 -75 -96.667 -131 -128c-55.333 -31.333 -120.333 -47 -195 -47c-73.333 0 -137.666 15.667 -192.999 47
c-56 32 -99.333 74.667 -130 128c-16.667 29.333 -29.334 61.333 -38.001 96c-8.66699 34 -13 70.333 -13 109v620c0 4.66699 1.66699 9 5 13c4 3.33301 8.66699 5 14 5h30c4.66699 0 9 -1.66699 13 -5c3.33301 -4 5 -8.33301 5 -13v-613
c0 -92.667 27.333 -169.334 82 -230.001s129.667 -91 225 -91c96.667 0 172.334 30 227.001 90c55.333 60.667 83 137 83 229v522c-2 -0.666992 -4 -1 -6 -1c-2 -0.666992 -4.33301 -0.666992 -7 0c-18.667 2 -32 9.33301 -40 22c-8.66699 12.667 -12 26.667 -10 42
c2 16.667 9.33301 29.334 22 38.001c9.33301 7.33301 20.666 11 33.999 11c3.33301 0 7 -0.333008 11 -1c20 -2.66699 36.667 -15 50 -37c10 -16.667 15 -39.667 15 -69c0 -9.33301 -0.333008 -19.666 -1 -30.999z" />
    <glyph glyph-name="Ucircumflex" unicode="&#xdb;" 
d="M109 1104c-3.33301 3.33301 -7.66504 8.66699 -12.998 16c-2 2 -3 4.33301 -3 7c0 0.666992 0.333008 1.66699 1 3c1.33301 3.33301 3.66602 6.66602 6.99902 9.99902l174 140c2 2 4.33301 3.66699 7 5s5 2 7 2h5c2 0 4.33301 -0.666992 7 -2s5 -3 7 -5l174 -140
c3.33301 -3.33301 5.66602 -6.66602 6.99902 -9.99902c0.666992 -1.33301 1 -2.33301 1 -3c0 -2.66699 -1 -5 -3 -7c-2.66699 -4 -7 -9.33301 -13 -16c-2 -3.33301 -4.66699 -5.66602 -8 -6.99902c-3.33301 -2 -7.66602 -0.666992 -12.999 4l-162 120l-161 -120
c-4 -3.33301 -7.66699 -5 -11 -5c-0.666992 0 -1.33398 0.333008 -2.00098 1c-3.33301 1.33301 -6 3.66602 -8 6.99902zM666.001 866.001l0.00195312 -501c0 -38.667 -4.66699 -75.334 -14 -110.001c-8.66699 -34 -21.334 -65.667 -38.001 -95
c-31.333 -54 -75 -96.667 -131 -128c-55.333 -31.333 -120.333 -47 -195 -47c-39.333 0 -76.333 4.66699 -111 14s-66.334 22.666 -95.001 39.999c-52.667 32.667 -93.667 77.334 -123 134.001c-30 56.667 -45 120.667 -45 192v620c0 4.66699 2 9 6 13
c3.33301 3.33301 7.66602 5 12.999 5h30c4.66699 0 9 -1.66699 13 -5c3.33301 -4 5 -8.33301 5 -13v-613c0 -92.667 27.333 -169.334 82 -230.001s129.667 -91 225 -91c96.667 0 172.334 30 227.001 90c55.333 60.667 83 137 83 229v522c-2 -0.666992 -4 -1 -6 -1
c-2 -0.666992 -4.33301 -0.666992 -7 0c-18.667 2 -32 9.33301 -40 22c-8.66699 12.667 -12 26.667 -10 42c2 16.667 9.33301 29.334 22 38.001c9.33301 7.33301 21 11 35 11c2.66699 0 6 -0.333008 10 -1c20 -2.66699 36.667 -15 50 -37c10 -16.667 15 -39.667 15 -69
c0 -9.33301 -0.333008 -19.666 -1 -30.999z" />
    <glyph glyph-name="Udieresis" unicode="&#xdc;" 
d="M108 1191c0 14 4.66699 26 14 36c9.33301 9.33301 20.666 14 33.999 14c14.667 0 26.667 -4.66699 36 -14c8.66699 -10 13 -22 13 -36c0 -13.333 -4.33301 -24.666 -13 -33.999c-9.33301 -9.33301 -21.333 -14 -36 -14c-13.333 0 -24.666 4.66699 -33.999 14
s-14 20.666 -14 33.999zM383 1191c0 14 4.66699 26 14 36c8.66699 9.33301 19.667 14 33 14c14.667 0 26.667 -4.66699 36 -14c10 -10 15 -22 15 -36c0 -13.333 -5 -24.666 -15 -33.999c-9.33301 -9.33301 -21.333 -14 -36 -14c-13.333 0 -24.333 4.66699 -33 14
c-9.33301 9.33301 -14 20.666 -14 33.999zM662 866l0.00390625 -501c0 -38.667 -4.33301 -75.334 -13 -110.001c-8.66699 -34 -21.667 -65.667 -39 -95c-30.667 -54 -74 -96.667 -130 -128s-121 -47 -195 -47s-138.667 15.667 -194 47c-55.333 32 -98.333 74.667 -129 128
c-16.667 29.333 -29.334 61.333 -38.001 96c-9.33301 34 -14 70.333 -14 109v620c0 4.66699 2 9 6 13c4 3.33301 8.33301 5 13 5h30c5.33301 0 9.66602 -1.66699 12.999 -5c4 -4 6 -8.33301 6 -13v-613c0 -92.667 27.333 -169.334 82 -230.001s129.667 -91 225 -91
c96 0 171.667 30 227 90c55.333 60.667 83 137 83 229v522c-2 -0.666992 -4.33301 -1 -7 -1c-2 -0.666992 -4 -0.666992 -6 0c-18.667 2 -32.334 9.33301 -41.001 22c-8 12.667 -11 26.667 -9 42c2 16.667 9 29.334 21 38.001c10 7.33301 21.667 11 35 11
c3.33301 0 6.66602 -0.333008 9.99902 -1c20 -2.66699 37 -15 51 -37c10 -16.667 15 -39.667 15 -69c0 -9.33301 -0.666992 -19.666 -2 -30.999z" />
    <glyph glyph-name="Yacute" unicode="&#xdd;" horiz-adv-x="841" 
d="M277 1122c0 4.66699 1.6709 8.33496 5.00391 11.002s8 3.66699 14 3c3.33301 0 12.666 0.333008 27.999 1s33 5 53 13c10.667 4.66699 21.667 10.334 33 17.001c11.333 7.33301 22.333 16.666 33 27.999c7.33301 8 13.333 16 18 24s8 15.667 10 23
c-4.66699 0.666992 -8.66699 1.66699 -12 3c-4 1.33301 -7.66699 3.33301 -11 6c-14.667 11.333 -22.334 24.666 -23.001 39.999c-0.666992 14.667 3.66602 28 12.999 40c10.667 14 23.334 21.333 38.001 22h4c13.333 0 26.666 -5 39.999 -15
c16.667 -12.667 24.667 -32.334 24 -59.001c0 -26.667 -14.333 -58.667 -43 -96c-12.667 -16 -26 -29.667 -40 -41c-14 -10.667 -27.667 -19.667 -41 -27c-26.667 -13.333 -51.334 -21.333 -74.001 -24c-14.667 -2 -27 -3 -37 -3h-12c-6 1.33301 -10.667 3 -14 5
s-5 5.33301 -5 10c0 4 -0.333008 10.333 -1 19zM768.004 873.001v-1.00098l-290 -382v-471c0 -5.33301 -1.66699 -9.66602 -5 -12.999c-4 -4 -8.33301 -6 -13 -6c-9.33301 0 -20 0.333008 -32 1c-11.333 0.666992 -17 6.66699 -17 18v469l-366 495
c-2.66699 4 -4 7.33301 -4 10c0 2 0.333008 3.66699 1 5c2.66699 4.66699 7.33398 7 14.001 7h44c3.33301 0 6.66602 -1 9.99902 -3c3.33301 -1.33301 6 -3.33301 8 -6l327 -446l271 363c-2.66699 0.666992 -5 1.66699 -7 3c-2.66699 1.33301 -5 3 -7 5
c-14 12.667 -21 26.667 -21 42c0.666992 15.333 6 28.333 16 39c12 12.667 25.333 19.334 40 20.001c15.333 0 29.333 -6 42 -18c14 -12.667 21 -30.334 21 -53.001s-10.667 -48.667 -32 -78z" />
    <glyph glyph-name="Thorn" unicode="&#xde;" 
d="M0 987c0 4.66699 2 9 6 13c3.33301 3.33301 7.66602 5 12.999 5h30c4.66699 0 9 -1.66699 13 -5c3.33301 -4 5 -8.33301 5 -13v-159h260c31.333 0 61.333 -4.33301 90 -13s55.334 -20.667 80.001 -36c46 -28 83.333 -66 112 -114c28 -48 42 -100.333 42 -157
c0 -32 -4 -62.333 -12 -91c-8.66699 -29.333 -20.667 -56.333 -36 -81c-28.667 -46.667 -67.334 -84 -116.001 -112c-48 -28 -100.667 -42 -158 -42h-262v-162c0 -5.33301 -2 -9.66602 -6 -12.999c-4 -4 -9.66699 -6 -17 -6h-25c-5.33301 0 -9.66602 2 -12.999 6
c-4 3.33301 -6 7.66602 -6 12.999v362v605zM324 247c24.667 0 48.668 3.33105 72.001 9.99805c22.667 6.66699 44 16.334 64 29.001c36.667 22.667 66.667 53.667 90 93c22.667 39.333 34 82.666 34 129.999c0 24.667 -3.66699 48.334 -11 71.001
c-6.66699 22.667 -16.334 43.334 -29.001 62.001c-23.333 36 -54.333 64.667 -93 86c-39.333 21.333 -82 32 -128 32h-256v-513h257v0z" />
    <glyph glyph-name="germandbls" unicode="&#xdf;" horiz-adv-x="754" 
d="M82 589c0 142.667 26 249.999 78 321.999c52.667 72 128.667 108 228 108c21.333 0 42.666 -2 63.999 -6s41.333 -10.333 60 -19c35.333 -15.333 64.333 -39 87 -71s34 -73.667 34 -125c0 -23.333 -3.33301 -45.666 -10 -66.999c-7.33301 -20.667 -16 -40.667 -26 -60
c-18.667 -35.333 -38.334 -66.666 -59.001 -93.999c-20.667 -28 -31 -52 -31 -72c0 -11.333 7.66699 -24.333 23 -39l56 -49c11.333 -10 23 -21 35 -33c12 -11.333 23.333 -23.666 34 -36.999c16.667 -20.667 30.334 -43.334 41.001 -68.001c11.333 -25.333 17 -53 17 -83
c0 -48 -11 -87.333 -33 -118s-50.333 -53.334 -85 -68.001c-18 -8 -37.333 -14 -58 -18s-41.667 -6 -63 -6c-55.333 0 -95.666 6.33301 -120.999 19c-24.667 12 -35.667 22 -33 30l9 27c1.33301 4.66699 3.66602 8.33398 6.99902 11.001
c4 3.33301 8.66699 3.66602 14 0.999023c6.66699 -4 22 -10.333 46 -19s50 -13 78 -13c47.333 0 88.333 13 123 39c34.667 25.333 52 63.666 52 114.999c0 25.333 -5.66699 48.333 -17 69c-12 21.333 -26.333 41.333 -43 60c-20 22.667 -41.667 43.334 -65 62.001
c-23.333 19.333 -42.666 38 -57.999 56c-8.66699 10 -15.667 20 -21 30c-4.66699 9.33301 -7 19.333 -7 30c0 24.667 10.667 52.667 32 84c22 31.333 42.667 64 62 98c10 18 18.667 36.333 26 55c6.66699 18.667 10 37 10 55c0 57.333 -18.667 99.333 -56 126
c-38 27.333 -80 41 -126 41c-78.667 0 -138.667 -31.333 -180 -94c-40.667 -62 -61 -155 -61 -279v-570c0 -6 -1.33301 -10.667 -4 -14c-3.33301 -3.33301 -8.33301 -5 -15 -5h-28c-5.33301 0 -9.33301 2 -12 6s-4 8.33301 -4 13v214v356z" />
    <glyph glyph-name="agrave" unicode="&#xe0;" horiz-adv-x="559" 
d="M421 809c0 -4.66699 -1.66504 -7.99805 -4.99805 -9.99805c-3.33301 -2.66699 -8 -4.33398 -14 -5.00098c-4 -0.666992 -9.33301 -1 -16 -1h-6c-10 0.666992 -20.667 2 -32 4c-22.667 4 -47.667 13 -75 27c-26.667 13.333 -51.667 34.666 -75 63.999
c-28.667 37.333 -43 69.666 -43 96.999c0 26.667 8 46.334 24 59.001c13.333 10 26.666 15 39.999 15h4c14.667 -1.33301 27.334 -8.66602 38.001 -21.999c9.33301 -12 13.666 -25.667 12.999 -41s-8.33398 -28.666 -23.001 -39.999
c-3.33301 -2.66699 -7 -4.33398 -11 -5.00098c-3.33301 -1.33301 -7.33301 -2.33301 -12 -3c2.66699 -7.33301 6 -15 10 -23c4.66699 -8 10.667 -16.333 18 -25c10.667 -10.667 21.667 -19.667 33 -27s22.333 -13 33 -17c20 -8 37.667 -12.333 53 -13
c16 -0.666992 25.333 -1 28 -1c6 0 10.667 -1.33301 14 -4s5 -6.33398 5 -11.001c0 -4 -0.333008 -10 -1 -18zM497.002 338.002l0.00292969 -319.002c0 -4.66699 -1.66699 -9 -5 -13c-4 -3.33301 -8.33301 -5 -13 -5h-18c-4.66699 0 -8.33398 1.33301 -11.001 4
s-4.66699 6.33398 -6 11.001l-6 52c-18.667 -17.333 -45 -35.333 -79 -54s-74 -28 -120 -28c-53.333 0 -98 17 -134 51c-36 34.667 -54 81.334 -54 140.001c0 55.333 21.333 101.333 64 138s101.667 55 177 55c33.333 0 63.666 -3.33301 90.999 -10
c28 -7.33301 46 -12.333 54 -15c0 62.667 -7 110 -21 142c-13.333 31.333 -48.333 47 -105 47c-27.333 0 -52 -2.33301 -74 -7c-21.333 -4.66699 -39.666 -9.66699 -54.999 -15c-3.33301 -1.33301 -6.66602 -3 -9.99902 -5c-3.33301 -1.33301 -6.33301 -3 -9 -5
c3.33301 -3.33301 6 -6.33301 8 -9c2 -3.33301 3.66699 -7.33301 5 -12c4 -18 1.66699 -33 -7 -45c-8.66699 -12.667 -20.334 -20.667 -35.001 -24c-16.667 -4 -31.334 -2 -44.001 6c-12 8.66699 -20.333 21.667 -25 39c-4 16 -1 33 9 51
c10.667 17.333 30.334 32.333 59.001 45c13.333 6 35.666 13.333 66.999 22s69.666 13 114.999 13c56.667 0 97.667 -10 123 -30c25.333 -20.667 42 -49 50 -85c4 -18.667 6.66699 -39.667 8 -63c0.666992 -22.667 1 -46.667 1 -72zM437.005 131l0.00195312 12v146
c-9.33301 4 -27.333 10 -54 18c-26 8 -56.333 12 -91 12c-54.667 0 -98.667 -13 -132 -39c-33.333 -25.333 -50 -59.333 -50 -102c0 -41.333 13 -74.333 39 -99c25.333 -24.667 57.666 -37 96.999 -37c44 0 83.333 10.333 118 31c35.333 20.667 59.666 40 72.999 58v0z" />
    <glyph glyph-name="aacute" unicode="&#xe1;" horiz-adv-x="559" 
d="M142 826c0 4.66699 1.66797 8.33301 5.00098 11s8 4 14 4c2.66699 0 12 0.333008 28 1c15.333 0 33 4 53 12c10.667 4.66699 21.667 10.667 33 18c11.333 6.66699 22.333 15.667 33 27c7.33301 8 13 16 17 24c4.66699 8 8.33398 16 11.001 24
c-4.66699 0 -8.66699 0.666992 -12 2c-4 1.33301 -7.66699 3.33301 -11 6c-14.667 11.333 -22.334 24.666 -23.001 39.999s3.66602 28.666 12.999 39.999c10.667 14 23.334 21.667 38.001 23h4c13.333 0 26.666 -5 39.999 -15c16 -12.667 24 -32.667 24 -60
c0 -26.667 -14.333 -58.667 -43 -96c-12.667 -16 -26 -29.333 -40 -40c-14 -11.333 -27.667 -20.666 -41 -27.999c-26.667 -13.333 -51.334 -21.333 -74.001 -24c-15.333 -2 -27.666 -3 -36.999 -3c-4.66699 0 -8.66699 0.333008 -12 1c-6 0.666992 -10.667 2 -14 4
c-3.33301 2.66699 -5 6.33398 -5 11.001c0 4 -0.333008 10 -1 18zM497.001 337.999l0.00292969 -319.002c0 -4.66699 -1.66699 -9 -5 -13c-4 -3.33301 -8.33301 -5 -13 -5h-18c-4.66699 0 -8.33398 1.33301 -11.001 4s-4.66699 6.33398 -6 11.001l-6 52
c-18.667 -17.333 -45 -35.333 -79 -54s-74 -28 -120 -28c-53.333 0 -98 17 -134 51c-36 34.667 -54 81.334 -54 140.001c0 55.333 21.333 101.333 64 138s101.667 55 177 55c33.333 0 63.666 -3.33301 90.999 -10c28 -7.33301 46 -12.333 54 -15c0 62.667 -7 110 -21 142
c-13.333 31.333 -48.333 47 -105 47c-27.333 0 -52 -2.33301 -74 -7c-21.333 -4.66699 -39.666 -9.66699 -54.999 -15c-3.33301 -1.33301 -6.66602 -3 -9.99902 -5c-3.33301 -1.33301 -6.33301 -3 -9 -5c3.33301 -3.33301 6 -6.33301 8 -9
c2 -3.33301 3.66699 -7.33301 5 -12c4 -18 1.66699 -33 -7 -45c-8.66699 -12.667 -20.334 -20.667 -35.001 -24c-16.667 -4 -31.334 -2 -44.001 6c-12 8.66699 -20.333 21.667 -25 39c-4 16 -1 33 9 51c10.667 17.333 30.334 32.333 59.001 45
c13.333 6 35.666 13.333 66.999 22s69.666 13 114.999 13c56.667 0 97.667 -10 123 -30c25.333 -20.667 42 -49 50 -85c4 -18.667 6.66699 -39.667 8 -63c0.666992 -22.667 1 -46.667 1 -72zM437.004 130.997l0.00195312 12v146c-9.33301 4 -27.333 10 -54 18
c-26 8 -56.333 12 -91 12c-54.667 0 -98.667 -13 -132 -39c-33.333 -25.333 -50 -59.333 -50 -102c0 -41.333 13 -74.333 39 -99c25.333 -24.667 57.666 -37 96.999 -37c44 0 83.333 10.333 118 31c35.333 20.667 59.666 40 72.999 58v0z" />
    <glyph glyph-name="acircumflex" unicode="&#xe2;" horiz-adv-x="548" 
d="M82 790c-3.33301 3.33301 -7.66602 8.66699 -12.999 16c-2 2 -3 4.33301 -3 7c0 0.666992 0.333008 1.66699 1 3c1.33301 3.33301 4 6.66602 8 9.99902l173 140c2 2 4.33301 3.66699 7 5s5.33398 2 8.00098 2h4c2 0 4.33301 -0.666992 7 -2s5 -3 7 -5l174 -140
c3.33301 -3.33301 5.66602 -6.66602 6.99902 -9.99902c0.666992 -1.33301 1 -2.33301 1 -3c0 -2.66699 -0.666992 -5 -2 -7l-13 -16c-2.66699 -3.33301 -5.33398 -5.66602 -8.00098 -6.99902c-3.33301 -2 -8 -0.666992 -14 4l-162 120l-161 -120
c-4 -3.33301 -7.33301 -5 -10 -5c-1.33301 0 -2.33301 0.333008 -3 1c-3.33301 1.33301 -6 3.66602 -8 6.99902zM487 338.001l0.00195312 -319.002c0 -4.66699 -2 -9 -6 -13c-3.33301 -3.33301 -7.66602 -5 -12.999 -5h-17c-4.66699 0 -8.33398 1.33301 -11.001 4
s-4.66699 6.33398 -6 11.001l-6 52c-18.667 -17.333 -45 -35.333 -79 -54s-74 -28 -120 -28c-53.333 0 -98 17 -134 51c-36 34.667 -54 81.334 -54 140.001c0 55.333 21.333 101.333 64 138s101.667 55 177 55c32.667 0 63 -3.33301 91 -10c28 -7.33301 46 -12.333 54 -15
c0 62.667 -7 110 -21 142c-14 31.333 -49 47 -105 47c-27.333 0 -52 -2.33301 -74 -7s-40.333 -9.66699 -55 -15c-4 -1.33301 -7.33301 -3 -10 -5c-3.33301 -1.33301 -6.33301 -3 -9 -5c2.66699 -3.33301 5.33398 -6.33301 8.00098 -9c2 -3.33301 3.33301 -7.33301 4 -12
c4.66699 -18 2.66699 -33 -6 -45c-8.66699 -12.667 -20.334 -20.667 -35.001 -24c-16.667 -4 -31.334 -2 -44.001 6c-12.667 8.66699 -21 21.667 -25 39c-4 16 -1 33 9 51c10 17.333 29.667 32.333 59 45c13.333 6 35.666 13.333 66.999 22s69.666 13 114.999 13
c56.667 0 97.667 -10 123 -30c24.667 -20.667 41 -49 49 -85c4.66699 -18.667 7.33398 -39.667 8.00098 -63c1.33301 -22.667 2 -46.667 2 -72zM427.002 130.999v12v146c-9.33301 4 -27.333 10 -54 18s-57 12 -91 12c-54.667 0 -98.667 -13 -132 -39
c-33.333 -25.333 -50 -59.333 -50 -102c0 -41.333 12.667 -74.333 38 -99c26 -24.667 58.667 -37 98 -37c44 0 83.333 10.333 118 31s59 40 73 58v0z" />
    <glyph glyph-name="atilde" unicode="&#xe3;" horiz-adv-x="548" 
d="M73 837c-4.66699 1.33301 -7.66699 4 -9 8c-0.666992 2 -1 4 -1 6s0.333008 4 1 6c2 4.66699 4.33301 11 7 19c3.33301 8.66699 7.66602 17.667 12.999 27c10 18 24 35.333 42 52c18 17.333 41.667 26 71 26c34 0 58 -11 72 -33l39 -61
c6.66699 -10.667 14 -19.334 22 -26.001c8 -7.33301 18 -11 30 -11c26 0 45 11 57 33c12 21.333 20 38.666 24 51.999c1.33301 4.66699 4.33301 8 9 10c4 2 8.33301 2 13 0c3.33301 -1.33301 8.66602 -3.33301 15.999 -6c2.66699 -1.33301 5 -3.33301 7 -6
c1.33301 -2 2 -4.33301 2 -7c0 -1.33301 -0.333008 -3.33301 -1 -6c-0.666992 -3.33301 -5 -15 -13 -35c-7.33301 -20 -20 -38.667 -38 -56c-10 -9.33301 -21.667 -17 -35 -23s-28.666 -9 -45.999 -9s-32 3.66699 -44 11c-11.333 6.66699 -21.333 15.334 -30 26.001
c-15.333 19.333 -28.333 40 -39 62s-27 33 -49 33c-27.333 0 -46.666 -11.333 -57.999 -34c-11.333 -23.333 -19.333 -41.666 -24 -54.999c-1.33301 -5.33301 -4 -8.66602 -8 -9.99902c-4 -2 -8.33301 -2 -13 0c-4 1.33301 -9.66699 3.66602 -17 6.99902zM487 338
l0.00195312 -319.002c0 -4.66699 -2 -9 -6 -13c-3.33301 -3.33301 -7.66602 -5 -12.999 -5h-17c-4.66699 0 -8.33398 1.33301 -11.001 4s-4.66699 6.33398 -6 11.001l-6 52c-18.667 -17.333 -45 -35.333 -79 -54s-74 -28 -120 -28c-53.333 0 -98 17 -134 51
c-36 34.667 -54 81.334 -54 140.001c0 55.333 21.333 101.333 64 138s101.667 55 177 55c32.667 0 63 -3.33301 91 -10c28 -7.33301 46 -12.333 54 -15c0 62.667 -7 110 -21 142c-14 31.333 -49 47 -105 47c-27.333 0 -52 -2.33301 -74 -7s-40.333 -9.66699 -55 -15
c-4 -1.33301 -7.33301 -3 -10 -5c-3.33301 -1.33301 -6.33301 -3 -9 -5c2.66699 -3.33301 5.33398 -6.33301 8.00098 -9c2 -3.33301 3.33301 -7.33301 4 -12c4.66699 -18 2.66699 -33 -6 -45c-8.66699 -12.667 -20.334 -20.667 -35.001 -24c-16.667 -4 -31.334 -2 -44.001 6
c-12.667 8.66699 -21 21.667 -25 39c-4 16 -1 33 9 51c10 17.333 29.667 32.333 59 45c13.333 6 35.666 13.333 66.999 22s69.666 13 114.999 13c56.667 0 97.667 -10 123 -30c24.667 -20.667 41 -49 49 -85c4.66699 -18.667 7.33398 -39.667 8.00098 -63
c1.33301 -22.667 2 -46.667 2 -72zM427.002 130.998v12v146c-9.33301 4 -27.333 10 -54 18s-57 12 -91 12c-54.667 0 -98.667 -13 -132 -39c-33.333 -25.333 -50 -59.333 -50 -102c0 -41.333 12.667 -74.333 38 -99c26 -24.667 58.667 -37 98 -37c44 0 83.333 10.333 118 31
s59 40 73 58v0z" />
    <glyph glyph-name="adieresis" unicode="&#xe4;" horiz-adv-x="548" 
d="M84 902c0 14.667 4.66699 26.667 14 36c9.33301 10 20.666 15 33.999 15c14.667 0 26.667 -5 36 -15c8.66699 -9.33301 13 -21.333 13 -36c0 -12.667 -4.33301 -23.667 -13 -33c-9.33301 -9.33301 -21.333 -14 -36 -14c-13.333 0 -24.666 4.66699 -33.999 14
s-14 20.333 -14 33zM359 902c0 14.667 4.66699 26.667 14 36c8.66699 10 19.667 15 33 15c14.667 0 26.667 -5 36 -15c10 -9.33301 15 -21.333 15 -36c0 -12.667 -5 -23.667 -15 -33c-9.33301 -9.33301 -21.333 -14 -36 -14c-13.333 0 -24.333 4.66699 -33 14
c-9.33301 9.33301 -14 20.333 -14 33zM487 338l0.00195312 -319.002c0 -4.66699 -2 -9 -6 -13c-3.33301 -3.33301 -7.66602 -5 -12.999 -5h-17c-4.66699 0 -8.33398 1.33301 -11.001 4s-4.66699 6.33398 -6 11.001l-6 52c-18.667 -17.333 -45 -35.333 -79 -54
s-74 -28 -120 -28c-53.333 0 -98 17 -134 51c-36 34.667 -54 81.334 -54 140.001c0 55.333 21.333 101.333 64 138s101.667 55 177 55c32.667 0 63 -3.33301 91 -10c28 -7.33301 46 -12.333 54 -15c0 62.667 -7 110 -21 142c-14 31.333 -49 47 -105 47
c-27.333 0 -52 -2.33301 -74 -7s-40.333 -9.66699 -55 -15c-4 -1.33301 -7.33301 -3 -10 -5c-3.33301 -1.33301 -6.33301 -3 -9 -5c2.66699 -3.33301 5.33398 -6.33301 8.00098 -9c2 -3.33301 3.33301 -7.33301 4 -12c4.66699 -18 2.66699 -33 -6 -45
c-8.66699 -12.667 -20.334 -20.667 -35.001 -24c-16.667 -4 -31.334 -2 -44.001 6c-12.667 8.66699 -21 21.667 -25 39c-4 16 -1 33 9 51c10 17.333 29.667 32.333 59 45c13.333 6 35.666 13.333 66.999 22s69.666 13 114.999 13c56.667 0 97.667 -10 123 -30
c24.667 -20.667 41 -49 49 -85c4.66699 -18.667 7.33398 -39.667 8.00098 -63c1.33301 -22.667 2 -46.667 2 -72zM427.002 130.998v12v146c-9.33301 4 -27.333 10 -54 18s-57 12 -91 12c-54.667 0 -98.667 -13 -132 -39c-33.333 -25.333 -50 -59.333 -50 -102
c0 -41.333 12.667 -74.333 38 -99c26 -24.667 58.667 -37 98 -37c44 0 83.333 10.333 118 31s59 40 73 58v0z" />
    <glyph glyph-name="aring" unicode="&#xe5;" horiz-adv-x="548" 
d="M123 868c0 43.333 15 79.666 45 108.999c29.333 30 65.666 45 108.999 45c42 0 77.667 -15 107 -45c30 -29.333 45 -65.666 45 -108.999c0 -42.667 -15 -78.667 -45 -108c-29.333 -29.333 -65 -44 -107 -44c-43.333 0 -79.666 14.667 -108.999 44
c-30 29.333 -45 65.333 -45 108zM381 868c0 28.667 -10.333 53.667 -31 75c-20.667 20.667 -45 31 -73 31c-28.667 0 -54 -10.333 -76 -31c-21.333 -21.333 -32 -46.333 -32 -75s10.667 -53.334 32 -74.001c22 -21.333 47.333 -32 76 -32c28 0 52.333 10.667 73 32
c20.667 20.667 31 45.334 31 74.001zM487 338l0.00195312 -319.002c0 -4.66699 -2 -9 -6 -13c-3.33301 -3.33301 -7.66602 -5 -12.999 -5h-17c-4.66699 0 -8.33398 1.33301 -11.001 4s-4.66699 6.33398 -6 11.001l-6 52c-18.667 -17.333 -45 -35.333 -79 -54
s-74 -28 -120 -28c-53.333 0 -98 17 -134 51c-36 34.667 -54 81.334 -54 140.001c0 55.333 21.333 101.333 64 138s101.667 55 177 55c32.667 0 63 -3.33301 91 -10c28 -7.33301 46 -12.333 54 -15c0 62.667 -7 110 -21 142c-14 31.333 -49 47 -105 47
c-27.333 0 -52 -2.33301 -74 -7s-40.333 -9.66699 -55 -15c-4 -1.33301 -7.33301 -3 -10 -5c-3.33301 -1.33301 -6.33301 -3 -9 -5c2.66699 -3.33301 5.33398 -6.33301 8.00098 -9c2 -3.33301 3.33301 -7.33301 4 -12c4.66699 -18 2.66699 -33 -6 -45
c-8.66699 -12.667 -20.334 -20.667 -35.001 -24c-16.667 -4 -31.334 -2 -44.001 6c-12.667 8.66699 -21 21.667 -25 39c-4 16 -1 33 9 51c10 17.333 29.667 32.333 59 45c13.333 6 35.666 13.333 66.999 22s69.666 13 114.999 13c56.667 0 97.667 -10 123 -30
c24.667 -20.667 41 -49 49 -85c4.66699 -18.667 7.33398 -39.667 8.00098 -63c1.33301 -22.667 2 -46.667 2 -72zM427.002 130.998v12v146c-9.33301 4 -27.333 10 -54 18s-57 12 -91 12c-54.667 0 -98.667 -13 -132 -39c-33.333 -25.333 -50 -59.333 -50 -102
c0 -41.333 12.667 -74.333 38 -99c26 -24.667 58.667 -37 98 -37c44 0 83.333 10.333 118 31s59 40 73 58v0z" />
    <glyph glyph-name="ae" unicode="&#xe6;" horiz-adv-x="969" 
d="M273 372c36.667 0 69.3369 -2.33398 98.0039 -7.00098c28.667 -5.33301 46.667 -9.33301 54 -12c0 64 -6.33301 110.333 -19 139c-13.333 28.667 -47.333 43 -102 43c-50 0 -90.667 -5.66699 -122 -17c-32 -12 -51.333 -19 -58 -21c-4.66699 -2 -9 -2 -13 0
c-4 2.66699 -6.66699 6.33398 -8 11.001l-6 23c-0.666992 4 0.333008 7.66699 3 11c2 3.33301 5.33301 6 10 8l55 20c36.667 14 83.667 21 141 21c48 0 85 -7 111 -21c25.333 -14 43.333 -35 54 -63c24.667 26 53.334 46.667 86.001 62c33.333 14.667 70.333 22 111 22
c75.333 0 137.333 -24.667 186 -74c49.333 -49.333 74 -112 74 -188c0 -12 -1 -24.333 -3 -37s-8.33301 -19 -19 -19h-425v-121c19.333 -31.333 45.666 -57 78.999 -77c33.333 -19.333 70.666 -29 111.999 -29c38 0 71.333 6 100 18c29.333 12 52.666 23.667 69.999 35
c6 4.66699 11 7 15 7c3.33301 0.666992 6.66602 -1.66602 9.99902 -6.99902l15 -20c2 -2.66699 2.66699 -6 2 -10c-1.33301 -4 -4 -8.33301 -8 -13c-14.667 -14 -41.667 -28.667 -81 -44c-40 -15.333 -82.333 -23 -127 -23s-84.334 8.33301 -119.001 25
c-35.333 17.333 -65.666 41.333 -90.999 72c-19.333 -22.667 -49 -44.667 -89 -66c-40.667 -20.667 -85.334 -31 -134.001 -31c-56 0 -102.333 17.333 -139 52s-55 81.667 -55 141c0 55.333 20.667 100.666 62 135.999c42 36 98.667 54 170 54zM243.003 44.999
c41.333 0 79.001 9 113.001 27c33.333 18 57 36 71 54v173c-5.33301 1.33301 -21.333 5 -48 11c-26.667 6.66699 -59.334 10 -98.001 10c-52.667 0 -96.334 -12.667 -131.001 -38s-52 -59 -52 -101c0 -45.333 14.667 -79.333 44 -102c28.667 -22.667 62.334 -34 101.001 -34
zM864.004 323.999c0 56 -16.333 105 -49 147c-33.333 42 -82.333 63 -147 63c-41.333 0 -78.333 -9.33301 -111 -28c-32 -18 -57.333 -42.333 -76 -73v-31v-78h383z" />
    <glyph glyph-name="ccedilla" unicode="&#xe7;" horiz-adv-x="625" 
d="M346 0l0.00292969 -77c43.333 -5.33301 79.666 -19.333 108.999 -42c30 -22.667 45 -55.334 45 -98.001c0 -38 -13.333 -70.667 -40 -98s-60.334 -41 -101.001 -41c-28 0 -52 5.66699 -72 17c-20 10.667 -33.333 21.334 -40 32.001c-2.66699 4.66699 -4 9 -4 13v2
c0 4 2 7.66699 6 11l14 11c2.66699 2.66699 6.33398 3.66699 11.001 3c4 -0.666992 8 -3 12 -7c4.66699 -5.33301 12.667 -11.666 24 -18.999c12 -7.33301 28.333 -11 49 -11c26 0 46.667 8.33301 62 25s23 37 23 61c0 34.667 -14.333 58.667 -43 72
s-58.334 21.666 -89.001 24.999c-6.66699 2 -11.334 4.66699 -14.001 8c-2 3.33301 -3 7 -3 11v102h34h17zM570.003 378c-11.333 -14 -24.333 -22.333 -39 -25c-14.667 -2 -28.667 2.33301 -42 13c-12 9.33301 -19.333 21.666 -22 36.999
c-2.66699 14.667 1.66602 29.334 12.999 44.001c2.66699 2.66699 5.33398 5 8.00098 7c3.33301 2 6.66602 3.66699 9.99902 5c0 0.666992 -0.333008 1 -1 1v0c-7.33301 8 -25.333 21 -54 39s-65.667 27 -111 27c-65.333 0 -121 -22.667 -167 -68
c-46.667 -44.667 -70 -101.334 -70 -170.001c0 -69.333 23.333 -127 70 -173s101.667 -69 165 -69c35.333 0 65 5.66699 89 17c24.667 11.333 44.334 23.333 59.001 36c8 6.66699 14.667 12.667 20 18c5.33301 6 9.33301 10.667 12 14
c4.66699 5.33301 9.33398 8.33301 14.001 9c4 0 8.33301 -2.33301 13 -7c3.33301 -2.66699 8.66602 -7.33398 15.999 -14.001c3.33301 -3.33301 5.66602 -7 6.99902 -11c0.666992 -3.33301 -0.333008 -7.33301 -3 -12c-4 -6 -9.66699 -13 -17 -21
s-16.666 -16.333 -27.999 -25c-20 -16 -45.333 -30.667 -76 -44s-65.334 -20 -104.001 -20c-28.667 0 -56 3.66699 -82 11c-26.667 7.33301 -51.667 18 -75 32c-42.667 26 -77.334 61.333 -104.001 106s-40 95.334 -40 152.001c0 30 4 58.667 12 86
c8 26.667 19.333 51.667 34 75c26.667 42.667 62.667 76.667 108 102s94.333 38 147 38c50.667 0 93.334 -9.33301 128.001 -28c34.667 -18 59.667 -35.333 75 -52c27.333 -26.667 43 -51.334 47 -74.001c0.666992 -5.33301 1 -10.666 1 -15.999
c0.666992 -15.333 -3.66602 -28.666 -12.999 -39.999z" />
    <glyph glyph-name="egrave" unicode="&#xe8;" horiz-adv-x="624" 
d="M452 810c-0.666992 -4.66699 -2.66797 -8.33301 -6.00098 -11c-3.33301 -2 -8 -3.33301 -14 -4c-3.33301 -0.666992 -7.33301 -1 -12 -1c-9.33301 0 -21.666 1 -36.999 3c-22.667 2.66699 -47 10.667 -73 24c-14 7.33301 -28 16.666 -42 27.999c-14 10.667 -27 24 -39 40
c-29.333 37.333 -44 69.666 -44 96.999c0 26.667 8.33301 46.334 25 59.001c12.667 10 25.667 15 39 15h4c15.333 -1.33301 28 -8.66602 38 -21.999c9.33301 -12 13.666 -25.667 12.999 -41s-8.33398 -28.666 -23.001 -39.999c-3.33301 -2.66699 -7 -4.66699 -11 -6
c-3.33301 -1.33301 -7 -2 -11 -2c2 -7.33301 5.33301 -15.333 10 -24c4.66699 -8 10.334 -16 17.001 -24c10.667 -10.667 21.667 -19.667 33 -27s22.333 -13.333 33 -18c20 -7.33301 38 -11.333 54 -12c15.333 -0.666992 24.333 -1 27 -1
c6.66699 0 11.334 -1.33301 14.001 -4c3.33301 -2.66699 5 -6.33398 5 -11.001v-18zM582.999 325.001c0 -11.333 -1.00098 -23.335 -3.00098 -36.002c-1.33301 -13.333 -7.33301 -20 -18 -20h-458c2.66699 -61.333 24.667 -114.333 66 -159
c40.667 -44.667 93.334 -67 158.001 -67c15.333 0 30.333 1 45 3c14 2.66699 27.333 5.66699 40 9v1h-1c2 0.666992 4 1 6 1l6 2l10 4l10 4l10 5c3.33301 2 6.33301 4 9 6c-3.33301 2.66699 -6 5.66699 -8 9c-2.66699 3.33301 -4.66699 7 -6 11
c-5.33301 18 -3.66602 33.333 5.00098 46c8 12.667 19.333 21 34 25c16.667 5.33301 31.334 4 44.001 -4s21.667 -20.667 27 -38c3.33301 -12.667 2.66602 -26 -2.00098 -40s-15 -27 -31 -39c-16.667 -14 -44 -28 -82 -42s-78.333 -21 -121 -21
c-87.333 0 -156 29.667 -206 89c-50.667 58.667 -76 130 -76 214c0 28.667 3.33301 56.334 10 83.001c6 26.667 15.333 51.334 28 74.001c22.667 42.667 55 77 97 103c41.333 26 90.333 39 147 39c75.333 0 137.666 -24.667 186.999 -74c48.667 -49.333 73 -112 73 -188z
M519.998 320.999c0 56 -16.667 104.668 -50 146.001c-33.333 42 -82.333 63 -147 63c-62.667 0 -113.667 -20 -153 -60c-39.333 -40.667 -61 -90.334 -65 -149.001h415z" />
    <glyph glyph-name="eacute" unicode="&#xe9;" horiz-adv-x="624" 
d="M180 826c0 4.66699 1.66699 8.33301 5 11s8 4 14 4c2.66699 0 11.667 0.333008 27 1c16 0 34 4 54 12c10.667 4.66699 21.667 10.667 33 18c11.333 6.66699 22.333 15.667 33 27c6.66699 8 12.334 16 17.001 24s8 16 10 24c-4 0 -7.66699 0.666992 -11 2
c-4 1.33301 -7.66699 3.33301 -11 6c-14.667 11.333 -22.334 24.666 -23.001 39.999s3.66602 28.666 12.999 39.999c10.667 14 23.334 21.667 38.001 23h4c13.333 0 26.666 -5 39.999 -15c16 -12.667 24 -32.667 24 -60c0 -26.667 -14.667 -58.667 -44 -96
c-12 -16 -25 -29.333 -39 -40c-14 -11.333 -28 -20.666 -42 -27.999c-26 -13.333 -50.333 -21.333 -73 -24c-15.333 -2 -27.666 -3 -36.999 -3c-4.66699 0 -8.66699 0.333008 -12 1c-6 0.666992 -10.667 2 -14 4c-3.33301 2.66699 -5.33301 6.33398 -6 11.001v18z
M583 324.999c0 -11.333 -1.00098 -23.335 -3.00098 -36.002c-1.33301 -13.333 -7.33301 -20 -18 -20h-458c2.66699 -61.333 24.667 -114.333 66 -159c40.667 -44.667 93.334 -67 158.001 -67c15.333 0 30.333 1 45 3c14 2.66699 27.333 5.66699 40 9v1h-1
c2 0.666992 4 1 6 1l6 2l10 4l10 4l10 5c3.33301 2 6.33301 4 9 6c-3.33301 2.66699 -6 5.66699 -8 9c-2.66699 3.33301 -4.66699 7 -6 11c-5.33301 18 -3.66602 33.333 5.00098 46c8 12.667 19.333 21 34 25c16.667 5.33301 31.334 4 44.001 -4s21.667 -20.667 27 -38
c3.33301 -12.667 2.66602 -26 -2.00098 -40s-15 -27 -31 -39c-16.667 -14 -44 -28 -82 -42s-78.333 -21 -121 -21c-87.333 0 -156 29.667 -206 89c-50.667 58.667 -76 130 -76 214c0 28.667 3.33301 56.334 10 83.001c6 26.667 15.333 51.334 28 74.001
c22.667 42.667 55 77 97 103c41.333 26 90.333 39 147 39c75.333 0 137.666 -24.667 186.999 -74c48.667 -49.333 73 -112 73 -188zM519.999 320.997c0 56 -16.667 104.668 -50 146.001c-33.333 42 -82.333 63 -147 63c-62.667 0 -113.667 -20 -153 -60
c-39.333 -40.667 -61 -90.334 -65 -149.001h415z" />
    <glyph glyph-name="ecircumflex" unicode="&#xea;" horiz-adv-x="624" 
d="M124 790c-2.66699 3.33301 -6.66602 8.66699 -11.999 16c-2 2 -3 4.33301 -3 7c0 0.666992 0.333008 1.66699 1 3c1.33301 3.33301 3.66602 6.66602 6.99902 9.99902l174 140c2 2 4.33301 3.66699 7 5s5 2 7 2h5c2 0 4.33301 -0.666992 7 -2s5 -3 7 -5l173 -140
c4 -3.33301 6.66699 -6.66602 8 -9.99902c0.666992 -1.33301 1 -2.33301 1 -3c0 -2.66699 -1 -5 -3 -7c-2.66699 -4 -7 -9.33301 -13 -16c-2 -3.33301 -4.66699 -5.66602 -8 -6.99902c-3.33301 -2 -7.66602 -0.666992 -12.999 4l-162 120l-161 -120
c-4 -3.33301 -7.66699 -5 -11 -5c-0.666992 0 -1.33398 0.333008 -2.00098 1c-3.33301 1.33301 -6.33301 3.66602 -9 6.99902zM583.001 325.001c0 -11.333 -1.00098 -23.335 -3.00098 -36.002c-1.33301 -13.333 -7.33301 -20 -18 -20h-458
c2.66699 -61.333 24.667 -114.333 66 -159c40.667 -44.667 93.334 -67 158.001 -67c15.333 0 30.333 1 45 3c14 2.66699 27.333 5.66699 40 9v1h-1c2 0.666992 4 1 6 1l6 2l10 4l10 4l10 5c3.33301 2 6.33301 4 9 6c-3.33301 2.66699 -6 5.66699 -8 9
c-2.66699 3.33301 -4.66699 7 -6 11c-5.33301 18 -3.66602 33.333 5.00098 46c8 12.667 19.333 21 34 25c16.667 5.33301 31.334 4 44.001 -4s21.667 -20.667 27 -38c3.33301 -12.667 2.66602 -26 -2.00098 -40s-15 -27 -31 -39c-16.667 -14 -44 -28 -82 -42
s-78.333 -21 -121 -21c-87.333 0 -156 29.667 -206 89c-50.667 58.667 -76 130 -76 214c0 28.667 3.33301 56.334 10 83.001c6 26.667 15.333 51.334 28 74.001c22.667 42.667 55 77 97 103c41.333 26 90.333 39 147 39c75.333 0 137.666 -24.667 186.999 -74
c48.667 -49.333 73 -112 73 -188zM520 320.999c0 56 -16.667 104.668 -50 146.001c-33.333 42 -82.333 63 -147 63c-62.667 0 -113.667 -20 -153 -60c-39.333 -40.667 -61 -90.334 -65 -149.001h415z" />
    <glyph glyph-name="edieresis" unicode="&#xeb;" horiz-adv-x="624" 
d="M124 902c0 14.667 4.66699 26.667 14 36c10 10 21.667 15 35 15c14 0 25.667 -5 35 -15c9.33301 -9.33301 14 -21.333 14 -36c0 -12.667 -4.66699 -23.667 -14 -33s-21 -14 -35 -14c-13.333 0 -25 4.66699 -35 14c-9.33301 9.33301 -14 20.333 -14 33zM400 902
c0 14.667 4.33301 26.667 13 36c9.33301 10 20.666 15 33.999 15c14.667 0 26.667 -5 36 -15c9.33301 -9.33301 14 -21.333 14 -36c0 -12.667 -4.66699 -23.667 -14 -33s-21.333 -14 -36 -14c-13.333 0 -24.666 4.66699 -33.999 14c-8.66699 9.33301 -13 20.333 -13 33z
M583 325c0 -11.333 -1.00098 -23.335 -3.00098 -36.002c-1.33301 -13.333 -7.33301 -20 -18 -20h-458c2.66699 -61.333 24.667 -114.333 66 -159c40.667 -44.667 93.334 -67 158.001 -67c15.333 0 30.333 1 45 3c14 2.66699 27.333 5.66699 40 9v1h-1c2 0.666992 4 1 6 1
l6 2l10 4l10 4l10 5c3.33301 2 6.33301 4 9 6c-3.33301 2.66699 -6 5.66699 -8 9c-2.66699 3.33301 -4.66699 7 -6 11c-5.33301 18 -3.66602 33.333 5.00098 46c8 12.667 19.333 21 34 25c16.667 5.33301 31.334 4 44.001 -4s21.667 -20.667 27 -38
c3.33301 -12.667 2.66602 -26 -2.00098 -40s-15 -27 -31 -39c-16.667 -14 -44 -28 -82 -42s-78.333 -21 -121 -21c-87.333 0 -156 29.667 -206 89c-50.667 58.667 -76 130 -76 214c0 28.667 3.33301 56.334 10 83.001c6 26.667 15.333 51.334 28 74.001
c22.667 42.667 55 77 97 103c41.333 26 90.333 39 147 39c75.333 0 137.666 -24.667 186.999 -74c48.667 -49.333 73 -112 73 -188zM519.999 320.998c0 56 -16.667 104.668 -50 146.001c-33.333 42 -82.333 63 -147 63c-62.667 0 -113.667 -20 -153 -60
c-39.333 -40.667 -61 -90.334 -65 -149.001h415z" />
    </font>
</defs>
</svg>
