<?xml version="1.0" standalone="no"?>
<!DOCTYPE svg PUBLIC "-//W3C//DTD SVG 1.1//EN" "http://www.w3.org/Graphics/SVG/1.1/DTD/svg11.dtd" >
<svg>
<metadata>
Created by FontForge 20090914 at Mon Sep  7 17:39:23 2020
 By www-data
Copyright (c) 2010, Sebastian Kosch (sebastian@aldusleaf.org),
with Reserved Font Name "Crimson Text".
This Font Software is licensed under the SIL Open Font License, Version 1.1.
This license is available with a FAQ at: http://scripts.sil.org/OFL
</metadata>
<defs>
<font id="CrimsonText-Roman" horiz-adv-x="968" >
  <font-face 
    font-family="Crimson Text"
    font-weight="400"
    font-stretch="normal"
    units-per-em="2048"
    panose-1="2 0 5 3 0 0 0 0 0 0"
    ascent="1434"
    descent="-614"
    x-height="863.999"
    cap-height="1312"
    bbox="-190 -462.001 2122 1722.01"
    underline-thickness="94"
    underline-position="-224"
    unicode-range="U+000D-U+E000"
  />
<missing-glyph horiz-adv-x="748" 
d="M68 0v1365h544v-1365h-544zM136 68h408v1229h-408v-1229z" />
    <glyph glyph-name=".notdef" horiz-adv-x="748" 
d="M68 0v1365h544v-1365h-544zM136 68h408v1229h-408v-1229z" />
    <glyph glyph-name="glyph1" horiz-adv-x="2048" 
 />
    <glyph glyph-name="glyph1" horiz-adv-x="2048" 
 />
    <glyph glyph-name="uni000D" unicode="&#xd;" horiz-adv-x="682" 
 />
    <glyph glyph-name="space" unicode=" " horiz-adv-x="458" 
 />
    <glyph glyph-name="exclam" unicode="!" horiz-adv-x="560" 
d="M164 90c0 32 11.333 59 34 81s50 33 82 33s59 -11 81 -33s33 -49 33 -81s-11 -59.667 -33 -83s-49 -35 -81 -35s-59.333 11.667 -82 35s-34 51 -34 83zM180 1158c0 33.333 9.66797 62.6689 29.001 88.002s44.333 38 75 38c29.333 0 51.666 -12.333 66.999 -37
s23 -54.334 23 -89.001c0 -13.333 -3 -48.666 -9 -105.999s-14 -149 -24 -275s-19.667 -264.333 -29 -415c-1.33301 -20 -4.66602 -33.667 -9.99902 -41s-18 -15.666 -38 -24.999c-6.66699 -2.66699 -12.334 0.666016 -17.001 9.99902s-7.66699 20.666 -9 33.999
c-10.667 173.333 -21 323.666 -31 450.999s-17 213.333 -21 258s-6 81 -6 109z" />
    <glyph glyph-name="quotedbl" unicode="&#x22;" horiz-adv-x="696" 
d="M84 1270c0 20 12.334 46.001 37.001 78.001s49 48 73 48h28c20 0 35 -8.33301 45 -25s15 -51.667 15 -105c0 -40 -9.33301 -101.333 -28 -184s-30 -144 -34 -184c-2.66699 -20 -13.334 -30 -32.001 -30c-21.333 0 -33.333 8.66699 -36 26
c-6.66699 62.667 -19.667 134.667 -39 216s-29 134.666 -29 159.999zM412.001 1270c0 21.333 12 47.668 36 79.001s48 47 72 47h30c18.667 0 33 -8.33301 43 -25s15 -51.667 15 -105c0 -40 -10 -101 -30 -183s-32 -143.667 -36 -185c-1.33301 -20 -12 -30 -32 -30
c-17.333 0 -27.333 8.66699 -30 26c-6.66699 62.667 -19.667 134.667 -39 216s-29 134.666 -29 159.999z" />
    <glyph glyph-name="numbersign" unicode="#" horiz-adv-x="952" 
d="M48 370c0 18.667 5.33496 46.0039 16.002 82.0039c1.33301 4 3 6.66699 5 8s4.33301 2 7 2h2h172l24 172h-214c-8 1.33301 -12 8.66602 -12 21.999c0 18.667 5.33301 46 16 82c1.33301 4 3 6.66699 5 8s4.33301 2 7 2h2h214l48 312c12 12 43.333 18 94 18
c8 0 13.667 -1.66699 17 -5s5 -6.33301 5 -9l-2 -4l-46 -312h188l48 312c12 12 43.333 18 94 18c8 0 13.667 -1.66699 17 -5s5 -6.33301 5 -9l-2 -4l-48 -312h164c1.33301 0 2.66602 0.333008 3.99902 1s3.33301 -0.333008 6 -3s4 -6.66699 4 -12
c0 -18.667 -6 -47.334 -18 -86.001l-12 -14h-166l-26 -172h208c1.33301 0 2.66602 0.333008 3.99902 1s3.33301 -0.333008 6 -3s4 -6.66699 4 -12c0 -18.667 -6 -47.334 -18 -86.001c-1.33301 -4 -3 -7 -5 -9s-3.66699 -3 -5 -3h-2h-208l-48 -302l-6 -8
c-8 -6.66699 -26 -10 -54 -10h-26c-8 0 -14.333 1.66699 -19 5s-7 6.33301 -7 9v4l44 302h-188l-44 -302c0 -1.33301 -0.666992 -2.66602 -2 -3.99902s-2.33301 -2.66602 -3 -3.99902s-2 -2.33301 -4 -3s-4.66699 -1.33398 -8 -2.00098s-7 -1.33398 -11 -2.00098
s-9 -1.33398 -15 -2.00098s-12.333 -1 -19 -1h-26c-8 0 -14.333 1.66699 -19 5s-7 6.33301 -7 9l-2 4l46 302h-172c-8 0 -12 6.66699 -12 20zM364.002 462.004h190l24 172h-188z" />
    <glyph glyph-name="dollar" unicode="$" horiz-adv-x="982" 
d="M90 332c0 10.667 11.9941 16.0029 35.9941 16.0029c18.667 0 33.334 -5.33301 44.001 -16c48 -180 153.333 -270 316 -270c65.333 0 121.333 19.333 168 58s70 92.667 70 162c0 28 -5 54 -15 78s-19 42.667 -27 56s-25 29.333 -51 48s-42.333 30 -49 34s-26 14 -58 30
c-8 4 -14 7.33301 -18 10c-136 70.667 -236 134.667 -300 192s-96 129.333 -96 216c0 97.333 38 178.666 114 243.999s164.667 98 266 98c30.667 0 65.334 -3 104.001 -9s77.334 -13.333 116.001 -22s62 -13.667 70 -15c14.667 -120 22 -211.333 22 -274
c0 -10.667 -4.66699 -16 -14 -16c-33.333 2.66699 -50.666 10 -51.999 22c-6.66699 46.667 -33 96.667 -79 150s-105 80 -177 80c-145.333 0 -218 -64.667 -218 -194c0 -61.333 19.667 -111.333 59 -150s100.333 -81.334 183 -128.001c6.66699 -4 28.334 -16.333 65.001 -37
l70 -40l62 -39c31.333 -20 52.333 -35.333 63 -46l48 -47c21.333 -20.667 36 -39.334 44 -56.001s15.667 -36 23 -58s11 -45 11 -69c0 -102.667 -40.667 -187.667 -122 -255s-176.666 -101 -285.999 -101c-53.333 0 -165.333 15.333 -336 46c-32 85.333 -50.667 186 -56 302
zM327.994 -85.9971l240 1452c46.667 0 70 -4.66699 70 -14l-240 -1456c-46.667 0 -70 6 -70 18z" />
    <glyph glyph-name="percent" unicode="%" horiz-adv-x="1360" 
d="M98 968c0 90.667 28.0029 167 84.0029 229s128 93 216 93c85.333 0 155.666 -31.333 210.999 -94s83 -138.667 83 -228c0 -84 -27.333 -158 -82 -222s-125.334 -96 -212.001 -96c-82.667 0 -153.334 31 -212.001 93s-88 137 -88 225zM146.003 -2l964.001 1250
c13.333 16 26.666 24 39.999 24c14.667 0 25.667 -0.666992 33 -2s12 -2.33301 14 -3s4.66699 -3.33398 8 -8.00098s6.33301 -8.33398 9 -11.001l-966 -1248c-13.333 -16 -35.333 -24 -66 -24c-17.333 0 -29.333 7.33301 -36 22zM226.004 992.002
c0 -72 18.668 -138.666 56.001 -199.999s80 -92 128 -92c53.333 0 91.666 24.667 114.999 74s35 108.666 35 177.999c0 73.333 -15.667 140 -47 200s-72.333 90 -123 90c-54.667 0 -95.667 -25 -123 -75s-41 -108.333 -41 -175zM674.005 304.003
c0 90.667 28.334 166.999 85.001 228.999s129 93 217 93c85.333 0 155.333 -31.333 210 -94s82 -138.667 82 -228c0 -85.333 -27 -159.666 -81 -222.999s-125 -95 -213 -95c-82.667 0 -153.334 31 -212.001 93s-88 137 -88 225zM802.006 328.002
c0 -70.667 18.667 -136.999 56 -198.999s80.666 -93 129.999 -93c53.333 0 91.333 24.667 114 74s34 108.666 34 177.999c0 73.333 -15.667 140 -47 200s-71.666 90 -120.999 90c-54.667 0 -96 -25 -124 -75s-42 -108.333 -42 -175z" />
    <glyph glyph-name="ampersand" unicode="&#x26;" horiz-adv-x="1342" 
d="M108 316c0 86.667 29.335 159 88.002 217s140 113.667 244 167c-25.333 42.667 -44.333 77 -57 103s-25.667 61 -39 105s-20 87.333 -20 130c0 76 28 140.667 84 194s126 80 210 80c89.333 0 160 -19.667 212 -59s78 -94.333 78 -165
c0 -81.333 -26 -150.666 -78 -207.999s-125.333 -115.333 -220 -174c77.333 -130.667 176 -263.334 296 -398.001c33.333 50.667 60.666 99.334 81.999 146.001s32 76 32 88s-6.33301 20.333 -19 25s-27 7.33398 -43 8.00098s-25.333 1.66699 -28 3
c-2.66699 5.33301 -4 13.333 -4 24s2 18 6 22h158c20 0 41 0.666992 63 2s48 2.66602 78 3.99902s56.333 2.66602 79 3.99902c6.66699 -4 10 -12.667 10 -26c0 -20 -4 -30 -12 -30c-17.333 0 -42 -4 -74 -12s-53.333 -15.333 -64 -22
c-1.33301 -1.33301 -10.666 -16.333 -27.999 -45s-42.666 -67.667 -75.999 -117s-68 -94.666 -104 -135.999l64 -66c12 -12 28 -27 48 -45s36 -30 48 -36s24 -9 36 -9c18.667 0 39 11.333 61 34s36.333 42 43 58c10.667 0 21 -4 31 -12s15 -16 15 -24
c-5.33301 -10.667 -11.333 -21.334 -18 -32.001s-18.334 -26 -35.001 -46s-39.334 -36.333 -68.001 -49s-61 -19 -97 -19c-34.667 0 -71.334 12 -110.001 36s-68 48 -88 72l-32 36c-114.667 -100 -236 -150 -364 -150c-118.667 0 -213 28.667 -283 86s-105 136 -105 236z
M280.002 344c0 -88 27.3359 -154 82.0029 -198s122 -66 202 -66c41.333 0 85.666 10 132.999 30s86.333 46.667 117 80c-38.667 38.667 -85.334 94.667 -140.001 168s-99.334 136.666 -134.001 189.999l-54 80c-48 -33.333 -83.333 -59 -106 -77s-45 -45.667 -67 -83
s-33 -78.666 -33 -123.999zM470.005 1086c0 -85.333 34.6689 -190.667 104.002 -316c69.333 40 119.666 80.333 150.999 121s47 97 47 169c0 48 -13.333 90 -40 126s-61.334 54 -104.001 54c-44 0 -81.333 -14.333 -112 -43s-46 -65.667 -46 -111z" />
    <glyph glyph-name="quotesingle" unicode="'" horiz-adv-x="372" 
d="M84 1270c0 21.333 12 47.668 36 79.001s48 47 72 47h30c20 0 35 -8.33301 45 -25s15 -51.667 15 -105c0 -40 -10.333 -101 -31 -183s-33 -143.667 -37 -185c-1.33301 -20 -12 -30 -32 -30c-17.333 0 -27.333 8.66699 -30 26c-6.66699 62.667 -19.667 134.667 -39 216
s-29 134.666 -29 159.999z" />
    <glyph glyph-name="parenleft" unicode="(" horiz-adv-x="646" 
d="M142 610c0 118.667 13.668 234.666 41.001 347.999s60.666 208 99.999 284s81 137.333 125 184s83.333 70 118 70c6.66699 0 12.667 -6 18 -18s8 -22 8 -30c0 -4 -0.666992 -6 -2 -6c-66.667 -32 -129.667 -130.333 -189 -295s-89 -343.667 -89 -537
c0 -188 33.667 -362 101 -522s126.333 -252.667 177 -278c2.66699 -1.33301 4 -4.66602 4 -9.99902c0 -8 -3 -17 -9 -27s-12.333 -15 -19 -15c-28 0 -63.333 22.667 -106 68s-85 104.333 -127 177s-77.667 164 -107 274s-44 221 -44 333z" />
    <glyph glyph-name="parenright" unicode=")" horiz-adv-x="644" 
d="M90 -200c0 5.33301 1.33398 8.66699 4.00098 10c50.667 25.333 109.667 118 177 278s101 334 101 522c0 193.333 -29.667 372.333 -89 537s-122.333 263 -189 295c-1.33301 0 -2 2 -2 6c0 8 2.66699 18 8 30s11.333 18 18 18c34.667 0 74 -23.333 118 -70
s85.667 -108 125 -184s72.666 -170.667 99.999 -284s41 -229.333 41 -348c0 -112 -14.667 -223 -44 -333s-65 -201.333 -107 -274s-84.333 -131.667 -127 -177s-78 -68 -106 -68c-6.66699 0 -13 5 -19 15s-9 19 -9 27z" />
    <glyph glyph-name="asterisk" unicode="*" horiz-adv-x="888" 
d="M82 914c-4 21.333 1.33008 39.999 15.9971 55.999s34.667 25.333 60 28c33.333 4 74.333 2.66699 123 -4s85 -8.66699 109 -6c12 4 19.333 9.33301 22 16c4 8 2.66699 17.333 -4 28c-12 20 -33.667 47 -65 81s-55.666 65.667 -72.999 95
c-29.333 53.333 -25.333 90.666 12 111.999c42.667 21.333 76.667 6 102 -46c13.333 -30.667 24.333 -70 33 -118s18.334 -83.333 29.001 -106c6.66699 -13.333 13.334 -20.666 20.001 -21.999c8 -1.33301 16.667 2.66699 26 12c16 17.333 34.667 46.333 56 87
s43.333 73.667 66 99c17.333 20 36.333 32.667 57 38s39 0.666016 55 -14.001c16 -16 22.667 -34.333 20 -55s-13.334 -39.667 -32.001 -57c-24 -21.333 -57.667 -43.666 -101 -66.999s-74.333 -43.666 -93 -60.999l-10 -28c1.33301 -9.33301 8 -16 20 -20
c21.333 -10.667 54.666 -20 99.999 -28s83.333 -18.667 114 -32c24 -10.667 42 -25 54 -43s13.333 -36.333 4 -55c-9.33301 -20 -24.666 -32 -45.999 -36s-42.666 0 -63.999 12c-29.333 16 -61.666 41 -96.999 75s-63.666 57 -84.999 69l-28 6
c-5.33301 -2.66699 -9.33301 -11.334 -12 -26.001c-2.66699 -24 -1 -58.667 5 -104s7 -84.666 3 -117.999c-2.66699 -26.667 -11 -48 -25 -64s-31 -22.667 -51 -20c-21.333 2.66699 -37.333 13 -48 31s-13.334 39.667 -8.00098 65c6.66699 33.333 21 72.333 43 117
s35 79 39 103c1.33301 12 -0.666992 20.667 -6 26c-5.33301 6.66699 -14 8.66699 -26 6c-22.667 -5.33301 -54.667 -18 -96 -38s-79.333 -33.333 -114 -40c-25.333 -5.33301 -48.333 -4 -69 4s-32.334 22 -35.001 42z" />
    <glyph glyph-name="plus" unicode="+" horiz-adv-x="1164" 
d="M104 456c0 18.667 5.33301 45.999 16 81.999c1.33301 4 3 6.66699 5 8s4.33301 2 7 2h2h382c6.66699 0 10 4 10 12v380c-1.33301 6.66699 2 11.334 10 14.001c36 10.667 63.333 16 82 16l20 -12v-400c0 -6.66699 2.66699 -10 8 -10h400c10.667 0 16 -3.33301 16 -10
c0 -10.667 -6.66699 -40.667 -20 -90c-1.33301 -4 -3 -7 -5 -9s-3.66699 -3 -5 -3h-4h-382c-5.33301 0 -8 -2 -8 -6v-384c0 -13.333 -30 -24 -90 -32c-2.66699 0 -5 -0.333008 -7 -1s-3.66699 -1 -5 -1c-6.66699 0 -10 5.33301 -10 16v398c0 6.66699 -4 10 -12 10h-398
c-8 0 -12 6.66699 -12 20z" />
    <glyph glyph-name="comma" unicode="," horiz-adv-x="478" 
d="M88 -282c0 2.66699 7.66797 11 23.001 25l51 49c18.667 18.667 35.667 44.667 51 78s23 67.333 23 102c0 24 -10 56.667 -30 98s-30 68.666 -30 81.999c0 29.333 14.667 54.333 44 75s62.666 31 99.999 31c17.333 0 33.333 -2.66699 48 -8c17.333 -25.333 26 -68 26 -128
c0 -25.333 -1.33301 -42.666 -4 -51.999c-18.667 -86.667 -44.667 -157 -78 -211s-92 -115.667 -176 -185h-2c-5.33301 0 -14.333 5.33301 -27 16s-19 20 -19 28z" />
    <glyph glyph-name="hyphen" unicode="-" horiz-adv-x="750" 
d="M116 420c0 68 8 102 24 102h2l482 24h2c8 0 12 -6 12 -18c0 -29.333 -2.33301 -53 -7 -71s-9 -29 -13 -33l-6 -4l-482 -22h-4c-1.33301 0 -3.33301 2 -6 6s-4 9.33301 -4 16z" />
    <glyph glyph-name="period" unicode="." horiz-adv-x="466" 
d="M118 90c0 32 11.667 59 35 81s51 33 83 33s59 -11 81 -33s33 -49 33 -81s-11 -59.667 -33 -83s-49 -35 -81 -35s-59.667 11.667 -83 35s-35 51 -35 83z" />
    <glyph glyph-name="slash" unicode="/" horiz-adv-x="848" 
d="M50 -56l592 1534c13.333 29.333 46 44 98 44c12 0 26 -4 42 -12l-592 -1534c-2.66699 -9.33301 -13 -19.333 -31 -30s-42.333 -16 -73 -16c-9.33301 0 -17 1 -23 3s-9.66699 4.33301 -11 7z" />
    <glyph glyph-name="zero" unicode="0" 
d="M48 638c0 181.333 39.333 334 118 458s184.667 186 318 186c134.667 0 241 -61.667 319 -185s117 -276.333 117 -459c0 -181.333 -39.333 -334 -118 -458s-184.667 -186 -318 -186c-132 0 -237.667 62.333 -317 187s-119 277 -119 457zM224 640
c0 -160 23.333 -295 70 -405s106.667 -165 180 -165c85.333 0 151.666 55.333 198.999 166s71 248.667 71 414c0 158.667 -23.333 291 -70 397s-106.667 159 -180 159c-81.333 0 -146.666 -54 -195.999 -162s-74 -242.667 -74 -404z" />
    <glyph glyph-name="one" unicode="1" 
d="M226 1042c0 5.33301 1.33105 9.33203 3.99805 11.999c225.333 153.333 340.666 230 345.999 230h4c10.667 0 18.667 -12.667 24 -38c-13.333 -44 -20 -106.667 -20 -188v-788c0 -77.333 5.33301 -136.666 16 -177.999c2.66699 -9.33301 22.334 -18.333 59.001 -27
s61.667 -13 75 -13c5.33301 0 8 -12 8 -36c0 -12 -0.666992 -19.333 -2 -22c-133.333 6.66699 -214 10 -242 10c-21.333 0 -98.666 -3.33301 -231.999 -10c-5.33301 5.33301 -8 16.333 -8 33s2.66699 25 8 25c17.333 0 44.333 4.33301 81 13s56.334 17.667 59.001 27
c8 32 12 70 12 114v720c0 38.667 -1.33301 68 -4 88s-5.66699 32.333 -9 37s-8.33301 7 -15 7c-8 0 -19.667 -4 -35 -12s-33 -18 -53 -30l-40 -24c-8 4 -16 11.667 -24 23s-12 20.333 -12 27z" />
    <glyph glyph-name="two" unicode="2" 
d="M98 60c145.333 146.667 270.004 299.003 374.004 457.003s156 291.667 156 401c0 72 -18 127.667 -54 167s-83.333 59 -142 59c-110.667 0 -199.334 -55.333 -266.001 -166c-8 0 -16.333 4.33301 -25 13s-13 15 -13 19c4 16 15 37.667 33 65s42 57.333 72 90
s70 60.667 120 84s103 35 159 35c89.333 0 159.666 -33.333 210.999 -100s77 -142 77 -226c0 -49.333 -8.33301 -100.333 -25 -153s-42.667 -106.334 -78 -161.001l-96 -143c-28.667 -40.667 -68.334 -87.667 -119.001 -141l-105 -110l-93 -92
c-4 -6.66699 -2.66699 -11.334 4 -14.001h386c37.333 0 64.333 10.667 81 32s33.667 62 51 122c5.33301 14.667 14.666 22 27.999 22c17.333 0 29.333 -2.66699 36 -8c-32 -160 -50 -253.333 -54 -280c-2.66699 -21.333 -16 -32 -40 -32h-656
c-5.33301 0 -10.333 7.66699 -15 23s-7 27.666 -7 36.999z" />
    <glyph glyph-name="three" unicode="3" horiz-adv-x="970" 
d="M112 108c0 62.667 24.6641 94.0039 73.9971 94.0039c12 0 24.333 -5 37 -15s26.667 -23 42 -39s28.333 -28 39 -36c38.667 -28 89.334 -42 152.001 -42c58.667 0 111.667 23 159 69s71 119.667 71 221c0 78.667 -25.333 145.334 -76 200.001s-110 82 -178 82
c-49.333 0 -92.666 -4.66699 -129.999 -14c-9.33301 12 -14 29.333 -14 52c0 9.33301 1.33301 16 4 20c92 16 165.333 48 220 96s82 113.333 82 196c0 45.333 -17.667 85.666 -53 120.999s-75.666 53 -120.999 53c-29.333 0 -56.333 -5 -81 -15s-43.334 -20.333 -56.001 -31
s-25 -22.334 -37 -35.001l-20 -21c-5.33301 0 -10.666 6.33301 -15.999 19s-8 23.667 -8 33c36 53.333 76.667 94.666 122 123.999s104 44 176 44c57.333 0 112.333 -23.667 165 -71s79 -109 79 -185c0 -58.667 -14.333 -108.334 -43 -149.001s-69.667 -81 -123 -121
c70.667 -25.333 135 -67.333 193 -126s87 -132 87 -220c0 -126.667 -44.667 -228.667 -134 -306s-200 -116 -332 -116c-113.333 0 -200 20 -260 60c-13.333 9.33301 -20 28.666 -20 57.999z" />
    <glyph glyph-name="four" unicode="4" horiz-adv-x="964" 
d="M66 410l606 856c12 16 27.333 24 46 24c17.333 0 26 -6.66699 26 -20v-806h124c21.333 0 32 -32 32 -96c0 -8 -4 -14.667 -12 -20h-144v-350c-4 -6.66699 -32 -10 -84 -10c-49.333 0 -74 5.33301 -74 16v344h-506c-9.33301 12 -14 32.667 -14 62zM208 482
c0 -12 4.66699 -18.001 14 -18.001h364v532c0 12 -3.33301 18 -10 18c0 -1.33301 -0.666992 -2.66602 -2 -3.99902l-364 -522c-1.33301 -1.33301 -2 -3.33301 -2 -6z" />
    <glyph glyph-name="five" unicode="5" horiz-adv-x="970" 
d="M114 108c0 62.667 24.667 94 74 94c12 0 24.333 -5 37 -15s26.667 -23 42 -39s28.333 -28 39 -36c38.667 -28 92 -42 160 -42c56 0 106.333 23.667 151 71s67 120.333 67 219c0 34.667 -4.66699 67.334 -14 98.001s-24.333 61 -45 91s-51 53.667 -91 71
s-87.333 26 -142 26c-69.333 0 -127.333 -7.33301 -174 -22c-10.667 5.33301 -22.667 14.666 -36 27.999l96 594c262.667 8 419.334 17.333 470.001 28c6.66699 -9.33301 10 -23.333 10 -42c0 -33.333 -4 -70 -12 -110c-34.667 -10.667 -110 -18 -226 -22l-174 -8
c-6.66699 -1.33301 -11.334 -6.66602 -14.001 -15.999c-14.667 -73.333 -34 -180 -58 -320c44 17.333 106.667 26 188 26c106.667 0 199 -36.667 277 -110s117 -160 117 -260c0 -122.667 -43 -223.667 -129 -303s-194.333 -119 -325 -119c-118.667 0 -208 20 -268 60
c-13.333 9.33301 -20 28.666 -20 57.999z" />
    <glyph glyph-name="six" unicode="6" 
d="M88 416c0 104 20.666 204.003 61.999 300.003s97 180.333 167 253s145.333 136 226 190s166.334 99 257.001 135c8 0 17.667 -7.33301 29 -22s17 -25.334 17 -32.001c-134.667 -58.667 -249 -129.667 -343 -213s-159 -191 -195 -323c-2.66699 -13.333 -2 -20 2 -20
c2.66699 1.33301 4.66699 2.66602 6 3.99902c18.667 14.667 52.334 30.667 101.001 48s93 26 133 26c93.333 0 171.666 -39 234.999 -117s95 -163 95 -255c0 -110.667 -41.333 -205.334 -124 -284.001s-178 -118 -286 -118c-110.667 0 -202 43 -274 129
s-108 185.667 -108 299zM259.999 420.003c0 -93.333 22.3311 -175.668 66.998 -247.001s100.334 -107 167.001 -107c58.667 0 110 25.667 154 77s66 119.666 66 204.999c0 90.667 -21.667 165.334 -65 224.001s-107 88 -191 88c-36 0 -70.667 -9.66699 -104 -29
s-54.666 -39.666 -63.999 -60.999c-18.667 -42.667 -28.667 -92.667 -30 -150z" />
    <glyph glyph-name="seven" unicode="7" horiz-adv-x="966" 
d="M72 942l28.999 133.001c16.667 76.667 27.667 132.334 33 167.001c1.33301 16 12 24 32 24h578c21.333 0 48.666 1 81.999 3s50.666 3 51.999 3c9.33301 0 14 -6 14 -18c0 -8 -2.66699 -18.333 -8 -31s-13.666 -30.334 -24.999 -53.001l-25 -50l-526 -1126
c-4 -4 -11.333 -6 -22 -6c-14.667 0 -30 7 -46 21s-24 25.667 -24 35l532 1062h-482c-22.667 0 -43 -9.33301 -61 -28s-31 -37.334 -39 -56.001s-16.667 -43.334 -26 -74.001c-1.33301 -5.33301 -10.666 -8.66602 -27.999 -9.99902s-30.666 0 -39.999 4z" />
    <glyph glyph-name="eight" unicode="8" 
d="M106 308c0 17.333 2 34.335 6 51.002s8.33301 31.667 13 45s12.334 27.666 23.001 42.999l27 38c7.33301 10 18.333 21.667 33 35l32 29c6.66699 6 18.667 15 36 27l33 23c4.66699 3.33301 15 10.333 31 21l26 16c6.66699 4 6.66699 8 0 12
c-52 30.667 -99 73.667 -141 129s-63 116.333 -63 183c0 85.333 33.333 161 100 227s144 99 232 99c92 0 169.667 -27.667 233 -83s95 -129 95 -221c0 -101.333 -74.667 -199.333 -224 -294c-9.33301 -2.66699 -9.33301 -6.66699 0 -12c69.333 -40 130.333 -90.333 183 -151
s79 -124.334 79 -191.001c0 -98.667 -38.333 -182 -115 -250s-165.667 -102 -267 -102c-110.667 0 -200.334 30 -269.001 90s-103 138.667 -103 236zM264 314.002c0 -77.333 21.999 -139.998 65.999 -187.998s94.667 -72 152 -72c66.667 0 119.334 20 158.001 60
s58 94 58 162c0 38.667 -11.333 77 -34 115s-51.334 71.667 -86.001 101s-61.667 50.666 -81 63.999s-37.666 24.666 -54.999 33.999c-5.33301 2.66699 -9.33301 4 -12 4c-4 0 -6.66699 -0.666992 -8 -2c-56 -34.667 -96.333 -73.667 -121 -117s-37 -97 -37 -161z
M309.999 984.004c0 -90.667 69.333 -176 208 -256c5.33301 -2.66699 9.33301 -4 12 -4c4 0 8 1.33301 12 4c90.667 60 136 141.333 136 244c0 62.667 -18.333 119 -55 169s-83.667 75 -141 75c-49.333 0 -90.333 -21.333 -123 -64s-49 -98.667 -49 -168z" />
    <glyph glyph-name="nine" unicode="9" 
d="M90 890c0 110.667 40.999 205.666 122.999 284.999s177 119 285 119c109.333 0 200 -43 272 -129s108 -185.667 108 -299c0 -104 -21.333 -205.667 -64 -305s-97.667 -186 -165 -260s-138.666 -138 -213.999 -192s-150.333 -94.333 -225 -121c-8 0 -17.333 8 -28 24
s-16 27.333 -16 34c102.667 40 201.334 105.667 296.001 197s160 203 196 335c2.66699 13.333 2 20 -2 20c-2.66699 -1.33301 -4.66699 -2.66602 -6 -3.99902c-14.667 -17.333 -45.334 -33.333 -92.001 -48s-88 -22 -124 -22c-96 0 -177.333 36 -244 108s-100 158 -100 258z
M255.999 925.999c0 -86.667 22.002 -159 66.002 -217s106.667 -87 188 -87c36 0 70.667 9.66699 104 29s54.666 39.666 63.999 60.999c17.333 40 26.666 90 27.999 150c0 94.667 -22.333 177.334 -67 248.001s-102.334 106 -173.001 106
c-57.333 0 -106.666 -26.667 -147.999 -80s-62 -123.333 -62 -210z" />
    <glyph glyph-name="colon" unicode=":" horiz-adv-x="472" 
d="M120 92c0 33.333 11.667 61.666 35 84.999s51.666 35 84.999 35s61.333 -11.667 84 -35s34 -51.666 34 -84.999s-11.333 -61.666 -34 -84.999s-50.667 -35 -84 -35s-61.666 11.667 -84.999 35s-35 51.666 -35 84.999zM120 742c0 33.333 11.667 61.333 35 84
s51.666 34 84.999 34s61.333 -11.333 84 -34s34 -50.667 34 -84s-11.333 -62 -34 -86s-50.667 -36 -84 -36s-61.666 12 -84.999 36s-35 52.667 -35 86z" />
    <glyph glyph-name="semicolon" unicode=";" horiz-adv-x="488" 
d="M90 -280c0 2.66699 12.332 13.9971 36.999 33.9971s49 49.333 73 88s36 82 36 130c0 38.667 -9 74.334 -27 107.001s-27 51.667 -27 57c0 26.667 14.333 52 43 76s61 36 97 36c12 0 24 -4.66699 36 -14c22.667 -21.333 34 -73.333 34 -156c0 -56 -6.66699 -104 -20 -144
c-14.667 -44 -39 -84.667 -73 -122s-85 -84.666 -153 -141.999c-5.33301 -2.66699 -10 -4 -14 -4c-9.33301 0 -18.666 7.33301 -27.999 22s-14 25.334 -14 32.001zM163.999 741.997c0 33.333 12 61.333 36 84s52.667 34 86 34s61.333 -11.333 84 -34s34 -50.667 34 -84
s-11.333 -62 -34 -86s-50.667 -36 -84 -36s-62 12 -86 36s-36 52.667 -36 86z" />
    <glyph glyph-name="less" unicode="&#x3c;" horiz-adv-x="1070" 
d="M122 434c0 20 12 36 36 48l738 374c5.33301 2.66699 8.66602 4 9.99902 4c10.667 0 22 -31.333 34 -94l-6 -18l-652 -330l662 -336c4 -1.33301 6 -5.33301 6 -12c0 -9.33301 -4 -28.333 -12 -57s-14.667 -43 -20 -43c-1.33301 0 -4.66602 1.33301 -9.99902 4l-750 380
c-24 13.333 -36 40 -36 80z" />
    <glyph glyph-name="equal" unicode="=" horiz-adv-x="1142" 
d="M104 254c0 13.333 6 40.667 18 82c1.33301 4 3 6.66699 5 8s3.66699 2 5 2h4h888c10.667 0 16 -3.33301 16 -10c0 -10.667 -6.66699 -40.667 -20 -90c-1.33301 -4 -3 -7 -5 -9s-3.66699 -3 -5 -3h-2h-890c-9.33301 0 -14 6.66699 -14 20zM104 538.001
c6.66699 61.333 16.667 92 30 92h898c5.33301 0 8 -3.33301 8 -10c0 -10.667 -6.66699 -40.667 -20 -90c-1.33301 -4 -3 -7 -5 -9s-3.66699 -3 -5 -3h-2h-890c-9.33301 0 -14 6.66699 -14 20z" />
    <glyph glyph-name="greater" unicode="&#x3e;" horiz-adv-x="1070" 
d="M122 70l6 12.002l662 336l-650 330c-4 1.33301 -6 6.66602 -6 15.999c0 17.333 4.33301 37.666 13 60.999s15 35 19 35c1.33301 0 4.66602 -1.33301 9.99902 -4l740 -374c22.667 -12 34 -28 34 -48c0 -41.333 -11.333 -68 -34 -80l-750 -380
c-5.33301 -2.66699 -8.66602 -4 -9.99902 -4c-5.33301 0 -12.333 14.333 -21 43s-13 47.667 -13 57z" />
    <glyph glyph-name="question" unicode="?" horiz-adv-x="732" 
d="M118 90c0 32 11.333 59 34 81s50 33 82 33s59.333 -11 82 -33s34 -49 34 -81s-11.333 -59.667 -34 -83s-50 -35 -82 -35s-59.333 11.667 -82 35s-34 51 -34 83zM130 1196c0 30.667 4.66895 53.334 14.002 68.001c26.667 13.333 60 20 100 20
c80 0 165.667 -35.333 257 -106s137 -158.667 137 -264c0 -69.333 -15 -127 -45 -173s-82.333 -90.333 -157 -133c-28 -16 -59.667 -38 -95 -66s-55.666 -47.333 -60.999 -58c-13.333 -24 -20 -70 -20 -138c0 -17.333 -13.333 -26 -40 -26c-17.333 0 -26 5.33301 -26 16
c0 17.333 -0.333008 48.333 -1 93s-1 76.334 -1 95.001c0 16 1 31 3 45s5.66699 27.333 11 40s9.66602 23.667 12.999 33s10.333 19.333 21 30s17.667 18.667 21 24s12 12.666 26 21.999s22.333 15.333 25 18s11.667 9 27 19s23.666 15 24.999 15l71 46
c14 9.33301 31 22.333 51 39s33.667 32.667 41 48s11 31.666 11 48.999c0 57.333 -16.333 101.333 -49 132s-70.334 46 -113.001 46c-40 0 -72 -2.33301 -96 -7s-42.667 -7 -56 -7c-21.333 0 -42.333 6 -63 18s-31 32.667 -31 62z" />
    <glyph glyph-name="at" unicode="@" horiz-adv-x="1638" 
d="M104 370c0 240 77.332 430.667 231.999 572s347.334 212 578.001 212c96 0 185.333 -21 268 -63s151 -96.333 205 -163s96 -140.334 126 -221.001s45 -161 45 -241c0 -92 -11.333 -171.667 -34 -239s-52.667 -118.333 -90 -153s-76 -60 -116 -76s-81.333 -24 -124 -24
c-64 0 -117.333 23.333 -160 70s-64 93.334 -64 140.001c0 1.33301 -1.33301 1.33301 -4 0s-4.66699 -2.66602 -6 -3.99902c-21.333 -36 -63.333 -77.333 -126 -124s-117.334 -70 -164.001 -70c-69.333 0 -123 30.333 -161 91s-57 129 -57 205c0 142.667 49.333 268 148 376
s232.667 162 402 162l178 -18l-14 -106l-50 -446c-2.66699 -26.667 -4 -45.334 -4 -56.001c0 -93.333 33.333 -140 100 -140c46.667 0 87.334 14 122.001 42s60.667 63.333 78 106s29.666 83 36.999 121s11 73 11 105c0 172 -53 319.667 -159 443s-242.333 185 -409 185
c-184 0 -341.667 -58.333 -473 -175s-197 -261.667 -197 -435c0 -209.333 59.333 -378 178 -506s298 -192 538 -192c10.667 0 22.334 1.33301 35.001 4s25 6.33398 37 11.001l33 13c10 4 18.333 8 25 12l12 4c2.66699 -12 4 -18.667 4 -20
c0 -26.667 -23 -52.334 -69 -77.001s-108.333 -37 -187 -37c-104 0 -202 22 -294 66s-169 100.333 -231 169s-110.667 145 -146 229s-53 166.667 -53 248zM607.999 286c0 -62.667 12 -108.332 36 -136.999s51.333 -43 82 -43c52 0 106.667 31 164 93s87.333 109 90 141
l30 304c1.33301 8 2 16 2 24c0 10.667 -1.33301 19 -4 25s-12 11.667 -28 17s-39.333 8 -70 8c-85.333 0 -157 -38.333 -215 -115s-87 -182.334 -87 -317.001z" />
    <glyph glyph-name="A" unicode="A" horiz-adv-x="1368" 
d="M40 24c0 18.667 2.66406 27.999 7.99707 27.999c16 0 36.667 3.33301 62 10s42.666 16 51.999 28c28 36 59.333 98.667 94 188l348 894c2.66699 6.66699 6.33398 17.334 11.001 32.001s8.33398 25.667 11.001 33s6.66699 16.666 12 27.999s10 19.666 14 24.999
s9 11.333 15 18s12.667 11.334 20 14.001s15.666 4 24.999 4l18 -6l400 -1056c24 -62.667 43.333 -110.667 58 -144c8 -20 28.667 -36.333 62 -49s58 -19 74 -19c5.33301 0 8 -12.667 8 -38c0 -5.33301 -1.33301 -12 -4 -20c-133.333 6.66699 -206.666 10 -219.999 10
c-1.33301 0 -78.666 -3.33301 -231.999 -10c-5.33301 5.33301 -7.66602 16.333 -6.99902 33s3.66699 25 9 25c16 0 36 3.33301 60 10s38 15.334 42 26.001c2.66699 10.667 4 21.334 4 32.001c0 17.333 -2.33301 37.666 -7 60.999s-9 41.666 -13 54.999l-8 22l-82 226
c-4 5.33301 -8 8 -12 8c-52 4 -102.667 6 -152 6c-69.333 0 -154 -3.33301 -254 -10l-10 -6l-86 -220c-22.667 -66.667 -34 -112.667 -34 -138c0 -18.667 5.33301 -32 16 -40c12 -9.33301 31.333 -17 58 -23s46 -9 58 -9c4 0 6.33301 -8 7 -24s-0.333008 -27.333 -3 -34
c-133.333 6.66699 -202 10 -206 10c-26.667 0 -50 -0.666992 -70 -2s-42.333 -2.66602 -67 -3.99902l-71 -4c-5.33301 5.33301 -8 15.333 -8 30zM493.997 605.999c0 -5.33301 1.33301 -8 4 -8c69.333 -2.66699 116.666 -4 141.999 -4c58.667 0 119.334 2 182.001 6l6 10
l-162 442z" />
    <glyph glyph-name="B" unicode="B" horiz-adv-x="1184" 
d="M72 1282c0 17.333 2.66797 28.667 8.00098 34c69.333 -2.66699 148.666 -4 237.999 -4c68 0 123.667 0.333008 167 1s81.666 1 114.999 1c34.667 0 70 -3 106 -9s73 -17 111 -33s71.667 -36 101 -60s53.333 -55.667 72 -95s28 -83 28 -131s-15.333 -92.667 -46 -134
s-59 -70 -85 -86s-48.333 -27.333 -67 -34c-10.667 -4 -14 -8 -10 -12c52 -9.33301 114 -47 186 -113s108 -143.667 108 -233c0 -114.667 -46.333 -205.667 -139 -273s-215.667 -101 -369 -101h-274l-242 -6c-4 4 -6 14.667 -6 32s2 26 6 26c17.333 0 43 4.66699 77 14
s54.333 20 61 32c9.33301 16 14 78.667 14 188v756c0 78.667 -4.66699 136 -14 172c-4 10.667 -23.667 20.667 -59 30s-61.666 14 -78.999 14c-5.33301 0 -8 8 -8 24zM406.001 296.001c0 -101.333 10.667 -160.666 32 -177.999c20 -18.667 56 -28 108 -28
c33.333 0 66.333 2.66699 99 8s71.667 15.666 117 30.999s82 42 110 80s42 85.667 42 143c0 85.333 -28.667 158.333 -86 219s-147.333 91 -270 91c-29.333 0 -77.333 -2.66699 -144 -8c-5.33301 -16 -8 -38 -8 -66v-292zM406.001 760.001
c0 -9.33301 43.998 -14.001 131.998 -14.001c42.667 0 80 2 112 6c54.667 5.33301 100.334 24.333 137.001 57s55 76.334 55 131.001c0 92 -23 163.667 -69 215s-114.333 77 -205 77c-61.333 0 -108.666 -4.66699 -141.999 -14c-8 -1.33301 -12 -7.33301 -12 -18l-8 -202
v-238z" />
    <glyph glyph-name="C" unicode="C" horiz-adv-x="1312" 
d="M88 644c0 189.333 63.3301 351.666 189.997 486.999s282 203 466 203c157.333 0 319.333 -16.667 486 -50c-2.66699 -178.667 -4 -274.667 -4 -288c0 -20 -14 -30 -42 -30c-13.333 0 -22 3.33301 -26 10c-4 17.333 -9 35 -15 53s-18.667 41.333 -38 70
s-42.666 53.334 -69.999 74.001s-66 38.667 -116 54s-106.333 23 -169 23c-130.667 0 -242 -57.667 -334 -173s-138 -245.666 -138 -390.999c0 -108 18.667 -207.333 56 -298s96.333 -165.667 177 -225s176.334 -89 287.001 -89c132 0 234 38.667 306 116
c18.667 20 35 46.333 49 79s24.667 60 32 82s13 33 17 33c8 0 17.667 -1.33301 29 -4s20.333 -5.33398 27 -8.00098l10 -6c0 -14.667 -9.33301 -65.667 -28 -153s-32 -133 -40 -137c-97.333 -58.667 -256.666 -88 -477.999 -88c-176 0 -325.667 64.667 -449 194
s-185 283.333 -185 462z" />
    <glyph glyph-name="D" unicode="D" horiz-adv-x="1444" 
d="M68 1282c0 17.333 2.66797 28.666 8.00098 33.999c69.333 -2.66699 148.666 -4 237.999 -4c50.667 0 115 0.666992 193 2s129.667 2 155 2c217.333 0 386.666 -64 507.999 -192s182 -278.667 182 -452c0 -193.333 -61.333 -354.666 -184 -483.999s-292 -194 -508 -194
c-16 0 -63.667 1.33301 -143 4c-52.667 2 -99.667 3 -141 3c-20.667 0 -40 -0.333008 -58 -1l-242 -6c-4 4 -6 14 -6 30c0 18.667 2 28 6 28c17.333 0 43 4.66699 77 14s54.333 20 61 32c9.33301 16 14 78.667 14 188v756c0 78.667 -4.66699 136 -14 172
c-4 10.667 -23.667 20.667 -59 30s-61.666 14 -78.999 14c-5.33301 0 -8 8 -8 24zM402.001 278c0 -56 10.001 -106.667 30.001 -152c5.33301 -13.333 41 -23.333 107 -30s117 -10 153 -10c306.667 0 460 198 460 594c0 152 -40.333 281.333 -121 388
s-198.334 160 -353.001 160h-10c-144 0 -224 -10.667 -240 -32c-17.333 -24 -26 -66 -26 -126v-792z" />
    <glyph glyph-name="E" unicode="E" horiz-adv-x="1142" 
d="M58 1282c0 17.333 2.66602 28.668 7.99902 34.001c69.333 -2.66699 148.666 -4 237.999 -4c60 0 164 2.66699 312 8s259.333 8 334 8c5.33301 -38.667 15.666 -89.667 30.999 -153s24.333 -103 27 -119c-6.66699 -6.66699 -18.667 -10 -36 -10
s-26.666 4.66699 -27.999 14c-20 73.333 -48 120.333 -84 141s-85.333 31 -148 31h-134c-114.667 0 -173.334 -8.66699 -176.001 -26c-6.66699 -32 -10 -88 -10 -168v-320c0 -8 28.667 -12 86 -12h106h81c16.667 0 34.334 2.66699 53.001 8s30.667 8.66602 36 9.99902
s12.333 10 21 26s13.667 27.667 15 35s6 26.333 14 57c1.33301 9.33301 11.333 14 30 14c16 0 27.333 -3.33301 34 -10v-378c-5.33301 -5.33301 -16 -8 -32 -8c-17.333 0 -28 5.33301 -32 16c-9.33301 36 -17.333 63 -24 81s-11.667 28.667 -15 32s-9 7.66602 -17 12.999
c-17.333 10.667 -88 16 -212 16c-96 0 -144 -6 -144 -18v-310c0 -86.667 6 -147.334 18 -182.001c4 -13.333 49.333 -20 136 -20h96c124 0 208 11.333 252 34c20 10.667 42.333 34.334 67 71.001s44.334 80.334 59.001 131.001c2.66699 8 12 12 28 12c25.333 0 42 -4 50 -12
l-31 -83l-33 -92c-8 -23.333 -16.667 -50.333 -26 -81s-15.333 -56 -18 -76c-68 0 -175.333 1.33301 -322 4s-266.667 4 -360 4l-242 -6c-4 4 -6 14.667 -6 32s2 26 6 26c17.333 0 43 4.66699 77 14s54.333 20 61 32c9.33301 16 14 78.667 14 188v756
c0 78.667 -4.66699 136 -14 172c-4 10.667 -23.667 20.667 -59 30s-61.666 14 -78.999 14c-5.33301 0 -8 8 -8 24z" />
    <glyph glyph-name="F" unicode="F" horiz-adv-x="1102" 
d="M80 1282c0 17.333 2.66699 28.668 8 34.001c69.333 -2.66699 148.666 -4 237.999 -4c60 0 164 2.66699 312 8s259.333 8 334 8c5.33301 -38.667 15.666 -89.667 30.999 -153s24.333 -103 27 -119c-6.66699 -6.66699 -18.667 -10 -36 -10s-26.666 4.66699 -27.999 14
c-20 73.333 -48 120.333 -84 141s-85.333 31 -148 31h-134c-114.667 0 -173.334 -8.66699 -176.001 -26c-6.66699 -32 -10 -88 -10 -168v-326c0 -8 28 -12 84 -12h106c89.333 0 144 6.33301 164 19s37.333 49 52 109c1.33301 8 2.66602 14 3.99902 18
c1.33301 9.33301 11.333 14 30 14c16 0 27.333 -3.33301 34 -10v-388c-5.33301 -5.33301 -16 -8 -32 -8c-17.333 0 -28 5.33301 -32 16c-9.33301 36 -17.333 63 -24 81s-11.667 28.667 -15 32s-9 7.66602 -17 12.999c-17.333 10.667 -88 16 -212 16
c-94.667 0 -142 -6 -142 -18v-316c0 -77.333 6 -139.333 18 -186c2.66699 -9.33301 21.334 -18.333 56.001 -27s58.667 -13 72 -13c5.33301 0 8 -10 8 -30c0 -10.667 -1.33301 -20 -4 -28c-133.333 6.66699 -210.666 10 -231.999 10c-6.66699 0 -86.667 -3.33301 -240 -10
c-5.33301 5.33301 -8 15.333 -8 30c0 18.667 2.66699 28 8 28c17.333 0 43 4 77 12s53 17.333 57 28c9.33301 36 14 96 14 180v770c0 78.667 -4.66699 136 -14 172c-4 10.667 -23.667 20.667 -59 30s-61.666 14 -78.999 14c-5.33301 0 -8 8 -8 24z" />
    <glyph glyph-name="G" unicode="G" horiz-adv-x="1430" 
d="M88 644c0 189.333 63.3311 351.67 189.998 487.003s282 203 466 203c94.667 0 252.667 -30 474 -90c5.33301 -152 8 -234.667 8 -248c0 -20 -14 -30 -42 -30c-13.333 0 -22 3.33301 -26 10c-36 182.667 -172 274 -408 274c-133.333 0 -244.666 -56.667 -333.999 -170
s-134 -250 -134 -410c0 -148 49 -284.333 147 -409s221 -187 369 -187c117.333 0 204 14.667 260 44c9.33301 4 14 14 14 30l-2 164v14c0 86.667 -5.33301 144 -16 172c-5.33301 13.333 -27 24 -65 32s-67.667 12 -89 12c-5.33301 0 -8 8.33301 -8 25s2.66699 27.667 8 33
c170.667 -6.66699 258 -10 262 -10c10.667 0 82.667 3.33301 216 10c2.66699 -8 4 -17.333 4 -28c0 -20 -2.66699 -30 -8 -30c-8 0 -26.333 -4.33301 -55 -13s-49 -16.334 -61 -23.001c-13.333 -9.33301 -20 -54 -20 -134c0 -28 1 -58.333 3 -91s3 -50.334 3 -53.001
c0 -24 4.66699 -47.333 14 -70s14 -36 14 -40c0 -10.667 -16.667 -22.667 -50 -36c-2.66699 -1.33301 -15.667 -6.33301 -39 -15s-38.333 -14.334 -45 -17.001s-21.667 -7.66699 -45 -15s-42 -12.333 -56 -15l-60 -12c-26 -5.33301 -50.667 -9 -74 -11
s-50.666 -4 -81.999 -6s-64.333 -3 -99 -3c-176 0 -325.667 64.667 -449 194s-185 283.333 -185 462z" />
    <glyph glyph-name="H" unicode="H" horiz-adv-x="1414" 
d="M76 24c0 18.667 2.66895 27.9932 8.00195 27.9932c17.333 0 43 4 77 12s53 17.333 57 28c9.33301 36 14 95.333 14 178v776c0 82.667 -4.66699 142 -14 178c-4 10.667 -23 20.334 -57 29.001s-59.667 13 -77 13c-5.33301 0 -8 8.66699 -8 26c0 16 2.66699 26.667 8 32
c17.333 -1.33301 52.666 -3.66602 105.999 -6.99902s98 -5 134 -5c26.667 0 52.667 0.666992 78 2s52.666 3 81.999 5l72 5c2.66699 -5.33301 3.66699 -16.333 3 -33s-3 -25 -7 -25c-13.333 0 -37.333 -4.66699 -72 -14s-53.334 -18.666 -56.001 -27.999
c-12 -46.667 -18 -108.667 -18 -186v-298l4 -6c130.667 -2.66699 232 -4 304 -4c77.333 0 176 1.33301 296 4c2.66699 2.66699 4 5.33398 4 8.00098v304c0 82.667 -4.66699 142 -14 178c-4 10.667 -23 20.334 -57 29.001s-59.667 13 -77 13c-5.33301 0 -8 8.33301 -8 25
s2.66699 27.667 8 33c16 -1.33301 51.333 -3.66602 106 -6.99902s100 -5 136 -5c25.333 0 50.666 0.666992 75.999 2s52.333 3 81 5l71 5c2.66699 -8 4 -18 4 -30c0 -18.667 -2.66699 -28 -8 -28c-13.333 0 -37.333 -4.66699 -72 -14s-53.334 -18.666 -56.001 -27.999
c-10.667 -41.333 -16 -103.333 -16 -186v-760c0 -82.667 5.33301 -144.667 16 -186c2.66699 -9.33301 21.334 -18.333 56.001 -27s58.667 -13 72 -13c5.33301 0 8 -10 8 -30c0 -10.667 -1.33301 -20 -4 -28c-133.333 6.66699 -209.333 10 -228 10
c-8 0 -88.667 -3.33301 -242 -10c-5.33301 5.33301 -8 16.333 -8 33s2.66699 25 8 25c17.333 0 43 4 77 12s53 17.333 57 28c9.33301 36 14 95.333 14 178v352l-4 8c-125.333 2.66699 -224 4 -296 4c-205.333 0 -308 -3.33301 -308 -10v-346c0 -77.333 6 -139.333 18 -186
c2.66699 -9.33301 21.334 -18.333 56.001 -27s58.667 -13 72 -13c4 0 6.33301 -8 7 -24s-0.333008 -27.333 -3 -34c-133.333 6.66699 -210.666 10 -231.999 10c-6.66699 0 -86.667 -3.33301 -240 -10c-5.33301 5.33301 -8 15.333 -8 30z" />
    <glyph glyph-name="I" unicode="I" horiz-adv-x="636" 
d="M76 24c0 18.667 2.66699 27.998 8 27.998c17.333 0 43 4 77 12s53 17.333 57 28c9.33301 36 14 95.333 14 178v776c0 82.667 -4.66699 142 -14 178c-4 10.667 -23 20.334 -57 29.001s-59.667 13 -77 13c-5.33301 0 -8 8.66699 -8 26c0 16 2.66699 26.667 8 32
c153.333 -6.66699 233.333 -10 240 -10c21.333 0 98.666 3.33301 231.999 10c2.66699 -8 4 -18 4 -30c0 -18.667 -2.66699 -28 -8 -28c-13.333 0 -37.333 -4.66699 -72 -14s-53.334 -18.666 -56.001 -27.999c-12 -46.667 -18 -108.667 -18 -186v-760
c0 -77.333 6 -139.333 18 -186c2.66699 -9.33301 21.334 -18.333 56.001 -27s58.667 -13 72 -13c5.33301 0 8 -10 8 -30c0 -10.667 -1.33301 -20 -4 -28c-133.333 6.66699 -210.666 10 -231.999 10c-6.66699 0 -86.667 -3.33301 -240 -10c-5.33301 5.33301 -8 15.333 -8 30z
" />
    <glyph glyph-name="J" unicode="J" horiz-adv-x="644" 
d="M-190 -348c0 29.333 12.3359 53.3301 37.0029 71.9971s53.667 28 87 28c24 0 51 -14.333 81 -43s53.667 -43 71 -43c18.667 0 37.667 9.33301 57 28s38.333 46 57 82s34 87 46 153s18 141 18 225v892c0 82.667 -4.66699 142 -14 178c-4 10.667 -23 20.334 -57 29.001
s-59.667 13 -77 13c-5.33301 0 -8 8.66699 -8 26c0 16 2.66699 26.667 8 32c17.333 -1.33301 52.666 -3.66602 105.999 -6.99902s98 -5 134 -5c26.667 0 52.667 0.666992 78 2s52.666 3 81.999 5l72 5c2.66699 -8 4 -18 4 -30c0 -18.667 -2.66699 -28 -8 -28
c-13.333 0 -37.333 -4.66699 -72 -14s-53.334 -18.666 -56.001 -27.999c-12 -46.667 -18 -108.667 -18 -186v-868c0 -168 -47 -314 -141 -438s-213.667 -186 -359 -186c-14.667 0 -30.667 2.66699 -48 8s-31.333 10.666 -42 15.999l-14 8c-16 18.667 -24 43.334 -24 74.001z
" />
    <glyph glyph-name="K" unicode="K" horiz-adv-x="1386" 
d="M82 24c0 18.667 2.66504 27.9951 7.99805 27.9951c17.333 0 43 4 77 12s53 17.333 57 28c9.33301 36 14 95.333 14 178v776c0 82.667 -4.66699 142 -14 178c-4 10.667 -23 20.334 -57 29.001s-59.667 13 -77 13c-5.33301 0 -8 8.66699 -8 26c0 16 2.66699 26.667 8 32
c17.333 -1.33301 52.666 -3.66602 105.999 -6.99902s98 -5 134 -5c26.667 0 52.667 0.666992 78 2s52.666 3 81.999 5l72 5c2.66699 -5.33301 3.66699 -16.333 3 -33s-3 -25 -7 -25c-13.333 0 -37.333 -4.66699 -72 -14s-53.334 -18.666 -56.001 -27.999
c-12 -46.667 -18 -108.667 -18 -186v-326l14 -12h14c42.667 0 81.334 19.333 116.001 58c156 174.667 270.667 310 344 406c32 38.667 48 64 48 76c0 22.667 -38 34 -114 34c-5.33301 0 -8 6 -8 18s1.33301 22.667 4 32l68 -5c28 -2 54 -3.66699 78 -5s46.667 -2 68 -2
c33.333 0 71.333 1.66699 114 5l88 7c2.66699 -5.33301 3.66699 -15 3 -29s-3 -21 -7 -21c-81.333 -9.33301 -142.666 -37.333 -183.999 -84l-402 -468c-10.667 -12 -6 -30 14 -54l482 -530c21.333 -22.667 49.333 -41.334 84 -56.001s61.667 -23.334 81 -26.001
s35 -4 47 -4c6.66699 0 10 -12 10 -36c0 -9.33301 -1.33301 -16.666 -4 -21.999c-133.333 6.66699 -216 10 -248 10c-33.333 0 -63.333 -0.666992 -90 -2s-56.667 -2.66602 -90 -3.99902s-63.333 -2.66602 -90 -3.99902c-5.33301 5.33301 -8 16.333 -8 33s2.66699 25 8 25
c16 0 34.333 2.66699 55 8s31 13.333 31 24c0 42.667 -151.333 219.334 -454 530.001c-5.33301 5.33301 -24.666 8 -57.999 8c-9.33301 0 -14 -5.33301 -14 -16v-328c0 -77.333 6 -139.333 18 -186c2.66699 -9.33301 21.334 -18.333 56.001 -27s58.667 -13 72 -13
c4 0 6.33301 -8 7 -24s-0.333008 -27.333 -3 -34c-133.333 6.66699 -210.666 10 -231.999 10c-6.66699 0 -86.667 -3.33301 -240 -10c-5.33301 5.33301 -8 15.333 -8 30z" />
    <glyph glyph-name="L" unicode="L" horiz-adv-x="1136" 
d="M72 30c0 17.333 2.00098 25.9961 6.00098 25.9961c18.667 0 44.667 4 78 12s53.333 18 60 30c9.33301 16 14 78.667 14 188v756c0 85.333 -4.66699 146 -14 182c-4 10.667 -23 20.334 -57 29.001s-59.667 13 -77 13c-5.33301 0 -8 8.66699 -8 26
c0 16 2.66699 26.667 8 32c17.333 -1.33301 52.666 -3.66602 105.999 -6.99902s98 -5 134 -5c26.667 0 52.667 0.666992 78 2s52.666 3 81.999 5l72 5c2.66699 -8 4 -18 4 -30c0 -18.667 -2.66699 -28 -8 -28c-13.333 0 -37.333 -4.66699 -72 -14
s-53.334 -18.666 -56.001 -27.999c-12 -46.667 -18 -108.667 -18 -186v-754c0 -70.667 6 -129.334 18 -176.001c4 -13.333 49.333 -20 136 -20h96c124 0 208 11.333 252 34c20 10.667 42.333 34.334 67 71.001s44.334 80.334 59.001 131.001c2.66699 8 12 12 28 12
c25.333 0 42 -4 50 -12l-31 -83l-33 -92c-8 -23.333 -16.667 -50.333 -26 -81s-15.333 -56 -18 -76c-69.333 0 -177.666 2 -324.999 6s-266.333 6 -357 6l-242 -6c-4 4 -6 14.667 -6 32z" />
    <glyph glyph-name="M" unicode="M" horiz-adv-x="1820" 
d="M52 24c0 18.667 3.33105 27.9922 9.99805 27.9922c18.667 0 46.334 4.33301 83.001 13s61 19 73 31c21.333 24 33.333 82 36 174c2.66699 138.667 5.66699 275.334 9 410.001s6.33301 240.334 9 317.001s4 125.667 4 147c0 33.333 -2.66699 60 -8 80
c-4 10.667 -26.667 20.334 -68 29.001s-71.333 13 -90 13c-5.33301 0 -8 9.33301 -8 28c0 14.667 2.66699 24.667 8 30c22.667 -1.33301 47.667 -2.66602 75 -3.99902s52.333 -2.66602 75 -3.99902s47.334 -2 74.001 -2c49.333 0 110.666 3.33301 183.999 10
c9.33301 -30.667 141.333 -364.667 396 -1002c1.33301 -2.66699 4 -4 8 -4c5.33301 0 8.66602 2.66699 9.99902 8c130.667 306.667 234.667 559.334 312 758.001l80 240c85.333 -5.33301 140.666 -8 165.999 -8c82.667 0 157.334 2.66699 224.001 8c4 -12 6 -22 6 -30
c0 -18.667 -3.33301 -28 -10 -28h-4c-14.667 0 -34 -4.33301 -58 -13s-42 -17.667 -54 -27c-16 -12 -24 -56.667 -24 -134c0 -21.333 6 -292 18 -812c1.33301 -76 11.333 -137.333 30 -184c5.33301 -12 25.333 -22.333 60 -31s59.334 -13 74.001 -13
c5.33301 0 8 -9.33301 8 -28c0 -12 -1.33301 -22 -4 -30c-133.333 6.66699 -212.666 10 -237.999 10c-6.66699 0 -86.667 -3.33301 -240 -10c-5.33301 5.33301 -8 16 -8 32c0 17.333 2.66699 26 8 26c13.333 0 33.666 3.33301 60.999 10s47 13.334 59 20.001
c16 9.33301 24 38 24 86v106l-24 704c-1.33301 21.333 -5 46.333 -11 75s-12.333 43 -19 43c-2.66699 0 -6 -4.66699 -10 -14l-418 -1000c-25.333 -57.333 -50 -86 -74 -86c-4 0 -10 1.33301 -18 4l-458 1164c-2.66699 -128 -6.66699 -274.667 -12 -440
s-10 -301.666 -14 -408.999s-6 -162.333 -6 -165c0 -24 4 -41.333 12 -52s32.333 -21 73 -31s67.667 -15 81 -15c5.33301 0 8 -10 8 -30c0 -10.667 -1.33301 -20 -4 -28c-133.333 6.66699 -210.666 10 -231.999 10c-2.66699 0 -80.667 -3.33301 -234 -10
c-6.66699 6.66699 -10 16.667 -10 30z" />
    <glyph glyph-name="N" unicode="N" horiz-adv-x="1442" 
d="M40 24c0 18.667 2.00098 27.999 6.00098 27.999c18.667 0 49 5 91 15s65 21 69 33c13.333 34.667 20 97.334 20 188.001v786c0 65.333 -4.66699 115.333 -14 150c-4 10.667 -26.667 20.334 -68 29.001s-71.333 13 -90 13c-5.33301 0 -8 8.33301 -8 25
s2.66699 27.667 8 33c104 -2.66699 172 -4 204 -4c69.333 0 122.666 1.33301 159.999 4c49.333 -90.667 275.333 -417.334 678 -980.001c4 22.667 6 50 6 82v622c0 81.333 -4.66699 140 -14 176c-4 10.667 -27 21 -69 31s-71.667 15 -89 15c-5.33301 0 -8 7.66699 -8 23
s2.66699 25.666 8 30.999c17.333 -1.33301 52 -3.66602 104 -6.99902s96 -5 132 -5c34.667 0 78.334 2 131.001 6s83.667 6 93 6c2.66699 -8 4 -18 4 -30c0 -16 -2.66699 -24 -8 -24c-13.333 0 -42.333 -5.33301 -87 -16s-68.334 -20.667 -71.001 -30
c-10.667 -41.333 -16 -103.333 -16 -186v-760c0 -82.667 2 -176 6 -280c-5.33301 -5.33301 -18 -8 -38 -8c-22.667 0 -44.667 15.333 -66 46l-776 1100v-854c0 -88 4.66699 -150 14 -186c2.66699 -9.33301 25 -19 67 -29s69.667 -15 83 -15c4 0 6.33301 -8 7 -24
s-0.333008 -27.333 -3 -34c-133.333 6.66699 -210 10 -230 10l-230 -10c-4 4 -6 14 -6 30z" />
    <glyph glyph-name="O" unicode="O" horiz-adv-x="1456" 
d="M88 656c0 186.667 62.333 346.334 187 479.001s275 199 451 199s326.667 -66.333 452 -199s188 -292.334 188 -479.001s-62.667 -346 -188 -478s-276 -198 -452 -198s-326.333 66 -451 198s-187 291.333 -187 478zM286 700c0 -106.667 17.333 -207.333 52 -302
s88.667 -173.667 162 -237s159.333 -95 258 -95c85.333 0 160 27.667 224 83s111 124 141 206s45 169.667 45 263c0 106.667 -17.333 207 -52 301s-88.667 172.667 -162 236s-159.333 95 -258 95c-126.667 0 -226.667 -55.333 -300 -166s-110 -238.667 -110 -384z" />
    <glyph glyph-name="P" unicode="P" horiz-adv-x="1090" 
d="M80 1282c0 17.333 2.66504 28.668 7.99805 34.001l240 -4c40 0 87.333 1.33301 142 4s101.334 4 140.001 4c44 0 88.333 -6.66699 133 -20s88 -33.333 130 -60s76.333 -64.667 103 -114s40 -106.666 40 -171.999c0 -38.667 -8.33301 -80.334 -25 -125.001
s-41 -88 -73 -130s-75 -76.667 -129 -104s-114.333 -41 -181 -41c-74.667 0 -126 18.667 -154 56c-8 9.33301 -10 24.666 -6 45.999c1.33301 5.33301 3.33301 7.33301 6 6c40 -14.667 84.667 -22 134 -22c66.667 0 124 28 172 84s72 122.667 72 200
c0 94.667 -20.667 169.667 -62 225s-105.333 83 -192 83c-60 0 -106.667 -4.66699 -140 -14c-6.66699 -1.33301 -11.334 -6.33301 -14.001 -15s-5 -29 -7 -61s-3 -80 -3 -144v-714c0 -89.333 5.33301 -147.333 16 -174c6.66699 -17.333 30.334 -31.333 71.001 -42
s69.667 -16 87 -16c5.33301 0 8 -9.33301 8 -28c0 -12 -1.33301 -22 -4 -30c-133.333 6.66699 -220 10 -260 10l-244 -10c-4 4 -6 16 -6 36c0 17.333 2 26 6 26c18.667 0 44.667 4 78 12s53.333 18 60 30c9.33301 16 14 78.667 14 188v756c0 78.667 -4.66699 136 -14 172
c-4 10.667 -23.667 20.667 -59 30s-61.666 14 -78.999 14c-5.33301 0 -8 8 -8 24z" />
    <glyph glyph-name="Q" unicode="Q" horiz-adv-x="1448" 
d="M88 656c0 186.667 62.3301 346.332 186.997 478.999s275 199 451 199s326.667 -66.333 452 -199s188 -292.334 188 -479.001c0 -170.667 -49 -316 -147 -436s-198.333 -190 -301 -210c36 -17.333 85.667 -44.666 149 -81.999s116.333 -62.666 159 -75.999
s95.334 -20 158.001 -20c24 0 46 1.33301 66 4s36 5.33398 48 8.00098s19.333 4 22 4c16 0 24 -13.333 24 -40v-10c-88 -46.667 -200 -70 -336 -70c-64 0 -133.667 17.333 -209 52s-154.666 75.667 -237.999 123s-152.333 79.666 -207 96.999
c-48 14.667 -97.333 39.334 -148 74.001s-100.667 78.667 -150 132s-89.666 119.666 -120.999 198.999s-47 163 -47 251zM277.997 699.998c0 -166.667 43.333 -313.999 130 -441.999s203.334 -192 350.001 -192c128 0 229.667 55.667 305 167s113 239.666 113 384.999
c0 166.667 -43.333 313.667 -130 441s-203.334 191 -350.001 191c-126.667 0 -228 -55.667 -304 -167s-114 -239 -114 -383z" />
    <glyph glyph-name="R" unicode="R" horiz-adv-x="1320" 
d="M76 1282c0 17.333 2.66699 28.6641 8 33.9971l240 -4c40 0 87.333 1.33301 142 4s101.334 4 140.001 4c45.333 0 91.333 -6.66699 138 -20s92.667 -33.333 138 -60s82.666 -64.667 111.999 -114s44 -106.666 44 -171.999c0 -56 -21 -114.667 -63 -176
s-99 -108.666 -171 -141.999c-13.333 -5.33301 -17.333 -12 -12 -20c66.667 -140 143.334 -257.333 230.001 -352c128 -140 232 -210 312 -210c4 -8 6 -17.333 6 -28c0 -12 -2 -22 -6 -30c-14.667 -4 -32.667 -6 -54 -6c-186.667 0 -348.667 96 -486 288l-73 105l-60 88
c-12.667 18 -27.334 37.667 -44.001 59s-31.334 37.333 -44.001 48s-26.334 19.334 -41.001 26.001c-14.667 5.33301 -39.334 8 -74.001 8c-10.667 0 -18.667 -0.333008 -24 -1s-10.666 -3.66699 -15.999 -9s-8 -13.333 -8 -24v-294c0 -89.333 5.33301 -147.333 16 -174
c6.66699 -17.333 30.334 -31.333 71.001 -42s69.667 -16 87 -16c5.33301 0 8 -9.33301 8 -28c0 -12 -1.33301 -22 -4 -30c-133.333 6.66699 -220 10 -260 10l-244 -10c-4 4 -6 16 -6 36c0 17.333 2 26 6 26c18.667 0 44.667 4 78 12s53.333 18 60 30
c9.33301 16 14 78.667 14 188v756c0 78.667 -4.66699 136 -14 172c-4 10.667 -23.667 20.667 -59 30s-61.666 14 -78.999 14c-5.33301 0 -8 8 -8 24zM410 755.998c0 -38.667 57.999 -58.001 173.999 -58.001h50c46.667 0 95 23.333 145 70s75 108.667 75 186
c0 185.333 -93.333 278 -280 278c-60 0 -106.667 -4.66699 -140 -14c-5.33301 -1.33301 -9.66602 -6.33301 -12.999 -15s-6 -28.667 -8 -60s-3 -79.666 -3 -144.999v-242z" />
    <glyph glyph-name="S" unicode="S" horiz-adv-x="982" 
d="M82 356c0 8 10.667 11.9932 32 11.9932c24 0 40.667 -6 50 -18c45.333 -192 156 -288 332 -288c66.667 0 123.334 20 170.001 60s70 96.667 70 170c0 26.667 -4 51.334 -12 74.001s-16.333 41.334 -25 56.001s-24 30.334 -46 47.001s-39 29 -51 37s-34 20.667 -66 38
l-66 36l-81 48c-15.333 9.33301 -40.666 25.666 -75.999 48.999s-61 44 -77 62l-56 66c-21.333 26 -36.333 53.667 -45 83s-13 60 -13 92c0 102.667 39.333 187 118 253s170 99 274 99c29.333 0 57 -1.66699 83 -5s47.333 -7 64 -11s40.667 -10.333 72 -19
s59 -15.667 83 -21c16 -70.667 24 -166 24 -286c0 -9.33301 -6.66699 -14 -20 -14c-32 0 -49.333 6.66699 -52 20c-6.66699 58.667 -35 115.667 -85 171s-111 83 -183 83c-80 0 -136.333 -20 -169 -60s-49 -89.333 -49 -148c0 -25.333 4.66699 -49.666 14 -72.999
s18.666 -42.666 27.999 -57.999s26.333 -33 51 -53s42.667 -34 54 -42s34 -22.667 68 -44s55.667 -34.666 65 -39.999l70 -43c40 -24.667 67.333 -42 82 -52s37.667 -28 69 -54s54 -49 68 -69s27.333 -45 40 -75s19 -61 19 -93c0 -106.667 -41.667 -194.334 -125 -263.001
s-181 -103 -293 -103c-32 0 -66 2.33301 -102 7s-66 9.33398 -90 14.001s-54.333 11.334 -91 20.001s-62.334 14.334 -77.001 17.001c-33.333 164 -50 270 -50 318z" />
    <glyph glyph-name="T" unicode="T" horiz-adv-x="1338" 
d="M56 1056l37.9971 286.001c58.667 -14.667 104.667 -22 138 -22c50.667 0 121.667 -1.33301 213 -4s166.333 -4 225 -4s134 1.33301 226 4s163.333 4 214 4c33.333 0 79.333 7.33301 138 22l38 -286c-9.33301 -9.33301 -25.333 -14 -48 -14c-12 0 -18.667 3.33301 -20 10
c-18.667 74.667 -41.667 123 -69 145s-79 33 -155 33c-141.333 0 -214.666 -10 -219.999 -30c-12 -42.667 -18 -109.334 -18 -200.001v-722c0 -77.333 6 -139.333 18 -186c2.66699 -9.33301 21.334 -18.333 56.001 -27s58.667 -13 72 -13c5.33301 0 8 -10 8 -30
c0 -10.667 -1.33301 -20 -4 -28c-133.333 6.66699 -210.666 10 -231.999 10c-6.66699 0 -86.667 -3.33301 -240 -10c-5.33301 5.33301 -8 15.333 -8 30c0 18.667 2.66699 28 8 28c17.333 0 43 4 77 12s53 17.333 57 28c9.33301 36 14 95.333 14 178v724
c0 116 -6 184.667 -18 206c-10.667 20 -82.667 30 -216 30c-76 0 -127.667 -11 -155 -33s-50.333 -70.333 -69 -145c-1.33301 -6.66699 -8 -10 -20 -10c-22.667 0 -38.667 4.66699 -48 14z" />
    <glyph glyph-name="U" unicode="U" horiz-adv-x="1438" 
d="M66 1292c0 16 2.66895 26.666 8.00195 31.999c153.333 -6.66699 233.333 -10 240 -10c21.333 0 98.666 3.33301 231.999 10c2.66699 -8 4 -17.333 4 -28c0 -20 -2.66699 -30 -8 -30c-13.333 0 -37.333 -4.66699 -72 -14s-53.334 -18.666 -56.001 -27.999
c-12 -46.667 -18 -108.667 -18 -186v-446c0 -150.667 32 -270.667 96 -360s154.667 -134 272 -134c228 0 342 150 342 450v500c0 81.333 -4.66699 140 -14 176c-4 10.667 -27 21 -69 31s-71.667 15 -89 15c-5.33301 0 -8 7.66699 -8 23s2.66699 25.666 8 30.999
c17.333 -1.33301 52 -3.66602 104 -6.99902s96 -5 132 -5c34.667 0 78.334 2 131.001 6s83.667 6 93 6c2.66699 -8 4 -18 4 -30c0 -16 -2.66699 -24 -8 -24c-13.333 0 -42.333 -5.33301 -87 -16s-68.334 -20.667 -71.001 -30c-10.667 -41.333 -16 -103.333 -16 -186v-486
c0 -206.667 -43.333 -350.334 -130 -431.001s-210 -121 -370 -121c-158.667 0 -280.667 46.667 -366 140s-128 244 -128 452v454c0 82.667 -4.66699 142 -14 178c-4 10.667 -23 20.334 -57 29.001s-59.667 13 -77 13c-5.33301 0 -8 8.66699 -8 26z" />
    <glyph glyph-name="V" unicode="V" horiz-adv-x="1418" 
d="M34 1292c0 16 2.66699 26.6689 8 32.002c21.333 -1.33301 46.666 -2.66602 75.999 -3.99902s55.666 -2.66602 78.999 -3.99902s48.333 -2 75 -2c32 0 114.667 3.33301 248 10c2.66699 -5.33301 3.66699 -16.333 3 -33s-3 -25 -7 -25c-9.33301 0 -22 -1.33301 -38 -4
s-33.333 -9.33398 -52 -20.001s-28 -24.667 -28 -42c0 -38.667 84 -263.334 252 -674.001l86 -212c4 -6.66699 9.66699 -8.33398 17 -5.00098s12.333 8.33301 15 15l300 724c25.333 65.333 38 112 38 140c0 18.667 -10.667 34.667 -32 48s-41.666 21.666 -60.999 24.999
s-35 5 -47 5c-5.33301 0 -8 8.33301 -8 25s2.66699 27.667 8 33c124 -6.66699 195.333 -10 214 -10c1.33301 0 68.666 3.33301 201.999 10c2.66699 -8 4 -18 4 -30c0 -18.667 -2.66699 -28 -8 -28c-60 0 -100 -18.667 -120 -56c-30.667 -56 -63.334 -124.667 -98.001 -206
l-400 -956c-17.333 -44 -40.666 -66 -69.999 -66c-9.33301 0 -16 4 -20 12l-410 1034c-33.333 88 -63.333 152 -90 192c-9.33301 14.667 -28.666 26 -57.999 34s-52.666 12 -69.999 12c-5.33301 0 -8 8.66699 -8 26z" />
    <glyph glyph-name="W" unicode="W" horiz-adv-x="2152" 
d="M32 1292c0 16 2.66797 26.6689 8.00098 32.002c153.333 -6.66699 237.333 -10 252 -10c6.66699 0 76.667 3.33301 210 10c2.66699 -5.33301 3.66699 -16.333 3 -33s-3 -25 -7 -25c-9.33301 0 -20.666 -1 -33.999 -3s-27.666 -8 -42.999 -18s-23 -22.333 -23 -37
c0 -40 15.333 -89.333 46 -148l414 -820c4 -6.66699 9.33301 -8.33398 16 -5.00098s11.334 8.33301 14.001 15l166 346l-210 432c-38.667 78.667 -77.334 142.667 -116.001 192c-10.667 13.333 -28.667 24.333 -54 33s-46 13 -62 13c-5.33301 0 -8 10 -8 30
c0 13.333 2.66699 22.666 8 27.999c153.333 -6.66699 237.333 -10 252 -10c5.33301 0 74.666 3.33301 207.999 10c2.66699 -5.33301 3.66699 -16.333 3 -33s-3 -25 -7 -25c-9.33301 0 -20.333 -1 -33 -3s-26.667 -7.66699 -42 -17s-23 -22 -23 -38
c0 -34.667 15.333 -84 46 -148l132 -270l140 294c18.667 41.333 28 80 28 116c0 22.667 -14.333 39.334 -43 50.001s-53.667 16 -75 16c-5.33301 0 -8 8.33301 -8 25s2.66699 27.667 8 33c106.667 -6.66699 174 -10 202 -10c5.33301 0 74.666 3.33301 207.999 10
c2.66699 -5.33301 3.66699 -16.333 3 -33s-3 -25 -7 -25c-13.333 0 -36.333 -5.33301 -69 -16s-55.667 -24 -69 -40c-24 -29.333 -62.667 -98 -116 -206l-154 -316l218 -448c8 -14.667 16 -11.334 24 9.99902l358 822c22.667 54.667 34 96.667 34 126
c0 22.667 -13.667 39.667 -41 51s-51.666 17 -72.999 17c-5.33301 0 -8 8.33301 -8 25s2.66699 27.667 8 33c106.667 -6.66699 174.667 -10 204 -10c30.667 0 56 0.666992 76 2l62 4c21.333 1.33301 41.333 2.66602 60 3.99902c2.66699 -8 4 -18 4 -30
c0 -18.667 -2.66699 -28 -8 -28c-13.333 0 -34.666 -5 -64 -15c-29.333 -10 -51.333 -23.667 -66 -41c-38.667 -45.333 -77.334 -112.666 -116.001 -201.999l-424 -960c-20 -42.667 -46 -64 -78 -64c-8 0 -14 3.33301 -18 10l-244 500l-216 -446
c-20 -42.667 -46 -64 -78 -64c-8 0 -14 3.33301 -18 10l-520 1034c-38.667 78.667 -77.334 142.667 -116.001 192c-10.667 13.333 -28.667 24.333 -54 33s-46 13 -62 13c-5.33301 0 -8 8.66699 -8 26z" />
    <glyph glyph-name="X" unicode="X" horiz-adv-x="1376" 
d="M14 20c0 21.333 2.66895 32 8.00195 32c10.667 0 25 1 43 3s41 7.66699 69 17s49.333 21.333 64 36l428 560l-280 428c-41.333 65.333 -85.333 111.333 -132 138c-36 21.333 -73.333 32 -112 32c-5.33301 0 -8 8.33301 -8 25s2.66699 27.667 8 33
c164 -6.66699 247.333 -10 250 -10c37.333 0 122.666 3.33301 255.999 10c2.66699 -5.33301 3.66699 -16.333 3 -33s-3 -25 -7 -25c-24 0 -50 -5 -78 -15s-42 -26.333 -42 -49c0 -16 8 -36 24 -60l230 -350c5.33301 8 21 28.333 47 61l56 71l52 68
c23.333 30.667 40.666 54.334 51.999 71.001l38 57c14 21.333 24 38.666 30 51.999s9 24 9 32c0 14.667 -13.667 28.667 -41 42s-60.333 20 -99 20c-5.33301 0 -8 8.33301 -8 25s2.66699 27.667 8 33c124 -6.66699 208.667 -10 254 -10c16 0 90.667 3.33301 224 10
c2.66699 -5.33301 3.66699 -16.333 3 -33s-3 -25 -7 -25c-18.667 0 -52 -5.33301 -100 -16s-78.667 -24.667 -92 -42l-376 -492l384 -584c17.333 -26.667 45 -46.667 83 -60s75.667 -20 113 -20c6.66699 0 10 -10.667 10 -32c0 -12 -1.33301 -20.667 -4 -26
c-133.333 6.66699 -203.333 10 -210 10c-8 0 -105.333 -3.33301 -292 -10c-5.33301 5.33301 -8 16.333 -8 33s2.66699 25 8 25c18.667 0 42.667 5.33301 72 16s44 24 44 40c0 5.33301 -3.33301 13.333 -10 24l-300 458c-218.667 -293.333 -328 -453.333 -328 -480
c0 -5.33301 3 -12 9 -20s20.333 -16.333 43 -25s50.667 -13 84 -13c5.33301 0 8 -10.667 8 -32c0 -13.333 -1.33301 -22 -4 -26c-124 6.66699 -199.333 10 -226 10c-30.667 0 -112.667 -3.33301 -246 -10c-2.66699 8 -4 16.667 -4 26z" />
    <glyph glyph-name="Y" unicode="Y" horiz-adv-x="1298" 
d="M30 1292c0 16 2.66504 26.667 7.99805 32l108 -7c50.667 -3.33301 94.667 -5 132 -5c16 0 104 4 264 12c2.66699 -5.33301 3.66699 -15.666 3 -30.999s-3 -23 -7 -23c-22.667 0 -48.334 -5.66699 -77.001 -17s-43 -28.333 -43 -51c0 -14.667 7.33301 -34.667 22 -60
l224 -424c6.66699 -6.66699 13.334 -5.33398 20.001 3.99902c181.333 274.667 272 435.334 272 482.001c0 14.667 -13.333 29.334 -40 44.001s-59.334 22 -98.001 22c-5.33301 0 -8 7.66699 -8 23s2.66699 25.666 8 30.999c148 -8 226.667 -12 236 -12c41.333 0 84 2 128 6
s72 6 84 6c2.66699 -8 4 -18 4 -30c0 -16 -2.66699 -24 -8 -24c-16 0 -44 -6 -84 -18s-66.667 -26.667 -80 -44l-221 -358c-96.667 -160 -145 -249.333 -145 -268v-304c0 -82.667 5.33301 -144.667 16 -186c2.66699 -9.33301 20.667 -19 54 -29s56 -15 68 -15
c5.33301 0 8 -8.66699 8 -26c0 -10.667 -1.33301 -20 -4 -28c-133.333 6.66699 -208 10 -224 10c-4 0 -82.667 -3.33301 -236 -10c-5.33301 5.33301 -8 14.666 -8 27.999c0 17.333 2.66699 26 8 26c16 0 40.333 4.66699 73 14s51 19.333 55 30
c10.667 41.333 16 105.333 16 192v250c0 18.667 -14.333 55.667 -43 111s-111.667 206.333 -249 453c-21.333 40 -37.666 67.667 -48.999 83s-27.666 30.333 -48.999 45c-14.667 10.667 -36.667 20.667 -66 30s-50.666 14 -63.999 14c-5.33301 0 -8 7.33301 -8 22z" />
    <glyph glyph-name="Z" unicode="Z" horiz-adv-x="1200" 
d="M58 978c36 165.333 58.001 282.669 66.001 352.002c13.333 -4 61.666 -8 144.999 -12s136.333 -6 159 -6h218c93.333 0 233.333 6.66699 420 20c4 -1.33301 8.33301 -10 13 -26s7 -29.333 7 -40l-748 -1114c-9.33301 -13.333 -14 -23.333 -14 -30
c0 -13.333 9.33301 -20 28 -20h452c48 0 89.333 7 124 21s63 35.667 85 65s38 53.666 48 72.999s21.667 47 35 83c2.66699 4 12 6 28 6c20 0 36 -6 48 -18c-42.667 -138.667 -72 -249.334 -88 -332.001h-992c-10.667 12 -16 29.333 -16 52c0 16 2.66699 27.333 8 34
l766 1130h-424c-88 0 -151 -18.333 -189 -55s-69.667 -101 -95 -193c-1.33301 -5.33301 -8 -8 -20 -8c-30.667 0 -52 6 -64 18z" />
    <glyph glyph-name="bracketleft" unicode="[" horiz-adv-x="722" 
d="M242 -158l-0.000976562 1592c0 30.667 12.667 46 38 46c48 0 96 1.33301 144 4s87.667 5.66699 119 9s50.333 5 57 5c8 0 12 -8 12 -24c0 -29.333 -12 -50 -36 -62c-62.667 -14.667 -130 -22 -202 -22c-4 0 -7 -1.33301 -9 -4s-3.66699 -5.33398 -5 -8.00098v-4v-1472
c1.33301 -10.667 6 -16 14 -16c69.333 0 137.333 -11.333 204 -34c16 -5.33301 24 -20 24 -44c0 -6.66699 -1 -13 -3 -19s-4.33301 -10.333 -7 -13l-2 -4c-97.333 16 -200.666 24 -309.999 24c-25.333 0 -38 15.333 -38 46z" />
    <glyph glyph-name="backslash" unicode="\" horiz-adv-x="860" 
d="M72 1510c9.33301 8 23.333 12 42 12c52 0 84.667 -14.667 98 -44l574 -1452c4 -8 6 -21.333 6 -40c0 -36 -15.333 -57.333 -46 -64l-48 4z" />
    <glyph glyph-name="bracketright" unicode="]" horiz-adv-x="722" 
d="M114 1474c0 16 3.33398 23.999 10.001 23.999h2c104 -12 210.667 -18 320 -18c24 0 36 -15.333 36 -46v-1592c0 -30.667 -12 -46 -36 -46c-48 0 -98 -2 -150 -6s-92 -8 -120 -12l-42 -6c-8 1.33301 -12 9.33301 -12 24c0 13.333 4 26.666 12 39.999l18 16
c61.333 22.667 128 34 200 34c4 0 7 1.33301 9 4s3 5.33398 3 8.00098l2 4v1472c-1.33301 10.667 -6 16 -14 16c-32 0 -65 1.66699 -99 5s-59.667 7 -77 11l-26 6l-2 2c-2.66699 1.33301 -5.33398 3 -8.00098 5s-5.66699 4.66699 -9 8s-6 7 -8 11s-4 9.33301 -6 16
s-3 13.334 -3 20.001z" />
    <glyph glyph-name="asciicircum" unicode="^" horiz-adv-x="890" 
d="M142 998c1.33301 4 18.001 21.0029 50.001 51.0029s70 72.333 114 127s80.667 114 110 178c8 17.333 14.667 26 20 26c12 0 21.667 -3.66699 29 -11s13.666 -17.333 18.999 -30s17.333 -34.334 36 -65.001s40.667 -63.334 66 -98.001c13.333 -17.333 33.333 -40 60 -68
l71 -73c20.667 -20.667 31.667 -32.334 33 -35.001c0 -6.66699 -2.66699 -16.667 -8 -30s-11.333 -20 -18 -20c-16 0 -55 26.667 -117 80s-116.333 108 -163 164c-42.667 -54.667 -95 -109 -157 -163s-101.667 -81 -119 -81c-5.33301 0 -10.333 4 -15 12s-7.66699 16 -9 24z
" />
    <glyph glyph-name="underscore" unicode="_" horiz-adv-x="936" 
d="M0 -66c6.66699 61.333 16.667 92 30 92h898c5.33301 0 8 -3.33301 8 -10c0 -10.667 -6.66699 -40.667 -20 -90c-1.33301 -4 -3 -7 -5 -9s-3.66699 -3 -5 -3h-2h-890c-9.33301 0 -14 6.66699 -14 20z" />
    <glyph glyph-name="grave" unicode="`" horiz-adv-x="654" 
d="M208 1326c0 5.33301 1.66699 11 5 17s11.666 12.667 24.999 20s30.666 11 51.999 11c33.333 0 56 -6 68 -18c22.667 -26.667 49.334 -62 80.001 -106s56 -82.333 76 -115s30 -51 30 -55c0 -17.333 -8 -26 -24 -26c-17.333 0 -73.666 37 -168.999 111
s-143 127.667 -143 161z" />
    <glyph glyph-name="a" unicode="a" horiz-adv-x="846" 
d="M78 182c0 29.333 7.33398 57 22.001 83s32 47.333 52 64s47.333 33.667 82 51s64.334 30.333 89.001 39l97 33c40 13.333 68 23.333 84 30c12 4 18 14 18 30v150c0 42.667 -13.333 75.667 -40 99s-58.667 35 -96 35c-40 0 -73.333 -13.667 -100 -41s-40 -63 -40 -107
c0 -46.667 -27.333 -70 -82 -70c-37.333 0 -63.333 12.667 -78 38c0 57.333 42 114.333 126 171s169.333 85 256 85c73.333 0 126 -17.667 158 -53s48 -92.333 48 -171v-462c0 -28 7.33301 -51.333 22 -70s34.667 -28 60 -28c18.667 0 42 9.33301 70 28
c5.33301 0 8 -5.33301 8 -16c0 -17.333 -3.33301 -31.333 -10 -42c-54.667 -46.667 -101.334 -70 -140.001 -70c-30.667 0 -60 12.667 -88 38s-47.333 52 -58 80c-1.33301 0 -6.33301 -4.33301 -15 -13s-20.334 -18.667 -35.001 -30s-31.667 -23 -51 -35s-42 -22 -68 -30
s-52.333 -12 -79 -12c-61.333 0 -112 16.333 -152 49s-60 81.667 -60 147zM246.001 212c0 -36 11.332 -63.668 33.999 -83.001s52 -29 88 -29s70.667 11 104 33s50 44.333 50 67v206c-10.667 -5.33301 -36.667 -14.666 -78 -27.999s-73.666 -25 -96.999 -35
s-46 -26.667 -68 -50s-33 -50.333 -33 -81z" />
    <glyph glyph-name="b" unicode="b" horiz-adv-x="998" 
d="M14 1280c0 21.333 4.00195 31.999 12.002 31.999c40 4 77 9.33301 111 16s60.667 13.334 80 20.001s35.666 13 48.999 19s23.333 11 30 15l8 6h4c5.33301 0 10.666 -3.66699 15.999 -11s8.66602 -14.333 9.99902 -21c-14.667 -42.667 -22 -100.667 -22 -174v-350
c0 -14.667 2 -22 6 -22c1.33301 0 3.33301 0.666992 6 2c18.667 13.333 47.334 27.333 86.001 42s72.667 22 102 22c128 0 228.333 -43.667 301 -131s109 -180.333 109 -279c0 -126.667 -47 -238 -141 -334s-197.667 -144 -311 -144c-49.333 0 -96.333 4.33301 -141 13
s-70.334 13 -77.001 13c-12 0 -27 -3.66699 -45 -11s-28.333 -11 -31 -11c-5.33301 0 -13.666 2 -24.999 6s-17 8.66699 -17 14c0 1.33301 2 12.333 6 33s8 51 12 91s6 84.667 6 134v828c0 45.333 -4 88 -12 128c-6.66699 21.333 -40.667 32 -102 32h-18
c-8 0 -12 7.33301 -12 22zM312.002 191.999c0 -41.333 19.667 -71.665 59 -90.998s85 -29 137 -29c76 0 135.333 36 178 108s64 153.333 64 244c0 105.333 -27.667 190.666 -83 255.999s-128.333 98 -219 98c-37.333 0 -69.333 -10.333 -96 -31s-40 -50.334 -40 -89.001
v-466z" />
    <glyph glyph-name="c" unicode="c" horiz-adv-x="810" 
d="M74 418c0 122.667 33.333 229.003 100 319.003s162.667 135 288 135c146.667 0 248 -34 304 -102c0 -89.333 -24.667 -134 -74 -134c-22.667 0 -40 5 -52 15s-27.333 28.333 -46 55c-41.333 61.333 -90.666 92 -147.999 92c-54.667 0 -104.334 -26 -149.001 -78
s-67 -129.333 -67 -232c0 -106.667 26.333 -195.334 79 -266.001s125.667 -106 219 -106c28 0 54.667 2.66699 80 8s47 11.666 65 18.999s33.333 14.666 46 21.999s23.667 14.333 33 21l14 10c8 0 12 -8.66699 12 -26c0 -10.667 -4 -22.667 -12 -36
c-26.667 -37.333 -66 -71 -118 -101s-108.667 -45 -170 -45c-110.667 0 -205.667 41.667 -285 125s-119 185 -119 305z" />
    <glyph glyph-name="d" unicode="d" horiz-adv-x="994" 
d="M76 392c0 129.333 45.6719 242.998 137.005 340.998s194.333 147 309 147c57.333 0 107.333 -11.333 150 -34c9.33301 0 14 12 14 36v216c0 45.333 -4 88 -12 128c-6.66699 21.333 -40.667 32 -102 32h-18c-8 0 -12 7.33301 -12 22c0 21.333 4 32 12 32
c40 4 77 9.33301 111 16s60.667 13.334 80 20.001s35.666 13 48.999 19s23.333 11 30 15l8 6h4c5.33301 0 10.666 -3.66699 15.999 -11s8.66602 -14.333 9.99902 -21c-14.667 -42.667 -22 -100.667 -22 -174v-900c0 -64 4 -114.667 12 -152
c2.66699 -9.33301 10 -16.666 22 -21.999s24.333 -8.66602 37 -9.99902s25 -2 37 -2l18 -2c4 -1.33301 6 -9.33301 6 -24c0 -20 -4 -30 -12 -30c-20 -1.33301 -42.333 -4 -67 -8s-48 -8.33301 -70 -13s-42.333 -9.33398 -61 -14.001s-34 -9 -46 -13l-18 -4
c-8 0 -12 11.333 -12 34v24c0 8 -2.66699 10.667 -8 8c-74.667 -41.333 -145.334 -62 -212.001 -62c-110.667 0 -203.334 39.333 -278.001 118s-112 172.667 -112 282zM248.005 449.998c0 -97.333 26.001 -181.668 78.001 -253.001s124 -107 216 -107
c45.333 0 80.666 10.333 105.999 31s38 48.334 38 83.001v476c0 28 -15 54.333 -45 79s-78.333 37 -145 37c-77.333 0 -138 -34.667 -182 -104s-66 -150 -66 -242z" />
    <glyph glyph-name="e" unicode="e" horiz-adv-x="860" 
d="M74 418c0 140 37.667 250.669 113 332.002s169.666 122 282.999 122c61.333 0 115.333 -11.667 162 -35s82.334 -53.333 107.001 -90s42.667 -74 54 -112s17 -75.667 17 -113c0 -26.667 -4 -43 -12 -49s-23.333 -9 -46 -9h-504c-10.667 0 -16 -3.33301 -16 -10
c0 -84 25.333 -161.333 76 -232s124 -106 220 -106c28 0 54.667 2.66699 80 8s47 11.666 65 18.999s33.333 14.666 46 21.999s23.667 14.333 33 21l14 10c8 0 12 -8.66699 12 -26c0 -10.667 -4 -22.667 -12 -36c-26.667 -37.333 -66 -71 -118 -101s-108.667 -45 -170 -45
c-110.667 0 -205.667 41.667 -285 125s-119 185 -119 305zM236 562.002c0 -9.33301 4 -14 12 -14h390c6.66699 0 10 6.66699 10 20c0 42.667 -18 91.667 -54 147s-84 83 -144 83c-69.333 0 -122.333 -29.667 -159 -89s-55 -108.333 -55 -147z" />
    <glyph glyph-name="f" unicode="f" horiz-adv-x="602" 
d="M54 13c-0.666992 4.66699 -1 9.33301 -1 14s0.333008 9 1 13c1.33301 8 3.33301 12 6 12c16 0 38.667 4.33301 68 13s45.333 17.667 48 27c13.333 52 20 111.333 20 178v460c0 9.33301 -3.33301 14 -10 14h-106c-4 0 -6 4 -6 12c0 12 10.667 28.667 32 50s44 32 68 32h12
c6.66699 0 10 4 10 12v26c0 140 41.667 260.667 125 362s174.333 152 273 152c96 0 159.333 -26 190 -78c0 -84 -24 -126 -72 -126c-17.333 0 -34 10.333 -50 31s-34.333 41.667 -55 63s-45.667 32 -75 32c-58.667 0 -104 -36 -136 -108s-48 -156.667 -48 -254v-102
c0 -6.66699 3.33301 -10 10 -10h222c6.66699 0 10 -4.66699 10 -14c0 -21.333 -8 -48 -24 -80h-206c-8 0 -12 -4 -12 -12v-462c0 -72 6 -131.333 18 -178c2.66699 -9.33301 19 -18.333 49 -27s51 -13 63 -13c4 0 6.66699 -8 8 -24s0.666016 -27.333 -2.00098 -34
c-133.333 6.66699 -204.666 10 -213.999 10c-4 0 -74 -3.33301 -210 -10c-2.66699 2.66699 -4.66699 9 -6 19z" />
    <glyph glyph-name="g" unicode="g" horiz-adv-x="948" 
d="M58 -232c0 82.667 65.333 153.333 196 212c-36 5.33301 -69.333 22 -100 50s-46 62 -46 102c0 34.667 15 70.667 45 108s63.667 68 101 92c-40 14.667 -77 46.334 -111 95.001s-51 101 -51 157c0 78.667 33 145 99 199s147 81 243 81c49.333 0 106 -8.66699 170 -26
s116.667 -26 158 -26h116c8 -2.66699 12 -19.334 12 -50.001c0 -18.667 -4 -28 -12 -28h-142c-5.33301 0 -8 -2 -8 -6l20 -48c14.667 -32 22 -64 22 -96c0 -72 -32 -136.667 -96 -194s-142.667 -86 -236 -86c-42.667 0 -80 2.66699 -112 8
c-17.333 -9.33301 -35.666 -26 -54.999 -50s-29 -45.333 -29 -64s5.33301 -33.667 16 -45s26 -19.333 46 -24s39.333 -8 58 -10s40.667 -3 66 -3h14c165.333 -2.66699 281.333 -19.667 348 -51s100 -78.333 100 -141c0 -102.667 -43.333 -191 -130 -265
s-198 -111.667 -334 -113h-10c-90.667 0 -172.334 18 -245.001 54c-75.333 37.333 -113 93.333 -113 168zM198 -188.001c0 -57.333 29.6689 -103.665 89.002 -138.998s125 -53 197 -53c80 0 145.667 21.333 197 64s77 91.334 77 146.001c0 56 -27.333 93.667 -82 113
s-163.334 29 -326.001 29c-2.66699 0 -6.66699 -1.33301 -12 -4c-1.33301 -1.33301 -7.33301 -4.33301 -18 -9s-17.334 -7.66699 -20.001 -9s-8.66699 -5 -18 -11l-19 -12c-3.33301 -2 -9 -6 -17 -12s-13.333 -11.333 -16 -16s-6.66699 -10.334 -12 -17.001
s-9 -13.334 -11 -20.001s-4 -14.334 -6 -23.001s-3 -17.667 -3 -27zM246.002 592c0 -61.333 19 -113.333 57 -156s82.333 -64 133 -64c52 0 95 20 129 60s51 88 51 144c0 61.333 -19 113.333 -57 156s-82.333 64 -133 64c-52 0 -95 -20 -129 -60s-51 -88 -51 -144z" />
    <glyph glyph-name="h" unicode="h" horiz-adv-x="1060" 
d="M36 27c0 16.667 2.66895 24.998 8.00195 24.998c16 0 39.667 4.33301 71 13s48.333 17.667 51 27c9.33301 38.667 14 84.667 14 138v868c0 45.333 -4 88 -12 128c-6.66699 21.333 -40.667 32 -102 32h-18c-8 0 -12 7.33301 -12 22c0 21.333 4 32 12 32
c40 4 77 9.33301 111 16s60.667 13.334 80 20.001s35.666 13 48.999 19s22.666 11 27.999 15l10 6h4c5.33301 0 10.666 -3.66699 15.999 -11s8.66602 -14.333 9.99902 -21c-14.667 -42.667 -22 -100.667 -22 -174v-438c0 -5.33301 1.33301 -8 4 -8
c1.33301 0 3.33301 1.33301 6 4c29.333 32 71 62.667 125 92s105.667 44 155 44c89.333 0 153.333 -32 192 -96s58 -162.667 58 -296v-216c0 -76 5.33301 -134.667 16 -176c2.66699 -9.33301 20 -18.333 52 -27s54.667 -13 68 -13c4 0 6.66699 -8 8 -24
c0.666992 -5.33301 1 -10 1 -14c0 -8.66699 -1 -15.334 -3 -20.001c-133.333 6.66699 -204.666 10 -213.999 10c-4 0 -74 -3.33301 -210 -10c-5.33301 5.33301 -8 16.333 -8 33s2.66699 25 8 25c16 0 38.333 4.33301 67 13s44.334 17.667 47.001 27
c9.33301 38.667 14 85.334 14 140.001v212c0 122.667 -17 205 -51 247s-86.333 63 -157 63c-40 0 -79.667 -15.667 -119 -47s-59 -59 -59 -83v-354c0 -77.333 5.33301 -136.666 16 -177.999c2.66699 -9.33301 20 -18.333 52 -27s54.667 -13 68 -13c4 0 6.66699 -8 8 -24
s0.666016 -27.333 -2.00098 -34c-133.333 6.66699 -204.666 10 -213.999 10c-8 0 -80.667 -3.33301 -218 -10c-5.33301 5.33301 -8 16.333 -8 33z" />
    <glyph glyph-name="i" unicode="i" horiz-adv-x="538" 
d="M64 27c0 16.667 2.66602 24.999 7.99902 24.999c16 0 39.667 4.33301 71 13s48.333 17.667 51 27c9.33301 38.667 14 85.334 14 140.001v378c0 52 -9.33301 88 -28 108c-13.333 16 -29.666 27 -48.999 33s-35.333 9 -48 9s-19 1.33301 -19 4c0 32 4 48.667 12 50
c141.333 21.333 233.333 38.666 276 51.999l4 2h6c5.33301 0 8.66602 -5.66699 9.99902 -17s1.33301 -19.666 0 -24.999c-6.66699 -53.333 -10 -101.333 -10 -144v-412c0 -77.333 5.33301 -136.666 16 -177.999c2.66699 -9.33301 20 -18.333 52 -27s54.667 -13 68 -13
c4 0 6.66699 -8 8 -24c0.666992 -5.33301 1 -10 1 -14c0 -8.66699 -1 -15.334 -3 -20.001c-133.333 6.66699 -204.666 10 -213.999 10s-82 -3.33301 -218 -10c-5.33301 5.33301 -8 16.333 -8 33zM169.999 1186c0 28 9.66699 51.667 29 71s43 29 71 29
s51.667 -9.66699 71 -29s29 -43 29 -71s-9.66699 -51.667 -29 -71s-43 -29 -71 -29s-51.667 9.66699 -71 29s-29 43 -29 71z" />
    <glyph glyph-name="j" unicode="j" horiz-adv-x="476" 
d="M-48 -418l23.999 12.0039c16 8 34.333 22 55 42s41.667 46.667 63 80s39.333 82.666 54 147.999s22 140.666 22 225.999v520c0 52 -9.33301 88 -28 108c-13.333 16 -29.666 27 -48.999 33s-35.333 9 -48 9s-19 1.33301 -19 4c0 32 4 48.667 12 50
c141.333 21.333 233.333 38.666 276 51.999c1.33301 0 3.33301 0.333008 6 1l4 1c5.33301 0 8.66602 -5.66699 9.99902 -17c0.666992 -6 1 -11 1 -15s-0.333008 -7.33301 -1 -10c-6.66699 -53.333 -10 -101.333 -10 -144v-546c0 -169.333 -26 -294.666 -78 -375.999
c-33.333 -52 -75.666 -98 -126.999 -138s-98.333 -68 -141 -84c-12 8 -20.667 18 -26 30c-1.33301 3.33301 -2 6.16602 -2 8.49902s0.666992 4.16602 2 5.49902zM117.999 1186c0 28 9.66699 51.667 29 71s43 29 71 29s51.667 -9.66699 71 -29s29 -43 29 -71
s-9.66699 -51.667 -29 -71s-43 -29 -71 -29s-51.667 9.66699 -71 29s-29 43 -29 71z" />
    <glyph glyph-name="k" unicode="k" horiz-adv-x="992" 
d="M28 27c0 16.667 2.66895 25 8.00195 25c16 0 39.667 4.33301 71 13s48.333 17.667 51 27c9.33301 38.667 14 85.334 14 140.001v866c0 45.333 -4 88 -12 128c-6.66699 21.333 -40.667 32 -102 32h-18c-8 0 -12 7.33301 -12 22c0 21.333 4 32 12 32
c40 4 77 9.33301 111 16s60.667 13.334 80 20.001s35.666 13 48.999 19s22.666 11 27.999 15l10 6h4c5.33301 0 10.666 -3.66699 15.999 -11s8.66602 -14.333 9.99902 -21c-14.667 -42.667 -22 -100.667 -22 -174v-700c28 6.66699 44.667 12.667 50 18l92 78l72 60l46 40
c14.667 13.333 24.667 24 30 32s8 16 8 24c0 16 -14.667 25.333 -44 28s-44.666 5.33398 -45.999 8.00098c-9.33301 26.667 -8.66602 42 2.00098 46h158c20 0 41 0.666992 63 2s48 2.66602 78 3.99902s56.333 2.66602 79 3.99902c5.33301 -2.66699 8.33301 -8.66699 9 -18
s-0.333008 -18 -3 -26s-5.33398 -12 -8.00098 -12c-17.333 0 -42 -4 -74 -12s-53.333 -15.333 -64 -22c-22.667 -13.333 -66 -45 -130 -95s-119.333 -99 -166 -147l142 -157l138 -154c36 -39.333 60.667 -65 74 -77c22.667 -18.667 51.334 -33 86.001 -43
s59.334 -15 74.001 -15c5.33301 0 8 -10.667 8 -32c0 -12 -0.666992 -19.333 -2 -22c-133.333 6.66699 -206 10 -218 10c-2.66699 0 -72 -3.33301 -208 -10c-5.33301 5.33301 -8 15.666 -8 30.999s2.66699 23 8 23c13.333 0 28.666 2.66699 45.999 8s26 11.333 26 18
c0 2.66699 -0.666992 4.66699 -2 6l-292 316l-24 -6v-120c2.66699 -88 8 -147.333 16 -178c2.66699 -9.33301 20 -18.333 52 -27s54.667 -13 68 -13c4 0 6.66699 -8 8 -24s0.666016 -27.333 -2.00098 -34c-133.333 6.66699 -204.666 10 -213.999 10
c-8 0 -80.667 -3.33301 -218 -10c-5.33301 5.33301 -8 16.333 -8 33z" />
    <glyph glyph-name="l" unicode="l" horiz-adv-x="502" 
d="M30 27c0 16.667 2.66895 24.998 8.00195 24.998c16 0 39.667 4.33301 71 13s48.333 17.667 51 27c9.33301 38.667 14 85.334 14 140.001v866c0 45.333 -4 88 -12 128c-6.66699 21.333 -40.667 32 -102 32h-18c-8 0 -12 7.33301 -12 22c0 21.333 4 32 12 32
c40 4 77 9.33301 111 16s60.667 13.334 80 20.001s35.666 13 48.999 19s23.333 11 30 15l8 6h4c5.33301 0 10.666 -3.66699 15.999 -11s8.66602 -14.333 9.99902 -21c-14.667 -42.667 -22 -100.667 -22 -174v-912c0 -77.333 5.33301 -136.666 16 -177.999
c2.66699 -9.33301 20 -18.333 52 -27s54.667 -13 68 -13c4 0 6.66699 -8 8 -24c0.666992 -5.33301 1 -10 1 -14c0 -8.66699 -1 -15.334 -3 -20.001c-133.333 6.66699 -204.666 10 -213.999 10c-8 0 -80.667 -3.33301 -218 -10c-5.33301 5.33301 -8 16.333 -8 33z" />
    <glyph glyph-name="m" unicode="m" horiz-adv-x="1600" 
d="M54 27c0 16.667 2.66699 24.9961 8 24.9961c16 0 39.667 4.33301 71 13s48.333 17.667 51 27c9.33301 38.667 14 85.334 14 140.001v378c0 52 -9.33301 88 -28 108c-13.333 16 -29.666 27 -48.999 33s-35.333 9 -48 9s-19 1.33301 -19 4c0 32 4 48.667 12 50
c141.333 21.333 233.333 38.666 276 51.999c1.33301 0 3.33301 0.333008 6 1l4 1c5.33301 0 8.66602 -5.66699 9.99902 -17s1.33301 -19.666 0 -24.999c-5.33301 -37.333 -8 -64 -8 -80c0 -5.33301 1.33301 -8 4 -8c1.33301 0 3.33301 1.33301 6 4
c30.667 32 72.334 62.333 125.001 91s103 43 151 43c53.333 0 97.666 -14.333 132.999 -43s59.666 -61.667 72.999 -99c100 94.667 203.333 142 310 142c168 0 252 -128 252 -384v-222c0 -77.333 5.33301 -136.666 16 -177.999c2.66699 -9.33301 20 -18.333 52 -27
s54.667 -13 68 -13c4 0 6.66699 -8 8 -24c0.666992 -5.33301 1 -10 1 -14c0 -8.66699 -1 -15.334 -3 -20.001c-133.333 6.66699 -204.666 10 -213.999 10c-8 0 -80.667 -3.33301 -218 -10c-5.33301 5.33301 -8 16.333 -8 33s2.66699 25 8 25c16 0 39.667 4.33301 71 13
s48.333 17.667 51 27c9.33301 38.667 14 81.334 14 128.001v226c0 205.333 -67.333 308 -202 308c-49.333 0 -92 -14.333 -128 -43s-54 -52.334 -54 -71.001l2 -8v-10c5.33301 -33.333 8 -81.333 8 -144v-226c0 -65.333 5.33301 -118.666 16 -159.999
c2.66699 -9.33301 20 -18.333 52 -27s54.667 -13 68 -13c4 0 6.66699 -8 8 -24s0.666016 -27.333 -2.00098 -34c-133.333 6.66699 -204.666 10 -213.999 10c-8 0 -80.667 -3.33301 -218 -10c-5.33301 5.33301 -8 16.333 -8 33s2.66699 25 8 25c16 0 39.667 4.33301 71 13
s48.333 17.667 51 27c9.33301 38.667 14 85.334 14 140.001v204c0 212 -64 318 -192 318c-40 0 -80.333 -15 -121 -45s-61 -59 -61 -87v-352c0 -77.333 5.33301 -136.666 16 -177.999c2.66699 -9.33301 20 -18.333 52 -27s54.667 -13 68 -13c4 0 6.66699 -8 8 -24
s0.666016 -27.333 -2.00098 -34c-133.333 6.66699 -204.666 10 -213.999 10c-8 0 -80.667 -3.33301 -218 -10c-5.33301 5.33301 -8 16.333 -8 33z" />
    <glyph glyph-name="n" unicode="n" horiz-adv-x="1086" 
d="M58 27c0 16.667 2.66504 24.9961 7.99805 24.9961c16 0 39.667 4.33301 71 13s48.333 17.667 51 27c9.33301 38.667 14 85.334 14 140.001v378c0 52 -9.33301 88 -28 108c-13.333 16 -29.666 27 -48.999 33s-35.333 9 -48 9s-19 1.33301 -19 4c0 32 4 48.667 12 50
c141.333 21.333 233.333 38.666 276 51.999c1.33301 0 3.33301 0.333008 6 1l4 1c5.33301 0 8.66602 -5.66699 9.99902 -17s1.33301 -19.666 0 -24.999c-5.33301 -37.333 -8 -64 -8 -80c0 -5.33301 1.33301 -8 4 -8c1.33301 0 3.33301 1.33301 6 4
c30.667 32 72.334 62.333 125.001 91s103 43 151 43c93.333 0 158.666 -33.333 195.999 -100s56 -174.667 56 -324v-182c0 -77.333 5.33301 -136.666 16 -177.999c2.66699 -9.33301 20 -18.333 52 -27s54.667 -13 68 -13c4 0 6.66699 -8 8 -24
c0.666992 -5.33301 1 -10 1 -14c0 -8.66699 -1 -15.334 -3 -20.001c-133.333 6.66699 -204.666 10 -213.999 10c-2.66699 0 -72.667 -3.33301 -210 -10c-5.33301 5.33301 -8 16.333 -8 33s2.66699 25 8 25c16 0 38.333 4.33301 67 13s44.334 17.667 47.001 27
c9.33301 38.667 14 85.334 14 140.001v200c0 124 -16 208.667 -48 254s-84 68 -156 68c-42.667 0 -83.667 -15.667 -123 -47s-59 -59.666 -59 -84.999v-352c0 -77.333 5.33301 -136.666 16 -177.999c2.66699 -9.33301 20 -18.333 52 -27s54.667 -13 68 -13
c4 0 6.66699 -8 8 -24s0.666016 -27.333 -2.00098 -34c-133.333 6.66699 -204.666 10 -213.999 10c-8 0 -80.667 -3.33301 -218 -10c-5.33301 5.33301 -8 16.333 -8 33z" />
    <glyph glyph-name="o" unicode="o" horiz-adv-x="1020" 
d="M74 432c0 124 41.3311 228.667 123.998 314s186 128 310 128c120 0 222.667 -43.333 308 -130s128 -190.667 128 -312c0 -122.667 -41.667 -227.667 -125 -315s-185.666 -131 -306.999 -131s-224.666 43.667 -309.999 131s-128 192.333 -128 315zM245.998 462
c0 -109.333 28.334 -203 85.001 -281s123 -117 199 -117c70.667 0 128.667 33.333 174 100s68 146.667 68 240c0 108 -28.667 200.333 -86 277s-124 115 -200 115c-70.667 0 -128.334 -32.333 -173.001 -97s-67 -143.667 -67 -237z" />
    <glyph glyph-name="p" unicode="p" horiz-adv-x="1022" 
d="M34 -419c0 16.667 2.66699 25 8 25c16 0 39.667 4.33301 71 13s48.333 17.667 51 27c9.33301 38.667 14 85.334 14 140.001v826c0 52 -9.33301 88 -28 108c-13.333 16 -29.666 27 -48.999 33s-35.333 9 -48 9s-19 1.33301 -19 4c0 32 4 48.667 12 50
c141.333 21.333 233.333 38.666 276 51.999c1.33301 0 3.33301 0.333008 6 1l4 1c4 0 6 -3.66699 6 -11s-0.666992 -16.333 -2 -27s-2 -16.667 -2 -18v-12c18.667 13.333 49.667 28.333 93 45s80.333 25 111 25c128 0 228 -43 300 -129s108 -177.667 108 -275
c0 -128 -44.667 -240.667 -134 -338s-190.666 -146 -303.999 -146c-20 0 -37.667 0.666992 -53 2s-29 3.66602 -41 6.99902s-21.333 6.33301 -28 9s-15.334 6.33398 -26.001 11.001s-17.334 7.66699 -20.001 9c-5.33301 -6.66699 -8 -15.334 -8 -26.001v-172
c0 -77.333 5.33301 -136.666 16 -177.999c2.66699 -9.33301 20 -18.333 52 -27s54.667 -13 68 -13c4 0 6.66699 -8.33301 8 -25s0.666016 -27.667 -2.00098 -33c-133.333 6.66699 -204.666 10 -213.999 10c-8 0 -80.667 -3.33301 -218 -10c-5.33301 5.33301 -8 16.333 -8 33
zM332 196c0 -36 19.3311 -66.333 57.998 -91s80.667 -37 126 -37c78.667 0 141.334 35.333 188.001 106s70 150 70 238c0 112 -29.667 200.333 -89 265s-129.666 97 -210.999 97c-41.333 0 -75.333 -11 -102 -33s-40 -53.667 -40 -95v-450z" />
    <glyph glyph-name="q" unicode="q" horiz-adv-x="978" 
d="M76 406c0 117.333 45.6641 225.664 136.997 324.997s197 149 317 149c49.333 0 97.333 -3.66699 144 -11s73.334 -11 80.001 -11c12 0 27 2.66699 45 8s28.333 8 31 8c4 0 12 -2 24 -6s18 -8.66699 18 -14c0 -1.33301 -2.66699 -13.333 -8 -36
s-10.666 -54.667 -15.999 -96s-8 -86.666 -8 -135.999v-788c0 -61.333 5.33301 -112.666 16 -153.999c2.66699 -9.33301 20 -18.333 52 -27s54.667 -13 68 -13c4 0 6.66699 -8 8 -24c0.666992 -5.33301 1 -10 1 -14c0 -8.66699 -1 -15.334 -3 -20.001
c-133.333 6.66699 -204.666 10 -213.999 10c-8 0 -80.667 -3.33301 -218 -10c-5.33301 5.33301 -8 16.333 -8 33s2.66699 25 8 25c16 0 39.667 4.33301 71 13s48.333 17.667 51 27c9.33301 38.667 14 85.334 14 140.001v248c0 6.66699 -1 12.334 -3 17.001
s-5.66699 5.66699 -11 3c-80 -40 -144 -60 -192 -60c-116 0 -212.333 42 -289 126s-115 180 -115 288zM247.997 451.998c0 -118.667 29.333 -208.667 88 -270s130 -92 214 -92c30.667 0 61 9 91 27s45 49 45 93v464c0 36 -16.667 65.333 -50 88s-80 34 -140 34
c-58.667 0 -107.667 -20.667 -147 -62s-66 -86.333 -80 -135s-21 -97.667 -21 -147z" />
    <glyph glyph-name="r" unicode="r" horiz-adv-x="760" 
d="M66 27c0 16.667 2.66699 24.999 8 24.999c16 0 39.667 4.33301 71 13s48.333 17.667 51 27c9.33301 38.667 14 85.334 14 140.001v378c0 52 -9.33301 88 -28 108c-13.333 16 -29.666 27 -48.999 33s-35.333 9 -48 9s-19 1.33301 -19 4c0 32 4 48.667 12 50
c141.333 21.333 233.333 38.666 276 51.999c1.33301 0 3.33301 0.333008 6 1l4 1c5.33301 0 8.66602 -5.66699 9.99902 -17s1.33301 -19.666 0 -24.999l-12 -100c24 36 57 69.667 99 101s83.667 47 125 47c78.667 0 130.667 -19.333 156 -58
c0 -46.667 -7.33301 -80.667 -22 -102s-32.667 -32 -54 -32c-24 0 -46 11.333 -66 34s-47.333 34 -82 34c-41.333 0 -77.333 -19.333 -108 -58s-46 -79.334 -46 -122.001v-300c0 -77.333 5.33301 -136.666 16 -177.999c2.66699 -9.33301 20.334 -18.333 53.001 -27
s55.667 -13 69 -13c4 0 6.66699 -8 8 -24s0.666016 -27.333 -2.00098 -34c-133.333 6.66699 -205.333 10 -216 10c-8 0 -80.667 -3.33301 -218 -10c-5.33301 5.33301 -8 16.333 -8 33z" />
    <glyph glyph-name="s" unicode="s" horiz-adv-x="718" 
d="M82 224c10.667 8 18.6689 12.0039 24.002 12.0039c20 0 30.667 -4 32 -12c8 -40 33 -79 75 -117s87.667 -57 137 -57c42.667 0 77.667 11.667 105 35s41 57 41 101c0 22.667 -4.33301 43.667 -13 63s-22.667 36.666 -42 51.999s-37.333 28 -54 38s-40.334 23 -71.001 39
s-53.334 28.667 -68.001 38c-104 60 -156 131.333 -156 214c0 72 29 130.667 87 176s125.667 68 203 68c29.333 0 66.333 -3.66699 111 -11l93 -15c13.333 -61.333 21.333 -129.333 24 -204c0 -6.66699 -8.66699 -10 -26 -10c-18.667 0 -28.667 4.66699 -30 14
c-6.66699 37.333 -25.667 72.666 -57 105.999s-67 50 -107 50c-96 0 -144 -39.333 -144 -118c0 -20 2.66699 -37.667 8 -53s15.666 -30 30.999 -44s27 -24 35 -30s25.667 -16.667 53 -32s44.333 -25 51 -29c5.33301 -2.66699 21 -11.667 47 -27l55 -33
c10.667 -6.66699 26.334 -18 47.001 -34s35.667 -30.333 45 -43s18.333 -28.667 27 -48s13 -39 13 -59c0 -78.667 -30.667 -144.334 -92 -197.001s-133.333 -79 -216 -79c-28 0 -53.667 1.66699 -77 5s-51 9 -83 17s-56.667 13.333 -74 16
c-8 21.333 -15.667 54.666 -23 99.999s-11 81.333 -11 108z" />
    <glyph glyph-name="t" unicode="t" horiz-adv-x="628" 
d="M34 790c0 8 0.666992 12.668 2 14.001c38.667 17.333 80.667 52.666 126 105.999c14.667 17.333 29 37 43 59s25.667 41 35 57s14 24.667 14 26c40 0 60 -3.33301 60 -10v-198c34.667 0 87.334 -0.333008 158.001 -1s108 -1 112 -1c10.667 0 16 -6 16 -18
c0 -24 -6.66699 -49.333 -20 -76h-266v-490c0 -53.333 13.667 -96 41 -128s63 -48 107 -48c40 0 81.333 12.667 124 38c4 2.66699 10 -3 18 -17c6.66699 -12 10 -19.333 10 -22c0 -12 -30.667 -33.333 -92 -64c-41.333 -20.667 -84 -31 -128 -31
c-66.667 0 -122.334 22 -167.001 66s-67 106.667 -67 188v508h-116c-6.66699 0 -10 14 -10 42z" />
    <glyph glyph-name="u" unicode="u" horiz-adv-x="1034" 
d="M58 764c0 32 4.00195 48.6631 12.002 49.9961c141.333 21.333 233.333 38.666 276 51.999c1.33301 0 3.33301 0.333008 6 1l4 1c5.33301 0 8.66602 -5.66699 9.99902 -17s1.33301 -19.666 0 -24.999c-8 -64 -12 -113.333 -12 -148v-270
c0 -102.667 15.333 -178.334 46 -227.001s80.667 -73 150 -73c40 0 78 15.667 114 47s54 58.333 54 81v374c0 52 -9.33301 88 -28 108c-13.333 16 -29.666 27 -48.999 33s-35.333 9 -48 9s-19 1.33301 -19 4c0 32 4 48.667 12 50c141.333 21.333 233.333 38.666 276 51.999
c1.33301 0 3.33301 0.333008 6 1l4 1c5.33301 0 8.66602 -5.66699 9.99902 -17s1.33301 -19.666 0 -24.999c-8 -64 -12 -112 -12 -144v-400c0 -57.333 4.66699 -108 14 -152c2.66699 -9.33301 10 -16.666 22 -21.999s24.667 -8.66602 38 -9.99902s26.666 -2 39.999 -2l18 -2
c4 -1.33301 6 -8.66602 6 -21.999c0 -4 -1.66699 -10.333 -5 -19s-7 -13 -11 -13c-20 -1.33301 -42.333 -4 -67 -8s-47.667 -8.66699 -69 -14s-41.333 -10.666 -60 -15.999s-33.334 -10 -44.001 -14l-18 -4c-10.667 0 -16 10.667 -16 32v102l-4 10
c-88 -94.667 -175.333 -142 -262 -142c-49.333 0 -91.666 12.333 -126.999 37s-61.333 57.334 -78 98.001s-28.334 80 -35.001 118s-10 77.667 -10 119v252c0 52 -9.33301 88 -28 108c-13.333 16 -29.666 27 -48.999 33s-35.333 9 -48 9s-19 1.33301 -19 4z" />
    <glyph glyph-name="v" unicode="v" horiz-adv-x="986" 
d="M-4 836c0 16 2.66895 26.668 8.00195 32.001c137.333 -6.66699 206.666 -10 207.999 -10l200 10c2.66699 -5.33301 3 -16.333 1 -33s-5 -25 -9 -25c-65.333 0 -98 -11.333 -98 -34c0 -2.66699 0.666992 -5.33398 2 -8.00098l240 -542l202 460
c10.667 25.333 16 45.333 16 60c0 42.667 -48 64 -144 64c-5.33301 0 -8 8.33301 -8 25s2.66699 27.667 8 33c14.667 -1.33301 42 -3.33301 82 -6s76 -4 108 -4l200 10c2.66699 -8 4 -18 4 -30c0 -18.667 -4.66699 -28 -14 -28c-18.667 0 -43.334 -5.33301 -74.001 -16
s-51.334 -28 -62.001 -52l-318 -718c-2.66699 -9.33301 -10.667 -19.333 -24 -30s-24.666 -16 -33.999 -16s-15.333 2.66699 -18 8c-22.667 49.333 -72.334 164 -149.001 344s-143.667 326.667 -201 440c-13.333 26.667 -52.666 40 -117.999 40c-5.33301 0 -8 8.66699 -8 26
z" />
    <glyph glyph-name="w" unicode="w" horiz-adv-x="1468" 
d="M18 836c0 16 2.66504 26.6611 7.99805 31.9941c20 -1.33301 42 -2.66602 66 -3.99902s46 -2.66602 66 -3.99902s42 -2 66 -2l200 10c2.66699 -5.33301 3.66699 -16.333 3 -33s-3 -25 -7 -25c-66.667 0 -100 -15.333 -100 -46c0 -4 8.33301 -24 25 -60l87 -187l126 -277
l76 216l59 168c11.333 33.333 17 52.666 17 57.999c0 6.66699 -3 17.334 -9 32.001s-12.333 27.334 -19 38.001l-10 18c-8 12 -20.667 22 -38 30c-13.333 6.66699 -34.666 10 -63.999 10c-5.33301 0 -8 8.33301 -8 25s2.66699 27.667 8 33
c20 -1.33301 41.667 -2.66602 65 -3.99902s44.666 -2.66602 63.999 -3.99902s41 -2 65 -2c22.667 0 43.667 0.666992 63 2s41.666 2.66602 66.999 3.99902s47.333 2.66602 66 3.99902c2.66699 -8 4 -19.333 4 -34s-2 -22.667 -6 -24c-64 0 -96 -26 -96 -78
c0 -28 73.333 -192 220 -492l76 222l67 193c14 42 21 70.333 21 85c0 46.667 -44 70 -132 70h-8c-5.33301 0 -8 8.33301 -8 25s2.66699 27.667 8 33c20 -1.33301 42.333 -2.66602 67 -3.99902s47.334 -2.66602 68.001 -3.99902s43 -2 67 -2
c22.667 0 42.334 0.666992 59.001 2s35.667 2.66602 57 3.99902l62 4c2.66699 -8 4 -18 4 -30c0 -18.667 -3.33301 -28 -10 -28c-17.333 0 -40.666 -5.66699 -69.999 -17s-48.666 -29.666 -57.999 -54.999l-262 -716c-10.667 -29.333 -29.334 -44 -56.001 -44
c-13.333 0 -21.333 2.66699 -24 8l-246 588l-202 -552c-1.33301 -4 -4 -9 -8 -15s-10.333 -12.333 -19 -19s-17.667 -10 -27 -10c-13.333 0 -21.333 2.66699 -24 8c-32 72 -68.333 158.333 -109 259s-79 191.334 -115 272.001s-78 163.667 -126 249
c-17.333 29.333 -53.333 44 -108 44c-5.33301 0 -8 8.66699 -8 26z" />
    <glyph glyph-name="x" unicode="x" horiz-adv-x="934" 
d="M8 22c0 20 2.66699 29.998 8 29.998c89.333 13.333 149.333 41.333 180 84l208 278c0 1.33301 0.333008 3.33301 1 6s1 4.66699 1 6c0 2.66699 -1.33301 6.66699 -4 12l-206 302c-12 17.333 -36.667 33.333 -74 48s-67.333 22 -90 22l-6 30
c2.66699 13.333 5.33398 22.666 8.00098 27.999c129.333 -6.66699 196 -10 200 -10c2.66699 0 72.667 3.33301 210 10c1.33301 -5.33301 2 -13.333 2 -24c0 -22.667 -2 -34 -6 -34c-53.333 0 -80 -11.333 -80 -34c0 -5.33301 3.33301 -13.333 10 -24l130 -202l42 63l45 66
c11.333 16.667 21.666 34.334 30.999 53.001s14 32.667 14 42c0 12 -7.66699 20.333 -23 25s-32.666 7.33398 -51.999 8.00098s-30.333 1.66699 -33 3c-4 1.33301 -6 12 -6 32c0 12 2 20.667 6 26c136 -6.66699 206 -10 210 -10s64.667 3.33301 182 10
c2.66699 -13.333 4 -22.666 4 -27.999c0 -20 -2 -30 -6 -30c-88 -10.667 -146 -33.334 -174 -68.001l-192 -250c-2.66699 -4 -4 -8.66699 -4 -14c0 -6.66699 2 -14 6 -22l214 -316c36 -53.333 92 -82.666 168 -87.999c4 0 6 -9.33301 6 -28
c0 -13.333 -2.66699 -23.333 -8 -30c-124 6.66699 -186.667 10 -188 10c-4 0 -78 -3.33301 -222 -10c-2.66699 13.333 -4 22 -4 26c0 21.333 2 32 6 32c56 4 84 16 84 36c0 2.66699 -1.33301 6.66699 -4 12l-152 240l-138 -206c-9.33301 -14.667 -14 -27.334 -14 -38.001
c0 -24 33.333 -38.667 100 -44h10c4 0 6 -10 6 -30c0 -13.333 -2.66699 -22.666 -8 -27.999c-129.333 6.66699 -196 10 -200 10c-2.66699 0 -67.334 -3.33301 -194.001 -10c-2.66699 10.667 -4 20 -4 28z" />
    <glyph glyph-name="y" unicode="y" horiz-adv-x="908" 
d="M4 836c0 16 2.67188 26.6709 8.00488 32.0039c137.333 -6.66699 209.333 -10 216 -10c22.667 0 43.667 0.666992 63 2s41.333 2.66602 66 3.99902s46.334 2.66602 65.001 3.99902c2.66699 -8 4 -18 4 -30c0 -18.667 -2.66699 -28 -8 -28
c-10.667 0 -28.334 -4.66699 -53.001 -14s-38.334 -18.666 -41.001 -27.999v-4c0 -24 71.333 -198 214 -522l152 438c9.33301 28 14 48.667 14 62c0 20 -10.333 36.333 -31 49s-48.334 19 -83.001 19c-5.33301 0 -8 8.66699 -8 26c0 16 2.66699 26.667 8 32l78 -6
c34.667 -2.66699 68 -4 100 -4c29.333 0 61.333 1.33301 96 4l78 6c2.66699 -8 4 -18 4 -30c0 -18.667 -2.66699 -28 -8 -28c-17.333 0 -41 -6 -71 -18s-49.667 -31.333 -59 -58l-358 -966c-30.667 -82.667 -65.334 -140.334 -104.001 -173.001s-74 -49 -106 -49
c-28 0 -48.667 8.66699 -62 26s-20 34.666 -20 51.999c0 29.333 9.33301 50.666 28 63.999c110.667 0 184 57.333 220 172l24 72c9.33301 28 16.666 50.667 21.999 68l-286 700c-14.667 32 -28 54.667 -40 68c-12 12 -30.333 22 -55 30s-44.334 12 -59.001 12
c-5.33301 0 -8 8.66699 -8 26z" />
    <glyph glyph-name="z" unicode="z" horiz-adv-x="828" 
d="M58 46c0 4 0.667969 6.66602 2.00098 7.99902l514 714l-298 2c-26.667 0 -48.667 -6.33301 -66 -19s-29 -25.667 -35 -39s-12 -30.333 -18 -51s-9.66699 -33 -11 -37c-4 -8 -20 -12 -48 -12c-14.667 0 -22 2 -22 6c0 5.33301 4.66699 37 14 95s15.333 107 18 147
c78.667 -8 142 -12 190 -12h244c74.667 0 156 5.33301 244 16c4 -6.66699 6 -22.667 6 -48l-508 -694c-9.33301 -13.333 -14 -22.666 -14 -27.999c0 -9.33301 8 -14 24 -14h262c56 0 97 14 123 42s46.333 67.333 61 118c2.66699 14.667 8 22 16 22
c29.333 0 48.666 -8 57.999 -24l-42 -238h-674c-26.667 16 -40 31.333 -40 46z" />
    <glyph glyph-name="braceleft" unicode="{" horiz-adv-x="648" 
d="M126 620c0 16 2.6709 28.6641 8.00391 37.9971c38.667 9.33301 68.334 18 89.001 26s41 23 61 45s30 49.667 30 83s-16.667 87.333 -50 162s-50 133.334 -50 176.001c0 109.333 30.667 195 92 257s136.666 93 225.999 93c5.33301 0 8 -5.33301 8 -16
c0 -25.333 -7.33301 -39.333 -22 -42c-38.667 -2.66699 -81.334 -24.667 -128.001 -66s-70 -91.333 -70 -150c0 -46.667 16.667 -107.334 50 -182.001s50 -140.667 50 -198c0 -61.333 -18.333 -114.666 -55 -159.999s-74.334 -68.666 -113.001 -69.999
c40 -1.33301 78.333 -23.333 115 -66s55 -94.667 55 -156c0 -57.333 -17 -119.666 -51 -186.999s-51 -124.333 -51 -171c0 -58.667 23.667 -110.667 71 -156s89.666 -69.333 126.999 -72c14.667 -2.66699 22 -17.334 22 -44.001c0 -9.33301 -2.66699 -14 -8 -14
c-86.667 0 -160.667 34.333 -222 103s-92 154.334 -92 257.001c0 40 16 96.333 48 169s48 125.667 48 159c0 17.333 -3 32.666 -9 45.999s-11.667 24 -17 32s-17 16.333 -35 25l-35 17c-5.33301 2.66699 -20.333 7.33398 -45 14.001s-38.334 10.667 -41.001 12
c-4 8 -6 20 -6 36z" />
    <glyph glyph-name="bar" unicode="|" horiz-adv-x="528" 
d="M200 -230v1744c-1.33301 8 2 13.333 10 16c32 9.33301 65.333 14 100 14c5.33301 0 9.33301 -1 12 -3s4 -3.66699 4 -5v-4l2 -1744c0 -6.66699 -17.667 -14 -53 -22s-57 -12 -65 -12c-6.66699 0 -10 5.33301 -10 16z" />
    <glyph glyph-name="braceright" unicode="}" horiz-adv-x="650" 
d="M108 -236c0 26.667 7.33691 41.3359 22.0039 44.0029c37.333 2.66699 79.666 26.667 126.999 72s71 97.333 71 156c0 46.667 -17 103.667 -51 171s-51 129.666 -51 186.999c0 61.333 18.333 113.333 55 156s75 64.667 115 66
c-38.667 1.33301 -76.334 24.666 -113.001 69.999s-55 98.666 -55 159.999c0 57.333 16.667 123.333 50 198s50 135.334 50 182.001c0 58.667 -23.333 108.667 -70 150s-89.334 63.333 -128.001 66c-14.667 2.66699 -22 16.667 -22 42c0 10.667 2.66699 16 8 16
c89.333 0 164.666 -31 225.999 -93s92 -147.667 92 -257c0 -42.667 -16.667 -101.334 -50 -176.001s-50 -128.667 -50 -162s10 -61 30 -83s40.333 -37 61 -45s50.334 -16.667 89.001 -26c5.33301 -9.33301 8 -22 8 -38s-2 -28 -6 -36
c-5.33301 -1.33301 -17 -4.66602 -35 -9.99902s-30.667 -9.33301 -38 -12s-18.333 -7 -33 -13s-25.334 -12 -32.001 -18s-14 -13.333 -22 -22s-13.667 -19 -17 -31s-5 -25.333 -5 -40c0 -33.333 16 -86.333 48 -159s48 -129 48 -169
c0 -102.667 -30.667 -188.334 -92 -257.001s-135.333 -103 -222 -103c-5.33301 0 -8 4.66699 -8 14z" />
    <glyph glyph-name="asciitilde" unicode="~" horiz-adv-x="1152" 
d="M112 552c0 28 15.999 54 47.999 78c41.333 30.667 76 51.334 104 62.001s64 16 108 16c62.667 0 141.334 -17.667 236.001 -53s173.334 -53 236.001 -53c9.33301 0 18.666 0.666992 27.999 2s17.333 3 24 5s14.667 5.33301 24 10s16.333 8 21 10s12 6.66699 22 14l19 14
l21 16c11.333 8.66699 18.333 14.334 21 17.001c12 -6.66699 18 -18 18 -34c0 -29.333 -15.333 -55.333 -46 -78c-41.333 -30.667 -75.666 -51.334 -102.999 -62.001s-63 -16 -107 -16c-62.667 0 -141.334 17.667 -236.001 53s-174 53 -238 53c-24 0 -48 -5.33301 -72 -16
s-41 -19.334 -51 -26.001s-29.667 -22 -59 -46c-12 6.66699 -18 18 -18 34z" />
    <glyph glyph-name="uni00A0" unicode="&#xa0;" horiz-adv-x="458" 
 />
    <glyph glyph-name="cent" unicode="&#xa2;" horiz-adv-x="928" 
d="M120 422c0 -138.667 37.3271 -246.332 111.994 -322.999s169.334 -115 284.001 -115c105.333 0 204 50 296 150c8 8 12 20 12 36c0 4 -1 8.33301 -3 13s-3.66699 8.33398 -5 11.001s-2.66602 4 -3.99902 4s-5.66602 -3.33301 -12.999 -10
s-17.666 -14.334 -30.999 -23.001s-28.666 -17.667 -45.999 -27s-39 -17.333 -65 -24s-52.333 -10 -79 -10c-100 0 -176 37 -228 111s-78 165.667 -78 275c0 106.667 22 185 66 235s94 75 150 75c28 0 53.667 -5.33301 77 -16s40.333 -21.667 51 -33l46 -51
c2.66699 -2.66699 6.33398 -7 11.001 -13l10 -13c2 -2.66699 5.33301 -6.33398 10 -11.001l10 -10c2 -2 4.66699 -4.33301 8 -7s6.33301 -4.66699 9 -6s5.66699 -2.33301 9 -3s7 -1 11 -1c48 0 72 42 72 126c-20 36 -59 63 -117 81s-120.333 27 -187 27
c-113.333 0 -206.333 -45.333 -279 -136s-109 -194.667 -109 -312zM391.994 -71.998l166 1020c46.667 0 70 -5.33301 70 -16l-166 -1022c-46.667 0 -70 6 -70 18z" />
    <glyph glyph-name="sterling" unicode="&#xa3;" horiz-adv-x="946" 
d="M90 584c0 24 4 42 12 54h534c6.66699 0 10 -6.66699 10 -20c0 -26.667 -10 -46.667 -30 -60h-516c-6.66699 0 -10 8.66699 -10 26zM92 20c12 22.667 28.6689 49.3291 50.002 79.9961l44 64c5.33301 10.667 10 23 14 37s7 29.667 9 47s3.66699 33.333 5 48
s2.33301 33 3 55s1 38.667 1 50v52v45c0 12 -3 67.333 -9 166s-9 159.334 -9 182.001c0 125.333 33.667 227.333 101 306s155 118 263 118c69.333 0 120.666 -24.667 153.999 -74c0 -78.667 -20 -118 -60 -118c-28 0 -56.667 18 -86 54s-58 54 -86 54
c-32 0 -58.667 -8.66699 -80 -26s-36.333 -42 -45 -74s-14.334 -62.667 -17.001 -92s-4 -64.666 -4 -105.999c0 -26.667 2.66699 -94 8 -202s8 -164.667 8 -170c0 -130.667 -30 -246.667 -90 -348c30.667 12 78.667 18 144 18c38.667 0 94.667 -10.667 168 -32
s122 -32 146 -32c17.333 0 33.666 6 48.999 18s27 24.333 35 37s18 30.334 30 53.001s19.333 36 22 40c8 0 16.333 -3.66699 25 -11s13 -15.666 13 -24.999s-0.666992 -15.333 -2 -18c-58.667 -154.667 -136.667 -232 -234 -232c-45.333 0 -112.666 12.333 -201.999 37
s-149.333 37 -180 37c-46.667 0 -96.667 -25.333 -150 -76c-12 0 -21.333 4.33301 -28 13s-10 17 -10 25z" />
    <glyph glyph-name="yen" unicode="&#xa5;" horiz-adv-x="1316" 
d="M46 1252c0 16 2.66602 26.666 7.99902 31.999c21.333 -1.33301 56.333 -3.66602 105 -6.99902s91 -5 127 -5c10.667 0 94 4 250 12c2.66699 -5.33301 3.66699 -15.666 3 -30.999s-3 -23 -7 -23c-22.667 0 -47.667 -5.33301 -75 -16s-41 -26.667 -41 -48
c0 -14.667 6.66699 -34 20 -58l218 -412c6.66699 -6.66699 13.334 -5.33398 20.001 3.99902c176 266.667 264 422.667 264 468c0 14.667 -12.667 28.667 -38 42s-57.333 20 -96 20c-5.33301 0 -8 7.66699 -8 23s2.66699 25.666 8 30.999
c14.667 -1.33301 42 -3.66602 82 -6.99902s74 -5 102 -5s120 4 276 12c2.66699 -8 4 -18 4 -30c0 -16 -2.66699 -24 -8 -24c-17.333 0 -49.333 -5.66699 -96 -17s-76.667 -25 -90 -41l-219 -356c-90 -150.667 -135 -234.667 -135 -252v-56h184c6.66699 0 10 -8.66699 10 -26
c0 -21.333 -4 -38 -12 -50h-182v-80h184c6.66699 0 10 -8.66699 10 -26c0 -21.333 -4 -38 -12 -50h-182c0 -86.667 4.66699 -148 14 -184c2.66699 -9.33301 20 -19 52 -29s54 -15 66 -15c5.33301 0 8 -8 8 -24c0 -12 -1.33301 -22 -4 -30
c-130.667 6.66699 -202.667 10 -216 10c-5.33301 0 -81.333 -3.33301 -228 -10c-5.33301 5.33301 -8 14 -8 26c0 18.667 2.66699 28 8 28c16 0 39.667 4.66699 71 14s49 19.333 53 30c10.667 41.333 16 102.666 16 183.999h-184c-6.66699 0 -10 8.66699 -10 26
c0 21.333 4 38 12 50h182v80h-184c-6.66699 0 -10 8.66699 -10 26c0 21.333 4 38 12 50h182c0 18.667 -0.666992 29.334 -2 32.001c-5.33301 24 -99.333 198.667 -282 524c-24 46.667 -52.667 88 -86 124c-12 12 -32.333 22 -61 30s-51 12 -67 12
c-5.33301 0 -8 7.33301 -8 22z" />
    <glyph glyph-name="dieresis" unicode="&#xa8;" horiz-adv-x="666" 
d="M54 1034c0 26.667 10.332 49.668 30.999 69.001s44.334 29 71.001 29s49.667 -10 69 -30s29 -43.333 29 -70s-10 -49.334 -30 -68.001s-43.333 -28 -70 -28s-50 9.66699 -70 29s-30 42.333 -30 69zM419.999 1034c0 26.667 10.332 49.668 30.999 69.001
s44.334 29 71.001 29s49.667 -10 69 -30s29 -43.333 29 -70s-10 -49.334 -30 -68.001s-43.333 -28 -70 -28s-50 9.66699 -70 29s-30 42.333 -30 69z" />
    <glyph glyph-name="copyright" unicode="&#xa9;" horiz-adv-x="1206" 
d="M56 684c0 150.667 53.333 279.334 160 386.001s235.334 160 386.001 160s279.667 -53.333 387 -160s161 -235.334 161 -386.001s-53.667 -279.334 -161 -386.001s-236.333 -160 -387 -160s-279.334 53.333 -386.001 160s-160 235.334 -160 386.001zM122 684
c0 -133.333 47 -247.333 141 -342s207.667 -142 341 -142s247.333 47.333 342 142s142 208.667 142 342s-47.333 247.333 -142 342s-208.667 142 -342 142s-247 -47.333 -341 -142s-141 -208.667 -141 -342zM318 672c0 81.333 26.667 150.669 80 208.002
s120.666 86 201.999 86c82.667 0 157.334 -12.667 224.001 -38c21.333 -76 32 -116.667 32 -122c0 -12 -10.667 -18 -32 -18c-4 0 -8.66699 1.33301 -14 4c-2.66699 13.333 -8.66699 26.666 -18 39.999s-29 27.666 -59 42.999s-66.333 23 -109 23
c-53.333 0 -98.666 -20.667 -135.999 -62s-56 -90 -56 -146c0 -74.667 22 -132.667 66 -174s92 -62 144 -62c68 0 116 12.667 144 38c6.66699 6.66699 12.334 15.334 17.001 26.001s7.66699 20 9 28s2.66602 12 3.99902 12c24 0 37.333 -2 40 -6
c0 -6.66699 -5.33301 -28.334 -16 -65.001s-18.667 -56.334 -24 -59.001c-62.667 -25.333 -133.334 -38 -212.001 -38c-81.333 0 -149.333 27.333 -204 82s-82 121.334 -82 200.001z" />
    <glyph glyph-name="guillemotleft" unicode="&#xab;" horiz-adv-x="938" 
d="M54 482c0 24 5.33203 42.001 15.999 54.001c170.667 102.667 308 206 412 310c30.667 -8 46 -20.667 46 -38c0 -8 -6 -18.333 -18 -31s-46.667 -46.334 -104 -101.001l-94 -97l-82 -85l174 -180l40 -39l31 -30l21 -21l15 -15
c3.33301 -3.33301 6.33301 -6.66602 9 -9.99902s4.33398 -6.33301 5.00098 -9s1 -5.33398 1 -8.00098c0 -5.33301 -2 -10.333 -6 -15s-8 -8 -12 -10s-9.33301 -4 -16 -6s-10.667 -3.66699 -12 -5c-1.33301 2.66699 -14.333 15 -39 37s-71 58.667 -139 110s-146 105 -234 161
c-9.33301 4 -14 13.333 -14 28zM411.999 482.001c0 24 5.33203 42.001 15.999 54.001c170.667 102.667 308 206 412 310c30.667 -8 46 -20.667 46 -38c0 -8 -6 -18.333 -18 -31s-46.667 -46.334 -104 -101.001l-94 -97l-82 -85l174 -180l40 -39l31 -30l21 -21l15 -15
c3.33301 -3.33301 6.33301 -6.66602 9 -9.99902s4.33398 -6.33301 5.00098 -9s1 -5.33398 1 -8.00098c0 -5.33301 -2 -10.333 -6 -15s-8 -8 -12 -10s-9.33301 -4 -16 -6s-10.667 -3.66699 -12 -5c-1.33301 2.66699 -14.333 15 -39 37s-71 58.667 -139 110s-146 105 -234 161
c-9.33301 4 -14 13.333 -14 28z" />
    <glyph glyph-name="uni00AD" unicode="&#xad;" horiz-adv-x="750" 
d="M116 420c0 68 8 102 24 102h2l482 24h2c8 0 12 -6 12 -18c0 -29.333 -2.33301 -53 -7 -71s-9 -29 -13 -33l-6 -4l-482 -22h-4c-1.33301 0 -3.33301 2 -6 6s-4 9.33301 -4 16z" />
    <glyph glyph-name="registered" unicode="&#xae;" horiz-adv-x="1208" 
d="M58 814c0 150.667 53.333 279.334 160 386.001s235.334 160 386.001 160s279.667 -53.333 387 -160s161 -235.334 161 -386.001s-53.667 -279.667 -161 -387s-236.333 -161 -387 -161s-279.334 53.667 -386.001 161s-160 236.333 -160 387zM124 814
c0 -133.333 47 -247.333 141 -342s207.667 -142 341 -142s247.333 47.333 342 142s142 208.667 142 342s-47.333 247 -142 341s-208.667 141 -342 141s-247 -47 -341 -141s-141 -207.667 -141 -341zM350 560c0 6.66699 1.33105 9.99805 3.99805 9.99805
c6.66699 0 17.334 2 32.001 6s22.667 8 24 12c4 12 6 28.667 6 50l-2 32v310c1.33301 10.667 2 21.334 2 32.001c0 21.333 -2 38 -6 50c-1.33301 4 -9 8.33301 -23 13s-24.333 7 -31 7c-1.33301 0 -2 3.33301 -2 10c0 8 0.666992 12.667 2 14c25.333 -4 57.333 -6 96 -6
c17.333 0 42 1.33301 74 4s56.667 4 74 4c44 0 86.333 -12.667 127 -38s61 -64 61 -116c0 -56 -32 -98 -96 -126c-1.33301 0 -2 -1.33301 -2 -4c0 -16 46.667 -86 140 -210c21.333 -28 48 -42 80 -42c1.33301 -2.66699 2 -6.66699 2 -12c0 -10.667 -10 -16 -30 -16
c-62.667 0 -111 14.333 -145 43s-84.333 98.334 -151 209.001c-6.66699 10.667 -16 16 -28 16c-9.33301 1.33301 -21.333 1.33301 -36 0c-2.66699 0 -4 -4.66699 -4 -14v-128c1.33301 -40 4 -67.333 8 -82c1.33301 -4 9 -8 23 -12s23.667 -6 29 -6
c1.33301 0 2.33301 -3.33301 3 -10s0.333984 -11.334 -0.999023 -14.001c-22.667 1.33301 -64.667 2 -126 2c-40 0 -73.333 -0.666992 -100 -2c-2.66699 2.66699 -4 7.33398 -4 14.001zM517.998 881.998c0 -17.333 31.333 -26 94 -26c18.667 0 36 9 52 27s24 39.667 24 65
c0 73.333 -33.333 110 -100 110c-29.333 0 -50 -2 -62 -6c-4 0 -6 -2 -6 -6l-2 -74v-90z" />
    <glyph glyph-name="acute" unicode="&#xb4;" horiz-adv-x="920" 
d="M1012 1080c0 4 10.334 23.001 31.001 57.001s46 72.667 76 116s56.333 77.666 79 102.999c12 12 34.667 18 68 18c21.333 0 38.666 -3.66699 51.999 -11s21.666 -14 24.999 -20s5 -11.667 5 -17c0 -33.333 -47.667 -87 -143 -161s-151.666 -111 -168.999 -111
c-16 0 -24 8.66699 -24 26z" />
    <glyph glyph-name="cedilla" unicode="&#xb8;" horiz-adv-x="920" 
d="M1236 -258c0 6.66699 3 12.998 9 18.998s12.333 9 19 9c8 0 19.333 -4.33301 34 -13s28 -13 40 -13c26.667 0 47.667 6.33301 63 19s23 28.334 23 47.001c0 21.333 -6.66699 38 -20 50s-27.333 18 -42 18c-12 0 -29.333 -4.66699 -52 -14c-2.66699 0 -7 3.33301 -13 10
s-8.33301 12 -7 16l32 49c16 24.667 26.667 42.334 32 53.001h42l-36 -46h50c25.333 0 46.333 -9.66699 63 -29s25 -42.333 25 -69c0 -45.333 -18 -82 -54 -110s-80.667 -42 -134 -42c-28 0 -50.667 6 -68 18c0 1.33301 -1 5 -3 11s-3 11.667 -3 17z" />
    <glyph glyph-name="guillemotright" unicode="&#xbb;" horiz-adv-x="942" 
d="M54 808c0 5.33301 2.00098 10.332 6.00098 14.999s8 8 12 10l16 8c6.66699 3.33301 10.667 5 12 5c104 -104 240.667 -207.333 410 -310c12 -13.333 18 -31.333 18 -54c0 -14.667 -5.33301 -24 -16 -28c-77.333 -49.333 -148 -98 -212 -146s-110.333 -84 -139 -108
s-48.334 -42 -59.001 -54c-30.667 8 -46 20 -46 36c0 2.66699 0.333008 5.33398 1 8.00098s2.33398 6 5.00098 10s5.66699 7.66699 9 11l16 16l22 21c7.33301 6.66699 17.333 16.334 30 29.001l37 37l174 180l-82 85l-94 97c-58.667 57.333 -93.334 91.666 -104.001 102.999
s-16 21 -16 29zM412.001 807.999c0 5.33301 2.00293 10.3301 6.00293 14.9971s8 8 12 10l16 8c6.66699 3.33301 10.667 5 12 5c101.333 -101.333 238.666 -204.666 411.999 -309.999c10.667 -12 16 -30 16 -54c0 -14.667 -4.66699 -24 -14 -28
c-77.333 -49.333 -148.333 -98 -213 -146s-111.334 -84 -140.001 -108s-48.334 -42 -59.001 -54c-30.667 8 -46 20 -46 36c0 4 1 8 3 12s6 9.33301 12 16s12.667 13.334 20 20.001l36 34l51 50l174 180l-82 85l-94 97c-78.667 76 -118.667 117.333 -120 124
c-1.33301 2.66699 -2 5.33398 -2 8.00098z" />
    <glyph glyph-name="circumflex" unicode="&#x2c6;" horiz-adv-x="920" 
d="M1080 1030c4 5.33301 18.667 22.333 44 51s46.666 53.667 63.999 75c29.333 36 54 71.333 74 106c8 13.333 13.333 20 16 20c6.66699 0 13.334 -6.66699 20.001 -20c32 -52 56 -88.667 72 -110c14.667 -18.667 31 -38 49 -58s32.333 -35.333 43 -46s16 -16.667 16 -18
c0 -30.667 -4.66699 -46 -14 -46c-10.667 0 -36.667 15 -78 45s-77.333 59 -108 87c-29.333 -28 -64 -57 -104 -87s-65.333 -45 -76 -45c-12 0 -18 15.333 -18 46z" />
    <glyph glyph-name="ring" unicode="&#x2da;" horiz-adv-x="920" 
d="M1000 1184c0 49.333 17.333 91.333 52 126s76 52 124 52s89 -17.333 123 -52s51 -76.667 51 -126s-17 -91.666 -51 -126.999s-75 -53 -123 -53s-89.333 17.667 -124 53s-52 77.666 -52 126.999zM1066 1184c0 -30.667 10.6689 -57 32.002 -79s47.333 -33 78 -33
c29.333 0 54.666 11 75.999 33s32 48.333 32 79s-10.333 56.667 -31 78s-46.334 32 -77.001 32s-56.667 -10.667 -78 -32s-32 -47.333 -32 -78z" />
    <glyph glyph-name="tilde" unicode="&#x2dc;" horiz-adv-x="826" 
d="M868 1056c0 37.333 18.333 70 55 98s70.334 42 101.001 42c37.333 0 83.333 -14 138 -42s100.667 -42 138 -42c48 0 82 22.667 102 68c2.66699 1.33301 6.66699 2 12 2c12 0 18 -10.667 18 -32c0 -37.333 -18.333 -70 -55 -98s-70.334 -42 -101.001 -42
c-38.667 0 -86 14.333 -142 43s-102 43 -138 43c-44 0 -76.667 -23.333 -98 -70c-2.66699 -1.33301 -6.66699 -2 -12 -2c-12 0 -18 10.667 -18 32z" />
    <glyph glyph-name="uni0400" unicode="&#x400;" horiz-adv-x="1140" 
d="M58 1282c0 17.333 2.66699 28.6738 8 34.0068c69.333 -2.66699 148.666 -4 237.999 -4c60 0 163.667 2.33301 311 7s259 7 335 7c5.33301 -38.667 15.333 -90.334 30 -155.001l26 -115c-6.66699 -6.66699 -18 -10 -34 -10c-17.333 0 -26.666 4.66699 -27.999 14
c-20 73.333 -48 120.333 -84 141s-85.333 31 -148 31h-134c-114.667 0 -173.334 -8.66699 -176.001 -26c-8 -32 -12 -88 -12 -168v-320c0 -8 28.667 -12 86 -12h108h81c16.667 0 34.334 2.66699 53.001 8s30.667 8.66602 36 9.99902s12.333 10 21 26s13.667 27.667 15 35
s6 26.333 14 57c1.33301 9.33301 10.666 14 27.999 14s29.333 -3.33301 36 -10v-378c-5.33301 -5.33301 -16.666 -8 -33.999 -8c-14.667 0 -24.667 4.66699 -30 14c-9.33301 37.333 -17.333 65 -24 83s-12 28.667 -16 32s-10 7.66602 -18 12.999
c-14.667 10.667 -84.667 16 -210 16c-97.333 0 -146 -6 -146 -18v-310c0 -88 6.66699 -148.667 20 -182c4 -13.333 49.333 -20 136 -20h96c122.667 0 206.667 11.333 252 34c49.333 26.667 91.333 94 126 202c2.66699 8 12 12 28 12c24 0 40 -4 48 -12
c-8 -24 -21 -60.333 -39 -109s-33 -91.334 -45 -128.001s-20 -68.334 -24 -95.001c-68 0 -175.333 1.33301 -322 4s-266.667 4 -360 4l-240 -6c-4 4 -6 14.667 -6 32s2 26 6 26c17.333 0 43 4.66699 77 14s54.333 20 61 32c9.33301 16 14 78.667 14 188v756
c0 77.333 -4.66699 134.666 -14 171.999c-4 9.33301 -24 18.666 -60 27.999s-62 14 -78 14c-5.33301 0 -8 8.66699 -8 26zM288 1662.01c0 14.667 8.66699 28.333 26 41s43.333 19 78 19c16 0 28 -2 36 -6c36 -26.667 84.667 -70 146 -130s92 -94.667 92 -104
c0 -17.333 -6.66699 -26 -20 -26c-25.333 0 -91.333 26.667 -198 80s-160 95.333 -160 126z" />
    <glyph glyph-name="afii10023" unicode="&#x401;" horiz-adv-x="1140" 
d="M58 1282c0 17.333 2.66699 28.6738 8 34.0068c69.333 -2.66699 148.666 -4 237.999 -4c60 0 163.667 2.33301 311 7s259 7 335 7c5.33301 -38.667 15.333 -90.334 30 -155.001l26 -115c-6.66699 -6.66699 -18 -10 -34 -10c-17.333 0 -26.666 4.66699 -27.999 14
c-20 73.333 -48 120.333 -84 141s-85.333 31 -148 31h-134c-114.667 0 -173.334 -8.66699 -176.001 -26c-8 -32 -12 -88 -12 -168v-320c0 -8 28.667 -12 86 -12h108h81c16.667 0 34.334 2.66699 53.001 8s30.667 8.66602 36 9.99902s12.333 10 21 26s13.667 27.667 15 35
s6 26.333 14 57c1.33301 9.33301 10.666 14 27.999 14s29.333 -3.33301 36 -10v-378c-5.33301 -5.33301 -16.666 -8 -33.999 -8c-14.667 0 -24.667 4.66699 -30 14c-9.33301 37.333 -17.333 65 -24 83s-12 28.667 -16 32s-10 7.66602 -18 12.999
c-14.667 10.667 -84.667 16 -210 16c-97.333 0 -146 -6 -146 -18v-310c0 -88 6.66699 -148.667 20 -182c4 -13.333 49.333 -20 136 -20h96c122.667 0 206.667 11.333 252 34c49.333 26.667 91.333 94 126 202c2.66699 8 12 12 28 12c24 0 40 -4 48 -12
c-8 -24 -21 -60.333 -39 -109s-33 -91.334 -45 -128.001s-20 -68.334 -24 -95.001c-68 0 -175.333 1.33301 -322 4s-266.667 4 -360 4l-240 -6c-4 4 -6 14.667 -6 32s2 26 6 26c17.333 0 43 4.66699 77 14s54.333 20 61 32c9.33301 16 14 78.667 14 188v756
c0 77.333 -4.66699 134.666 -14 171.999c-4 9.33301 -24 18.666 -60 27.999s-62 14 -78 14c-5.33301 0 -8 8.66699 -8 26zM240 1556.01c0 28 9.66699 51.667 29 71s43 29 71 29s51.667 -9.66699 71 -29s29 -43 29 -71s-9.66699 -51.667 -29 -71s-43 -29 -71 -29
s-51.667 9.66699 -71 29s-29 43 -29 71zM602 1556.01c0 28 9.66699 51.667 29 71s43 29 71 29s51.667 -9.66699 71 -29s29 -43 29 -71s-9.66699 -51.667 -29 -71s-43 -29 -71 -29s-51.667 9.66699 -71 29s-29 43 -29 71z" />
    <glyph glyph-name="afii10051" unicode="&#x402;" horiz-adv-x="1526" 
d="M54 1056l37.998 284.001c53.333 -13.333 99.333 -20 138 -20c50.667 0 121.667 -1.33301 213 -4s166.333 -4 225 -4c57.333 0 132.333 1.33301 225 4s164.334 4 215.001 4c40 0 85.333 6.66699 136 20l40 -284c-9.33301 -9.33301 -25.333 -14 -48 -14
c-12 0 -18.667 3.33301 -20 10c-20 74.667 -43.333 123 -70 145s-78.667 33 -156 33c-140 0 -212.667 -10 -218 -30c-12 -42.667 -18 -110 -18 -202v-264c97.333 40 186 60 266 60c128 0 229.333 -46 304 -138s112 -205.333 112 -340c0 -162.667 -47.667 -299.667 -143 -411
s-208.333 -193 -339 -245c-9.33301 5.33301 -17.333 15.333 -24 30c-1.33301 5.33301 -2.33301 11.666 -3 18.999s-0.333984 11 0.999023 11c210.667 126.667 316 320 316 580c0 122.667 -27.667 219.667 -83 291s-127.666 107 -216.999 107
c-61.333 0 -124.666 -11.333 -189.999 -34v-386c0 -77.333 6 -139.333 18 -186c2.66699 -9.33301 21.334 -18.333 56.001 -27s58.667 -13 72 -13c4 0 6 -10 6 -30c0 -10.667 -1.33301 -20 -4 -28c-133.333 6.66699 -210 10 -230 10c-6.66699 0 -86.667 -3.33301 -240 -10
c-5.33301 5.33301 -8 15.333 -8 30c0 18.667 2.66699 28 8 28c17.333 0 42.666 4 75.999 12s52 17.333 56 28c10.667 34.667 16 94 16 178v722c0 116 -6.66699 185.333 -20 208c-8 20 -79.333 30 -214 30c-76 0 -127.667 -11 -155 -33s-50.333 -70.333 -69 -145
c-1.33301 -6.66699 -8 -10 -20 -10c-22.667 0 -38.667 4.66699 -48 14z" />
    <glyph glyph-name="afii10052" unicode="&#x403;" horiz-adv-x="1020" 
d="M58 1282c0 17.333 2.66602 28.667 7.99902 34c69.333 -2.66699 148.666 -4 237.999 -4c60 0 164 2.66699 312 8s259.333 8 334 8c5.33301 -38.667 15.666 -89.667 30.999 -153s24.333 -103 27 -119c-6.66699 -6.66699 -18.667 -10 -36 -10s-26.666 4.66699 -27.999 14
c-20 73.333 -48 120.333 -84 141s-85.333 31 -148 31h-134c-114.667 0 -173.334 -8.66699 -176.001 -26c-6.66699 -32 -10 -88 -10 -168v-760c0 -77.333 6 -139.333 18 -186c2.66699 -9.33301 21.334 -18.333 56.001 -27s58.667 -13 72 -13c5.33301 0 8 -10 8 -30
c0 -10.667 -1.33301 -20 -4 -28c-133.333 6.66699 -210.666 10 -231.999 10c-6.66699 0 -86.667 -3.33301 -240 -10c-5.33301 5.33301 -8 15.333 -8 30c0 18.667 2.66699 28 8 28c17.333 0 43 4 77 12s53 17.333 57 28c9.33301 36 14 96 14 180v770
c0 78.667 -4.66699 136 -14 172c-4 10.667 -23.667 20.667 -59 30s-61.666 14 -78.999 14c-5.33301 0 -8 8 -8 24zM393.999 1482c0 9.33301 30.667 44.001 92 104.001s110 103.333 146 130c8 4 20 6 36 6c34.667 0 60.667 -6.33301 78 -19s26 -26.334 26 -41.001
c0 -30.667 -53.333 -72.667 -160 -126s-172.667 -80 -198 -80c-13.333 0 -20 8.66699 -20 26z" />
    <glyph glyph-name="afii10053" unicode="&#x404;" horiz-adv-x="1322" 
d="M86 642c0 189.333 63.333 351.671 190 487.004s282 203 466 203c164 0 326 -16 486 -48c-2.66699 -178.667 -4 -275.334 -4 -290.001c0 -18.667 -14 -28 -42 -28c-13.333 0 -22 3.33301 -26 10c-4 22.667 -11.667 46 -23 70s-30.666 53 -57.999 87
s-69.333 61.667 -126 83s-123.667 32 -201 32c-125.333 0 -233.333 -53.333 -324 -160s-140 -229.334 -148 -368.001l782 20v-114l-782 18c8 -160 57 -295 147 -405s214.333 -165 373 -165c129.333 0 231.333 38.667 306 116c18.667 20 35 46 49 78s24.333 59 31 81
s12 33 16 33c9.33301 0 19.666 -1.33301 30.999 -4s20.333 -5.33398 27 -8.00098l10 -4c0 -14.667 -9.66699 -65.667 -29 -153s-33 -133 -41 -137c-96 -58.667 -254.667 -88 -476 -88c-176 0 -325.667 64.667 -449 194s-185 282.666 -185 459.999z" />
    <glyph glyph-name="afii10054" unicode="&#x405;" horiz-adv-x="982" 
d="M82 356c0 8 10.667 11.9951 32 11.9951s38 -6 50 -18c45.333 -192 156 -288 332 -288c66.667 0 123.334 20 170.001 60s70 96.667 70 170c0 26.667 -4 51.334 -12 74.001s-16.333 41.334 -25 56.001s-24 30.334 -46 47.001s-39 29 -51 37s-34 20.667 -66 38l-66 36
l-81 48c-15.333 9.33301 -40.666 25.666 -75.999 48.999s-61 44 -77 62l-56 66c-21.333 26 -36.333 53.667 -45 83s-13 60 -13 92c0 102.667 39.333 186.667 118 252s170 98 274 98c29.333 0 57 -1.66699 83 -5s47 -7 63 -11l72 -18c32 -8 60 -14.667 84 -20
c16 -72 24 -168 24 -288c0 -8 -6.66699 -12 -20 -12c-33.333 0 -51.333 6 -54 18c-6.66699 60 -34.667 117.333 -84 172s-110.666 82 -183.999 82c-78.667 0 -134.334 -20 -167.001 -60s-49 -88.667 -49 -146c0 -25.333 4.66699 -50 14 -74s18.333 -43.333 27 -58
s26 -32.667 52 -54s44 -35.333 54 -42l69 -44l64 -40c8 -5.33301 31.333 -19.666 70 -42.999s65.667 -40.333 81 -51s38.666 -28.667 69.999 -54s54 -48 68 -68s27.333 -45 40 -75s19 -61 19 -93c0 -106.667 -41.667 -194.334 -125 -263.001s-181 -103 -293 -103
c-32 0 -66 2.33301 -102 7s-66 9.33398 -90 14.001s-54.333 11.334 -91 20.001s-62.334 14.334 -77.001 17.001c-33.333 164 -50 270 -50 318z" />
    <glyph glyph-name="afii10055" unicode="&#x406;" horiz-adv-x="638" 
d="M76 24c0 18.667 2.66797 28 8.00098 28c18.667 0 45 4 79 12s53 17.333 57 28c9.33301 36 14 95.333 14 178v774c0 81.333 -4.66699 140.666 -14 177.999c-4 9.33301 -23.333 18.333 -58 27s-60.667 13 -78 13c-5.33301 0 -8 9.33301 -8 28c0 17.333 2.66699 27.333 8 30
c24 0 61.667 -1.33301 113 -4s93.666 -4 126.999 -4s76.333 1.33301 129 4s87.667 4 105 4c2.66699 -5.33301 4 -14.666 4 -27.999c0 -20 -2.66699 -30 -8 -30c-13.333 0 -37.666 -4.33301 -72.999 -13s-54.333 -17.667 -57 -27c-10.667 -42.667 -16 -104.667 -16 -186v-758
c0 -82.667 5.33301 -144.667 16 -186c2.66699 -9.33301 21.667 -18.333 57 -27s59.666 -13 72.999 -13c5.33301 0 8 -10 8 -30c0 -10.667 -1.33301 -20 -4 -28c-133.333 6.66699 -211.333 10 -234 10c-6.66699 0 -86.667 -3.33301 -240 -10
c-5.33301 5.33301 -8 15.333 -8 30z" />
    <glyph glyph-name="afii10056" unicode="&#x407;" horiz-adv-x="668" 
d="M54 1556c0 26.667 9.66699 50 29 70s43 30 71 30s51.667 -10 71 -30s29 -43.333 29 -70c0 -29.333 -9.66699 -53.333 -29 -72s-43 -28 -71 -28s-51.667 9.33301 -71 28s-29 42.667 -29 72zM82 24c0 18.667 2.66504 28 7.99805 28c17.333 0 43 4 77 12s53 17.333 57 28
c9.33301 36 14 95.333 14 178v776c0 81.333 -4.66699 140.666 -14 177.999c-4 9.33301 -23.333 18.333 -58 27s-60 13 -76 13c-5.33301 0 -8 9.33301 -8 28c0 17.333 2.66699 27.333 8 30c24 0 61.333 -1.33301 112 -4s92.667 -4 126 -4s76.333 1.33301 129 4
s87.667 4 105 4c2.66699 -5.33301 4 -14.666 4 -27.999c0 -20 -2.66699 -30 -8 -30c-12 0 -35.667 -4.33301 -71 -13s-54.333 -17.667 -57 -27c-12 -42.667 -18 -104.667 -18 -186v-760c0 -84 6 -146 18 -186c2.66699 -9.33301 21.334 -18.333 56.001 -27s58.667 -13 72 -13
c5.33301 0 8 -10 8 -30c0 -10.667 -1.33301 -20 -4 -28c-133.333 6.66699 -211.333 10 -234 10c-5.33301 0 -84.666 -3.33301 -237.999 -10c-5.33301 5.33301 -8 15.333 -8 30zM413.998 1556c0 26.667 10 50 30 70s44 30 72 30s51.667 -10 71 -30s29 -43.333 29 -70
c0 -29.333 -9.66699 -53.333 -29 -72s-43 -28 -71 -28s-52 9.66699 -72 29s-30 43 -30 71z" />
    <glyph glyph-name="afii10057" unicode="&#x408;" horiz-adv-x="888" 
d="M54 -348c0 29.333 12.334 53.333 37.001 72s53.667 28 87 28c24 0 51 -14.333 81 -43s53.667 -43 71 -43c18.667 0 37.667 9.33301 57 28s38.333 46 57 82s34 87 46 153s18 141 18 225v892c0 81.333 -4.66699 140.666 -14 177.999c-4 9.33301 -23.333 18.333 -58 27
s-60 13 -76 13c-5.33301 0 -8 9.33301 -8 28c0 17.333 2.66699 27.333 8 30c26.667 0 65 -1.66699 115 -5s91.667 -5 125 -5s75 1.66699 125 5s85.667 5 107 5c2.66699 -5.33301 4 -14.666 4 -27.999c0 -20 -3.33301 -30 -10 -30c-12 0 -35.333 -4.66699 -70 -14
s-53.334 -18 -56.001 -26c-12 -48 -18 -110 -18 -186v-868c0 -168 -47 -314 -141 -438s-213.667 -186 -359 -186c-14.667 0 -30.667 2.66699 -48 8s-31.333 10.666 -42 15.999l-14 8c-16 18.667 -24 43.334 -24 74.001z" />
    <glyph glyph-name="afii10058" unicode="&#x409;" horiz-adv-x="1820" 
d="M20 -12v38c85.333 52 155.333 125.333 210 220c48 86.667 88.333 206.334 121 359.001s49 328.334 49 527.001v20l-2 40c-4 20 -14 34 -30 42c-38.667 18.667 -91.334 28 -158.001 28c-5.33301 0 -8 10 -8 30c0 13.333 1.33301 22.666 4 27.999
c194.667 -5.33301 352.667 -8 474 -8c73.333 0 243.333 3.33301 510 10c2.66699 -5.33301 4 -14.666 4 -27.999c0 -20 -2.66699 -30 -8 -30c-13.333 0 -37.666 -4.33301 -72.999 -13s-54.333 -17.667 -57 -27c-10.667 -42.667 -16 -104.667 -16 -186v-280
c104 8 186 10.667 246 8c121.333 -5.33301 227 -45 317 -119s135 -161.667 135 -263c0 -114.667 -46.333 -207.334 -139 -278.001s-215 -106 -367 -106h-140h-272l-104 -6c-5.33301 5.33301 -8 15.333 -8 30c0 18.667 2.66699 28 8 28c18.667 0 45 4 79 12s53 17.333 57 28
c9.33301 36 14 95.333 14 178v774c0 93.333 -2.66699 153.333 -8 180c-8 10.667 -30.667 16 -68 16h-208c-40 0 -64.333 -3.33301 -73 -10s-13 -23.334 -13 -50.001c0 -561.333 -68 -932 -204 -1112c-52 -66.667 -100 -100 -144 -100c-56 0 -98.667 6.66699 -128 20z
M1040 284c0 -92 11.333 -147.335 34 -166.002c20 -18.667 56 -28 108 -28c24 0 49 1.33301 75 4s57.333 9.66699 94 21s69 26.333 97 45s52 45.334 72 80.001s30 75.334 30 122.001c0 86.667 -28.667 161.667 -86 225s-147.333 95 -270 95c-28 0 -76.667 -2.66699 -146 -8
c-5.33301 -16 -8 -38 -8 -66v-324z" />
    <glyph glyph-name="afii10059" unicode="&#x40a;" horiz-adv-x="1968" 
d="M82 24c0 18.667 2.66602 28.001 7.99902 28.001c18.667 0 45 4 79 12s53 17.333 57 28c9.33301 36 14 95.333 14 178v776c0 81.333 -4.66699 140.666 -14 177.999c-4 9.33301 -23.333 18.333 -58 27s-60.667 13 -78 13c-5.33301 0 -8 9.33301 -8 28
c0 17.333 2.66699 27.333 8 30c26.667 0 65.334 -1.66699 116.001 -5s92 -5 124 -5c33.333 0 75.333 1.66699 126 5s86.667 5 108 5c2.66699 -5.33301 3.66699 -16.333 3 -33s-3 -25 -7 -25c-13.333 0 -37.666 -4.33301 -72.999 -13s-54.333 -17.667 -57 -27
c-10.667 -42.667 -16 -104.667 -16 -186v-280l2 -6c130.667 -2.66699 232.667 -4 306 -4c76 0 174 1.33301 294 4c2.66699 2.66699 4 5.33398 4 8.00098v286c0 80 -4 139.333 -12 178c-4 9.33301 -23.333 18.333 -58 27s-60.667 13 -78 13c-5.33301 0 -8 8.66699 -8 26
s2.66699 28 8 32c26.667 0 65.334 -1.66699 116.001 -5s92.667 -5 126 -5s74.666 1.66699 123.999 5s84.666 5 105.999 5c2.66699 -5.33301 4 -14.666 4 -27.999c0 -20 -2.66699 -30 -8 -30c-13.333 0 -37.666 -4.33301 -72.999 -13s-54.333 -17.667 -57 -27
c-10.667 -42.667 -16 -104.667 -16 -186v-280c104 8 186 10.667 246 8c121.333 -5.33301 227 -45 317 -119s135 -161.667 135 -263c0 -114.667 -46.333 -207.334 -139 -278.001s-215 -106 -367 -106h-276c-66.667 0 -146 -2 -238 -6c-5.33301 5.33301 -8 16.333 -8 33
s2.66699 25 8 25c18.667 0 45 4 79 12s53 17.333 57 28c8 37.333 12 96.666 12 177.999v372l-4 8c-122.667 2.66699 -220.667 4 -294 4c-205.333 0 -308 -3.33301 -308 -10v-366c0 -82.667 5.33301 -144.667 16 -186c2.66699 -9.33301 21.667 -18.333 57 -27
s59.666 -13 72.999 -13c4 0 6.33301 -8 7 -24s-0.333008 -27.333 -3 -34c-133.333 6.66699 -211.333 10 -234 10c-6.66699 0 -86.667 -3.33301 -240 -10c-5.33301 5.33301 -8 15.333 -8 30zM1194 284.001c0 -92 11.333 -147.335 34 -166.002c20 -18.667 56 -28 108 -28
c24 0 49 1.33301 75 4s57.333 9.66699 94 21s69 26.333 97 45s52 45.334 72 80.001s30 75.334 30 122.001c0 86.667 -28.667 161.667 -86 225s-147.333 95 -270 95c-28 0 -76.667 -2.66699 -146 -8c-5.33301 -16 -8 -38 -8 -66v-324z" />
    <glyph glyph-name="afii10060" unicode="&#x40b;" horiz-adv-x="1638" 
d="M52 1056l38 284c53.333 -13.333 99.333 -20 138 -20c50.667 0 121.667 -1.33301 213 -4s166.333 -4 225 -4c57.333 0 132.333 1.33301 225 4s164.334 4 215.001 4c41.333 0 86.666 6.66699 135.999 20l40 -284c-9.33301 -9.33301 -25.333 -14 -48 -14
c-12 0 -18.667 3.33301 -20 10c-20 74.667 -43.333 123 -70 145s-78.667 33 -156 33c-140 0 -212.667 -10 -218 -30c-12 -42.667 -18 -110 -18 -202v-238c106.667 26.667 207.334 40 302.001 40c40 0 80 -4.33301 120 -13s80 -22.667 120 -42s72.667 -48.333 98 -87
s38 -84 38 -136v-286c0 -53.333 4.66699 -101.333 14 -144c4 -9.33301 23.333 -18.333 58 -27s60.667 -13 78 -13c5.33301 0 8 -9.33301 8 -28c0 -17.333 -2.66699 -27.333 -8 -30c-26.667 0 -65.334 1.66699 -116.001 5s-92 5 -124 5c-33.333 0 -75.333 -1.66699 -126 -5
s-86.667 -5 -108 -5c-2.66699 5.33301 -3.66699 16.333 -3 33s3 25 7 25c13.333 0 37.666 4.33301 72.999 13s54.333 17.667 57 27c10.667 42.667 16 104.667 16 186v164c0 94.667 -26.667 161 -80 199s-117.333 57 -192 57c-77.333 0 -154.666 -8.66699 -231.999 -26v-394
c0 -77.333 6 -139.333 18 -186c2.66699 -9.33301 21.334 -18.333 56.001 -27s58.667 -13 72 -13c4 0 6 -10 6 -30c0 -10.667 -1.33301 -20 -4 -28c-133.333 6.66699 -210 10 -230 10c-6.66699 0 -86.667 -3.33301 -240 -10c-5.33301 5.33301 -8 15.333 -8 30
c0 18.667 2.66699 28 8 28c17.333 0 42.666 4 75.999 12s52 17.333 56 28c10.667 34.667 16 94 16 178v722c0 116 -6.66699 185.333 -20 208c-8 20 -79.333 30 -214 30c-76 0 -127.667 -11 -155 -33s-50.333 -70.333 -69 -145c-1.33301 -6.66699 -8 -10 -20 -10
c-22.667 0 -38.667 4.66699 -48 14z" />
    <glyph glyph-name="afii10061" unicode="&#x40c;" horiz-adv-x="1410" 
d="M84 24c0 18.667 2.66309 28.0029 7.99609 28.0029c17.333 0 43 4 77 12s53 17.333 57 28c9.33301 36 14 95.333 14 178v776c0 81.333 -4.66699 140.666 -14 177.999c-4 9.33301 -23.333 18.333 -58 27s-60 13 -76 13c-5.33301 0 -8 9.33301 -8 28
c0 17.333 2.66699 27.333 8 30c26.667 0 65 -1.66699 115 -5s91 -5 123 -5c33.333 0 75.333 1.66699 126 5s86.667 5 108 5c2.66699 -5.33301 3.66699 -16.333 3 -33s-3 -25 -7 -25c-13.333 0 -37.333 -4.33301 -72 -13s-53.334 -17.667 -56.001 -27
c-12 -42.667 -18 -104.667 -18 -186v-302c0 -10.667 4.66699 -16 14 -16h14c16 0 27.333 0.666992 34 2c46.667 5.33301 79.334 12.666 98.001 21.999s42 27.333 70 54c9.33301 8 18 17 26 27s16.333 22.333 25 37l22 37c6 10 14 26 24 48l23 51l28 64l30 68
c62.667 138.667 151.334 209.334 266.001 212.001c33.333 0 60 -7.66699 80 -23s30 -34.333 30 -57c0 -16 -8.66699 -29.667 -26 -41s-36.666 -17 -57.999 -17h-44c-42.667 0 -79 -17.667 -109 -53s-69.667 -104.333 -119 -207c-33.333 -68 -68 -122.667 -104 -164
s-66 -69.333 -90 -84v-6c141.333 -42.667 236.666 -106 285.999 -190c6.66699 -12 28.667 -54 66 -126s70.666 -131.333 99.999 -178c20 -30.667 40 -55.334 60 -74.001s44 -32.334 72 -41.001s48.333 -14 61 -16s38.334 -5 77.001 -9c5.33301 0 8 -8.66699 8 -26
s-1.33301 -29.333 -4 -36c-8 0 -33 1 -75 3s-74.333 3 -97 3c-128 0 -224.667 52.667 -290 158c-13.333 20 -39.666 65.333 -78.999 136l-87 156c-33.333 66.667 -72 113.667 -116 141s-95.333 42.333 -154 45c-8 1.33301 -24 2 -48 2c-9.33301 0 -14 -5.33301 -14 -16v-344
c0 -84 6 -146 18 -186c2.66699 -9.33301 21.334 -18.333 56.001 -27s58.667 -13 72 -13c4 0 6.33301 -8 7 -24s-0.333008 -27.333 -3 -34c-133.333 6.66699 -211.333 10 -234 10c-5.33301 0 -84.666 -3.33301 -237.999 -10c-5.33301 5.33301 -8 15.333 -8 30zM559.996 1482
c0 9.33301 30.668 43.668 92.001 103.001s110.666 103 147.999 131c5.33301 4 17.333 6 36 6c34.667 0 60.667 -6.33301 78 -19s26 -26.334 26 -41.001c0 -32 -53 -74.333 -159 -127s-172.333 -79 -199 -79c-14.667 0 -22 8.66699 -22 26z" />
    <glyph glyph-name="uni040D" unicode="&#x40d;" horiz-adv-x="1432" 
d="M84 22c0 20 2.66797 30 8.00098 30c13.333 0 37.666 4.33301 72.999 13s54.333 17.667 57 27c10.667 42.667 16 104.667 16 186v760c0 82.667 -5.33301 144.667 -16 186c-2.66699 9.33301 -21.667 18.333 -57 27s-59.666 13 -72.999 13c-5.33301 0 -8 10 -8 30
c0 10.667 1.33301 20 4 28c133.333 -6.66699 211.333 -10 234 -10c6.66699 0 86.667 3.33301 240 10c5.33301 -5.33301 8 -15.333 8 -30c0 -18.667 -2.66699 -28 -8 -28c-18.667 0 -45 -4 -79 -12s-53 -17.333 -57 -28c-9.33301 -36 -14 -95.333 -14 -178v-716
c0 -34.667 -2.66699 -82.667 -8 -144l580 1040c12 20 19.333 38.667 22 56v10c0 18.667 1.33301 28.667 4 30c85.333 -5.33301 132.666 -8 141.999 -8c32 0 67 1.33301 105 4s67.667 4 89 4c2.66699 -5.33301 4 -14.666 4 -27.999c0 -20 -2.66699 -30 -8 -30
c-13.333 0 -37.666 -4.33301 -72.999 -13s-54.333 -17.667 -57 -27c-10.667 -42.667 -16 -104.667 -16 -186v-760c0 -82.667 5.33301 -144.667 16 -186c2.66699 -9.33301 21.667 -18.333 57 -27s59.666 -13 72.999 -13c5.33301 0 8 -10 8 -30c0 -10.667 -1.33301 -20 -4 -28
c-133.333 6.66699 -211.333 10 -234 10c-6.66699 0 -86.667 -3.33301 -240 -10c-5.33301 5.33301 -8 15.333 -8 30c0 18.667 2.66699 28 8 28c18.667 0 45 4 79 12s53 17.333 57 28c9.33301 36 14 95.333 14 178v716c0 22.667 1.66699 54 5 94s5 64.667 5 74h-2l-588 -1054
c-12 -20 -18 -46 -18 -78c0 -16 -1.33301 -25.333 -4 -28c-85.333 5.33301 -131.333 8 -138 8c-32 0 -67 -1.33301 -105 -4s-67.667 -4 -89 -4c-2.66699 5.33301 -4 14.666 -4 27.999zM446.001 1662c0 14.667 8.33203 28.332 24.999 40.999s42.334 19 77.001 19
c17.333 0 30 -2 38 -6c36 -28 84.667 -71.667 146 -131s92 -93.666 92 -102.999c0 -17.333 -7.33301 -26 -22 -26c-25.333 0 -91 26.667 -197 80s-159 95.333 -159 126z" />
    <glyph glyph-name="afii10062" unicode="&#x40e;" horiz-adv-x="1370" 
d="M36 1292c0 17.333 2.66406 27.3291 7.99707 29.9961c28 0 66 -1.66699 114 -5s90 -5 126 -5c37.333 0 85.333 1.66699 144 5s96.667 5 114 5c2.66699 -5.33301 3.66699 -15.333 3 -30s-3 -22 -7 -22c-21.333 0 -46.333 -6 -75 -18s-43 -28.667 -43 -50
c0 -13.333 6.66699 -33.333 20 -60l304 -630c5.33301 -9.33301 12 -8 20 4c98.667 224 172.667 407.333 222 550c25.333 73.333 38 119.333 38 138c0 14.667 -14.333 29.334 -43 44.001s-62.334 22 -101.001 22c-4 0 -6 7.66699 -6 23s2 25 6 29
c18.667 0 59 -1.66699 121 -5s107 -5 135 -5c38.667 0 76.667 1.66699 114 5s66 5 86 5c4 -4 6 -13.333 6 -28c0 -16 -3.33301 -24 -10 -24c-14.667 0 -43.667 -6.33301 -87 -19s-71.666 -27 -84.999 -43c-12 -20 -40 -75.333 -84 -166
c-25.333 -52 -84.333 -185.667 -177 -401s-153.667 -353.666 -183 -414.999c-89.333 -184 -192.666 -278.667 -309.999 -284c-61.333 -2.66699 -111.333 8 -150 32c-12 22.667 -17.667 52.334 -17 89.001s14.334 59.667 41.001 69c32 12 71.333 0.666992 118 -34
c10.667 -10.667 22.667 -18 36 -22c9.33301 -2.66699 23.333 -4 42 -4c45.333 0 85 28.333 119 85s51 100.334 51 131.001c0 28 -11.333 65.333 -34 112c-22.667 50.667 -78.667 167.667 -168 351s-146.666 299 -171.999 347c-20 38.667 -36 66 -48 82
s-28.667 31.333 -50 46c-17.333 9.33301 -40.333 19 -69 29s-49 15 -61 15c-5.33301 0 -8 7.33301 -8 22zM445.997 1572c0 21.333 6.99902 40.667 20.999 58s31.667 26 53 26c24 0 41.667 -9 53 -27s16.333 -37.667 15 -59c0 -54.667 36 -82 108 -82
c36 0 62.667 7.33301 80 22s25.333 34.667 24 60c-1.33301 22.667 4.33398 42.667 17.001 60s31 26 55 26c22.667 0 40.667 -8 54 -24s20 -35.333 20 -58c0 -49.333 -23 -89 -69 -119s-106.333 -45 -181 -45h-2c-76 0 -136.333 15 -181 45s-67 69 -67 117z" />
    <glyph glyph-name="afii10145" unicode="&#x40f;" horiz-adv-x="1336" 
d="M76 36c0 17.333 3.33398 25.998 10.001 25.998c16 0 42 4.66699 78 14s56 18.666 60 27.999c8 32 12 89.333 12 172v770c0 89.333 -4 149.333 -12 180c-4 10.667 -23 20 -57 28s-59.667 12 -77 12c-5.33301 0 -8 9.33301 -8 28c0 14.667 2.66699 24.667 8 30
c153.333 -6.66699 232.666 -10 237.999 -10c22.667 0 100.667 3.33301 234 10c2.66699 -8 4 -17.333 4 -28c0 -20 -2.66699 -30 -8 -30c-13.333 0 -37.333 -4.33301 -72 -13s-53.334 -17.667 -56.001 -27c-13.333 -45.333 -20 -107.333 -20 -186v-760
c0 -78.667 3.33301 -134.667 10 -168c2.66699 -18.667 85.334 -28 248.001 -28c158.667 0 239.334 9.33301 242.001 28c5.33301 26.667 8 82.667 8 168v760c0 82.667 -5.33301 144.667 -16 186c-2.66699 9.33301 -21.334 18.333 -56.001 27s-59.334 13 -74.001 13
c-5.33301 0 -8 10 -8 30c0 10.667 1.33301 20 4 28c133.333 -6.66699 211.333 -10 234 -10c6.66699 0 86.667 3.33301 240 10c5.33301 -5.33301 8 -15.333 8 -30c0 -18.667 -2.66699 -28 -8 -28c-17.333 0 -43.333 -4 -78 -12s-54 -17.333 -58 -28
c-9.33301 -36 -14 -96 -14 -180v-770c0 -77.333 4.66699 -134.666 14 -171.999c4 -9.33301 24.333 -18.666 61 -27.999s63 -14 79 -14c5.33301 0 8 -8.66699 8 -26s-2.66699 -28.666 -8 -33.999c-153.333 -1.33301 -290 -2 -410 -2
c-38.667 -5.33301 -67.334 -24 -86.001 -56c-9.33301 -10.667 -19.666 -56 -30.999 -136s-17 -138 -17 -174c0 -16 -10 -24 -30 -24s-30 8 -30 24c0 36 -5.66699 94 -17 174s-21.666 125.333 -30.999 136c-20 32 -49.333 50.667 -88 56l-420 2
c-6.66699 6.66699 -10 18 -10 34z" />
    <glyph glyph-name="afii10017" unicode="&#x410;" horiz-adv-x="1368" 
d="M40 24c0 18.667 2.66406 27.999 7.99707 27.999c16 0 36.667 3.33301 62 10s42.666 16 51.999 28c28 36 59.333 98.667 94 188l348 894c2.66699 6.66699 6.33398 17.334 11.001 32.001s8.33398 25.667 11.001 33s6.66699 16.666 12 27.999s10 19.666 14 24.999
s9 11.333 15 18s12.667 11.334 20 14.001s15.666 4 24.999 4l18 -6l400 -1056c24 -62.667 43.333 -110.667 58 -144c8 -20 28.667 -36.333 62 -49s58 -19 74 -19c5.33301 0 8 -12.667 8 -38c0 -5.33301 -1.33301 -12 -4 -20c-133.333 6.66699 -206.666 10 -219.999 10
c-1.33301 0 -78.666 -3.33301 -231.999 -10c-5.33301 5.33301 -7.66602 16.333 -6.99902 33s3.66699 25 9 25c16 0 36 3.33301 60 10s38 15.334 42 26.001c2.66699 10.667 4 21.334 4 32.001c0 17.333 -2.33301 37.666 -7 60.999s-9 41.666 -13 54.999l-8 22l-82 226
c-4 5.33301 -8 8 -12 8c-52 4 -102.667 6 -152 6c-69.333 0 -154 -3.33301 -254 -10l-10 -6l-86 -220c-22.667 -66.667 -34 -112.667 -34 -138c0 -18.667 5.33301 -32 16 -40c12 -9.33301 31.333 -17 58 -23s46 -9 58 -9c4 0 6.33301 -8 7 -24s-0.333008 -27.333 -3 -34
c-133.333 6.66699 -202 10 -206 10c-26.667 0 -50 -0.666992 -70 -2s-42.333 -2.66602 -67 -3.99902l-71 -4c-5.33301 5.33301 -8 15.333 -8 30zM493.997 605.999c0 -5.33301 1.33301 -8 4 -8c69.333 -2.66699 116.666 -4 141.999 -4c58.667 0 119.334 2 182.001 6l6 10
l-162 442z" />
    <glyph glyph-name="afii10018" unicode="&#x411;" horiz-adv-x="1186" 
d="M80 26c0 17.333 2 26.0039 6 26.0039c17.333 0 43 4.66699 77 14s54.333 20 61 32c9.33301 16 14 78.667 14 188v756c0 82.667 -4 140 -12 172c-4 9.33301 -24 18.666 -60 27.999s-62 14 -78 14c-5.33301 0 -8 8.66699 -8 26s2.66699 28.666 8 33.999
c69.333 -2.66699 148 -4 236 -4c61.333 0 165.666 2.33301 312.999 7s259 7 335 7c5.33301 -38.667 15.333 -90.334 30 -155.001l26 -115c-6.66699 -6.66699 -18 -10 -34 -10c-17.333 0 -26.666 4.66699 -27.999 14c-21.333 73.333 -49.666 120.333 -84.999 141
s-84.333 31 -147 31h-134c-114.667 0 -173.334 -8.66699 -176.001 -26c-8 -32 -12 -88 -12 -168v-280c104 8 185.333 10.667 244 8c121.333 -5.33301 227 -45 317 -119s135 -161.667 135 -263c0 -114.667 -46.333 -207.334 -139 -278.001s-215 -106 -367 -106h-276l-240 -6
c-4 4 -6 14.667 -6 32zM412 284.004c0 -93.333 10.667 -148.669 32 -166.002c20 -18.667 56 -28 108 -28c24 0 49 1.33301 75 4s57.333 9.66699 94 21s69 26.333 97 45s52 45.334 72 80.001s30 75.334 30 122.001c0 86.667 -28.667 161.667 -86 225s-147.333 95 -270 95
c-30.667 0 -80.667 -2.66699 -150 -8c-1.33301 -4 -2 -26 -2 -66v-324z" />
    <glyph glyph-name="afii10019" unicode="&#x412;" horiz-adv-x="1184" 
d="M72 1282c0 17.333 2.66797 28.667 8.00098 34c69.333 -2.66699 148.666 -4 237.999 -4c68 0 123.667 0.333008 167 1s81.666 1 114.999 1c34.667 0 70 -3 106 -9s73 -17 111 -33s71.667 -36 101 -60s53.333 -55.667 72 -95s28 -83 28 -131s-15.333 -92.667 -46 -134
s-59 -70 -85 -86s-48.333 -27.333 -67 -34c-10.667 -4 -14 -8 -10 -12c52 -9.33301 114 -47 186 -113s108 -143.667 108 -233c0 -114.667 -46.333 -205.667 -139 -273s-215.667 -101 -369 -101h-274l-242 -6c-4 4 -6 14.667 -6 32s2 26 6 26c17.333 0 43 4.66699 77 14
s54.333 20 61 32c9.33301 16 14 78.667 14 188v756c0 78.667 -4.66699 136 -14 172c-4 10.667 -23.667 20.667 -59 30s-61.666 14 -78.999 14c-5.33301 0 -8 8 -8 24zM406.001 296.001c0 -101.333 10.667 -160.666 32 -177.999c20 -18.667 56 -28 108 -28
c33.333 0 66.333 2.66699 99 8s71.667 15.666 117 30.999s82 42 110 80s42 85.667 42 143c0 85.333 -28.667 158.333 -86 219s-147.333 91 -270 91c-29.333 0 -77.333 -2.66699 -144 -8c-5.33301 -16 -8 -38 -8 -66v-292zM406.001 760.001
c0 -9.33301 43.998 -14.001 131.998 -14.001c42.667 0 80 2 112 6c54.667 5.33301 100.334 24.333 137.001 57s55 76.334 55 131.001c0 92 -23 163.667 -69 215s-114.333 77 -205 77c-61.333 0 -108.666 -4.66699 -141.999 -14c-8 -1.33301 -12 -7.33301 -12 -18l-8 -202
v-238z" />
    <glyph glyph-name="afii10020" unicode="&#x413;" horiz-adv-x="1020" 
d="M58 1282c0 17.333 2.66602 28.667 7.99902 34c69.333 -2.66699 148.666 -4 237.999 -4c60 0 164 2.66699 312 8s259.333 8 334 8c5.33301 -38.667 15.666 -89.667 30.999 -153s24.333 -103 27 -119c-6.66699 -6.66699 -18.667 -10 -36 -10s-26.666 4.66699 -27.999 14
c-20 73.333 -48 120.333 -84 141s-85.333 31 -148 31h-134c-114.667 0 -173.334 -8.66699 -176.001 -26c-6.66699 -32 -10 -88 -10 -168v-760c0 -77.333 6 -139.333 18 -186c2.66699 -9.33301 21.334 -18.333 56.001 -27s58.667 -13 72 -13c5.33301 0 8 -10 8 -30
c0 -10.667 -1.33301 -20 -4 -28c-133.333 6.66699 -210.666 10 -231.999 10c-6.66699 0 -86.667 -3.33301 -240 -10c-5.33301 5.33301 -8 15.333 -8 30c0 18.667 2.66699 28 8 28c17.333 0 43 4 77 12s53 17.333 57 28c9.33301 36 14 96 14 180v770
c0 78.667 -4.66699 136 -14 172c-4 10.667 -23.667 20.667 -59 30s-61.666 14 -78.999 14c-5.33301 0 -8 8 -8 24z" />
    <glyph glyph-name="afii10021" unicode="&#x414;" horiz-adv-x="1326" 
d="M48 -330l10.0068 368.006c0 17.333 2.66699 28.666 8 33.999h76c17.333 0 30.666 2.66699 39.999 8s18 16.666 26 33.999c57.333 113.333 101.333 263 132 449s46 375.667 46 569c-2.66699 37.333 -6.66699 67.333 -12 90c-4 9.33301 -24 18.666 -60 27.999
s-62 14 -78 14c-5.33301 0 -8 8.66699 -8 26s2.66699 28.666 8 33.999c49.333 0 123.666 -1.33301 222.999 -4s173.666 -4 222.999 -4c57.333 0 144 1.33301 260 4s202.667 4 260 4c5.33301 -5.33301 8 -16.666 8 -33.999s-2.66699 -26 -8 -26c-16 0 -42 -4.66699 -78 -14
s-56 -18.666 -60 -27.999c-5.33301 -20 -10.666 -77.333 -15.999 -172v-776c0 -102.667 6.66699 -163.334 20 -182.001c9.33301 -13.333 57.333 -20 144 -20h34c6.66699 -2.66699 8.66699 -11.334 6 -26.001c-6.66699 -29.333 -13.334 -66.333 -20.001 -111
s-13.334 -95.334 -20.001 -152.001s-11.334 -94.334 -14.001 -113.001c-13.333 -8 -31.333 -12 -54 -12c-8 0 -15.333 1 -22 3s-9.33398 5 -8.00098 9c8 48 7.66699 98.667 -1 152s-19 93.333 -31 120c-16 38.667 -68 58 -156 58h-544c-92 0 -150.667 -19.333 -176 -58
c-16 -25.333 -33.333 -65 -52 -119s-28.667 -105 -30 -153c0 -8 -8.66699 -12 -26 -12c-22.667 0 -39.334 4 -50.001 12zM331.007 102.006c4.66699 -9.33301 19.668 -14.001 45.001 -14.001h456c13.333 0 22.666 0.333008 27.999 1s9.66602 3.33398 12.999 8.00098
s5 11.667 5 21v1074c0 16 -2.33301 26.667 -7 32s-15 8 -31 8h-334c-10.667 0 -17.667 -3.66699 -21 -11s-5 -25 -5 -53c0 -414.667 -47.333 -754 -142 -1018c-9.33301 -22.667 -11.666 -38.667 -6.99902 -48z" />
    <glyph glyph-name="afii10022" unicode="&#x415;" horiz-adv-x="1140" 
d="M58 1282c0 17.333 2.66699 28.6738 8 34.0068c69.333 -2.66699 148.666 -4 237.999 -4c60 0 163.667 2.33301 311 7s259 7 335 7c5.33301 -38.667 15.333 -90.334 30 -155.001l26 -115c-6.66699 -6.66699 -18 -10 -34 -10c-17.333 0 -26.666 4.66699 -27.999 14
c-20 73.333 -48 120.333 -84 141s-85.333 31 -148 31h-134c-114.667 0 -173.334 -8.66699 -176.001 -26c-8 -32 -12 -88 -12 -168v-320c0 -8 28.667 -12 86 -12h108h81c16.667 0 34.334 2.66699 53.001 8s30.667 8.66602 36 9.99902s12.333 10 21 26s13.667 27.667 15 35
s6 26.333 14 57c1.33301 9.33301 10.666 14 27.999 14s29.333 -3.33301 36 -10v-378c-5.33301 -5.33301 -16.666 -8 -33.999 -8c-14.667 0 -24.667 4.66699 -30 14c-9.33301 37.333 -17.333 65 -24 83s-12 28.667 -16 32s-10 7.66602 -18 12.999
c-14.667 10.667 -84.667 16 -210 16c-97.333 0 -146 -6 -146 -18v-310c0 -88 6.66699 -148.667 20 -182c4 -13.333 49.333 -20 136 -20h96c122.667 0 206.667 11.333 252 34c49.333 26.667 91.333 94 126 202c2.66699 8 12 12 28 12c24 0 40 -4 48 -12
c-8 -24 -21 -60.333 -39 -109s-33 -91.334 -45 -128.001s-20 -68.334 -24 -95.001c-68 0 -175.333 1.33301 -322 4s-266.667 4 -360 4l-240 -6c-4 4 -6 14.667 -6 32s2 26 6 26c17.333 0 43 4.66699 77 14s54.333 20 61 32c9.33301 16 14 78.667 14 188v756
c0 77.333 -4.66699 134.666 -14 171.999c-4 9.33301 -24 18.666 -60 27.999s-62 14 -78 14c-5.33301 0 -8 8.66699 -8 26z" />
    <glyph glyph-name="afii10024" unicode="&#x416;" horiz-adv-x="2112" 
d="M34 30c0 17.333 2.66602 26.0029 7.99902 26.0029c81.333 8 138 21.333 170 40c37.333 20 70.666 53.333 99.999 100s62.666 106 99.999 178s59.333 114 66 126c49.333 84 144.666 147.333 285.999 190v6c-24 14.667 -54 42.667 -90 84s-70.667 96 -104 164
c-49.333 102.667 -89 171.667 -119 207s-66.333 53 -109 53h-44c-21.333 0 -40.666 5.66699 -57.999 17s-26 25 -26 41c0 22.667 10 41.667 30 57s46.667 23 80 23c114.667 -2.66699 203.334 -73.334 266.001 -212.001l48 -113l41 -97c8.66699 -20 19.667 -41.667 33 -65
s27.333 -42.333 42 -57c21.333 -21.333 36 -35.666 44 -42.999s20.667 -14.333 38 -21s40.666 -10.667 69.999 -12c4 0 10 -0.333008 18 -1s13.333 -1 16 -1h14c9.33301 0 14 5.33301 14 16v310c0 81.333 -4.66699 140.666 -14 177.999c-4 9.33301 -23.333 18.333 -58 27
s-60 13 -76 13c-5.33301 0 -8 9.33301 -8 28c0 17.333 2.66699 27.333 8 30c26.667 0 65 -1.66699 115 -5s91 -5 123 -5c33.333 0 75.333 1.66699 126 5s86.667 5 108 5c2.66699 -5.33301 3.66699 -16.333 3 -33s-3 -25 -7 -25c-13.333 0 -37.333 -4.33301 -72 -13
s-53.334 -17.667 -56.001 -27c-12 -42.667 -18 -104.667 -18 -186v-302c0 -10.667 4.66699 -16 14 -16h14c2.66699 0 8 0.333008 16 1s14 1 18 1c29.333 1.33301 52.666 5.33301 69.999 12s30 13.667 38 21s22.667 21.666 44 42.999c14.667 14.667 28.667 33.667 42 57
s24.333 45 33 65l41 97l48 113c62.667 138.667 151.334 209.334 266.001 212.001c33.333 0 60 -7.66699 80 -23s30 -34.333 30 -57c0 -16 -8.66699 -29.667 -26 -41s-36.666 -17 -57.999 -17h-44c-42.667 0 -79 -17.667 -109 -53s-69.667 -104.333 -119 -207
c-33.333 -68 -68 -122.667 -104 -164s-66 -69.333 -90 -84v-6c141.333 -42.667 236.666 -106 285.999 -190c6.66699 -12 28.667 -54 66 -126s70.666 -131.333 99.999 -178c20 -30.667 40 -55.334 60 -74.001s44 -32.334 72 -41.001s48.333 -14 61 -16s38.334 -5 77.001 -9
c5.33301 0 8 -8.66699 8 -26s-1.33301 -29.333 -4 -36c-8 0 -33 1 -75 3s-74.333 3 -97 3c-128 0 -224.667 52.667 -290 158c-13.333 20 -39.666 65.333 -78.999 136l-87 156c-34.667 69.333 -69.667 117 -105 143s-80.333 40.333 -135 43c-8 1.33301 -24 2 -48 2
c-9.33301 0 -14 -5.33301 -14 -16v-344c0 -84 6 -146 18 -186c2.66699 -9.33301 21.334 -18.333 56.001 -27s58.667 -13 72 -13c4 0 6.33301 -8 7 -24s-0.333008 -27.333 -3 -34c-133.333 6.66699 -211.333 10 -234 10c-5.33301 0 -84.666 -3.33301 -237.999 -10
c-5.33301 5.33301 -8 15.333 -8 30c0 18.667 2.66699 28 8 28c17.333 0 43 4 77 12s53 17.333 57 28c9.33301 36 14 95.333 14 178v352c0 10.667 -4.66699 16 -14 16c-24 0 -40 -0.666992 -48 -2c-54.667 -2.66699 -99.667 -17 -135 -43s-70.333 -73.667 -105 -143l-87 -156
c-39.333 -70.667 -65.666 -116 -78.999 -136c-65.333 -105.333 -162 -158 -290 -158c-22.667 0 -55 -1 -97 -3s-67 -3 -75 -3c-2.66699 6.66699 -4 18.667 -4 36z" />
    <glyph glyph-name="afii10025" unicode="&#x417;" horiz-adv-x="1052" 
d="M58 200c-9.33301 13.333 -6.00293 33.998 9.99707 61.998c32 57.333 70.667 74 116 50c10.667 -5.33301 19.334 -16 26.001 -32s13.334 -35.333 20.001 -58s13.334 -40 20.001 -52c20 -45.333 54.667 -80.666 104 -105.999c34.667 -17.333 78 -26 130 -26
c32 0 64 5.33301 96 16s63.333 27.334 94 50.001s55.667 56.334 75 101.001s29 97 29 157c0 86.667 -23.333 155.667 -70 207s-106.667 83.666 -180 96.999c-28 5.33301 -81.333 8 -160 8c-8 10.667 -8.66699 28.667 -2 54c2.66699 10.667 5.33398 16.667 8.00098 18
c109.333 -8 196.666 11.667 261.999 59s98 114.333 98 201c0 77.333 -22.333 141 -67 191s-93.667 75 -147 75c-54.667 0 -102.667 -11.333 -144 -34s-73.333 -52 -96 -88s-39.334 -67.333 -50.001 -94s-20 -53.334 -28 -80.001c-1.33301 -5.33301 -2 -8.66602 -2 -9.99902
c-8 -8 -17.333 -12 -28 -12s-20 2.33301 -28 7s-11.333 11 -10 19l28 292c33.333 8 74 19 122 33s88 23.667 120 29s72.667 8 122 8c118.667 0 212.334 -29 281.001 -87s103 -133 103 -225c0 -94.667 -35.333 -167.334 -106 -218.001
c-58.667 -41.333 -115.334 -70.666 -170.001 -87.999v-6c101.333 -16 183.333 -51.667 246 -107s94 -135 94 -239c0 -88 -26 -163.333 -78 -226s-114.667 -107.667 -188 -135s-150.666 -41 -231.999 -41c-76 0 -138 10.667 -186 32c-110.667 49.333 -188 115.333 -232 198z
" />
    <glyph glyph-name="afii10026" unicode="&#x418;" horiz-adv-x="1432" 
d="M84 22c0 20 2.66797 30 8.00098 30c13.333 0 37.666 4.33301 72.999 13s54.333 17.667 57 27c10.667 42.667 16 104.667 16 186v760c0 82.667 -5.33301 144.667 -16 186c-2.66699 9.33301 -21.667 18.333 -57 27s-59.666 13 -72.999 13c-5.33301 0 -8 10 -8 30
c0 10.667 1.33301 20 4 28c133.333 -6.66699 211.333 -10 234 -10c6.66699 0 86.667 3.33301 240 10c5.33301 -5.33301 8 -15.333 8 -30c0 -18.667 -2.66699 -28 -8 -28c-18.667 0 -45 -4 -79 -12s-53 -17.333 -57 -28c-9.33301 -36 -14 -95.333 -14 -178v-716
c0 -34.667 -2.66699 -82.667 -8 -144l580 1040c12 20 19.333 38.667 22 56v10c0 18.667 1.33301 28.667 4 30c85.333 -5.33301 132.666 -8 141.999 -8c32 0 67 1.33301 105 4s67.667 4 89 4c2.66699 -5.33301 4 -14.666 4 -27.999c0 -20 -2.66699 -30 -8 -30
c-13.333 0 -37.666 -4.33301 -72.999 -13s-54.333 -17.667 -57 -27c-10.667 -42.667 -16 -104.667 -16 -186v-760c0 -82.667 5.33301 -144.667 16 -186c2.66699 -9.33301 21.667 -18.333 57 -27s59.666 -13 72.999 -13c5.33301 0 8 -10 8 -30c0 -10.667 -1.33301 -20 -4 -28
c-133.333 6.66699 -211.333 10 -234 10c-6.66699 0 -86.667 -3.33301 -240 -10c-5.33301 5.33301 -8 15.333 -8 30c0 18.667 2.66699 28 8 28c18.667 0 45 4 79 12s53 17.333 57 28c9.33301 36 14 95.333 14 178v716c0 22.667 1.66699 54 5 94s5 64.667 5 74h-2l-588 -1054
c-12 -20 -18 -46 -18 -78c0 -16 -1.33301 -25.333 -4 -28c-85.333 5.33301 -131.333 8 -138 8c-32 0 -67 -1.33301 -105 -4s-67.667 -4 -89 -4c-2.66699 5.33301 -4 14.666 -4 27.999z" />
    <glyph glyph-name="afii10027" unicode="&#x419;" horiz-adv-x="1432" 
d="M84 22c0 20 2.66797 30 8.00098 30c13.333 0 37.666 4.33301 72.999 13s54.333 17.667 57 27c10.667 42.667 16 104.667 16 186v760c0 82.667 -5.33301 144.667 -16 186c-2.66699 9.33301 -21.667 18.333 -57 27s-59.666 13 -72.999 13c-5.33301 0 -8 10 -8 30
c0 10.667 1.33301 20 4 28c133.333 -6.66699 211.333 -10 234 -10c6.66699 0 86.667 3.33301 240 10c5.33301 -5.33301 8 -15.333 8 -30c0 -18.667 -2.66699 -28 -8 -28c-18.667 0 -45 -4 -79 -12s-53 -17.333 -57 -28c-9.33301 -36 -14 -95.333 -14 -178v-716
c0 -34.667 -2.66699 -82.667 -8 -144l580 1040c12 20 19.333 38.667 22 56v10c0 18.667 1.33301 28.667 4 30c85.333 -5.33301 132.666 -8 141.999 -8c32 0 67 1.33301 105 4s67.667 4 89 4c2.66699 -5.33301 4 -14.666 4 -27.999c0 -20 -2.66699 -30 -8 -30
c-13.333 0 -37.666 -4.33301 -72.999 -13s-54.333 -17.667 -57 -27c-10.667 -42.667 -16 -104.667 -16 -186v-760c0 -82.667 5.33301 -144.667 16 -186c2.66699 -9.33301 21.667 -18.333 57 -27s59.666 -13 72.999 -13c5.33301 0 8 -10 8 -30c0 -10.667 -1.33301 -20 -4 -28
c-133.333 6.66699 -211.333 10 -234 10c-6.66699 0 -86.667 -3.33301 -240 -10c-5.33301 5.33301 -8 15.333 -8 30c0 18.667 2.66699 28 8 28c18.667 0 45 4 79 12s53 17.333 57 28c9.33301 36 14 95.333 14 178v716c0 22.667 1.66699 54 5 94s5 64.667 5 74h-2l-588 -1054
c-12 -20 -18 -46 -18 -78c0 -16 -1.33301 -25.333 -4 -28c-85.333 5.33301 -131.333 8 -138 8c-32 0 -67 -1.33301 -105 -4s-67.667 -4 -89 -4c-2.66699 5.33301 -4 14.666 -4 27.999zM478.001 1572c0 21.333 6.99902 40.667 20.999 58s31.667 26 53 26
c24 0 41.667 -9 53 -27s16.333 -37.667 15 -59c0 -54.667 36 -82 108 -82c36 0 62.667 7.33301 80 22s25.333 34.667 24 60c-1.33301 22.667 4.33398 42.667 17.001 60s31 26 55 26c22.667 0 40.667 -8 54 -24s20 -35.333 20 -58c0 -49.333 -23 -89 -69 -119
s-106.333 -45 -181 -45h-2c-76 0 -136.333 15 -181 45s-67 69 -67 117z" />
    <glyph glyph-name="afii10028" unicode="&#x41a;" horiz-adv-x="1410" 
d="M84 24c0 18.667 2.66309 28.0029 7.99609 28.0029c17.333 0 43 4 77 12s53 17.333 57 28c9.33301 36 14 95.333 14 178v776c0 81.333 -4.66699 140.666 -14 177.999c-4 9.33301 -23.333 18.333 -58 27s-60 13 -76 13c-5.33301 0 -8 9.33301 -8 28
c0 17.333 2.66699 27.333 8 30c26.667 0 65 -1.66699 115 -5s91 -5 123 -5c33.333 0 75.333 1.66699 126 5s86.667 5 108 5c2.66699 -5.33301 3.66699 -16.333 3 -33s-3 -25 -7 -25c-13.333 0 -37.333 -4.33301 -72 -13s-53.334 -17.667 -56.001 -27
c-12 -42.667 -18 -104.667 -18 -186v-302c0 -10.667 4.66699 -16 14 -16h14c16 0 27.333 0.666992 34 2c46.667 5.33301 79.334 12.666 98.001 21.999s42 27.333 70 54c9.33301 8 18 17 26 27s16.333 22.333 25 37l22 37c6 10 14 26 24 48l23 51l28 64l30 68
c62.667 138.667 151.334 209.334 266.001 212.001c33.333 0 60 -7.66699 80 -23s30 -34.333 30 -57c0 -16 -8.66699 -29.667 -26 -41s-36.666 -17 -57.999 -17h-44c-42.667 0 -79 -17.667 -109 -53s-69.667 -104.333 -119 -207c-33.333 -68 -68 -122.667 -104 -164
s-66 -69.333 -90 -84v-6c141.333 -42.667 236.666 -106 285.999 -190c6.66699 -12 28.667 -54 66 -126s70.666 -131.333 99.999 -178c20 -30.667 40 -55.334 60 -74.001s44 -32.334 72 -41.001s48.333 -14 61 -16s38.334 -5 77.001 -9c5.33301 0 8 -8.66699 8 -26
s-1.33301 -29.333 -4 -36c-8 0 -33 1 -75 3s-74.333 3 -97 3c-128 0 -224.667 52.667 -290 158c-13.333 20 -39.666 65.333 -78.999 136l-87 156c-33.333 66.667 -72 113.667 -116 141s-95.333 42.333 -154 45c-8 1.33301 -24 2 -48 2c-9.33301 0 -14 -5.33301 -14 -16v-344
c0 -84 6 -146 18 -186c2.66699 -9.33301 21.334 -18.333 56.001 -27s58.667 -13 72 -13c4 0 6.33301 -8 7 -24s-0.333008 -27.333 -3 -34c-133.333 6.66699 -211.333 10 -234 10c-5.33301 0 -84.666 -3.33301 -237.999 -10c-5.33301 5.33301 -8 15.333 -8 30z" />
    <glyph glyph-name="afii10029" unicode="&#x41b;" horiz-adv-x="1286" 
d="M26 -12l0.00292969 37.999c85.333 52 155.333 125.333 210 220c48 86.667 88.333 206.334 121 359.001s49 328.334 49 527.001v20l-2 40c-4 20 -14 34 -30 42c-38.667 18.667 -91.334 28 -158.001 28c-5.33301 0 -8 10 -8 30c0 13.333 1.33301 22.666 4 27.999
c5.33301 0 37.666 -1.33301 96.999 -4s105 -4 137 -4h560c25.333 0 59.333 1.33301 102 4s72 4 88 4c2.66699 -5.33301 4 -14.666 4 -27.999c0 -20 -2.66699 -30 -8 -30c-13.333 0 -37.666 -4.33301 -72.999 -13s-54.333 -17.667 -57 -27
c-10.667 -42.667 -16 -104.667 -16 -186v-802v-4c0 -54.667 5.33301 -100.667 16 -138c2.66699 -9.33301 21.667 -18.333 57 -27s59.666 -13 72.999 -13c5.33301 0 8 -10 8 -30c0 -10.667 -1.33301 -20 -4 -28l-98 6h-272l-104 -6c-5.33301 5.33301 -8 15.333 -8 30
c0 18.667 2.66699 28 8 28c18.667 0 45 4 79 12s53 17.333 57 28c9.33301 36 14 95.333 14 178v774c0 93.333 -2.66699 153.333 -8 180c-8 10.667 -30.667 16 -68 16h-208c-40 0 -64.333 -3.33301 -73 -10s-13 -23.334 -13 -50.001c0 -561.333 -68 -932 -204 -1112
c-52 -66.667 -100 -100 -144 -100c-54.667 0 -97.334 6.66699 -128.001 20z" />
    <glyph glyph-name="afii10030" unicode="&#x41c;" horiz-adv-x="1818" 
d="M52 24c0 18.667 3.3291 27.9971 9.99609 27.9971c18.667 0 46.334 4.33301 83.001 13s60.334 19 71.001 31c22.667 22.667 35.334 80.667 38.001 174c2.66699 138.667 5.66699 275.334 9 410.001s6.33301 240.334 9 317.001s4 125.667 4 147c0 33.333 -2.66699 60 -8 80
c-4 9.33301 -26.667 18.333 -68 27s-71.333 13 -90 13c-5.33301 0 -8 10 -8 30c0 16 2.66699 25.333 8 28c25.333 0 60.666 -1.33301 105.999 -4s84.666 -4 117.999 -4l184 8c10.667 -36 37.334 -108.333 80.001 -217l165 -411l149 -372
c1.33301 -2.66699 4.66602 -4 9.99902 -4s8.66602 2.66699 9.99902 8l310 756l80 240c17.333 0 46 -1 86 -3s67.333 -3 82 -3c45.333 0 120 2 224 6c4 -8 6 -17.333 6 -28c0 -20 -3.33301 -30 -10 -30h-6c-14.667 0 -34 -4 -58 -12s-42 -16.667 -54 -26
c-14.667 -12 -22 -57.333 -22 -136c0 -77.333 5.33301 -347.333 16 -810c1.33301 -76 11.333 -137.333 30 -184c5.33301 -12 25.333 -22.333 60 -31s59.334 -13 74.001 -13c5.33301 0 8 -9.33301 8 -28c0 -12 -1.33301 -22 -4 -30c-133.333 6.66699 -212.666 10 -237.999 10
c-5.33301 0 -84.666 -3.33301 -237.999 -10c-5.33301 5.33301 -8 16 -8 32c0 17.333 2.66699 26 8 26c13.333 0 33.666 3.33301 60.999 10s47 13.334 59 20.001c14.667 9.33301 22 38 22 86v106l-22 704c-1.33301 21.333 -5 46.333 -11 75s-12.333 43 -19 43
c-2.66699 0 -6 -5.33301 -10 -16l-418 -998c-25.333 -57.333 -50 -86 -74 -86c-4 0 -10 1.33301 -18 4l-460 1162c-1.33301 -128 -4.66602 -274.333 -9.99902 -439s-10 -300.667 -14 -408s-6 -162.333 -6 -165c0 -24 4 -41.333 12 -52s32 -21 72 -31s67.333 -15 82 -15
c5.33301 0 8 -10 8 -30c0 -10.667 -1.33301 -20 -4 -28c-133.333 6.66699 -210.666 10 -231.999 10c-2.66699 0 -80.667 -3.33301 -234 -10c-6.66699 6.66699 -10 16.667 -10 30z" />
    <glyph glyph-name="afii10031" unicode="&#x41d;" horiz-adv-x="1376" 
d="M76 24c0 18.667 2.66699 28 8 28c18.667 0 45 4 79 12s53 17.333 57 28c9.33301 36 14 95.333 14 178v776c0 81.333 -4.66699 140.666 -14 177.999c-4 9.33301 -23.333 18.333 -58 27s-60.667 13 -78 13c-5.33301 0 -8 9.33301 -8 28c0 17.333 2.66699 27.333 8 30
c26.667 0 65.334 -1.66699 116.001 -5s92 -5 124 -5c33.333 0 75.333 1.66699 126 5s86.667 5 108 5c2.66699 -5.33301 3.66699 -16.333 3 -33s-3 -25 -7 -25c-13.333 0 -37.666 -4.33301 -72.999 -13s-54.333 -17.667 -57 -27c-10.667 -42.667 -16 -104.667 -16 -186v-300
l2 -6c130.667 -2.66699 232.667 -4 306 -4c76 0 174 1.33301 294 4c2.66699 2.66699 4 5.33398 4 8.00098v306c0 80 -4 139.333 -12 178c-4 9.33301 -23.333 18.333 -58 27s-60.667 13 -78 13c-5.33301 0 -8 8.66699 -8 26s2.66699 28 8 32
c26.667 0 65.334 -1.66699 116.001 -5s92.667 -5 126 -5s74.666 1.66699 123.999 5s84.666 5 105.999 5c2.66699 -5.33301 4 -14.666 4 -27.999c0 -20 -2.66699 -30 -8 -30c-13.333 0 -37.666 -4.33301 -72.999 -13s-54.333 -17.667 -57 -27
c-10.667 -42.667 -16 -104.667 -16 -186v-760c0 -82.667 5.33301 -144.667 16 -186c2.66699 -9.33301 21.667 -18.333 57 -27s59.666 -13 72.999 -13c5.33301 0 8 -10 8 -30c0 -10.667 -1.33301 -20 -4 -28c-133.333 6.66699 -210 10 -230 10
c-8 0 -88.667 -3.33301 -242 -10c-5.33301 5.33301 -8 16.333 -8 33s2.66699 25 8 25c18.667 0 45 4 79 12s53 17.333 57 28c8 37.333 12 96.666 12 177.999v352l-4 8c-122.667 2.66699 -220.667 4 -294 4c-205.333 0 -308 -3.33301 -308 -10v-346
c0 -82.667 5.33301 -144.667 16 -186c2.66699 -9.33301 21.667 -18.333 57 -27s59.666 -13 72.999 -13c4 0 6.33301 -8 7 -24s-0.333008 -27.333 -3 -34c-133.333 6.66699 -211.333 10 -234 10c-6.66699 0 -86.667 -3.33301 -240 -10c-5.33301 5.33301 -8 15.333 -8 30z" />
    <glyph glyph-name="afii10032" unicode="&#x41e;" horiz-adv-x="1456" 
d="M88 656c0 186.667 62.333 346.334 187 479.001s275 199 451 199s326.667 -66.333 452 -199s188 -292.334 188 -479.001s-62.667 -346 -188 -478s-276 -198 -452 -198s-326.333 66 -451 198s-187 291.333 -187 478zM286 700c0 -106.667 17.333 -207.333 52 -302
s88.667 -173.667 162 -237s159.333 -95 258 -95c85.333 0 160 27.667 224 83s111 124 141 206s45 169.667 45 263c0 106.667 -17.333 207 -52 301s-88.667 172.667 -162 236s-159.333 95 -258 95c-126.667 0 -226.667 -55.333 -300 -166s-110 -238.667 -110 -384z" />
    <glyph glyph-name="afii10033" unicode="&#x41f;" horiz-adv-x="1336" 
d="M76 1276c0 16 3.33105 27.3311 9.99805 33.998c300 1.33301 494 2 582 2l578 -2c5.33301 -5.33301 8 -16.666 8 -33.999s-2.66699 -26 -8 -26c-16 0 -42.333 -4.66699 -79 -14s-57 -18.666 -61 -27.999c-9.33301 -37.333 -14 -94.666 -14 -171.999v-764
c0 -84 4.66699 -144 14 -180c4 -10.667 23.333 -20 58 -28s60.667 -12 78 -12c5.33301 0 8 -9.33301 8 -28c0 -14.667 -2.66699 -24.667 -8 -30c-153.333 6.66699 -233.333 10 -240 10c-22.667 0 -100.667 -3.33301 -234 -10c-2.66699 8 -4 17.333 -4 28
c0 20 2.66699 30 8 30c14.667 0 39.334 4.33301 74.001 13s53.334 17.667 56.001 27c10.667 41.333 16 103.333 16 186v754c0 85.333 -2.66699 141.333 -8 168c-2.66699 18.667 -83.334 28 -242.001 28c-162.667 0 -245.334 -9.33301 -248.001 -28
c-6.66699 -33.333 -10 -89.333 -10 -168v-754c0 -78.667 6.66699 -140.667 20 -186c2.66699 -9.33301 21.334 -18.333 56.001 -27s58.667 -13 72 -13c5.33301 0 8 -10 8 -30c0 -10.667 -1.33301 -20 -4 -28c-133.333 6.66699 -211.333 10 -234 10
c-5.33301 0 -84.666 -3.33301 -237.999 -10c-5.33301 5.33301 -8 15.333 -8 30c0 18.667 2.66699 28 8 28c17.333 0 43 4 77 12s53 17.333 57 28c8 30.667 12 90.667 12 180v764c0 82.667 -4 140 -12 172c-4 9.33301 -24 18.666 -60 27.999s-62 14 -78 14
c-6.66699 0 -10 8.66699 -10 26z" />
    <glyph glyph-name="afii10034" unicode="&#x420;" horiz-adv-x="1090" 
d="M80 1282c0 17.333 2.66504 28.668 7.99805 34.001l240 -4c40 0 87.333 1.33301 142 4s101.334 4 140.001 4c44 0 88.333 -6.66699 133 -20s88 -33.333 130 -60s76.333 -64.667 103 -114s40 -106.666 40 -171.999c0 -38.667 -8.33301 -80.334 -25 -125.001
s-41 -88 -73 -130s-75 -76.667 -129 -104s-114.333 -41 -181 -41c-74.667 0 -126 18.667 -154 56c-8 9.33301 -10 24.666 -6 45.999c1.33301 5.33301 3.33301 7.33301 6 6c40 -14.667 84.667 -22 134 -22c66.667 0 124 28 172 84s72 122.667 72 200
c0 94.667 -20.667 169.667 -62 225s-105.333 83 -192 83c-60 0 -106.667 -4.66699 -140 -14c-6.66699 -1.33301 -11.334 -6.33301 -14.001 -15s-5 -29 -7 -61s-3 -80 -3 -144v-714c0 -89.333 5.33301 -147.333 16 -174c6.66699 -17.333 30.334 -31.333 71.001 -42
s69.667 -16 87 -16c5.33301 0 8 -9.33301 8 -28c0 -12 -1.33301 -22 -4 -30c-133.333 6.66699 -220 10 -260 10l-244 -10c-4 4 -6 16 -6 36c0 17.333 2 26 6 26c18.667 0 44.667 4 78 12s53.333 18 60 30c9.33301 16 14 78.667 14 188v756c0 78.667 -4.66699 136 -14 172
c-4 10.667 -23.667 20.667 -59 30s-61.666 14 -78.999 14c-5.33301 0 -8 8 -8 24z" />
    <glyph glyph-name="afii10035" unicode="&#x421;" horiz-adv-x="1312" 
d="M88 644c0 189.333 63.3301 351.666 189.997 486.999s282 203 466 203c157.333 0 319.333 -16.667 486 -50c-2.66699 -178.667 -4 -274.667 -4 -288c0 -20 -14 -30 -42 -30c-13.333 0 -22 3.33301 -26 10c-4 17.333 -9 35 -15 53s-18.667 41.333 -38 70
s-42.666 53.334 -69.999 74.001s-66 38.667 -116 54s-106.333 23 -169 23c-130.667 0 -242 -57.667 -334 -173s-138 -245.666 -138 -390.999c0 -108 18.667 -207.333 56 -298s96.333 -165.667 177 -225s176.334 -89 287.001 -89c132 0 234 38.667 306 116
c18.667 20 35 46.333 49 79s24.667 60 32 82s13 33 17 33c8 0 17.667 -1.33301 29 -4s20.333 -5.33398 27 -8.00098l10 -6c0 -14.667 -9.33301 -65.667 -28 -153s-32 -133 -40 -137c-97.333 -58.667 -256.666 -88 -477.999 -88c-176 0 -325.667 64.667 -449 194
s-185 283.333 -185 462z" />
    <glyph glyph-name="afii10036" unicode="&#x422;" horiz-adv-x="1338" 
d="M56 1056l37.9971 286.001c58.667 -14.667 104.667 -22 138 -22c50.667 0 121.667 -1.33301 213 -4s166.333 -4 225 -4s134 1.33301 226 4s163.333 4 214 4c33.333 0 79.333 7.33301 138 22l38 -286c-9.33301 -9.33301 -25.333 -14 -48 -14c-12 0 -18.667 3.33301 -20 10
c-18.667 74.667 -41.667 123 -69 145s-79 33 -155 33c-141.333 0 -214.666 -10 -219.999 -30c-12 -42.667 -18 -109.334 -18 -200.001v-722c0 -77.333 6 -139.333 18 -186c2.66699 -9.33301 21.334 -18.333 56.001 -27s58.667 -13 72 -13c5.33301 0 8 -10 8 -30
c0 -10.667 -1.33301 -20 -4 -28c-133.333 6.66699 -210.666 10 -231.999 10c-6.66699 0 -86.667 -3.33301 -240 -10c-5.33301 5.33301 -8 15.333 -8 30c0 18.667 2.66699 28 8 28c17.333 0 43 4 77 12s53 17.333 57 28c9.33301 36 14 95.333 14 178v724
c0 116 -6 184.667 -18 206c-10.667 20 -82.667 30 -216 30c-76 0 -127.667 -11 -155 -33s-50.333 -70.333 -69 -145c-1.33301 -6.66699 -8 -10 -20 -10c-22.667 0 -38.667 4.66699 -48 14z" />
    <glyph glyph-name="afii10037" unicode="&#x423;" horiz-adv-x="1370" 
d="M36 1292c0 17.333 2.66602 27.3311 7.99902 29.998c28 0 66 -1.66699 114 -5s90 -5 126 -5c37.333 0 85.333 1.66699 144 5s96.667 5 114 5c2.66699 -5.33301 3.66699 -15.333 3 -30s-3 -22 -7 -22c-21.333 0 -46.333 -6 -75 -18s-43 -28.667 -43 -50
c0 -13.333 6.66699 -33.333 20 -60l304 -630c5.33301 -9.33301 12 -8 20 4c98.667 224 172.667 407.333 222 550c25.333 73.333 38 119.333 38 138c0 14.667 -14.333 29.334 -43 44.001s-62.334 22 -101.001 22c-4 0 -6 7.66699 -6 23s2 25 6 29
c18.667 0 59 -1.66699 121 -5s107 -5 135 -5c38.667 0 76.667 1.66699 114 5s66 5 86 5c4 -4 6 -13.333 6 -28c0 -16 -3.33301 -24 -10 -24c-14.667 0 -43.667 -6.33301 -87 -19s-71.666 -27 -84.999 -43c-12 -20 -40 -75.333 -84 -166
c-25.333 -52 -84.333 -185.667 -177 -401s-153.667 -353.666 -183 -414.999c-89.333 -184 -192.666 -278.667 -309.999 -284c-61.333 -2.66699 -111.333 8 -150 32c-12 17.333 -18 42.666 -18 75.999c0 21.333 6.66699 41.333 20 60s32 28 56 28s51.667 -11 83 -33
s57.666 -33 78.999 -33c45.333 0 85 28.333 119 85s51 100.334 51 131.001c0 28 -11.333 65.333 -34 112c-22.667 50.667 -78.667 167.667 -168 351s-146.666 299 -171.999 347c-20 38.667 -36 66 -48 82s-28.667 31.333 -50 46c-17.333 9.33301 -40.333 19 -69 29
s-49 15 -61 15c-5.33301 0 -8 7.33301 -8 22z" />
    <glyph glyph-name="afii10038" unicode="&#x424;" horiz-adv-x="1210" 
d="M26 632c0 118.667 46.668 221.332 140.001 307.999s208.666 142 345.999 166c-2.66699 61.333 -6.66699 100.666 -12 117.999c-4 10.667 -23 20.334 -57 29.001s-59.667 13 -77 13c-5.33301 0 -8 8.66699 -8 26c0 16 2.66699 26.667 8 32
c153.333 -6.66699 233.333 -10 240 -10c21.333 0 98.666 3.33301 231.999 10c2.66699 -8 4 -18 4 -30c0 -18.667 -2.66699 -28 -8 -28c-13.333 0 -37.333 -4.66699 -72 -14s-53.334 -18.666 -56.001 -27.999c-9.33301 -34.667 -14.666 -70 -15.999 -106
c136 -8 252.667 -51.667 350 -131s146 -176.333 146 -291c0 -121.333 -47.333 -226 -142 -314s-212.667 -143.333 -354 -166c2.66699 -50.667 8 -92 16 -124c2.66699 -9.33301 21.334 -18.333 56.001 -27s58.667 -13 72 -13c5.33301 0 8 -10 8 -30
c0 -10.667 -1.33301 -20 -4 -28c-133.333 6.66699 -210.666 10 -231.999 10c-6.66699 0 -86.667 -3.33301 -240 -10c-5.33301 5.33301 -8 15.333 -8 30c0 18.667 2.66699 28 8 28c17.333 0 43 4 77 12s53 17.333 57 28c5.33301 17.333 9.33301 56.666 12 117.999
c-134.667 10.667 -249.334 55.334 -344.001 134.001s-142 174.667 -142 288zM214.001 649.998c0 -86.667 27.999 -164.332 83.999 -232.999s128 -111.667 216 -129v734c-89.333 -24 -161.666 -70.333 -216.999 -139s-83 -146.334 -83 -233.001zM688 294
c92 21.333 167.333 68 226 140s88 152.667 88 242c0 88 -29.333 166.333 -88 235s-134 109.667 -226 123v-740z" />
    <glyph glyph-name="afii10039" unicode="&#x425;" horiz-adv-x="1376" 
d="M14 20c0 21.333 2.66895 32 8.00195 32c10.667 0 25 1 43 3s41 7.66699 69 17s49.333 21.333 64 36l428 560l-280 428c-41.333 65.333 -85.333 111.333 -132 138c-36 21.333 -73.333 32 -112 32c-5.33301 0 -8 8.33301 -8 25s2.66699 27.667 8 33
c164 -6.66699 247.333 -10 250 -10c37.333 0 122.666 3.33301 255.999 10c2.66699 -5.33301 3.66699 -16.333 3 -33s-3 -25 -7 -25c-24 0 -50 -5 -78 -15s-42 -26.333 -42 -49c0 -16 8 -36 24 -60l230 -350c5.33301 8 21 28.333 47 61l56 71l52 68
c23.333 30.667 40.666 54.334 51.999 71.001l38 57c14 21.333 24 38.666 30 51.999s9 24 9 32c0 14.667 -13.667 28.667 -41 42s-60.333 20 -99 20c-5.33301 0 -8 8.33301 -8 25s2.66699 27.667 8 33c124 -6.66699 208.667 -10 254 -10c16 0 90.667 3.33301 224 10
c2.66699 -5.33301 3.66699 -16.333 3 -33s-3 -25 -7 -25c-18.667 0 -52 -5.33301 -100 -16s-78.667 -24.667 -92 -42l-376 -492l384 -584c17.333 -26.667 45 -46.667 83 -60s75.667 -20 113 -20c6.66699 0 10 -10.667 10 -32c0 -12 -1.33301 -20.667 -4 -26
c-133.333 6.66699 -203.333 10 -210 10c-8 0 -105.333 -3.33301 -292 -10c-5.33301 5.33301 -8 16.333 -8 33s2.66699 25 8 25c18.667 0 42.667 5.33301 72 16s44 24 44 40c0 5.33301 -3.33301 13.333 -10 24l-300 458c-218.667 -293.333 -328 -453.333 -328 -480
c0 -5.33301 3 -12 9 -20s20.333 -16.333 43 -25s50.667 -13 84 -13c5.33301 0 8 -10.667 8 -32c0 -13.333 -1.33301 -22 -4 -26c-124 6.66699 -199.333 10 -226 10c-30.667 0 -112.667 -3.33301 -246 -10c-2.66699 8 -4 16.667 -4 26z" />
    <glyph glyph-name="afii10040" unicode="&#x426;" horiz-adv-x="1382" 
d="M76 36c0 17.333 3.33887 26.0039 10.0059 26.0039c16 0 42 4.66699 78 14s56 18.666 60 27.999c8 32 12 89.333 12 172v768c0 89.333 -4 149.333 -12 180c-4 10.667 -23 20 -57 28s-59.667 12 -77 12c-5.33301 0 -8 9.33301 -8 28c0 14.667 2.66699 24.667 8 30
c153.333 -6.66699 232.666 -10 237.999 -10c22.667 0 100.667 3.33301 234 10c2.66699 -8 4 -17.333 4 -28c0 -20 -2.66699 -30 -8 -30c-13.333 0 -37.333 -4.33301 -72 -13s-53.334 -17.667 -56.001 -27c-13.333 -45.333 -20 -107.333 -20 -186v-758
c0 -78.667 3.33301 -134.667 10 -168c2.66699 -18.667 85.334 -28 248.001 -28c158.667 0 239.334 9.33301 242.001 28c5.33301 26.667 8 82.667 8 168v758c0 82.667 -5.33301 144.667 -16 186c-2.66699 9.33301 -21.334 18.333 -56.001 27s-59.334 13 -74.001 13
c-5.33301 0 -8 10 -8 30c0 10.667 1.33301 20 4 28c133.333 -6.66699 211.333 -10 234 -10c6.66699 0 86.667 3.33301 240 10c5.33301 -5.33301 8 -15.333 8 -30c0 -18.667 -2.66699 -28 -8 -28c-17.333 0 -43.333 -4 -78 -12s-54 -17.333 -58 -28
c-9.33301 -36 -14 -96 -14 -180v-768c0 -102.667 7.33301 -164 22 -184c9.33301 -13.333 57.333 -20 144 -20h34c6.66699 -2.66699 8.66699 -11.334 6 -26.001c-6.66699 -29.333 -13.334 -66.333 -20.001 -111s-13.334 -95.334 -20.001 -152.001
s-11.334 -94.334 -14.001 -113.001c-13.333 -8 -31.333 -12 -54 -12c-8 0 -15.333 1 -22 3s-9.33398 5 -8.00098 9c8 48 7.66699 98.667 -1 152s-19 93.333 -31 120c-16 38.667 -68 58 -156 58h-304l-582 2c-6.66699 6.66699 -10 18 -10 34z" />
    <glyph glyph-name="afii10041" unicode="&#x427;" horiz-adv-x="1292" 
d="M38 1292c0 17.333 2.66602 27.334 7.99902 30.001c26.667 0 65.334 -1.66699 116.001 -5s92 -5 124 -5c33.333 0 75.333 1.66699 126 5s86.667 5 108 5c2.66699 -5.33301 3.66699 -16.333 3 -33s-3 -25 -7 -25c-13.333 0 -37.666 -4.33301 -72.999 -13
s-54.333 -17.667 -57 -27c-10.667 -42.667 -16 -104.667 -16 -186v-124c0 -94.667 26.667 -161 80 -199s117.333 -57 192 -57c80 0 159.333 8.66699 238 26v362c0 80 -4 139.333 -12 178c-4 9.33301 -23.333 18.333 -58 27s-60.667 13 -78 13c-5.33301 0 -8 8.66699 -8 26
s2.66699 28 8 32c26.667 0 65.334 -1.66699 116.001 -5s92.667 -5 126 -5s74.666 1.66699 123.999 5s84.666 5 105.999 5c2.66699 -5.33301 4 -14.666 4 -27.999c0 -20 -2.66699 -30 -8 -30c-13.333 0 -37.666 -4.33301 -72.999 -13s-54.333 -17.667 -57 -27
c-6.66699 -26.667 -11.334 -57.334 -14.001 -92.001v-950c2.66699 -34.667 7.33398 -64.667 14.001 -90c2.66699 -9.33301 21.667 -18.333 57 -27s59.666 -13 72.999 -13c5.33301 0 8 -10 8 -30c0 -10.667 -1.33301 -20 -4 -28c-133.333 6.66699 -210 10 -230 10
c-8 0 -88.667 -3.33301 -242 -10c-5.33301 5.33301 -8 16.333 -8 33s2.66699 25 8 25c18.667 0 45 4 79 12s53 17.333 57 28c8 37.333 12 96.666 12 177.999v328c-105.333 -28 -208 -42 -308 -42c-40 0 -80 4.33301 -120 13s-80 22.667 -120 42s-72.667 48.333 -98 87
s-38 84 -38 136v246c0 53.333 -4.66699 101.333 -14 144c-4 9.33301 -23.333 18.333 -58 27s-60.667 13 -78 13c-5.33301 0 -8 9.33301 -8 28z" />
    <glyph glyph-name="afii10042" unicode="&#x428;" horiz-adv-x="1904" 
d="M86 30c0 17.333 3.33594 25.998 10.0029 25.998c16 0 42 4.66699 78 14s56 18.666 60 27.999c8 32 12 89.333 12 172v774c0 89.333 -4 149.333 -12 180c-4 10.667 -23 20 -57 28s-59.667 12 -77 12c-5.33301 0 -8 9.33301 -8 28c0 14.667 2.66699 24.667 8 30
c153.333 -6.66699 232.666 -10 237.999 -10c22.667 0 100.667 3.33301 234 10c2.66699 -8 4 -17.333 4 -28c0 -20 -2.66699 -30 -8 -30c-13.333 0 -37.333 -4.33301 -72 -13s-53.334 -17.667 -56.001 -27c-13.333 -45.333 -20 -107.333 -20 -186v-758
c0 -78.667 3.33301 -134.667 10 -168c1.33301 -18.667 63.333 -28 186 -28c162.667 0 245.334 9.33301 248.001 28c6.66699 33.333 10 89.333 10 168v764c0 89.333 -4 149.333 -12 180c-4 10.667 -23 20 -57 28s-59.667 12 -77 12c-5.33301 0 -8 9.33301 -8 28
c0 14.667 2.66699 24.667 8 30c153.333 -6.66699 232.666 -10 237.999 -10c22.667 0 100.667 3.33301 234 10c2.66699 -8 4 -17.333 4 -28c0 -20 -2.66699 -30 -8 -30c-13.333 0 -37.333 -4.33301 -72 -13s-53.334 -17.667 -56.001 -27
c-13.333 -45.333 -20 -107.333 -20 -186v-758c0 -78.667 3.33301 -134.667 10 -168c1.33301 -16 65.333 -25.333 192 -28h56c121.333 2.66699 183.333 12 186 28c5.33301 26.667 8 82.667 8 168v758c0 82.667 -5.33301 144.667 -16 186
c-2.66699 9.33301 -21.334 18.333 -56.001 27s-59.334 13 -74.001 13c-5.33301 0 -8 10 -8 30c0 10.667 1.33301 20 4 28c133.333 -6.66699 211.333 -10 234 -10c6.66699 0 86.667 3.33301 240 10c5.33301 -5.33301 8 -15.333 8 -30c0 -18.667 -2.66699 -28 -8 -28
c-17.333 0 -43.333 -4 -78 -12s-54 -17.333 -58 -28c-9.33301 -36 -14 -96 -14 -180v-774c0 -77.333 4.66699 -134.666 14 -171.999c4 -9.33301 24.333 -18.666 61 -27.999s63 -14 79 -14c5.33301 0 8 -8.66699 8 -26s-2.66699 -28.666 -8 -33.999
c-77.333 -1.33301 -216.666 -1 -417.999 1s-348.666 3 -441.999 3c-132 -0 -299 -0.666992 -501 -2s-325.667 -2 -371 -2c-6.66699 6.66699 -10 18 -10 34z" />
    <glyph glyph-name="afii10043" unicode="&#x429;" horiz-adv-x="1946" 
d="M82 30c0 17.333 3.3418 26.0039 10.0088 26.0039c16 0 42 4.66699 78 14s56 18.666 60 27.999c8 32 12 89.333 12 172v774c0 89.333 -4 149.333 -12 180c-4 10.667 -23 20 -57 28s-59.667 12 -77 12c-5.33301 0 -8 9.33301 -8 28c0 14.667 2.66699 24.667 8 30
c153.333 -6.66699 232.666 -10 237.999 -10c22.667 0 100.667 3.33301 234 10c2.66699 -8 4 -17.333 4 -28c0 -20 -2.66699 -30 -8 -30c-13.333 0 -37.333 -4.33301 -72 -13s-53.334 -17.667 -56.001 -27c-13.333 -45.333 -20 -107.333 -20 -186v-758
c0 -78.667 3.33301 -134.667 10 -168c1.33301 -18.667 63.333 -28 186 -28c162.667 0 245.334 9.33301 248.001 28c6.66699 33.333 10 89.333 10 168v764c0 89.333 -4 149.333 -12 180c-4 10.667 -23 20 -57 28s-59.667 12 -77 12c-5.33301 0 -8 9.33301 -8 28
c0 14.667 2.66699 24.667 8 30c153.333 -6.66699 232.666 -10 237.999 -10c22.667 0 100.667 3.33301 234 10c2.66699 -8 4 -17.333 4 -28c0 -20 -2.66699 -30 -8 -30c-13.333 0 -37.333 -4.33301 -72 -13s-53.334 -17.667 -56.001 -27
c-13.333 -45.333 -20 -107.333 -20 -186v-758c0 -78.667 3.33301 -134.667 10 -168c1.33301 -16 65.333 -25.333 192 -28h56c121.333 2.66699 183.333 12 186 28c5.33301 26.667 8 82.667 8 168v758c0 82.667 -5.33301 144.667 -16 186
c-2.66699 9.33301 -21.334 18.333 -56.001 27s-59.334 13 -74.001 13c-5.33301 0 -8 10 -8 30c0 10.667 1.33301 20 4 28c133.333 -6.66699 211.333 -10 234 -10c6.66699 0 86.667 3.33301 240 10c5.33301 -5.33301 8 -15.333 8 -30c0 -18.667 -2.66699 -28 -8 -28
c-17.333 0 -43.333 -4 -78 -12s-54 -17.333 -58 -28c-9.33301 -36 -14 -96 -14 -180v-768c0 -102.667 7.33301 -164 22 -184c9.33301 -13.333 57.333 -20 144 -20h34c6.66699 -2.66699 8.66699 -11.334 6 -26.001c-6.66699 -29.333 -13.334 -66.333 -20.001 -111
s-13.334 -95.334 -20.001 -152.001s-11.334 -94.334 -14.001 -113.001c-13.333 -8 -31.333 -12 -54 -12c-8 0 -15.333 1 -22 3s-9.33398 5 -8.00098 9c8 48 7.66699 98.667 -1 152s-19 93.333 -31 120c-16 38.667 -68 58 -156 58h-586c-132 -0 -299 -0.666992 -501 -2
s-325.667 -2 -371 -2c-6.66699 6.66699 -10 18 -10 34z" />
    <glyph glyph-name="afii10044" unicode="&#x42a;" horiz-adv-x="1492" 
d="M46 1056l25.999 114.997c14.667 64.667 24.667 116.334 30 155.001c342.667 -9.33301 518.667 -14 528 -14l236 4c5.33301 -5.33301 8 -16.666 8 -33.999s-2.66699 -26 -8 -26c-16 0 -42 -4.66699 -78 -14s-56 -18.666 -60 -27.999
c-9.33301 -37.333 -14 -94.666 -14 -171.999v-284c104 8 186 10.667 246 8c121.333 -5.33301 227 -45 317 -119s135 -161.667 135 -263c0 -114.667 -46.333 -207.334 -139 -278.001s-215 -106 -367 -106h-276l-240 -6c-4 4 -6 14.667 -6 32s2 26 6 26
c17.333 0 43 4.66699 77 14s54.333 20 61 32c9.33301 16 14 78.667 14 188v752c0 80 -4 136 -12 168c-2.66699 17.333 -61.334 26 -176.001 26h-14c-62.667 0 -111.667 -10.333 -147 -31s-63.666 -67.667 -84.999 -141c-1.33301 -9.33301 -10.666 -14 -27.999 -14
c-16 0 -27.333 3.33301 -34 10zM713.999 283.997c0 -92 11.333 -147.335 34 -166.002c20 -18.667 56 -28 108 -28c24 0 49 1.33301 75 4s57.333 9.66699 94 21s69 26.333 97 45s52 45.334 72 80.001s30 75.334 30 122.001c0 86.667 -28.667 161.667 -86 225
s-147.333 95 -270 95c-28 0 -76.667 -2.66699 -146 -8c-5.33301 -16 -8 -38 -8 -66v-324z" />
    <glyph glyph-name="afii10045" unicode="&#x42b;" horiz-adv-x="1666" 
d="M84 26c0 17.333 1.99805 26.002 5.99805 26.002c17.333 0 43 4.66699 77 14s54.333 20 61 32c9.33301 16 14 78.667 14 188v760c0 81.333 -4.66699 140.666 -14 177.999c-4 9.33301 -23.333 18.333 -58 27s-60.667 13 -78 13c-5.33301 0 -8 9.33301 -8 28
c0 17.333 2.66699 27.333 8 30c26.667 0 65.334 -1.66699 116.001 -5s92 -5 124 -5c33.333 0 75.333 1.66699 126 5s86.667 5 108 5c2.66699 -5.33301 3.66699 -16.333 3 -33s-3 -25 -7 -25c-13.333 0 -37.666 -4.33301 -72.999 -13s-54.333 -17.667 -57 -27
c-10.667 -42.667 -16 -104.667 -16 -186v-280c104 8 185.333 10.667 244 8c121.333 -5.33301 227 -45 317 -119s135 -161.667 135 -263c0 -114.667 -46.333 -207.334 -139 -278.001s-215 -106 -367 -106h-276l-240 -6c-4 4 -6 14.667 -6 32zM413.998 284.002
c0 -92 11.333 -147.335 34 -166.002c20 -18.667 56 -28 108 -28c24 0 49 1.33301 75 4s57.333 9.66699 94 21s69 26.333 97 45s52 45.334 72 80.001s30 75.334 30 122.001c0 86.667 -28.667 161.667 -86 225s-147.333 95 -270 95c-28 0 -76.667 -2.66699 -146 -8
c-5.33301 -16 -8 -38 -8 -66v-324zM1098 24c0 18.667 2.66797 28 8.00098 28c18.667 0 45 4 79 12s53 17.333 57 28c9.33301 36 14 95.333 14 178v776c0 81.333 -4.66699 140.666 -14 177.999c-4 9.33301 -23.333 18.333 -58 27s-60.667 13 -78 13
c-5.33301 0 -8 9.33301 -8 28c0 17.333 2.66699 27.333 8 30c24 0 61.667 -1.33301 113 -4s93.666 -4 126.999 -4s76.333 1.33301 129 4s87.667 4 105 4c2.66699 -5.33301 4 -14.666 4 -27.999c0 -20 -2.66699 -30 -8 -30c-13.333 0 -37.666 -4.33301 -72.999 -13
s-54.333 -17.667 -57 -27c-10.667 -42.667 -16 -104.667 -16 -186v-760c0 -82.667 5.33301 -144.667 16 -186c2.66699 -9.33301 21.667 -18.333 57 -27s59.666 -13 72.999 -13c5.33301 0 8 -10 8 -30c0 -10.667 -1.33301 -20 -4 -28c-133.333 6.66699 -211.333 10 -234 10
c-6.66699 0 -86.667 -3.33301 -240 -10c-5.33301 5.33301 -8 15.333 -8 30z" />
    <glyph glyph-name="afii10046" unicode="&#x42c;" horiz-adv-x="1186" 
d="M84 26c0 17.333 1.99805 26.002 5.99805 26.002c17.333 0 43 4.66699 77 14s54.333 20 61 32c9.33301 16 14 78.667 14 188v760c0 81.333 -4.66699 140.666 -14 177.999c-4 9.33301 -23.333 18.333 -58 27s-60.667 13 -78 13c-5.33301 0 -8 9.33301 -8 28
c0 17.333 2.66699 27.333 8 30c26.667 0 65.334 -1.66699 116.001 -5s92 -5 124 -5c33.333 0 75.333 1.66699 126 5s86.667 5 108 5c2.66699 -5.33301 3.66699 -16.333 3 -33s-3 -25 -7 -25c-13.333 0 -37.666 -4.33301 -72.999 -13s-54.333 -17.667 -57 -27
c-10.667 -42.667 -16 -104.667 -16 -186v-280c104 8 185.333 10.667 244 8c121.333 -5.33301 227 -45 317 -119s135 -161.667 135 -263c0 -114.667 -46.333 -207.334 -139 -278.001s-215 -106 -367 -106h-276l-240 -6c-4 4 -6 14.667 -6 32zM413.998 284.002
c0 -92 11.333 -147.335 34 -166.002c20 -18.667 56 -28 108 -28c24 0 49 1.33301 75 4s57.333 9.66699 94 21s69 26.333 97 45s52 45.334 72 80.001s30 75.334 30 122.001c0 86.667 -28.667 161.667 -86 225s-147.333 95 -270 95c-28 0 -76.667 -2.66699 -146 -8
c-5.33301 -16 -8 -38 -8 -66v-324z" />
    <glyph glyph-name="afii10047" unicode="&#x42d;" horiz-adv-x="1322" 
d="M56 366c25.333 10.667 47.999 15.9971 67.999 15.9971c4 0 9.33301 -11 16 -33s17 -49 31 -81s30.333 -58 49 -78c74.667 -77.333 176.667 -116 306 -116c158.667 0 283 55 373 165s139 245 147 405l-782 -18v114l782 -20c-8 138.667 -57.333 261.334 -148 368.001
s-198.667 160 -324 160c-77.333 0 -144.333 -10.667 -201 -32s-98.667 -49 -126 -83s-46.666 -63 -57.999 -87s-19 -47.333 -23 -70c-4 -6.66699 -12.667 -10 -26 -10c-28 0 -42 9.33301 -42 28l-4 290c160 32 322 48 486 48c184 0 339.333 -67.667 466 -203
s190 -297.666 190 -486.999c0 -177.333 -61.667 -330.666 -185 -459.999s-273 -194 -449 -194c-221.333 0 -380 29.333 -476 88c-8 4 -21.667 49.667 -41 137s-29 138.333 -29 153z" />
    <glyph glyph-name="afii10048" unicode="&#x42e;" horiz-adv-x="1886" 
d="M80 24c0 18.667 2.66602 28.001 7.99902 28.001c18.667 0 45 4 79 12s53 17.333 57 28c9.33301 36 14 95.333 14 178v774c0 81.333 -4.66699 140.666 -14 177.999c-4 9.33301 -23.333 18.333 -58 27s-60.667 13 -78 13c-5.33301 0 -8 9.33301 -8 28
c0 17.333 2.66699 27.333 8 30c24 0 61.667 -1.33301 113 -4s93.666 -4 126.999 -4s76.333 1.33301 129 4s87.667 4 105 4c2.66699 -5.33301 4 -14.666 4 -27.999c0 -20 -2.66699 -30 -8 -30c-13.333 0 -37.666 -4.33301 -72.999 -13s-54.333 -17.667 -57 -27
c-10.667 -42.667 -16 -104.667 -16 -186v-300h244c16 170.667 76.667 312.667 182 426s234 170 386 170c164 0 300.333 -65.333 409 -196s163 -291.334 163 -482.001c0 -188 -54.333 -347.333 -163 -478s-245 -196 -409 -196c-165.333 0 -301.666 64.667 -408.999 194
s-161.666 288 -162.999 476h-240v-372c0 -82.667 5.33301 -144.667 16 -186c2.66699 -9.33301 21.667 -18.333 57 -27s59.666 -13 72.999 -13c5.33301 0 8 -10 8 -30c0 -10.667 -1.33301 -20 -4 -28c-133.333 6.66699 -211.333 10 -234 10
c-6.66699 0 -86.667 -3.33301 -240 -10c-5.33301 5.33301 -8 15.333 -8 30zM849.999 700.001c0 -169.333 35.666 -317.333 106.999 -444s169 -190 293 -190c72 0 135.333 27.667 190 83s94.667 124 120 206s38 169.667 38 263c0 168 -35.667 315 -107 441
s-169.666 189 -294.999 189c-72 0 -135 -27.333 -189 -82s-93.667 -123 -119 -205s-38 -169 -38 -261z" />
    <glyph glyph-name="afii10049" unicode="&#x42f;" horiz-adv-x="1382" 
d="M32 26c0 10.667 2.00098 20.001 6.00098 28.001c78.667 0 183.334 70 314.001 210c85.333 93.333 161.333 210.666 228 351.999c5.33301 8 1.33301 14.667 -12 20c-72 33.333 -129 80.666 -171 141.999s-63 120 -63 176c0 65.333 14.667 122.666 44 171.999
s66.666 87.333 111.999 114s91.333 46.667 138 60s92.667 20 138 20c36 0 81.667 -1.66699 137 -5s104.333 -4.33301 147 -3l238 4c5.33301 -5.33301 8 -16.666 8 -33.999s-2.66699 -26 -8 -26c-16 0 -42 -4.66699 -78 -14s-56 -18.666 -60 -27.999
c-9.33301 -37.333 -14 -94.666 -14 -171.999v-756c0 -109.333 4.66699 -172 14 -188c6.66699 -12 26.667 -22 60 -30s59.333 -12 78 -12c4 0 6 -8.66699 6 -26c0 -20 -2 -32 -6 -36c-73.333 6.66699 -154 10 -242 10c-44 0 -130.667 -3.33301 -260 -10
c-2.66699 8 -4 19.667 -4 35s2.66699 23 8 23c17.333 0 46 5.33301 86 16s63.333 24.667 70 42c12 26.667 18 84.667 18 174v294c0 14.667 -4 24 -12 28s-20.667 6 -38 6c-34.667 0 -59.334 -2.66699 -74.001 -8c-13.333 -6.66699 -26.666 -15.334 -39.999 -26.001
s-28 -26.667 -44 -48l-44 -61l-61 -87l-73 -104c-134.667 -192 -296 -288 -484 -288c-22.667 0 -41.334 2 -56.001 6c-4 8 -6 18 -6 30zM520.001 954.001c0 -77.333 24.667 -139.333 74 -186s97.333 -70 144 -70h52c116 0 174 19.333 174 58v240c0 66.667 -1 115.667 -3 147
s-4.66699 51.333 -8 60s-8.33301 13.667 -15 15c-33.333 9.33301 -80 14 -140 14c-185.333 0 -278 -92.667 -278 -278z" />
    <glyph glyph-name="afii10065" unicode="&#x430;" horiz-adv-x="844" 
d="M78 182c0 29.333 7.33496 57.001 22.002 83.001s32 47.333 52 64s47.333 33.667 82 51s64.334 30.333 89.001 39l97 33c40 13.333 67.333 22.666 82 27.999c13.333 5.33301 20 16 20 32v150c0 42.667 -13.333 75.667 -40 99s-58.667 35 -96 35
c-40 0 -73.333 -14 -100 -42s-40 -64 -40 -108c0 -45.333 -27.333 -68 -82 -68c-37.333 0 -63.333 12.667 -78 38c0 57.333 42.333 114.333 127 171s169.667 85 255 85c73.333 0 125.666 -17.667 156.999 -53s47 -93 47 -173v-460c0 -28 7.66699 -51.333 23 -70
s35 -28 59 -28c20 0 44 9.33301 72 28c4 0 6 -5.33301 6 -16c0 -18.667 -2.66699 -32.667 -8 -42c-54.667 -46.667 -101.334 -70 -140.001 -70c-30.667 0 -60 12.667 -88 38s-47.333 52 -58 80c-1.33301 0 -6.33301 -4.33301 -15 -13s-20.334 -18.667 -35.001 -30
s-31.667 -23 -51 -35s-42 -22 -68 -30s-52.333 -12 -79 -12c-61.333 0 -112 16.333 -152 49s-60 81.667 -60 147zM246.002 212.001c0 -36 11.332 -63.668 33.999 -83.001s52 -29 88 -29s70.667 11 104 33s50 44.333 50 67v206c-10.667 -5.33301 -36.667 -14.666 -78 -27.999
s-73.666 -25 -96.999 -35s-46 -26.667 -68 -50s-33 -50.333 -33 -81z" />
    <glyph glyph-name="afii10066" unicode="&#x431;" horiz-adv-x="970" 
d="M74 514c0 200 56.001 372.669 168.001 518.002c61.333 81.333 127.333 143.333 198 186c53.333 34.667 117.333 62.667 192 84c84 26.667 142 52.667 174 78c20 16 30 14 30 -6c0 -82.667 -35.333 -143.334 -106 -182.001c-48 -26.667 -124 -49.334 -228 -68.001
c-90.667 -17.333 -157.334 -62 -200.001 -134c-36 -66.667 -56 -152 -60 -256l4 -2c81.333 93.333 174 140 278 140c105.333 -1.33301 193.333 -41.333 264 -120s106 -177.334 106 -296.001c0 -146.667 -41.667 -261.667 -125 -345s-178.333 -125 -285 -125
c-128 0 -228.333 48.333 -301 145s-109 224.334 -109 383.001zM254.001 496.002c0 -133.333 23 -240.999 69 -322.999s104.333 -123 175 -123c61.333 0 112.333 27 153 81s61 142.333 61 265c0 120 -21.333 217.667 -64 293s-98.667 113 -168 113
c-54.667 0 -108.667 -29.333 -162 -88c-42.667 -46.667 -64 -119.334 -64 -218.001z" />
    <glyph glyph-name="afii10067" unicode="&#x432;" horiz-adv-x="936" 
d="M60 27c0 16.667 2.66699 24.999 8 24.999c17.333 0 41.666 4.33301 72.999 13s48.333 17.667 51 27c9.33301 38.667 14 85.334 14 140.001v388c0 54.667 -4.66699 101.334 -14 140.001c-2.66699 9.33301 -19.667 18.333 -51 27s-55.666 13 -72.999 13
c-5.33301 0 -8 8.33301 -8 25s2.66699 27.667 8 33c140 -6.66699 213.333 -10 220 -10c46.667 0 87.334 0.333008 122.001 1s64 1 88 1c73.333 0 140.333 -17 201 -51s91 -87.667 91 -161c0 -21.333 -4 -41 -12 -59s-17.333 -32.333 -28 -43s-24 -20.334 -40 -29.001
s-29.333 -14.667 -40 -18s-23.334 -7 -38.001 -11l-20 -6c-6.66699 -2.66699 -10 -4.66699 -10 -6c20 -2.66699 42 -7.66699 66 -15s51.667 -19 83 -35s57.333 -39.333 78 -70s31 -66 31 -106c0 -73.333 -33 -132 -99 -176s-153 -65.333 -261 -64l-212 4
c-6.66699 0 -80 -3.33301 -220 -10c-5.33301 5.33301 -8 16.333 -8 33zM360 203.999c0 -60 9.33301 -95.334 28 -106.001c12 -12 35.333 -18 70 -18c152 0 228 50.667 228 152c0 52 -18.667 96 -56 132s-95.333 54 -174 54c-46.667 0 -74.667 -2 -84 -6
c-8 -5.33301 -12 -18.666 -12 -39.999v-168zM360 513.998c0 -17.333 27.332 -26.001 81.999 -26.001c22.667 0 45.334 2 68.001 6c33.333 2.66699 61.333 13.667 84 33s34 45 34 77c0 112 -56 168 -168 168c-40 0 -68.667 -4 -86 -12
c-4 -1.33301 -6.66699 -4.66602 -8 -9.99902c-4 -22.667 -6 -54 -6 -94v-142z" />
    <glyph glyph-name="afii10068" unicode="&#x433;" horiz-adv-x="806" 
d="M60 27c0 16.667 2.66797 24.9951 8.00098 24.9951c17.333 0 41.666 4.33301 72.999 13s48.333 17.667 51 27c9.33301 38.667 14 85.334 14 140.001v388c0 54.667 -4.66699 101.334 -14 140.001c-2.66699 9.33301 -19.667 18.333 -51 27s-55.666 13 -72.999 13
c-5.33301 0 -8 8.33301 -8 25s2.66699 27.667 8 33c82.667 -8 156 -12 220 -12c18.667 0 60.334 0.333008 125.001 1s109 1 133 1l190 12c2.66699 -41.333 8.66699 -90.666 18 -147.999s14 -88.666 14 -93.999c0 -4 -7.33301 -6 -22 -6c-28 0 -44 4 -48 12
c-1.33301 4 -5 16.333 -11 37s-12 37.667 -18 51s-17.667 26.333 -35 39s-39.333 19 -66 19h-106c-62.667 0 -94.667 -2.66699 -96 -8c-4 -24 -6 -58.667 -6 -104v-388c0 -77.333 5.33301 -136.666 16 -177.999c2.66699 -9.33301 19.667 -18.333 51 -27
s53.666 -13 66.999 -13c4 0 6.66699 -8 8 -24s0.666016 -27.333 -2.00098 -34c-133.333 6.66699 -204 10 -212 10c-10.667 0 -84 -3.33301 -220 -10c-5.33301 5.33301 -8 16.333 -8 33z" />
    <glyph glyph-name="afii10069" unicode="&#x434;" horiz-adv-x="942" 
d="M50 34c0 12 4.66406 22.666 13.9971 31.999h62c10.667 0 18.667 7.33301 24 22c40 77.333 72.667 173 98 287s38 227.667 38 341c0 10.667 -2.66699 25.334 -8 44.001c-2.66699 9.33301 -21 18.333 -55 27s-59.667 13 -77 13c-5.33301 0 -8 8.33301 -8 25
s2.66699 27.667 8 33c54.667 -6.66699 165.334 -10 332.001 -10c18.667 0 49 0.333008 91 1s72.333 1 91 1c37.333 0 110.666 2.66699 219.999 8c5.33301 -5.33301 8 -16.333 8 -33s-2.66699 -25 -8 -25c-17.333 0 -41.666 -4.33301 -72.999 -13s-48.333 -17.667 -51 -27
c-9.33301 -38.667 -14 -85.334 -14 -140.001v-444c0 -61.333 2 -94 6 -98c4 -8 28 -12 72 -12h28c12 -6.66699 18 -12.667 18 -18v-10c-18.667 -77.333 -30 -148 -34 -212c0 -17.333 -0.666992 -29.333 -2 -36c-2.66699 -21.333 -4 -38.666 -4 -51.999
c-10.667 -13.333 -27.334 -20 -50.001 -20c-5.33301 0 -11.666 2.66699 -18.999 8s-11.666 11.333 -12.999 18c1.33301 10.667 2 28 2 52c0 58.667 -6 112 -18 160c-12 29.333 -34 44 -66 44h-404c-40 -0 -68.667 -14.667 -86 -44c-28 -48 -42 -101.333 -42 -160
c0 -24 0.666992 -41.333 2 -52c-1.33301 -6.66699 -5.66602 -12.667 -12.999 -18s-13.666 -8 -18.999 -8c-22.667 0 -39.334 6.66699 -50.001 20v296zM255.997 85.999c0 -4 3.33301 -5.99902 10 -5.99902h312c6.66699 0 10 3.33301 10 10v664c0 9.33301 -1.33301 14 -4 14
h-206c-2.66699 0 -4 -4.66699 -4 -14c0 -224 -38 -440 -114 -648c-2.66699 -10.667 -4 -17.334 -4 -20.001z" />
    <glyph glyph-name="afii10070" unicode="&#x435;" horiz-adv-x="860" 
d="M74 418c0 140 37.667 250.669 113 332.002s169.666 122 282.999 122c61.333 0 115.333 -11.667 162 -35s82.334 -53.333 107.001 -90s42.667 -74 54 -112s17 -75.667 17 -113c0 -26.667 -4 -43 -12 -49s-23.333 -9 -46 -9h-504c-10.667 0 -16 -3.33301 -16 -10
c0 -84 25.333 -161.333 76 -232s124 -106 220 -106c28 0 54.667 2.66699 80 8s47 11.666 65 18.999s33.333 14.666 46 21.999s23.667 14.333 33 21l14 10c8 0 12 -8.66699 12 -26c0 -10.667 -4 -22.667 -12 -36c-26.667 -37.333 -66 -71 -118 -101s-108.667 -45 -170 -45
c-110.667 0 -205.667 41.667 -285 125s-119 185 -119 305zM236 562.002c0 -9.33301 4 -14 12 -14h390c6.66699 0 10 6.66699 10 20c0 42.667 -18 91.667 -54 147s-84 83 -144 83c-69.333 0 -122.333 -29.667 -159 -89s-55 -108.333 -55 -147z" />
    <glyph glyph-name="afii10072" unicode="&#x436;" horiz-adv-x="1376" 
d="M30 22c0 20 3.3418 29.9951 10.0088 29.9951c33.333 0 66.666 12.667 99.999 38c21.333 21.333 46.666 57.333 75.999 108l58 94c32 52 50.667 81.333 56 88c33.333 45.333 76.666 78 129.999 98v6c-38.667 28 -77.334 70.667 -116.001 128
c-22.667 30.667 -39.334 52.334 -50.001 65.001s-26 26 -46 40s-40.667 21 -62 21h-30c-48 0 -72 20 -72 60c0 20 8 36 24 48s38 18 66 18c58.667 0 120.667 -46 186 -138l30 -46c49.333 -74.667 83.333 -122.667 102 -144c24 -22.667 43 -37.334 57 -44.001
s34.333 -10.667 61 -12v140c0 54.667 -4.66699 101.334 -14 140.001c-2.66699 9.33301 -19.667 18.333 -51 27s-55.666 13 -72.999 13c-5.33301 0 -8 8.33301 -8 25s2.66699 27.667 8 33c136 -6.66699 209.333 -10 220 -10c8 0 78.667 3.33301 212 10
c2.66699 -6.66699 3.33398 -18 2.00098 -34s-4 -24 -8 -24c-13.333 0 -35.666 -4.33301 -66.999 -13s-48.333 -17.667 -51 -27c-10.667 -41.333 -16 -100.666 -16 -177.999v-102c26.667 1.33301 47 5.33301 61 12s33 21.334 57 44.001c17.333 21.333 51.333 69.333 102 144
l30 46c65.333 92 127.333 138 186 138c28 0 50 -6 66 -18s24 -28 24 -48c0 -40 -24 -60 -72 -60h-30c-21.333 0 -42 -6.66699 -62 -20s-36 -27 -48 -41s-28 -35.667 -48 -65c-38.667 -57.333 -77.334 -100 -116.001 -128v-6c53.333 -20 96.666 -52.667 129.999 -98
c5.33301 -6.66699 24 -36 56 -88l58 -94c29.333 -50.667 54.666 -86.667 75.999 -108c33.333 -25.333 66.666 -38 99.999 -38c6.66699 0 10 -10 10 -30c0 -4 -3.33301 -12.667 -10 -26c-2.66699 0 -7 0.333008 -13 1s-11 1 -15 1c-18.667 1.33301 -50.667 2 -96 2
c-44 0 -81.667 7 -113 21s-60.333 43.667 -87 89l-116 222c-18.667 34.667 -36 57.667 -52 69s-42 17 -78 17v-148c0 -77.333 5.33301 -136.666 16 -177.999c2.66699 -9.33301 19.667 -18.333 51 -27s53.666 -13 66.999 -13c4 0 6.66699 -8 8 -24
s0.666016 -27.333 -2.00098 -34c-133.333 6.66699 -204 10 -212 10c-10.667 0 -84 -3.33301 -220 -10c-5.33301 5.33301 -8 16.333 -8 33s2.66699 25 8 25c17.333 0 41.666 4.33301 72.999 13s48.333 17.667 51 27c9.33301 38.667 14 85.334 14 140.001v186
c-36 0 -62 -5.66699 -78 -17s-33.333 -34.333 -52 -69l-116 -222c-26.667 -45.333 -55.667 -75 -87 -89s-69 -21 -113 -21c-45.333 -0 -77.333 -0.666992 -96 -2c-4 0 -9 -0.333008 -15 -1s-10.333 -1 -13 -1c-6.66699 13.333 -10 22 -10 26z" />
    <glyph glyph-name="afii10073" unicode="&#x437;" horiz-adv-x="776" 
d="M54 150c0 21.333 8.66699 40 26 56s35.333 24 54 24c36 0 60 -22 72 -66c5.33301 -21.333 12 -38.333 20 -51s15.667 -21 23 -25s17 -8.66699 29 -14c21.333 -10.667 47.333 -16 78 -16c45.333 0 85.333 14 120 42s52 76.667 52 146c0 122.667 -74.667 184 -224 184h-38
c-6.66699 6.66699 -10 16 -10 28c0 20 6.66699 33.333 20 40c6.66699 -1.33301 18.667 -2 36 -2c57.333 0 103 14 137 42s51 65.333 51 112s-12.333 83.334 -37 110.001s-52.334 40 -83.001 40c-97.333 0 -161.333 -58.667 -192 -176
c-10.667 -10.667 -23.334 -16 -38.001 -16c-29.333 0 -44 8.66699 -44 26l20 190c18.667 4 45 11.333 79 22s63.333 18 88 22s55 6 91 6c84 0 150.667 -19.333 200 -58s74 -88.667 74 -150c0 -36 -9.33301 -67.333 -28 -94s-38.667 -46.334 -60 -59.001
s-48.666 -26.334 -81.999 -41.001c141.333 -29.333 212 -102.666 212 -219.999c0 -84 -35.667 -149.333 -107 -196s-152.333 -70 -243 -70c-78.667 0 -141.667 16 -189 48s-81.666 66 -102.999 102c-2.66699 4 -4 8.66699 -4 14z" />
    <glyph glyph-name="afii10074" unicode="&#x438;" horiz-adv-x="1120" 
d="M68 25c0 16.667 2.66406 25 7.99707 25c17.333 0 41.666 4.33301 72.999 13s48.333 17.667 51 27c9.33301 38.667 14 85.334 14 140.001v390c0 54.667 -4.66699 101.334 -14 140.001c-2.66699 9.33301 -19.667 18.333 -51 27s-55.666 13 -72.999 13
c-5.33301 0 -8 8.33301 -8 25s2.66699 27.667 8 33c136 -6.66699 209.333 -10 220 -10c8 0 78.667 3.33301 212 10c2.66699 -6.66699 3.33398 -18 2.00098 -34s-4 -24 -8 -24c-13.333 0 -35.666 -4.33301 -66.999 -13s-48.333 -17.667 -51 -27
c-10.667 -41.333 -16 -100.666 -16 -177.999v-344c0 -13.333 -0.666992 -24 -2 -32l362 576c6.66699 9.33301 10 26.666 10 51.999c0 5.33301 4 12 12 20c20 0 35.333 -0.666992 46 -2c29.333 -2.66699 56 -4 80 -4c30.667 0 61.334 1.33301 92.001 4s56 4.66699 76 6
c5.33301 -5.33301 8 -16.333 8 -33s-2.66699 -25 -8 -25c-17.333 0 -41.666 -4.33301 -72.999 -13s-48.333 -17.667 -51 -27c-9.33301 -38.667 -14 -85.334 -14 -140.001v-388c0 -54.667 4.66699 -101.334 14 -140.001c2.66699 -9.33301 19.667 -18.333 51 -27
s55.666 -13 72.999 -13c5.33301 0 8 -8.33301 8 -25s-2.66699 -27.667 -8 -33c-136 6.66699 -210 10 -222 10c-8 0 -78.667 -3.33301 -212 -10c-2.66699 6.66699 -3.33398 18 -2.00098 34s4 24 8 24c13.333 0 36.333 4.33301 69 13s50.334 17.667 53.001 27
c13.333 52 18 111.333 14 178v358c0 13.333 -0.666992 24 -2 32l-364 -592c-6.66699 -10.667 -10 -28 -10 -52c0 -5.33301 -4 -12 -12 -20c-20 0 -35.333 0.666992 -46 2c-29.333 2.66699 -51.333 4 -66 4c-30.667 0 -63 -1.33301 -97 -4s-60.333 -4.66699 -79 -6
c-5.33301 5.33301 -8 16.333 -8 33z" />
    <glyph glyph-name="afii10075" unicode="&#x439;" horiz-adv-x="1120" 
d="M68 25c0 16.667 2.66406 25 7.99707 25c17.333 0 41.666 4.33301 72.999 13s48.333 17.667 51 27c9.33301 38.667 14 85.334 14 140.001v390c0 54.667 -4.66699 101.334 -14 140.001c-2.66699 9.33301 -19.667 18.333 -51 27s-55.666 13 -72.999 13
c-5.33301 0 -8 8.33301 -8 25s2.66699 27.667 8 33c136 -6.66699 209.333 -10 220 -10c8 0 78.667 3.33301 212 10c2.66699 -6.66699 3.33398 -18 2.00098 -34s-4 -24 -8 -24c-13.333 0 -35.666 -4.33301 -66.999 -13s-48.333 -17.667 -51 -27
c-10.667 -41.333 -16 -100.666 -16 -177.999v-344c0 -13.333 -0.666992 -24 -2 -32l362 576c6.66699 9.33301 10 26.666 10 51.999c0 5.33301 4 12 12 20c20 0 35.333 -0.666992 46 -2c29.333 -2.66699 56 -4 80 -4c30.667 0 61.334 1.33301 92.001 4s56 4.66699 76 6
c5.33301 -5.33301 8 -16.333 8 -33s-2.66699 -25 -8 -25c-17.333 0 -41.666 -4.33301 -72.999 -13s-48.333 -17.667 -51 -27c-9.33301 -38.667 -14 -85.334 -14 -140.001v-388c0 -54.667 4.66699 -101.334 14 -140.001c2.66699 -9.33301 19.667 -18.333 51 -27
s55.666 -13 72.999 -13c5.33301 0 8 -8.33301 8 -25s-2.66699 -27.667 -8 -33c-136 6.66699 -210 10 -222 10c-8 0 -78.667 -3.33301 -212 -10c-2.66699 6.66699 -3.33398 18 -2.00098 34s4 24 8 24c13.333 0 36.333 4.33301 69 13s50.334 17.667 53.001 27
c13.333 52 18 111.333 14 178v358c0 13.333 -0.666992 24 -2 32l-364 -592c-6.66699 -10.667 -10 -28 -10 -52c0 -5.33301 -4 -12 -12 -20c-20 0 -35.333 0.666992 -46 2c-29.333 2.66699 -51.333 4 -66 4c-30.667 0 -63 -1.33301 -97 -4s-60.333 -4.66699 -79 -6
c-5.33301 5.33301 -8 16.333 -8 33zM349.997 1186c0 25.333 7.33496 47.333 22.002 66s32.667 28 54 28c25.333 0 43.333 -9.33301 54 -28s13.334 -38.667 8.00098 -60c-2.66699 -6.66699 -5.33398 -19.334 -8.00098 -38.001s4.66602 -34.334 21.999 -47.001
s44.666 -19 81.999 -19h2c36 0 62.667 7 80 21s24 29.667 20 47c0 4 -2 16 -6 36c-6.66699 21.333 -4 41.333 8 60s30 28 54 28c22.667 0 41.334 -9 56.001 -27s22 -40.333 22 -67c0 -49.333 -21.667 -89.666 -65 -120.999s-100.333 -47 -171 -47
c-74.667 0 -132.334 15.333 -173.001 46s-61 71.334 -61 122.001z" />
    <glyph glyph-name="afii10076" unicode="&#x43a;" horiz-adv-x="1000" 
d="M70 27c0 16.667 2.67188 24.9961 8.00488 24.9961c17.333 0 41.666 4.33301 72.999 13s48.333 17.667 51 27c9.33301 38.667 14 85.334 14 140.001v388c0 54.667 -4.66699 101.334 -14 140.001c-2.66699 9.33301 -19.667 18.333 -51 27s-55.666 13 -72.999 13
c-5.33301 0 -8 8.33301 -8 25s2.66699 27.667 8 33c137.333 -6.66699 210.666 -10 219.999 -10c8 0 78.667 3.33301 212 10c2.66699 -6.66699 3.33398 -18 2.00098 -34s-4 -24 -8 -24c-13.333 0 -35.666 -4.33301 -66.999 -13s-48.333 -17.667 -51 -27
c-10.667 -41.333 -16 -100.666 -16 -177.999v-102c54.667 2.66699 100.667 21.334 138 56.001c18.667 21.333 52.667 69.333 102 144l30 46c65.333 92 127.333 138 186 138c28 0 50 -6 66 -18s24 -28 24 -48c0 -40 -24 -60 -72 -60h-30c-21.333 0 -42 -7 -62 -21
s-35.333 -27.333 -46 -40s-27.334 -34.334 -50.001 -65.001c-38.667 -57.333 -77.334 -100 -116.001 -128v-6c53.333 -20 96.666 -52.667 129.999 -98c5.33301 -6.66699 24 -36 56 -88l58 -94c29.333 -50.667 54.666 -86.667 75.999 -108
c33.333 -25.333 66.666 -38 99.999 -38c6.66699 0 10 -10 10 -30c0 -4 -3.33301 -12.667 -10 -26c-2.66699 0 -7 0.333008 -13 1s-11 1 -15 1c-18.667 1.33301 -50.667 2 -96 2c-44 0 -81.667 7 -113 21s-60.333 43.667 -87 89l-116 222c-17.333 32 -37 54.333 -59 67
s-52.333 19 -91 19v-148c0 -77.333 5.33301 -136.666 16 -177.999c2.66699 -9.33301 19.667 -18.333 51 -27s53.666 -13 66.999 -13c4 0 6.66699 -8 8 -24s0.666016 -27.333 -2.00098 -34c-133.333 6.66699 -204 10 -212 10c-9.33301 0 -82.666 -3.33301 -219.999 -10
c-5.33301 5.33301 -8 16.333 -8 33z" />
    <glyph glyph-name="afii10077" unicode="&#x43b;" horiz-adv-x="960" 
d="M34 -2l-0.00292969 31.9971c57.333 34.667 104 82 140 142c78.667 137.333 118 322.666 118 555.999c0 14.667 -2 25.334 -6 32.001c-5.33301 10.667 -23 20 -53 28s-52.333 12 -67 12c-4 0 -6.66699 8 -8 24s-0.666016 27.333 2.00098 34
c166.667 -6.66699 280.667 -10 342 -10c94.667 0 225.334 3.33301 392.001 10c2.66699 -6.66699 3.33398 -18 2.00098 -34s-4 -24 -8 -24c-13.333 0 -36 -4.33301 -68 -13s-49.333 -17.667 -52 -27c-10.667 -41.333 -16 -100.666 -16 -177.999v-312
c0 -77.333 5.33301 -136.666 16 -177.999c2.66699 -9.33301 20 -18.333 52 -27s54.667 -13 68 -13c4 0 6.66699 -8 8 -24s0.666016 -27.333 -2.00098 -34c-133.333 6.66699 -204.666 10 -213.999 10c-8 0 -80.667 -3.33301 -218 -10c-5.33301 5.33301 -8 16.333 -8 33
s2.66699 25 8 25c16 0 39.667 4.33301 71 13s48.333 17.667 51 27c9.33301 38.667 14 85.334 14 140.001v508c0 12 -2 19.667 -6 23s-14 5 -30 5h-130c-16 0 -26 -1.66699 -30 -5s-6 -11 -6 -23c0 -349.333 -44 -580 -132 -692c-36 -45.333 -72.667 -68 -110 -68
c-56 0 -96 6 -120 18z" />
    <glyph glyph-name="afii10078" unicode="&#x43c;" horiz-adv-x="1320" 
d="M52 27c0 16.667 2.66992 25.002 8.00293 25.002c17.333 0 41.666 4.33301 72.999 13s48.333 17.667 51 27c10.667 40 18 86.667 22 140l28 498c1.33301 12 -2 28.667 -10 50c-5.33301 13.333 -40.666 20 -105.999 20c-6.66699 0 -10 10 -10 30
c0 13.333 2.66699 22.666 8 27.999c4 0 10.333 -0.333008 19 -1s15 -1 19 -1c56 -5.33301 96.667 -8 122 -8c36 0 76 2 120 6c1.33301 0 5 0.333008 11 1s10.333 1 13 1c8 -25.333 40.667 -100.666 98 -225.999l166 -374c82.667 200 146 359.333 190 478l38 122
c32 -5.33301 73.333 -8 124 -8c17.333 0 38.666 1.33301 63.999 4s41.333 4 48 4c2.66699 0 8 0.333008 16 1s14 1 18 1c5.33301 -16 8 -25.333 8 -28c0 -20 -2.66699 -30 -8 -30c-37.333 0 -69.333 -10 -96 -30c-6.66699 -2.66699 -9.33398 -16 -8.00098 -40l14 -230
l10 -150l8 -118c4 -53.333 11.333 -100 22 -140c2.66699 -9.33301 19.667 -18.333 51 -27s55.666 -13 72.999 -13c5.33301 0 8 -8.33301 8 -25s-2.66699 -27.667 -8 -33c-136 6.66699 -211.333 10 -226 10c-4 0 -72.667 -3.33301 -206 -10
c-2.66699 6.66699 -3.33398 18 -2.00098 34s4 24 8 24c13.333 0 36.333 4.33301 69 13s50.334 17.667 53.001 27c6.66699 26.667 8.66699 86 6 178l-22 402l-260 -636c-2.66699 -8 -9 -16.667 -19 -26s-20.333 -14 -31 -14c-5.33301 0 -10.666 1.33301 -15.999 4l-298 676
c-2.66699 -48 -7.33398 -119 -14.001 -213s-10.667 -158.333 -12 -193c-5.33301 -84 -3.33301 -143.333 6 -178c2.66699 -9.33301 20.334 -18.333 53.001 -27s55.667 -13 69 -13c4 0 6.66699 -8 8 -24s0.666016 -27.333 -2.00098 -34
c-20 1.33301 -41.333 2.66602 -64 3.99902s-43 2.66602 -61 3.99902s-38.333 2 -61 2c-30.667 0 -62.667 -1.33301 -96 -4s-59.333 -4.66699 -78 -6c-5.33301 5.33301 -8 16.333 -8 33z" />
    <glyph glyph-name="afii10079" unicode="&#x43d;" horiz-adv-x="1122" 
d="M66 27c0 16.667 2.66699 25 8 25c17.333 0 41.666 4.33301 72.999 13s48.333 17.667 51 27c9.33301 38.667 14 85.334 14 140.001v388c0 54.667 -4.66699 101.334 -14 140.001c-2.66699 9.33301 -19.667 18.333 -51 27s-55.666 13 -72.999 13
c-5.33301 0 -8 8.33301 -8 25s2.66699 27.667 8 33c137.333 -6.66699 210.666 -10 219.999 -10c8 0 78.667 3.33301 212 10c2.66699 -6.66699 3.33398 -18 2.00098 -34s-4 -24 -8 -24c-13.333 0 -35.666 -4.33301 -66.999 -13s-48.333 -17.667 -51 -27
c-10.667 -41.333 -16 -100.666 -16 -177.999v-90c0 -5.33301 2 -8 6 -8c77.333 -2.66699 139.333 -4 186 -4s108.667 1.33301 186 4c4 0 6 2.66699 6 8v90c0 77.333 -5.33301 136.666 -16 177.999c-2.66699 9.33301 -19.667 18.333 -51 27s-53.666 13 -66.999 13
c-4 0 -6.66699 8 -8 24s-0.666016 27.333 2.00098 34c133.333 -6.66699 204 -10 212 -10c9.33301 0 82.666 3.33301 219.999 10c5.33301 -5.33301 8 -16.333 8 -33s-2.66699 -25 -8 -25c-17.333 0 -41.666 -4.33301 -72.999 -13s-48.333 -17.667 -51 -27
c-9.33301 -38.667 -14 -85.334 -14 -140.001v-388c0 -54.667 4.66699 -101.334 14 -140.001c2.66699 -9.33301 19.667 -18.333 51 -27s55.666 -13 72.999 -13c5.33301 0 8 -8.33301 8 -25s-2.66699 -27.667 -8 -33c-137.333 6.66699 -211.333 10 -222 10
c-8 0 -78.667 -3.33301 -212 -10c-2.66699 6.66699 -3.33398 18 -2.00098 34s4 24 8 24c13.333 0 36.333 4.33301 69 13s50.334 17.667 53.001 27c13.333 49.333 18.666 108.666 15.999 177.999l-2 118c0 5.33301 -2 8 -6 8c-77.333 2.66699 -139.333 4 -186 4
c-116 0 -178 -0.666992 -186 -2c-4 0 -6 -2.66699 -6 -8v-120c0 -77.333 5.33301 -136.666 16 -177.999c2.66699 -9.33301 19.667 -18.333 51 -27s53.666 -13 66.999 -13c4 0 6.66699 -8 8 -24s0.666016 -27.333 -2.00098 -34c-133.333 6.66699 -204 10 -212 10
c-9.33301 0 -82.666 -3.33301 -219.999 -10c-5.33301 5.33301 -8 16.333 -8 33z" />
    <glyph glyph-name="afii10080" unicode="&#x43e;" horiz-adv-x="1020" 
d="M74 432c0 124 41.3311 228.667 123.998 314s186 128 310 128c120 0 222.667 -43.333 308 -130s128 -190.667 128 -312c0 -122.667 -41.667 -227.667 -125 -315s-185.666 -131 -306.999 -131s-224.666 43.667 -309.999 131s-128 192.333 -128 315zM245.998 462
c0 -109.333 28.334 -203 85.001 -281s123 -117 199 -117c70.667 0 128.667 33.333 174 100s68 146.667 68 240c0 108 -28.667 200.333 -86 277s-124 115 -200 115c-70.667 0 -128.334 -32.333 -173.001 -97s-67 -143.667 -67 -237z" />
    <glyph glyph-name="afii10081" unicode="&#x43f;" horiz-adv-x="1064" 
d="M64 24c0 18.667 3.33398 28.0039 10.001 28.0039c13.333 0 33 3.66699 59 11s41 15 45 23c6.66699 12 10 40.667 10 86v492c0 49.333 -3.33301 82.666 -10 99.999c-2.66699 9.33301 -17.667 17.666 -45 24.999s-47 11 -59 11c-6.66699 0 -10 9.33301 -10 28l10 30
c241.333 -6.66699 394.666 -10 459.999 -10c265.333 0 418.666 3.33301 459.999 10c5.33301 -16 8 -26 8 -30c0 -18.667 -2.66699 -28 -8 -28c-12 0 -31.333 -3.66699 -58 -11s-42 -15.666 -46 -24.999c-6.66699 -17.333 -10 -50.666 -10 -99.999v-492
c0 -42.667 3.33301 -71.334 10 -86.001c4 -8 18.667 -15.667 44 -23s45.333 -11 60 -11c5.33301 0 8 -9.33301 8 -28c0 -14.667 -2.66699 -24.667 -8 -30c-6.66699 1.33301 -16 2.66602 -28 3.99902s-34.667 3.33301 -68 6s-64.666 3.33398 -93.999 2.00098h-54h-54
c-17.333 0 -32.666 -0.333008 -45.999 -1s-24 -1.33398 -32 -2.00098s-12 -1.66699 -12 -3c-2.66699 5.33301 -4 13.333 -4 24c0 18.667 3.33301 28 10 28c12 0 31.333 4 58 12s42.667 16 48 24v-2c5.33301 10.667 8 38.667 8 84v580c0 5.33301 -2 8 -6 8
c-77.333 2.66699 -139.333 4 -186 4c-116 0 -178 -0.666992 -186 -2c-4 0 -6 -2.66699 -6 -8v-580c0 -42.667 3.33301 -71.334 10 -86.001c4 -8 19.667 -15.667 47 -23s47.666 -11 60.999 -11c2.66699 -10.667 4 -20 4 -28c0 -9.33301 -1.33301 -19.333 -4 -30
c-6.66699 1.33301 -16.334 2.66602 -29.001 3.99902s-36.334 3 -71.001 5s-66.667 3 -96 3c-29.333 1.33301 -59.666 1 -90.999 -1s-55.666 -4.33301 -72.999 -7l-26 -4c-6.66699 6.66699 -10 16.667 -10 30z" />
    <glyph glyph-name="afii10082" unicode="&#x440;" horiz-adv-x="1022" 
d="M34 -418c0 17.333 2.66309 26.001 7.99609 26.001c17.333 0 41.333 4 72 12s47.334 16.667 50.001 26c9.33301 40 14 87.333 14 142v824c0 52 -9.33301 88 -28 108c-13.333 16 -29.666 27 -48.999 33s-35.333 9 -48 9s-19 1.33301 -19 4c0 30.667 4 46.667 12 48
c132 20 224 38 276 54c1.33301 0 3.33301 0.333008 6 1l4 1c4 0 6 -4 6 -12s-0.666992 -17.333 -2 -28s-2 -16.667 -2 -18v-10c20 13.333 51.333 28.333 94 45s79.334 25 110.001 25c128 0 228 -43 300 -129s108 -177.667 108 -275c0 -128 -44.667 -240.667 -134 -338
s-190.666 -146 -303.999 -146c-54.667 0 -110.667 12.667 -168 38c-5.33301 -6.66699 -8 -15.334 -8 -26.001v-172c0 -76 5.33301 -135.333 16 -178c2.66699 -9.33301 20 -18 52 -26s54.667 -12 68 -12c4 0 6.66699 -8.66699 8 -26s0.666016 -28.666 -2.00098 -33.999
c-133.333 6.66699 -204.666 10 -213.999 10c-8 0 -80.667 -3.33301 -218 -10c-5.33301 5.33301 -8 16.666 -8 33.999zM331.996 196.001c0 -36 19.332 -66.333 57.999 -91s80.667 -37 126 -37c78.667 0 141.334 35.333 188.001 106s70 150 70 238c0 112 -30 200.333 -90 265
s-130 97 -210 97c-41.333 0 -75.333 -11.333 -102 -34s-40 -54.667 -40 -96v-448z" />
    <glyph glyph-name="afii10083" unicode="&#x441;" horiz-adv-x="810" 
d="M74 418c0 122.667 33.333 229.003 100 319.003s162.667 135 288 135c146.667 0 248 -34 304 -102c0 -89.333 -24.667 -134 -74 -134c-22.667 0 -40 5 -52 15s-27.333 28.333 -46 55c-41.333 61.333 -90.666 92 -147.999 92c-54.667 0 -104.334 -26 -149.001 -78
s-67 -129.333 -67 -232c0 -106.667 26.333 -195.334 79 -266.001s125.667 -106 219 -106c28 0 54.667 2.66699 80 8s47 11.666 65 18.999s33.333 14.666 46 21.999s23.667 14.333 33 21l14 10c8 0 12 -8.66699 12 -26c0 -10.667 -4 -22.667 -12 -36
c-26.667 -37.333 -66 -71 -118 -101s-108.667 -45 -170 -45c-110.667 0 -205.667 41.667 -285 125s-119 185 -119 305z" />
    <glyph glyph-name="afii10084" unicode="&#x442;" horiz-adv-x="964" 
d="M44 616c0 5.33301 4.66309 36.667 13.9961 94s15.333 106.666 18 147.999c78.667 -6.66699 142 -10 190 -10h424l184 10c2.66699 -41.333 9.66699 -91 21 -149s17 -89 17 -93s-7.33301 -6 -22 -6c-28 0 -44 4 -48 12c-1.33301 4 -4.66602 16.333 -9.99902 37
s-11 38 -17 52s-18.667 27.667 -38 41s-43.666 20 -72.999 20c-89.333 0 -135.333 -6 -138 -18c-8 -22.667 -12 -63.334 -12 -122.001v-362c0 -77.333 5.33301 -136.666 16 -177.999c2.66699 -9.33301 20 -18.333 52 -27s54.667 -13 68 -13c4 0 6.66699 -8 8 -24
s0.666016 -27.333 -2.00098 -34c-133.333 6.66699 -204.666 10 -213.999 10s-82 -3.33301 -218 -10c-5.33301 5.33301 -8 16.333 -8 33s2.66699 25 8 25c16 0 39.667 4.33301 71 13s48.333 17.667 51 27c9.33301 38.667 14 85.334 14 140.001v396
c0 70.667 -4.66699 112 -14 124c-8 13.333 -52.667 20 -134 20c-29.333 0 -53.666 -6.66699 -72.999 -20s-32 -27 -38 -41s-11.667 -31.333 -17 -52s-8.66602 -33 -9.99902 -37c-4 -8 -20 -12 -48 -12c-14.667 0 -22 2 -22 6z" />
    <glyph glyph-name="afii10085" unicode="&#x443;" horiz-adv-x="922" 
d="M-6 826c0 16 2.66992 26.6719 8.00293 32.0049c137.333 -6.66699 209.333 -10 216 -10c22.667 0 43.667 0.666992 63 2s41.333 2.66602 66 3.99902s46.334 2.66602 65.001 3.99902c2.66699 -8 4 -18 4 -30c0 -18.667 -2.66699 -28 -8 -28
c-10.667 0 -28.334 -4.66699 -53.001 -14s-38.334 -18.666 -41.001 -27.999v-4c0 -20 71.333 -190.667 214 -512l152 428c9.33301 28 14 48 14 60c0 21.333 -10.333 38.333 -31 51s-48.334 19 -83.001 19c-5.33301 0 -8 8.66699 -8 26c0 16 2.66699 26.667 8 32l79 -6
c35.333 -2.66699 68.333 -4 99 -4c29.333 0 61.333 1.33301 96 4l78 6c2.66699 -8 4 -18 4 -30c0 -18.667 -2.66699 -28 -8 -28c-17.333 0 -41 -6.33301 -71 -19s-50.333 -32.334 -61 -59.001l-356 -954c-32 -82.667 -67 -140.334 -105 -173.001s-73 -49 -105 -49
c-28 0 -48.667 8.66699 -62 26s-20 34.666 -20 51.999c0 29.333 9.33301 50.666 28 63.999c110.667 0 184 57.333 220 172l24 72c9.33301 28 16.666 50.667 21.999 68l-286 690c-13.333 33.333 -26.666 56 -39.999 68c-12 12 -30.333 22 -55 30s-44.334 12 -59.001 12
c-5.33301 0 -8 8.66699 -8 26z" />
    <glyph glyph-name="afii10086" unicode="&#x444;" horiz-adv-x="1266" 
d="M74 430c0 128 34.001 233.998 102.001 317.998s154 126 258 126c50.667 0 93.334 -14.667 128.001 -44v268c0 45.333 -4 88 -12 128c-6.66699 20 -40.667 30 -102 30h-20c-8 0 -12 8 -12 24c0 21.333 4 32 12 32c41.333 4 79 9 113 15s60.667 12.333 80 19
s35.666 13.334 48.999 20.001s23.333 12 30 16l8 6h4c13.333 0 22 -11.333 26 -34c-14.667 -41.333 -22 -98.666 -22 -171.999v-356c53.333 32 105.333 48 156 48c88 0 163.667 -40 227 -120s95 -178.667 95 -296c0 -137.333 -35 -250.333 -105 -339s-151 -133 -243 -133
c-38.667 0 -81.334 12.667 -128.001 38v-200c0 -76 5.33301 -135.333 16 -178c2.66699 -9.33301 20 -18 52 -26s54.667 -12 68 -12c4 0 6.66699 -8.66699 8 -26s0.666016 -28.666 -2.00098 -33.999c-133.333 6.66699 -204.666 10 -213.999 10s-82 -3.33301 -218 -10
c-5.33301 5.33301 -8 16.666 -8 33.999s2.66699 26 8 26c17.333 0 41.333 4 72 12s47.334 16.667 50.001 26c9.33301 40 14 87.333 14 142v240c-44 -28 -93.333 -42 -148 -42c-94.667 0 -175.334 42 -242.001 126s-100 190 -100 318zM246.001 459.998
c0 -138.667 21.667 -240 65 -304s89 -96 137 -96c49.333 0 88 20.667 116 62v610c-32 45.333 -72.667 68 -122 68c-60 0 -107.667 -32.333 -143 -97s-53 -145.667 -53 -243zM716.001 121.998c33.333 -41.333 73.999 -62.001 121.999 -62.001
c17.333 0 35.666 5.33301 54.999 16s39.333 28.334 60 53.001s37.334 62.334 50.001 113.001s19 110.667 19 180c0 113.333 -15.667 204.666 -47 273.999s-79.666 104 -144.999 104c-34.667 0 -72.667 -22 -114 -66v-612z" />
    <glyph glyph-name="afii10087" unicode="&#x445;" horiz-adv-x="932" 
d="M8 22c0 20 2.66602 30.001 7.99902 30.001c89.333 14.667 149.333 42.667 180 84l208 276c0 1.33301 0.333008 3.33301 1 6s1 4.66699 1 6c0 2.66699 -1.33301 6.66699 -4 12l-206 292c-13.333 17.333 -38.333 33.666 -75 48.999s-66.334 23 -89.001 23l-6 30
c2.66699 13.333 5.33398 22.666 8.00098 27.999c129.333 -6.66699 196 -10 200 -10c2.66699 0 72.667 3.33301 210 10c1.33301 -5.33301 2 -13.333 2 -24c0 -22.667 -2 -34 -6 -34c-53.333 0 -80 -11.333 -80 -34c0 -5.33301 3.33301 -13.333 10 -24l130 -202l42 63l45 66
c11.333 16.667 21.666 34.334 30.999 53.001s14 32.667 14 42c0 10.667 -7.66699 18.667 -23 24s-32.666 8.33301 -51.999 9s-30.333 1.66699 -33 3c-5.33301 0 -8 10.667 -8 32c0 12 2.66699 20.667 8 26c133.333 -6.66699 203.333 -10 210 -10
c1.33301 0 62 3.33301 182 10c2.66699 -13.333 4 -22.666 4 -27.999c0 -20 -2 -30 -6 -30c-36 -4 -70.667 -12.667 -104 -26s-56.666 -28 -69.999 -44l-192 -240c-2.66699 -4 -4 -9.33301 -4 -16c0 -5.33301 2 -12 6 -20l212 -314
c37.333 -53.333 93.333 -82.666 168 -87.999c4 0 6 -9.33301 6 -28c0 -12 -2 -22 -6 -30c-17.333 1.33301 -38 2.66602 -62 3.99902s-45.667 2.66602 -65 3.99902s-39.666 2 -60.999 2c-8 0 -82 -3.33301 -222 -10c-4 9.33301 -6 18 -6 26c0 21.333 2.66699 32 8 32
c54.667 4 82 16 82 36c0 2.66699 -1.33301 6.66699 -4 12l-150 238l-138 -204c-9.33301 -14.667 -14 -27.334 -14 -38.001c0 -24 33.333 -38.667 100 -44h10c4 0 6 -10 6 -30c0 -13.333 -2.66699 -22.666 -8 -27.999c-129.333 6.66699 -196 10 -200 10
c-2.66699 0 -67.334 -3.33301 -194.001 -10c-2.66699 10.667 -4 20 -4 28z" />
    <glyph glyph-name="afii10088" unicode="&#x446;" horiz-adv-x="1062" 
d="M60 24c0 18.667 3.33496 27.999 10.002 27.999c12 0 31.667 3.66699 59 11s42.333 15.666 45 24.999c6.66699 17.333 10 50.666 10 99.999v492c0 45.333 -3.33301 74 -10 86c-4 8 -19 15.667 -45 23s-45.667 11 -59 11c-6.66699 0 -10 9.33301 -10 28
c0 13.333 3.33301 23.333 10 30c6.66699 -1.33301 16 -2.66602 28 -3.99902s34.667 -3 68 -5s64.666 -2.33301 93.999 -1c29.333 0 60.333 0.666992 93 2s57.667 3.33301 75 6l28 2c2.66699 -10.667 4 -20.667 4 -30l-4 -28c-13.333 0 -33.666 -3.66699 -60.999 -11
s-43 -15 -47 -23c-6.66699 -14.667 -10 -43.334 -10 -86.001v-580c0 -5.33301 2 -8 6 -8c8 -1.33301 70 -2 186 -2c46.667 0 108.667 1.33301 186 4c4 0 6 2.66699 6 8v578c0 42.667 -3.33301 71.334 -10 86.001c-4 8 -19.667 15.667 -47 23s-47.666 11 -60.999 11
c-2.66699 10.667 -4 20 -4 28c0 9.33301 1.33301 19.333 4 30c6.66699 -1.33301 16.334 -2.66602 29.001 -3.99902s36.334 -2.66602 71.001 -3.99902s66.667 -2 96 -2c29.333 -1.33301 59.666 -1 90.999 1s55.666 4.33301 72.999 7l26 2c6.66699 -6.66699 10 -16.667 10 -30
c0 -18.667 -3.33301 -28 -10 -28c-13.333 0 -33 -3.66699 -59 -11s-41 -15 -45 -23c-6.66699 -12 -10 -40.667 -10 -86v-504c0 -61.333 2 -94 6 -98c4 -8 27.333 -12 70 -12h28c12 -6.66699 18 -12.667 18 -18v-10c-26.667 -106.667 -39.334 -206.667 -38.001 -300
c-10.667 -13.333 -27.334 -20 -50.001 -20c-5.33301 0 -12 2.66699 -20 8s-12.667 11.333 -14 18c1.33301 10.667 2 28 2 52c0 61.333 -6 116 -18 164c-12 29.333 -34 44 -66 44c-6.66699 0 -23.334 0.333008 -50.001 1s-50 1 -70 1c-36 1.33301 -84 2 -144 2
s-106.667 -0.666992 -140 -2c-17.333 0 -40 -0.333008 -68 -1s-46.667 -1 -56 -1l-196 -10c0 1.33301 -1 4.33301 -3 9s-3.66699 9 -5 13s-2 6.66699 -2 8z" />
    <glyph glyph-name="afii10089" unicode="&#x447;" horiz-adv-x="1042" 
d="M32 825c0 16.667 2.66406 27.6689 7.99707 33.002c137.333 -6.66699 210.666 -10 219.999 -10c8 0 78.667 3.33301 212 10c2.66699 -6.66699 3.33398 -18 2.00098 -34s-4 -24 -8 -24c-13.333 0 -35.666 -4.33301 -66.999 -13s-48.333 -17.667 -51 -27
c-10.667 -41.333 -16 -100.666 -16 -177.999v-20c0 -54.667 17 -95.334 51 -122.001s78.333 -40 133 -40c53.333 0 106 7.33301 158 22v160c0 77.333 -5.33301 136.666 -16 177.999c-2.66699 9.33301 -19.667 18.333 -51 27s-53.666 13 -66.999 13c-4 0 -6.66699 8 -8 24
s-0.666016 27.333 2.00098 34c133.333 -6.66699 204 -10 212 -10c9.33301 0 82.666 3.33301 219.999 10c5.33301 -5.33301 8 -16.333 8 -33s-2.66699 -25 -8 -25c-17.333 0 -41.666 -4.33301 -72.999 -13s-48.333 -17.667 -51 -27
c-9.33301 -38.667 -14 -85.334 -14 -140.001v-388c0 -54.667 4.66699 -101.334 14 -140.001c2.66699 -9.33301 19.667 -18.333 51 -27s55.666 -13 72.999 -13c5.33301 0 8 -8.33301 8 -25s-2.66699 -27.667 -8 -33c-137.333 6.66699 -211.333 10 -222 10
c-8 0 -78.667 -3.33301 -212 -10c-2.66699 6.66699 -3.33398 18 -2.00098 34s4 24 8 24c13.333 0 36.333 4.33301 69 13s50.334 17.667 53.001 27c10.667 41.333 16 100.666 16 177.999v76c-64 -20 -130 -30 -198 -30c-80 0 -150 16.333 -210 49s-90 82.334 -90 149.001v106
c0 54.667 -4.66699 101.334 -14 140.001c-2.66699 9.33301 -19.667 18.333 -51 27s-55.666 13 -72.999 13c-5.33301 0 -8 8.33301 -8 25z" />
    </font>
</defs>
</svg>
